<?xml version="1.0" encoding="UTF-8"?>
<svg id="Capa_2" data-name="Capa 2" xmlns="http://www.w3.org/2000/svg" viewBox="0 0 361.59 60.25">
  <defs>
    <style>
      .cls-1 {
        fill: #fff;
        stroke-width: 0px;
      }
    </style>
  </defs>
  <g id="Capa_1-2" data-name="Capa 1">
    <g>
      <path class="cls-1" d="M58.02,56.62c1.18-.34,2.28-.66,3.29-.95,1.79-.51,2.69-1.71,2.69-3.58V8.58c.01-3.92-5.55-4.49-8.31-5-.29-.05-.44-.23-.44-.53V.46c0-.25.21-.46.46-.46,10.92,0,22.1,0,33.54.02,7.32,0,19.93,1.14,21.73,10.43,2.01,10.37-6.02,14.98-14.52,16.82-1.46.31-1.46.63,0,.94,3.84.82,7.6,1.64,11.07,3.7,5.75,3.41,8.04,8.95,6.66,15.78-2.3,11.32-17.1,12.56-26.28,12.56-29.11,0-58.15,0-87.12,0-.53,0-.79-.26-.78-.79v-1.91c0-.61.31-.92.91-.95,4.67-.2,7.79-.54,7.81-6.15.03-13.81,0-27.63-.09-41.45-.01-2.15-1.04-3.55-3.09-4.2-1.9-.61-3.7-1-5.39-1.19-.09-.01-.14-.06-.14-.15l-.02-3.21c0-.17.08-.25.25-.25h32.25c.28,0,.5.22.5.5v2.68c-.02.32-.18.48-.49.49-3.02.07-8.47.32-8.48,4.49-.05,13.52-.05,27.82,0,42.91.01,2.81,1.91,4.63,4.58,4.9,4.03.4,8.21.33,12.56-.21,2.18-.27,3.89-1.21,5.13-2.8,2.57-3.31,4.83-7.2,6.77-11.69.15-.34.41-.51.78-.52h2.21c.38,0,.56.19.53.56l-.83,13.5c-.1,1.67.65,2.28,2.26,1.81ZM79.24,4.19v21.72c0,.12.1.22.22.22h4.43c5.96,0,10.79-4.62,10.79-10.33h0v-1.5c0-5.71-4.83-10.33-10.79-10.33h-4.43c-.12,0-.22.1-.22.22h0ZM81.38,54.98c6.99,3.61,14.63-.62,15.95-8.29,1.16-6.79-1.01-13.28-8.23-15.37-3.02-.87-6.14-1.05-9.35-.56-.36.05-.54.26-.54.63.06,6.75.06,13.48.01,20.19-.01,1.42.92,2.75,2.16,3.4Z"/>
      <path class="cls-1" d="M325.25,12.61c4.26.81,6.15,3.41,5.68,7.82-.05.43.1.77.44,1.03.72.57,1.57.62,2.54.15.25-.12.46-.08.64.12.59.65,1.28.76,2.08.31.61-.35,1.07-.82,1.38-1.43,3.07-5.98,6.26-12.2,9.58-18.65.15-.31.4-.41.73-.32.39.11.68.36.86.74,3.09,6.4,6.17,12.89,9.25,19.46.13.26.33.39.62.4l2.07.05c.13,0,.24.08.28.2l.14.41c.13.4-.01.6-.43.6h-12.45c-.23,0-.36-.11-.38-.34l-.05-.44c-.02-.21.13-.4.35-.42.01,0,.02,0,.03,0l2.39-.07c.43-.01.55-.21.36-.6l-1.67-3.33c-.19-.37-.49-.55-.9-.55h-6.79c-.57,0-.98.25-1.21.78l-1.24,2.8c-.13.3,0,.65.3.78.07.03.14.05.21.05l2.59.14c.23.01.34.13.33.36l-.03.54c0,.15-.08.23-.23.24-2.47.14-4.96.12-7.49-.05-1.35-.09-2.67-.04-3.97.14-1.29.19-2.64.08-4.05-.33-3.81-1.09-3.89-4.24-4-7.46-.05-1.31-.98-2.42-2.26-2.69l-1.65-.34c-1.03-.22-1.55.2-1.55,1.25v7.79c-.01.33.16.5.5.5h2.5c.29.01.44.15.45.44l.02.34c.01.31-.14.47-.45.47h-12.52c-.23,0-.42-.18-.44-.42v-.25c-.02-.23.08-.38.31-.43.73-.18,1.49-.22,2.26-.11.3.04.58-.17.62-.48,0-.02,0-.04,0-.06V3.99c0-.34-.17-.51-.51-.51l-2.28.02c-.29,0-.44-.14-.43-.43l.02-.4c0-.25.13-.37.37-.37,6.48-.12,11.95-.09,16.42.08,1.69.07,3.35.5,4.97,1.3,3.25,1.61,3.72,5.09.47,6.9-1.41.79-3,1.32-4.77,1.6-.81.13-.81.28-.01.43ZM317.73,3.82l.02,7.38c0,.18.14.32.32.32h3.41c1.75-.02,3.17-1.4,3.16-3.1v-1.86c0-1.7-1.43-3.08-3.18-3.07,0,0,0,0,0,0h-3.41c-.18.01-.32.15-.32.33ZM342.23,15.76c-.08.15-.02.33.13.41.04.02.09.03.13.03l5.77.09c.17,0,.3-.12.31-.29,0-.05,0-.1-.03-.14l-2.8-5.79c-.07-.15-.25-.21-.4-.14-.06.03-.11.08-.14.14l-2.97,5.69Z"/>
      <path class="cls-1" d="M162.51,21.47l-1.62-3.27c-.15-.3-.4-.45-.73-.45h-6.93c-.56,0-.96.26-1.19.77l-1.22,2.7c-.3.66-.09,1,.64,1.01l2.29.04c.25,0,.45.19.46.44l.02.3c.01.33-.14.49-.46.49h-30.36c-.23,0-.35-.11-.36-.34l-.04-.65c0-.17.07-.25.23-.25l3.02-.02c.27,0,.49-.22.49-.5V4c0-.33-.16-.49-.49-.5l-2.99-.02c-.14,0-.21-.07-.22-.21l-.03-.77c-.01-.17.06-.25.23-.25h13.5c.28,0,.43.14.45.42l.02.36c.02.31-.13.46-.44.46l-3.04.02c-.33,0-.5.17-.5.5v17.52c0,.33.17.53.5.59,5.21.95,8.65-.82,10.31-5.29.13-.34.45-.57.81-.58h.47c.39,0,.57.18.55.57l-.31,5.2c-.01.28.12.43.4.44,1.55.08,2.81-.83,3.78-2.72,2.99-5.85,5.98-11.72,8.99-17.6.23-.44.77-.62,1.21-.39.17.09.31.23.4.41l9.31,19.53c.18.39.49.58.92.58h4.42c.28-.01.5-.24.5-.52h0V4.13c0-.42-.21-.63-.62-.63h-2.13c-.33-.01-.48-.17-.46-.5v-.29c.03-.24.23-.44.48-.44,4.57-.03,9.14-.03,13.73,0,3.99.04,8.52,1.73,10.48,5.31,1.66,3.03,1.89,5.95.68,8.76-2.41,5.64-7.55,7.27-13.45,7.22-8.09-.08-16.16-.1-24.21-.05-.31,0-.46-.15-.46-.45v-.3c0-.26.2-.47.46-.48,0,0,0,0,0,0l2.04-.04c.56-.01.72-.27.47-.77ZM182.21,3.88l.06,17.94c0,.23.19.42.42.42h3.13c2.72-.02,4.92-2.48,4.91-5.5l-.02-7.82c0-3.03-2.22-5.48-4.94-5.47,0,0,0,0,0,0h-3.13c-.23.01-.42.2-.42.43ZM153.57,15.79c-.08.15-.02.33.13.41.04.02.09.03.13.03l5.67.06c.17,0,.3-.13.3-.3,0-.04-.01-.09-.03-.13l-2.77-5.93c-.07-.15-.25-.21-.4-.14-.06.03-.11.08-.14.14l-2.89,5.86Z"/>
      <path class="cls-1" d="M283.29,22.54c-.03.39.11.45.4.2.65-.57,1.5-.7,2.53-.41.32.09.66-.09.76-.42.02-.05.02-.11.02-.16V4.11c0-.42-.21-.63-.64-.63l-2.13.02c-.33,0-.48-.15-.45-.48l.03-.34c.03-.29.18-.43.47-.43h21.18c.47,0,.72.24.73.71l.14,4.61c.02.45-.2.68-.65.67h-.31c-.41,0-.7-.2-.85-.59-1.64-4.2-6.08-4.49-10.18-4.12-.39.04-.59.26-.59.65v7.56c0,.33.17.5.5.5,2.6-.03,4.24-1.15,4.92-3.36.07-.21.2-.37.39-.48.25-.14.53-.11.84.09.21.14.34.37.34.62v7.57c.01.26-.11.43-.36.52-.25.09-.5.1-.76.05-.3-.07-.48-.25-.55-.55-.47-2.19-2.01-3.27-4.62-3.24-.47,0-.7.24-.7.71v7.55c0,.34.16.52.51.53,4.75.22,9.22.33,11.23-4.99.23-.59.67-.87,1.32-.85.39.01.58.21.55.6l-.4,5.97c-.02.33-.2.5-.54.5-26.81.02-53.61-.02-80.42-.13-.63,0-1.13-.19-1.74-.06-5.07,1.07-10.22.05-10.04-6.53.05-1.93-.84-3.19-2.69-3.76l-.52-.17c-1.51-.47-2.26.09-2.26,1.66v7.26c0,.33.16.5.5.5h2.28c.26,0,.47.21.47.47,0,.02,0,.04,0,.06l-.05.39c-.03.22-.15.33-.37.33h-12.6c-.29,0-.44-.15-.44-.45v-.29c0-.26.2-.47.46-.48,0,0,0,0,.01,0l2.5-.04c.33,0,.49-.17.49-.5V3.99c0-.33-.17-.5-.51-.5h-2.51c-.25.01-.45-.19-.45-.44,0-.01,0-.02,0-.03l.02-.3c.02-.23.21-.42.44-.42,5.33-.1,10.69-.09,16.1.04,2.99.07,8.84,1.62,7.84,5.73-.71,2.87-4.1,3.48-6.65,4.05-.73.17-.73.33,0,.48,1.95.41,3.46,1.3,4.53,2.69.99,1.29.99,3.46,1.09,5.13.05.88.81,1.55,1.69,1.5.23-.01.45-.08.65-.18.57-.3,1.06-.23,1.48.2.2.2.48.32.77.32h1.75c.33-.02.5-.18.5-.51V4c0-.33-.17-.5-.5-.5h-2.54c-.31,0-.45-.16-.43-.47l.02-.31c.03-.31.19-.47.5-.47h26.44c.32,0,.48.16.49.48v.28c0,.33-.15.49-.48.49h-3c-.33,0-.5.17-.5.5v17.54c0,.34.17.54.5.6,5.02.89,8.44-.84,10.26-5.18.13-.33.37-.56.71-.68.18-.06.36-.07.55-.04.4.07.58.3.55.7l-.36,4.9c-.02.28.11.42.39.42h2.65c.33-.01.5-.18.5-.51V4c0-.33-.17-.5-.5-.5h-2.79c-.3,0-.44-.15-.42-.46l.02-.37c.02-.24.21-.42.45-.42h13.32c.23,0,.35.11.37.33l.04.4c.03.35-.12.52-.47.52h-3.02c-.33,0-.5.17-.5.5v17.74c0,.39.2.57.59.55.95-.07,1.94-.07,2.97-.02,3.49.18,5.97-2.2,7.28-5.37.29-.69.78-.9,1.48-.62.23.09.33.26.32.5l-.35,5.76ZM208.76,3.73l-.02,7.5c0,.14.11.25.25.25h3.4c1.72.02,3.11-1.28,3.12-2.88h0v-2.2c0-1.6-1.38-2.9-3.1-2.91h-3.4c-.14,0-.25.1-.25.24ZM242,3.8c0-.16-.13-.29-.29-.29h-5.92c-.16,0-.29.13-.29.29v18.16c0,.16.13.29.29.29h5.92c.16,0,.29-.13.29-.29V3.8Z"/>
      <path class="cls-1" d="M192.17,55.25c.71,0,.89-.31.56-.93l-2.48-4.57c-.27-.5-.69-.75-1.26-.75h-10.79c-.85,0-1.47.37-1.88,1.11l-1.65,2.98c-.75,1.35-.35,2.06,1.2,2.11l3.56.13c.24.01.44.21.45.46v.37c.03.56-.24.84-.8.84h-12.08c-.55,0-.81-.27-.77-.82l.02-.26c.03-.41.38-.72.79-.69.02,0,.05,0,.07,0,2.27.38,3.98-.43,5.13-2.43,5.12-8.85,9.88-17.05,14.29-24.6.46-.8,1.49-1.07,2.29-.6.27.16.48.38.63.65l14.26,26.41c.21.39.53.58.97.58h3.01c.41,0,.6.2.58.61l-.02.45c-.02.46-.26.69-.72.69h-19.01c-.32,0-.49-.16-.5-.48l-.02-.76c-.01-.34.15-.51.49-.51h3.68ZM183.97,38.14c-.09-.15-.28-.21-.44-.12-.05.03-.09.06-.11.11l-5.14,8.64c-.09.15-.04.35.12.44.05.03.11.04.16.04l9.79-.03c.18,0,.32-.15.32-.32,0-.05-.01-.1-.04-.15l-4.66-8.61Z"/>
      <path class="cls-1" d="M220.98,55.69c-1.65.72-2.44,1.84-4.5,1.57-.32-.04-.48-.22-.48-.55v-7.47c0-.51.25-.76.76-.75l1.47.03c.27,0,.45.13.55.38,1.57,3.87,4.31,6.07,8.21,6.6,3.68.5,8.6-.22,10.11-4.01,1.12-2.8-2.24-4.74-4.54-5.15-4.62-.84-10.46-1.12-14.15-4.28-4.73-4.06-2.61-10.65,2.56-13.08,4.26-2,8.75-1.96,13.46.12.57.25,1.11.18,1.6-.21.93-.74,1.99-1.04,3.18-.91.32.04.49.22.5.54l.39,7.03c.03.43-.17.6-.59.51-.48-.09-.95-.11-1.42-.05-.42.05-.72-.12-.91-.5-2.33-4.73-6.15-6.79-11.44-6.19-1.97.23-3.51,1.06-4.6,2.5-1.34,1.77-.07,3.95,1.82,4.49,2.43.69,5.13,1.26,8.1,1.7,5.79.85,12.2,3.22,11.02,10.48-.55,3.39-2.45,5.84-5.7,7.34-4.47,2.05-9.32,2.01-14.55-.14-.29-.12-.57-.12-.85,0Z"/>
      <path class="cls-1" d="M150.23,41.95c4.62.37,11.5,2.46,10.18,8.19-.96,4.21-6.6,6.14-10.32,6.42-6.87.51-15.77.63-26.7.36-.25,0-.37-.13-.38-.38v-1.04c0-.13.1-.23.23-.24,0,0,0,0,.01,0h4.5c.33,0,.5-.18.5-.51v-24.75c0-.33-.17-.5-.5-.5h-4.25c-.33,0-.5-.17-.49-.5v-.49c0-.33.17-.49.5-.5,7.98-.03,15.93-.02,23.86.03,1.91.01,3.84.28,5.78.81,2.97.8,6.89,3.58,5.7,7.16-1.26,3.79-5.2,4.53-8.66,5.52-.77.22-.75.36.04.42ZM138.49,29.85l.02,10.64c0,.15.13.28.28.28h4.99c2.47-.02,4.47-2,4.46-4.44v-2.36c0-2.44-2.01-4.42-4.48-4.41h-4.99c-.15.01-.28.14-.28.29ZM138.52,42.84l-.04,12.1c0,.17.13.3.3.3h0l5.06.02c2.97.01,5.39-2.3,5.4-5.16h0v-2.34c.01-2.86-2.39-5.19-5.36-5.2l-5.06-.02c-.17,0-.3.13-.3.3h0Z"/>
      <path class="cls-1" d="M265.75,29.81v25.13c0,.17.14.31.31.31h4.89c.17,0,.31.14.31.31v1.13c0,.17-.13.31-.3.31h-20.62c-.17,0-.3-.13-.31-.3l-.04-1.13c0-.17.13-.31.3-.32,0,0,0,0,.01,0h4.89c.17,0,.31-.14.31-.31v-25.13c0-.17-.14-.31-.31-.31h-4.88c-.17,0-.31-.14-.31-.31l.02-.88c0-.17.14-.31.31-.31h20.61c.17,0,.31.14.31.31v.88c-.01.17-.15.31-.32.31h-4.87c-.17,0-.31.14-.31.31Z"/>
      <path class="cls-1" d="M284.62,29.5h-4.37c-.33,0-.49-.16-.49-.49v-.51c0-.33.16-.5.49-.5h20.75c.33,0,.5.17.5.5v.51c-.01.33-.17.49-.5.49h-5c-.33,0-.5.17-.5.5v24.7c0,.31.15.47.45.49,3.84.27,6.81.14,8.9-.41,3.07-.79,5.61-3.22,7.63-7.27.17-.33.43-.5.8-.5h1.07c.41-.02.6.18.57.59l-.56,8.74c-.03.44-.26.66-.7.66h-33.22c-.5,0-.74-.25-.71-.74l.02-.33c.02-.38.33-.68.71-.68h4.29c.33,0,.5-.17.5-.5v-24.63c0-.41-.21-.62-.63-.62Z"/>
      <path class="cls-1" d="M340.38,41.5c3.98.16,6.52-1.29,7.62-4.36.19-.54.57-.77,1.14-.68l.82.12c.36.06.54.27.54.63v10.8c0,.33-.17.5-.51.49l-1.43-.02c-.24,0-.45-.18-.48-.42-.64-4.28-4.24-4.86-7.82-5.04-.34-.02-.51.14-.51.49v11.19c0,.32.16.49.47.51,7.57.41,14.95.54,18-7.28.17-.45.5-.67.97-.67h1.11c.4-.02.58.18.55.58l-.75,8.4c-.05.51-.32.76-.83.76h-34.22c-.51,0-.79-.25-.84-.75l-.03-.33c-.03-.32.2-.61.53-.65.02,0,.04,0,.06,0l4.24-.03c.27,0,.49-.22.49-.5v-24.74c0-.33-.17-.5-.5-.5h-4.25c-.34,0-.51-.17-.5-.5v-.5c0-.33.17-.5.5-.5h33.19c.51,0,.92.39.95.9l.38,6.6c.03.44-.18.69-.61.76-.45.07-.88.03-1.27-.13-.35-.14-.6-.38-.76-.71-1.31-2.76-3.26-4.46-5.85-5.11-2.95-.73-6.41-.99-10.4-.78-.42.02-.63.24-.63.66v10.64c0,.43.21.65.63.67Z"/>
    </g>
  </g>
</svg>