<?xml version="1.0" encoding="UTF-8"?>
<svg id="Capa_2" data-name="Capa 2" xmlns="http://www.w3.org/2000/svg" viewBox="0 0 115 36.65">
  <defs>
    <style>
      .cls-1 {
        fill: #fff;
        stroke-width: 0px;
      }
    </style>
  </defs>
  <g id="Capa_1-2" data-name="Capa 1">
    <g>
      <path class="cls-1" d="m0,36.57V10.15C1.06,5.96,3.21,3.09,6.45,1.53,8.18.71,11.44.25,16.22.15c9.63-.19,18.97-.2,28.02-.05.51.01.92.42.92.93v35.07c0,.27-.2.48-.46.48l-10.36.02c-.4,0-.6-.19-.6-.59V12.02c0-.72-.35-.99-1.05-.82l-3.2.78c-.72.18-1.23.82-1.24,1.56l-.23,22.52c0,.35-.18.53-.53.53h-9.83c-.42-.01-.63-.22-.64-.63l-.29-23.15c-.01-1.35-.67-1.86-1.98-1.51l-1.22.32c-1.43.37-2.14,1.3-2.14,2.77l-.02,21.6c0,.35-.18.53-.53.53l-10.84.05Z"/>
      <path class="cls-1" d="m64.08,25.26l-.04-.47c-.05-.72-.6-1.3-1.31-1.41-2.97-.43-6.23-.19-8.99-1.38-3.27-1.43-5.05-4.16-5.35-8.19-.5-6.64,1.48-12.72,9.19-13.32,5.38-.43,10.53-.56,15.44-.39.39.01.7.33.71.72l.03,8.68c0,.34-.17.52-.5.55-3.51.32-6.94.35-10.28.08-1.1-.09-2.15.43-2.72,1.34-.17.27-.24.6-.19.98.05.41.35.74.75.84,2.51.63,5.09,1.1,7.76,1.4,2.57.29,4.37,1.49,5.4,3.59,3.32,6.79,2.2,18.51-7.82,18.36-5.74-.09-11.02-.09-15.85,0-.55.01-.82-.25-.82-.8v-7.74c-.01-.49.23-.73.72-.74l12.08-.14c1.29-.01,1.89-.66,1.79-1.95Z"/>
      <path class="cls-1" d="m115,10.73v25.85l-11.76-.02c-.46,0-.83-.37-.83-.83,0,0,0-.01,0-.02.16-6.83.15-13.15-.04-18.98-.08-2.44-1.37-3.94-3.86-4.51-.74-.17-1.11-.63-1.1-1.38l.1-9.87c0-.39.2-.62.59-.67,8.13-1.17,15.23,1.68,16.9,10.43Z"/>
      <rect class="cls-1" x="79.26" y="11.52" width="13.36" height="9.42" rx=".65" ry=".65" transform="translate(-.22 1.2) rotate(-.8)"/>
    </g>
  </g>
</svg>