<?xml version="1.0" encoding="UTF-8"?>
<svg id="Capa_2" data-name="Capa 2" xmlns="http://www.w3.org/2000/svg" viewBox="0 0 280.94 98.23">
  <defs>
    <style>
      .cls-1, .cls-2 {
        fill: #fff;
        stroke-width: 0px;
      }

      .cls-2 {
        fill-rule: evenodd;
      }
    </style>
  </defs>
  <g id="Capa_1-2" data-name="Capa 1">
    <g>
      <polygon class="cls-2" points="61.33 7.62 66.51 38.65 20.09 45.67 13.74 7.62 0 7.62 0 92.93 28.67 92.93 23.11 59.58 69.54 52.55 76.28 92.93 89.63 92.93 89.63 7.62 61.33 7.62"/>
      <polygon class="cls-1" points="71.1 92.72 34.7 98.23 28.93 63.59 65.32 58.08 71.1 92.72"/>
      <polygon class="cls-1" points="60.7 34.64 24.31 40.14 18.53 5.5 54.92 0 60.7 34.64"/>
      <path class="cls-1" d="M108.24,17.09h11.63v15.7h14.92v-15.7h11.63v41.92h-11.63v-15.91h-14.92v15.91h-11.63V17.09Z"/>
      <path class="cls-1" d="M151.06,17.09h11.7v41.92h-11.7V17.09Z"/>
      <path class="cls-1" d="M167.46,17.09h18c2.44-.03,4.86.31,7.2,1,2.01.6,3.87,1.59,5.49,2.92,1.52,1.25,2.72,2.84,3.51,4.64.85,1.97,1.27,4.1,1.23,6.24v.11c.05,2.25-.41,4.49-1.35,6.54-.88,1.84-2.16,3.46-3.75,4.74-1.71,1.31-3.65,2.26-5.73,2.82-2.35.67-4.78,1.01-7.23,1h-5.77v11.91h-11.6V17.09ZM184.6,37.95c1.75.1,3.48-.42,4.89-1.47,1.17-.99,1.83-2.47,1.77-4v-.13c.09-1.58-.56-3.1-1.77-4.12-1.45-1.04-3.22-1.54-5-1.42h-5.43v11.14h5.54Z"/>
      <path class="cls-1" d="M204.81,17.09h33.68v9.92h-22.24v6.35h20.15v9.17h-20.15v6.66h22.54v9.82h-34l.02-41.92Z"/>
      <path class="cls-1" d="M241.79,17.09h19.84c2.78-.07,5.56.34,8.21,1.2,2.05.69,3.92,1.83,5.46,3.35,2.48,2.4,3.72,5.66,3.72,9.78v.12c.1,2.85-.72,5.66-2.34,8-1.62,2.16-3.8,3.84-6.3,4.85l10.55,15.46h-6.56c-4.21-.07-8.13-2.15-10.56-5.58l-5.29-8h-5.1v12.74h-11.63V17.09ZM261.06,37.23c1.65.11,3.29-.37,4.62-1.35,1.08-.89,1.68-2.23,1.62-3.63v-.11c.1-1.45-.53-2.86-1.68-3.75-1.35-.88-2.95-1.31-4.56-1.23h-7.61v10.07h7.61Z"/>
      <path class="cls-1" d="M118.51,90.44c-1.72,0-3.42-.33-5-1-1.5-.63-2.86-1.55-4-2.71-1.14-1.17-2.04-2.55-2.66-4.06-.66-1.58-1-3.28-1-5v-.06c-.02-1.71.3-3.41.94-5,.62-1.52,1.52-2.9,2.66-4.08,1.16-1.18,2.54-2.12,4.06-2.76,1.64-.69,3.4-1.03,5.18-1,1.04-.01,2.08.08,3.1.28.88.18,1.74.44,2.57.79.76.34,1.49.75,2.17,1.23.66.47,1.29.99,1.88,1.56l-2.81,3.23c-.94-.89-2-1.64-3.15-2.24-1.18-.58-2.48-.87-3.8-.85-1.13-.01-2.25.23-3.28.7-.98.44-1.87,1.08-2.6,1.87-.74.81-1.32,1.76-1.71,2.79-.4,1.09-.61,2.24-.6,3.4v.08c0,1.16.2,2.31.6,3.4.38,1.04.96,2,1.71,2.82.73.8,1.62,1.44,2.6,1.9,1.03.46,2.15.7,3.28.69,1.35.04,2.69-.26,3.9-.87,1.18-.64,2.26-1.43,3.23-2.36l2.8,2.84c-.61.67-1.28,1.28-2,1.82-.7.54-1.45,1-2.25,1.39-.84.4-1.73.7-2.64.88-1.05.22-2.11.33-3.18.32Z"/>
      <path class="cls-1" d="M130.46,65.19h18.38v3.94h-14.05v6.38h12.45v3.94h-12.45v6.63h14.27v3.93h-18.6v-24.82Z"/>
      <path class="cls-1" d="M151.57,65.19h11.07c1.41-.02,2.81.2,4.15.65,1.12.39,2.14,1.01,3,1.83.66.67,1.18,1.47,1.54,2.34.36.96.54,1.98.53,3v.07c.01.94-.14,1.87-.44,2.75-.28.79-.7,1.53-1.23,2.18-.53.63-1.16,1.16-1.86,1.59-.75.44-1.55.78-2.39,1l6.7,9.4s-4.53.92-7.08-2.75c-2.24-3.21-4.18-5.9-4.18-5.9h-5.48v8.66h-4.33v-24.82ZM162.3,77.5c1.35.08,2.68-.32,3.76-1.12.92-.74,1.43-1.87,1.38-3.05v-.07c.07-1.19-.44-2.34-1.38-3.08-1.12-.75-2.46-1.1-3.8-1h-6.37v8.37l6.41-.05Z"/>
      <path class="cls-1" d="M183.57,65.01h4l10.93,25h-4.62l-2.52-6h-11.7s-.54,1.22-1.54,3.62-5.48,2.38-5.48,2.38l10.93-25ZM189.81,80.16l-4.29-9.93-4.26,9.93h8.55Z"/>
      <path class="cls-1" d="M198.54,65.19h4.64l7.55,11.74,7.56-11.74h4.65v24.82h-4.33v-17.8l-7.84,11.71h-.14l-7.77-11.64v17.73h-4.32v-24.82Z"/>
      <path class="cls-1" d="M226.13,65.19h4.33v24.82h-4.33v-24.82Z"/>
      <path class="cls-1" d="M245.48,90.44c-1.72.01-3.42-.33-5-1-1.5-.63-2.86-1.55-4-2.71-1.14-1.17-2.05-2.55-2.66-4.06-.66-1.58-1-3.28-1-5v-.06c0-1.72.34-3.41,1-5,.61-1.52,1.52-2.91,2.66-4.08,1.14-1.17,2.5-2.11,4-2.76,1.64-.69,3.4-1.03,5.18-1,1.04-.01,2.09.08,3.11.28.88.18,1.74.44,2.57.79.76.34,1.48.75,2.16,1.23.66.47,1.29.99,1.88,1.56l-2.8,3.23c-.95-.89-2.01-1.64-3.16-2.24-1.18-.58-2.48-.87-3.79-.85-1.13-.01-2.25.23-3.28.7-.99.44-1.88,1.08-2.61,1.87-.74.81-1.32,1.76-1.7,2.79-.4,1.09-.61,2.24-.6,3.4v.08c0,1.16.21,2.31.62,3.4.38,1.04.96,2,1.7,2.82.73.8,1.62,1.45,2.61,1.9,1.03.47,2.15.7,3.28.69,1.35.04,2.69-.26,3.9-.87,1.18-.64,2.26-1.44,3.23-2.36l2.78,2.82c-.61.66-1.28,1.27-2,1.82-.7.54-1.46,1.01-2.26,1.39-.84.4-1.73.7-2.64.88-1.04.23-2.11.34-3.18.34Z"/>
      <path class="cls-1" d="M267.88,90.44c-1.8.02-3.59-.32-5.25-1-3.07-1.28-5.5-3.74-6.74-6.82-.66-1.56-1-3.24-1-4.94v-.07c0-1.7.34-3.38,1-4.95.62-1.52,1.54-2.91,2.7-4.08,1.18-1.19,2.57-2.13,4.11-2.79,3.37-1.35,7.13-1.35,10.5,0,1.53.63,2.92,1.56,4.08,2.74,1.14,1.17,2.05,2.55,2.66,4.07.66,1.56,1,3.24,1,4.94v.08c.02,3.36-1.29,6.6-3.65,9-2.47,2.49-5.86,3.87-9.37,3.81h-.04ZM267.95,86.44c2.27.04,4.46-.9,6-2.57.74-.81,1.32-1.76,1.71-2.79.42-1.09.63-2.24.62-3.4v-.07c0-1.17-.21-2.33-.62-3.43-.39-1.04-.97-1.99-1.73-2.8-.76-.8-1.66-1.45-2.67-1.9-1.07-.48-2.22-.72-3.39-.71-2.27-.02-4.45.91-6,2.57-.74.82-1.32,1.76-1.72,2.79-.41,1.09-.62,2.24-.61,3.4v.08c0,1.16.21,2.31.62,3.4.39,1.04.98,1.99,1.73,2.8.76.8,1.66,1.45,2.67,1.9,1.06.48,2.22.73,3.39.73Z"/>
    </g>
  </g>
</svg>