<?xml version="1.0" encoding="UTF-8"?>
<svg id="Capa_2" data-name="Capa 2" xmlns="http://www.w3.org/2000/svg" viewBox="0 0 520.59 103.57">
  <defs>
    <style>
      .cls-1 {
        fill: #fff;
        stroke-width: 0px;
      }
    </style>
  </defs>
  <g id="Capa_1-2" data-name="Capa 1">
    <g>
      <path class="cls-1" d="M18.62,67.26c.23,1.09.62,1.99,1.16,2.69,1,1.48,2.47,2.22,4.39,2.22,1.62,0,3.02-.47,4.22-1.4,1.19-.93,1.79-2.26,1.79-3.97,0-1.87-.75-3.31-2.25-4.32-1.5-1.01-3.37-1.91-5.61-2.69-2.24-.78-4.65-1.6-7.23-2.45-2.58-.86-4.99-2.02-7.23-3.5-2.24-1.48-4.1-3.44-5.61-5.9-1.5-2.45-2.25-5.66-2.25-9.63,0-2.8.5-5.39,1.5-7.76,1-2.37,2.52-4.46,4.57-6.25,2.04-1.79,4.63-3.19,7.75-4.2,3.12-1.01,6.8-1.52,11.04-1.52,15.65,0,23.47,6.62,23.47,19.85h-18.04c0-2.72-.48-4.57-1.45-5.55-.96-.97-2.33-1.46-4.1-1.46-1.54,0-2.81.43-3.82,1.28-1,.86-1.5,2.06-1.5,3.62,0,1.79.75,3.13,2.25,4.03,1.5.9,3.37,1.69,5.61,2.39,2.23.7,4.64,1.44,7.23,2.22,2.58.78,4.99,1.89,7.23,3.33,2.23,1.44,4.1,3.39,5.61,5.84,1.5,2.45,2.25,5.7,2.25,9.75,0,3.11-.58,5.96-1.73,8.52-1.16,2.57-2.79,4.79-4.91,6.66-2.12,1.87-4.74,3.27-7.86,4.2-3.12.93-6.65,1.4-10.58,1.4-8.71,0-14.97-1.75-18.79-5.25-3.82-3.5-5.72-8.72-5.72-15.65h18.27c0,1.25.12,2.41.35,3.5Z"/>
      <path class="cls-1" d="M76.9,0v15.65h-20.81V0h20.81ZM76.9,20.2v63.17h-20.81V20.2h20.81Z"/>
      <path class="cls-1" d="M114.82,35.96c-.77-1.17-2.08-1.75-3.93-1.75s-3.16.58-3.93,1.75c-.77,1.17-1.16,3.08-1.16,5.72v41.69h-20.81V20.2h20.12v7.71h.23c2.7-6.23,7.75-9.34,15.15-9.34,4.32,0,7.61.8,9.89,2.39,2.27,1.6,4.07,4.03,5.38,7.3,1.62-3.58,3.83-6.09,6.65-7.53,2.81-1.44,5.84-2.16,9.08-2.16,2.31,0,4.45.25,6.42.76,1.97.51,3.68,1.42,5.15,2.74,1.46,1.32,2.62,3.08,3.47,5.25.85,2.18,1.27,4.98,1.27,8.41v47.64h-20.81v-41.69c0-2.65-.39-4.55-1.16-5.72-.77-1.17-2.08-1.75-3.93-1.75s-3.16.58-3.93,1.75c-.77,1.17-1.16,3.08-1.16,5.72v41.69h-20.81v-41.69c0-2.65-.39-4.55-1.16-5.72h0Z"/>
      <path class="cls-1" d="M196,20.2v8.64h.23c2.39-6.85,7.13-10.28,14.22-10.28s11.79,2.84,14.57,8.52c2.77,5.68,4.16,14.36,4.16,26.04,0,6.07-.46,11.13-1.39,15.18-.93,4.05-2.22,7.3-3.87,9.75-1.66,2.45-3.66,4.17-6.01,5.14-2.35.97-4.99,1.46-7.92,1.46s-5.57-.58-7.92-1.75c-2.35-1.17-4.07-3.39-5.15-6.66h-.23v27.32h-20.81V20.2h20.12,0ZM196.93,60.25c.15,2.26.44,4.07.87,5.43.42,1.36,1.02,2.32,1.79,2.86.77.55,1.73.82,2.89.82,1.23,0,2.23-.27,3.01-.82.77-.54,1.37-1.5,1.79-2.86.42-1.36.71-3.17.87-5.43.15-2.26.23-5.1.23-8.52s-.08-6.25-.23-8.47c-.16-2.22-.44-4.01-.87-5.37-.42-1.36-1.02-2.32-1.79-2.86-.77-.54-1.77-.82-3.01-.82-1.16,0-2.12.27-2.89.82-.77.55-1.37,1.5-1.79,2.86-.42,1.36-.71,3.15-.87,5.37-.16,2.22-.23,5.04-.23,8.47s.08,6.27.23,8.52Z"/>
      <path class="cls-1" d="M256.82,0v83.37h-20.81V0h20.81Z"/>
      <path class="cls-1" d="M284.46,63.64c0,3.43.58,5.7,1.74,6.83,1.16,1.13,2.47,1.69,3.93,1.69,1.85,0,3.3-.76,4.34-2.28,1.04-1.52,1.56-4.42,1.56-8.7h18.73c-.16,7.79-2.12,13.64-5.9,17.57-3.78,3.93-9.98,5.9-18.62,5.9-5.01,0-9.21-.57-12.61-1.69-3.39-1.13-6.13-3-8.21-5.6-2.08-2.61-3.57-6.01-4.45-10.22-.89-4.2-1.33-9.3-1.33-15.3s.5-11.21,1.5-15.41c1-4.2,2.58-7.63,4.74-10.28,2.16-2.65,4.92-4.57,8.27-5.78,3.35-1.21,7.38-1.81,12.08-1.81,4.16,0,7.81.51,10.93,1.52,3.12,1.01,5.74,2.71,7.86,5.08,2.12,2.38,3.7,5.49,4.74,9.34,1.04,3.85,1.56,8.66,1.56,14.42v6.42h-30.88v8.29ZM294.69,33.75c-.81-1.56-2.33-2.34-4.57-2.34s-3.64.78-4.45,2.34c-.81,1.56-1.22,4.01-1.22,7.36v2.8h11.45v-2.8c0-3.35-.41-5.8-1.22-7.36Z"/>
      <path class="cls-1" d="M324.13,20.2V1.63h20.81v18.57h8.21v14.13h-8.21v30.13c0,1.79.41,3.06,1.22,3.8.81.74,2.06,1.11,3.76,1.11h3.24v14.01c-1.93,0-3.86.06-5.78.18s-3.78.18-5.55.18c-3.16,0-5.86-.14-8.09-.41-2.24-.27-4.07-.95-5.49-2.04-1.43-1.09-2.47-2.7-3.12-4.85-.65-2.14-.98-4.96-.98-8.47v-33.63h-6.94v-14.13h6.94Z"/>
      <path class="cls-1" d="M376.51,63.64c0,3.43.58,5.7,1.73,6.83,1.16,1.13,2.47,1.69,3.93,1.69,1.85,0,3.3-.76,4.34-2.28,1.04-1.52,1.56-4.42,1.56-8.7h18.73c-.16,7.79-2.12,13.64-5.9,17.57-3.78,3.93-9.98,5.9-18.62,5.9-5.01,0-9.21-.57-12.6-1.69-3.39-1.13-6.13-3-8.21-5.6-2.08-2.61-3.57-6.01-4.45-10.22-.89-4.2-1.33-9.3-1.33-15.3s.5-11.21,1.5-15.41c1-4.2,2.58-7.63,4.74-10.28,2.16-2.65,4.91-4.57,8.27-5.78,3.36-1.21,7.38-1.81,12.09-1.81,4.16,0,7.81.51,10.93,1.52,3.12,1.01,5.74,2.71,7.86,5.08,2.12,2.38,3.7,5.49,4.74,9.34,1.04,3.85,1.56,8.66,1.56,14.42v6.42h-30.87v8.29ZM386.74,33.75c-.81-1.56-2.33-2.34-4.57-2.34s-3.64.78-4.45,2.34c-.81,1.56-1.21,4.01-1.21,7.36v2.8h11.45v-2.8c0-3.35-.41-5.8-1.21-7.36Z"/>
      <path class="cls-1" d="M443.92,38.71c-.23-1.6-.58-2.9-1.04-3.91-.85-1.79-2.39-2.69-4.63-2.69-1.16,0-2.14.29-2.95.88-.81.58-1.44,1.63-1.91,3.15-.46,1.52-.79,3.54-.98,6.07-.19,2.53-.29,5.74-.29,9.63s.1,7.11.29,9.63c.19,2.53.52,4.54.98,6.01.46,1.48,1.1,2.51,1.91,3.09.81.58,1.79.88,2.95.88,1.92,0,3.41-.74,4.45-2.22,1.04-1.48,1.56-4.2,1.56-8.17v-4.09h18.73c0,4.98-.43,9.23-1.27,12.73-.85,3.5-2.27,6.38-4.28,8.64-3.93,4.2-10.33,6.31-19.2,6.31-4.01,0-7.67-.35-10.98-1.05-3.32-.7-6.15-2.2-8.5-4.5-2.35-2.3-4.18-5.53-5.49-9.69-1.31-4.16-1.97-9.67-1.97-16.52,0-7.47.73-13.47,2.2-17.98,1.46-4.51,3.45-7.98,5.96-10.39,2.5-2.41,5.45-4.01,8.85-4.79,3.39-.78,7.05-1.17,10.98-1.17,4.63,0,8.46.64,11.5,1.93,3.04,1.28,5.47,3.08,7.29,5.37,1.81,2.3,3.08,5.06,3.82,8.29.73,3.23,1.1,6.83,1.1,10.8h-18.73c0-2.57-.11-4.65-.35-6.25h0Z"/>
      <path class="cls-1" d="M489.6,0v27.21h.23c1.77-3.35,3.99-5.62,6.65-6.83,2.66-1.21,5.26-1.81,7.81-1.81,2.16,0,4.22.27,6.18.82,1.97.55,3.7,1.48,5.2,2.8,1.5,1.32,2.7,3.09,3.58,5.31.89,2.22,1.33,4.96,1.33,8.23v47.64h-20.81v-41.69c0-2.65-.39-4.55-1.16-5.72-.77-1.17-2.08-1.75-3.93-1.75s-3.16.58-3.93,1.75c-.77,1.17-1.16,3.08-1.16,5.72v41.69h-20.82V0h20.82,0Z"/>
    </g>
  </g>
</svg>