<?xml version="1.0" encoding="UTF-8"?>
<svg id="Capa_2" data-name="Capa 2" xmlns="http://www.w3.org/2000/svg" viewBox="0 0 305.92 133.23">
  <defs>
    <style>
      .cls-1 {
        fill: #fff;
        stroke-width: 0px;
      }
    </style>
  </defs>
  <g id="Capa_1-2" data-name="Capa 1">
    <g>
      <g>
        <path class="cls-1" d="M304.93,50.41c1.96-2.75.71-6.14-1.13-8.51-.42-.53.01-1.61.14-2.21.1-.4.1-.81.03-1.23-.35-1.9-1.3-3.32-2.84-4.27-.11-.07-.14-.16-.1-.28,1.09-3.03.39-5.5-2.11-7.43-.27-.2-.52-.43-.75-.66-.07-.07-.1-.15-.11-.25-.33-2.75-1.35-5.28-4.44-5.47-.12,0-.22-.09-.24-.21-.2-1.06-.24-2.11-.72-3.09-1.23-2.52-3.1-3.28-5.66-4.06-.1-.03-.18-.11-.21-.22-.49-2.07-1.77-4.48-3.97-5.14-.45-.13-.92-.24-1.39-.31-.13-.02-.24-.08-.33-.18-.31-.34-.61-.68-.9-1.02-.95-1.09-3.07-2.42-4.78-2.36-.43.01-.85,0-1.25-.03-.12-.01-.22-.06-.3-.14-2.22-2.14-4.65-2.56-7.56-3.09-2.22-.4-4.5-.19-6.79-.23-2.61-.04-5.13.4-7.55,1.13-1.32.4-2.5,1.14-3.55,2.2-.07.07-.16.11-.26.12-.86.06-1.69-.04-2.53.21-1.46.46-2.67,1.2-3.61,2.23-.41.46-.63,1.09-1.32,1.2-.47.07-.92.17-1.36.3-1.92.54-3.19,2.76-3.7,4.61-.14.5-.44.8-.9.9-3.34.72-5.78,3.44-5.83,6.89,0,.18-.15.32-.32.32-1.97-.02-3.45,1.62-4.01,3.44-.21.68-.12,1.32-.18,2.01-.01.13-.07.22-.17.28-1.69.99-2.81,2.36-3.37,4.08-.5,1.57-.17,2.53.38,3.89.06.13.03.24-.09.32-2.53,1.76-3.34,4.18-2.43,7.26.03.11.01.21-.06.29-1.41,1.77-2.2,3.52-2.37,5.26-.11,1.22.29,2.46,1.22,3.74.06.08.08.18.06.28-.25,1.13-.72,2.3-.71,3.43.01,1.05.27,2.08.75,3.11.42.88,1.16,1.58,1.76,2.34.7.88.7,2.04,1.11,3.05.81,2.05,2.29,3.08,4.44,3.11.27.01.49.2.54.46.47,2.41,1.52,5.16,4.1,5.89,1.04.29,2,.59,2.88.91,2.85,1.02,5.93.35,8.87.33,2.35-.01,4.77-1.02,6.08-3.05.13-.21.15-.49.32-.69.09-.1.2-.14.33-.13.44.03.87,0,1.27-.09,2.33-.5,4.47-1.46,6.44-2.87.11-.07.16-.05.16.09-.02,9.7-.11,16.46-.28,20.28-.09,2.18-.16,4.34-.22,6.46-.05,1.75-.33,3.41-.48,5.15-.1,1.28-.22,2.57-.36,3.86-.15,1.46-.34,2.93-.56,4.42-.34,2.32-.9,5.1-1.67,8.31-.91,3.8-2.26,7.48-4.07,11.05-.1.21-.22.41-.35.61-.07.1-.16.17-.29.21-1.01.26-2,.82-2.98,1.68-2.15,1.89-4.41,1.54-6.9.92-1.67-.42-3.45-.5-5.11-.3-.82.09-1.64.45-2.47,1.07-.5.39-.56.83-.16,1.34l.1.13c.3.37.65.44,1.06.2,1.44-.85,2.87-1.21,4.64-.85,2.33.47,4.84,1.1,7.22.64,1.1-.22,2.09-.93,2.97-1.7.7-.62,1.84-.44,2.67-.42.14,0,.26.05.36.14,1.48,1.32,3,2.15,5,1.39.89-.34,1.79-.81,2.7-1.42,1.39-.93,2.74-.64,4.09.13,2.53,1.43,5.03-.08,7.42-.94,1-.37,1.94-.19,2.81.53,1.27,1.04,2.84,2.62,4.44,3.02,1.6.41,3,.54,4.71.38,2.37-.22,4.86-.38,7.49-.49,1.47-.06,2.9-.23,4.29-.5.53-.1.81-.42.86-.96.01-.13-.03-.25-.11-.36-.26-.35-.61-.52-1.05-.49-.68.06-1.39.09-2.14.1-1.84.03-3.61.43-5.45.51-2.25.09-4.89.47-6.8.21-2.79-.37-4.3-2.34-5.35-4.8-2.35-5.56-3.69-11.51-4.44-17.59-.12-.97-.34-1.86-.39-2.85-.07-1.44-.39-2.84-.43-4.27-.08-2.66-.55-5.31-.56-8.07-.01-4.45.04-8.82-.12-13.45-.09-2.39-.12-4.56-.11-6.51.01-2.24-.18-4.5-.21-6.7,0-.14.06-.18.19-.1,2.21,1.38,4.64,2.33,7.28,2.85.31.07.66.09,1.04.08.16-.01.27.05.35.19.81,1.35,1.65,2.37,3.17,2.98,1.19.48,2.3.71,3.35.7.83-.01,1.64.02,2.41.09,1.46.13,2.93.14,4.39.02,1.44-.11,2.62-.86,4.01-1.14,1.43-.29,2.69-.92,3.47-2.22.79-1.32,1.29-2.71,1.52-4.19.02-.11.12-.2.24-.19,3.34.16,5.02-2.54,5.34-5.52.01-.11.05-.22.13-.31.62-.78,1.42-1.46,1.92-2.34,1.08-1.91,1.1-4.29.31-6.43-.13-.36-.09-.69.13-1ZM266.21,113.51c.77,4.61,2.03,9.06,3.76,13.36.06.16.01.23-.16.23-2.23,0-4,1.19-5.97,1.57-1.41.28-2.86-.67-4.19-1.16-1.02-.37-2.06-.24-3.11.39-.86.52-1.74,1.01-2.63,1.46-1.57.78-3.07-.09-4.14-1.21-.07-.07-.09-.18-.04-.27,1.85-3.45,3.27-7.06,4.24-10.84.56-2.17,1.11-4.65,1.65-7.42.3-1.58.41-3.09.65-4.68.16-1.03.28-2.07.38-3.11.13-1.4.37-2.76.43-4.18.1-2.71.51-5.37.49-8.08,0-1.36.01-2.64.03-3.83.16-7.37.45-14.5.47-21.65.01-3.7.23-7.6.21-11.34-.02-2.1.05-4.1.19-6.01.23-2.93.34-5.7.35-8.3.01-3.31.45-6.68.44-9.98,0-1.24.08-2.66.26-4.28.23-2.15.34-4.07.31-5.75-.01-.49.16-1.17.16-1.77,0-1.77.13-3.56.4-5.37.17-1.24.04-2.48.26-3.71.19-1.07.32-2.09.4-3.08.02-.15.1-.22.25-.22h.43c.16-.01.24.07.24.23,0,1.73-.05,3.57.06,5.36.3,4.92.17,9.98.39,14.88.18,3.85.3,7.89.36,12.13.03,2.5.16,5.84.37,10.04.13,2.63.08,5.3.14,7.9.07,2.4.15,4.79.25,7.18.17,3.87.19,8.04.3,12.04.14,4.93.11,9.6.1,14.49-.01,1.86.16,4.68.49,8.44.12,1.34-.04,2.71.15,4.05.16,1.1.27,2.2.33,3.31.05.79.15,1.56.3,2.33.21,1.04.22,2.08.39,3.14.21,1.28.41,2.52.61,3.71ZM303.85,48.3c-.26.71-.84,1.2-1.29,1.79-.49.62.14,1.76.43,2.37,1.14,2.38-.06,4.99-2.11,6.46-.17.12-.28.3-.32.5-.21,1.04-.23,2.35-.8,3.25-.98,1.55-2.46,1.68-4.15,1.59-.21-.01-.39.14-.42.35-.29,1.94-.77,4.3-2.35,5.64-.12.11-.25.16-.41.16-.79.02-1.54.22-2.27.6-1.04.55-2.4.67-3.54.91-1.18.25-2.18-.01-3.31-.32-1.48-.4-3.07.18-4.54-.34-1.34-.48-2.25-1.44-2.71-2.87-.08-.22-.27-.38-.51-.41-.78-.1-1.58-.22-2.39-.35-2.62-.42-5.22-1.69-7.33-3.23-.18-.13-.29-.34-.31-.56l-.1-1.9c0-.14.06-.23.18-.28.48-.18.94-.42,1.34-.73,4.04-3.16,7.93-6.2,11.66-9.12.16-.13.38-.12.53.03,1.38,1.4,3.1,2.37,5.16,2.9,1.33.36,2.54.51,3.62.47.55-.02.86-.39.9-.89.03-.41-.25-.77-.65-.85-2.87-.52-5.38-.84-7.57-2.95-.1-.1-.09-.19.01-.27l12.1-9.43c.49-.38.63-.87.43-1.45-.03-.07-.06-.13-.11-.19-.35-.46-.76-.52-1.22-.16l-2.71,2.12s-.08.05-.13.06c-.18.04-.35-.07-.39-.25-.21-.92-.58-1.77-.62-2.72-.03-.91-.05-1.89.25-2.77.18-.54.36-1.12.55-1.73.29-1.01-1.17-1.54-1.67-.79-.34.5-.58,1.08-.72,1.75-.41,1.88-.41,3.78,0,5.72.17.79.45,1.47.85,2.04.07.09.06.18-.04.24s-.19.13-.28.2c-6.98,5.38-13.45,10.42-19.41,15.12-.59.47-1.23.88-1.78,1.44-.2.2-.3.16-.3-.12.03-2.8-.03-5.56-.19-8.29-.24-4.22-.33-8.46-.28-12.72,0-.32.13-.6.37-.84,2.25-2.34,4.45-4.64,6.61-6.89.11-.12.22-.12.33,0,.26.3.55.62.89.83,1.74,1.05,3.86,2.08,5.85,2.08.87,0,.82-1.16.47-1.63-.06-.08-.13-.13-.23-.15-2.06-.38-3.91-1.16-5.54-2.35-.02,0-.04-.02-.06-.04-.16-.17-.16-.43.01-.59,1.6-1.58,3.1-3.18,4.49-4.81.08-.08.16-.1.26-.04,2.17,1.14,5.21,1.07,7.57.68.74-.13,1.25-.72.91-1.48-.22-.45-.62-.63-1.23-.52-1.93.32-3.86.29-5.77-.11-.02,0-.03-.01-.04-.02-.04-.03-.04-.09,0-.12l4.25-4.47c.16-.18.23-.41.2-.65-.06-.38-.22-.65-.49-.8-.47-.28-.89-.22-1.26.18l-4.29,4.54c-.1.11-.17.09-.22-.05-.64-1.89-.69-3.85-.14-5.9.17-.63.02-1.14-.46-1.52-.41-.33-.97-.13-1.23.29-.26.42-.41.86-.44,1.31-.14,1.8-.13,3.48.02,5.04.05.64.35,1.37.88,2.21.07.11.06.22-.03.32l-11.69,12.25c-.13.14-.2.11-.2-.08l-.44-17.27c0-.11.04-.19.13-.25.44-.31.83-.63,1.15-.96,2.37-2.37,4.86-4.87,7.48-7.5.46-.46.5-.95.12-1.48-.07-.09-.16-.15-.28-.19-.51-.16-.96-.05-1.34.34l-7.23,7.25c-.11.11-.16.09-.17-.06-.02-1.76-.2-3.58-.17-5.32.04-2.25.01-4.55-.07-6.89-.01-.21-.19-.37-.4-.37l-3.95.02c-.09,0-.17.06-.19.14-.35,1.55-.56,3.18-.62,4.88-.02.41-.09,1.02-.21,1.83-.23,1.5-.13,2.97-.33,4.46-.19,1.48-.09,2.94-.22,4.42,0,.03-.02.05-.04.07-.04.04-.1.03-.14-.01l-2.83-3.44c-.13-.15-.18-.36-.14-.55.18-.94.5-1.86.41-2.82-.17-1.67-.48-3.15-.95-4.44-.06-.16-.17-.29-.32-.37-.3-.18-.58-.22-.85-.1-.55.24-.75.66-.6,1.24.26,1.02.64,2.08.65,3.14,0,.52,0,1.04-.03,1.56-.01.12-.05.13-.13.04l-2.19-2.71c-.4-.49-.9-.63-1.5-.43-.16.06-.29.16-.39.31-.25.36-.23.71.06,1.05,2.68,3.15,5.27,6.29,7.77,9.43.17.22.43.37.79.46.11.03.16.1.15.21-.12,1.92-.03,3.76-.23,5.68-.31,2.91-.44,5.78-.41,8.62,0,.2-.07.24-.23.12-2.93-2.27-5.86-4.52-8.81-6.74-.65-.49-1.11-.82-1.4-.98-.1-.06-.12-.14-.06-.23.84-1.51,1.13-3.12.86-4.83-.2-1.27-.61-2.51-1.22-3.7-.22-.42-.58-.59-1.11-.54-.1.02-.18.05-.26.12-.49.42-.59.93-.29,1.5.91,1.74,1.14,3.69.67,5.83-.09.38-.29.45-.6.21-1.55-1.19-3.16-2.42-4.85-3.72-.47-.35-1.13-.34-1.58.03-.06.05-.1.11-.12.19-.16.55-.03.97.37,1.27,1.73,1.3,3.52,2.69,5.38,4.17.01,0,.02.01.02.02.04.05.03.12-.02.16-.59.45-1.23.9-2.02.96-1.06.08-2.06-.05-2.96-.57-.73-.41-1.67-.27-1.83.68-.06.32.09.63.36.79,1.36.8,3.38,1.45,4.93,1.05,1.4-.36,2.11-.81,3.07-1.73.09-.09.18-.1.28-.02,3.42,2.59,6.88,5.23,10.38,7.93.17.13.37.22.6.21.11,0,.17.06.17.18l-.2,9.48s0,.05-.01.08c-.05.09-.16.13-.25.09l-10.43-4.85c-.1-.05-.13-.12-.09-.22,1.01-2.3-.44-6.07-1.51-8.06-.23-.42-.58-.59-1.05-.49-.1.02-.19.06-.27.13-.5.44-.58,1.02-.24,1.72.69,1.41,1.11,2.59,1.26,3.57.1.63.13,1.36.08,2.19,0,.22-.12.28-.32.19l-12.46-5.82c-.22-.1-.47-.11-.7-.03-.75.27-.95.74-.6,1.4.07.15.2.27.35.35l4.29,2.05s.06.04.08.07c.09.11.06.26-.04.34-1.91,1.43-3.98,1.85-6.23,1.25-1.28-.33-1.61.97-.97,1.75.07.09.16.14.27.14,1.05.03,2.04.34,3.1.26,2.29-.15,4.38-.94,5.79-2.7.08-.1.18-.13.31-.07l5.61,2.6c.13.06.14.13.03.22-1.25.98-3.31,1.24-4.84,1.47-.46.06-.7.33-.73.79,0,.21.03.41.15.6.13.23.37.38.64.39,2.64.05,4.95-.71,6.92-2.29.09-.07.19-.09.29-.04l10.5,4.88c.14.06.15.14.02.22-3.67,2.32-7.33,4.62-10.99,6.9-.8.5-1.61.88-2.32,1.52-.13.12-.34.11-.46-.02-1.75-1.77-3.91-1.87-6.25-1.62-.39.04-.97.2-1.75.49-.14.05-.21.15-.21.3v.92c0,.2.08.33.27.4.3.11.61.14.94.09.92-.12,1.8-.43,2.74-.35.83.07,1.66.31,2.49.73.03.02.06.05.08.08.06.1.03.23-.07.29-1.9,1.15-3.92,2.41-6.07,3.78-.42.26-.54.72-.36,1.36.03.1.09.19.18.24.45.27.92.26,1.41-.04,1.86-1.16,3.72-2.33,5.58-3.51.39-.24.59-.14.62.32.03.68.05,1.39.06,2.12.01,1.11-.51,2.03-.7,3.1-.08.45.11.73.56.84l.13.03c.55.13.94-.07,1.16-.59.98-2.23,1.09-4.55.35-6.97-.03-.1,0-.18.09-.24l13.27-8.3s.03,0,.04,0c.05,0,.08.04.08.08-.3,4.21-.4,8.4-.29,12.6.01.24-.09.48-.27.65-1.36,1.24-2.96,2.21-4.81,2.92-1.35.51-2.98.71-4.42.88-.14.02-.23.08-.28.21-.19.42-.34.91-.59,1.3-1.21,1.84-2.88,2.13-4.91,1.98-.9-.07-1.82.05-2.77.34-.67.2-1.36.26-2.08.15-1.55-.21-2.99-.59-4.33-1.14-.44-.18-.87-.3-1.29-.36-.63-.09-1.21-.3-1.57-.86-1.11-1.72-1.32-3.16-1.6-5.05-.02-.16-.16-.28-.33-.27-1.47.05-3.14,0-4.05-1.26-.77-1.07-.89-2.09-1.12-3.35-.06-.34-.23-.64-.5-.88-1.48-1.31-2.59-2.97-2.35-5.04.13-1,.67-1.96,1.17-2.81.15-.25.1-.57-.12-.76-.68-.61-1.42-1.27-1.53-2.23-.07-.6-.04-1.6.24-2.27.52-1.28,1.23-2.42,2.13-3.42.28-.3.33-.67.14-1.04-1.31-2.57-.27-4.84,2.32-5.95.21-.09.36-.28.38-.51.04-.54-.08-1.01-.36-1.42-.51-.73-.56-1.7-.48-2.55.14-1.46,1.57-2.75,2.79-3.42.45-.25.88-.68.8-1.24-.12-.85.01-1.71.38-2.56.65-1.48,1.87-1.76,3.37-1.75.42.01.77-.33.79-.75.08-2.14.23-3.94,2.08-5.25.98-.69,1.99-1.07,3.05-1.15.7-.06,1.15-.57,1.29-1.23.34-1.59.93-3,2.21-3.99.67-.52,1.51-.38,2.3-.35.27,0,.52-.14.64-.38,1.28-2.46,3.54-3.63,6.3-3.17.39.07.7-.07.92-.42,1.13-1.73,2.72-2.11,4.61-2.58.67-.17,1.33-.29,1.97-.36,3.34-.39,6.67-.39,9.98.02.59.07,1.17.18,1.76.33,1.91.49,3.47.83,4.62,2.59.2.32.58.49.96.42,2.46-.41,5.2.64,6.15,3.09.12.29.42.47.73.45,1.16-.09,2.2-.11,3,.91.65.84,1.17,1.85,1.54,3.02.14.46-.02,1.11.48,1.38.68.37,1.42.26,2.14.51,1.87.66,3.57,2.15,3.74,4.22.05.65.06,1.28.04,1.89v.02c0,.42.33.76.75.77,1.77.02,3.08.31,3.64,2.22.16.57.2,1.23.1,1.98-.07.46.09.81.48,1.05,1.56,1,2.73,1.9,3.31,3.81.31,1.05-.49,2.18-.91,3.11-.26.54-.12,1.16.48,1.38.72.29,1.42.82,2.08,1.58.46.54.69,1.12.7,1.77.02.92-.13,1.7-.45,2.35-.22.43-.2.98.13,1.35,1.18,1.36,2.88,4,2.17,5.88Z"/>
        <path class="cls-1" d="M190.7,52.31c-.12-2.13-.67-4.04-1.66-5.75-1.83-3.13-4.54-5.19-8.14-6.17-.97-.26-2.08-.42-3.32-.46-1.28-.05-2.45.01-3.49.18-4.24.71-7.85,3.22-9.8,7.07-.71,1.41-1.16,3.11-1.33,5.09-.14,1.62.01,3.25.44,4.89.88,3.31,2.9,5.92,6.06,7.83,1.64.98,3.8,1.51,5.68,1.8,1.54.24,3.25.14,5.13-.3,4.53-1.04,7.95-3.9,9.64-8.2.65-1.65.91-3.64.79-5.98ZM186.04,57.64c-.95,4.29-4.08,7.87-8.58,8.12-2.03.11-3.79-.31-5.25-1.26-2.63-1.71-4.05-4.38-4.68-7.42-.96-4.66-.22-10.18,3.11-13.64,1.43-1.48,3.57-2.44,5.7-2.46.7-.01,1.37.02,1.99.08,2.78.26,5.3,2.52,6.54,4.91,1.84,3.51,2.03,7.8,1.17,11.67Z"/>
        <path class="cls-1" d="M29.1,61.75c-.1.28-.21.28-.33,0-2.46-5.97-4.88-11.85-7.27-17.67-.37-.9-.65-2.75.78-2.89.33-.03.51-.21.55-.54,0-.03,0-.06,0-.09-.03-.24-.16-.35-.4-.35l-7.94.02c-.14,0-.23.07-.26.21-.04.17-.02.34.06.51.06.12.15.19.28.21.46.09.9.12,1.24.48.45.49.78.99,1,1.51,3.15,7.39,6.35,14.94,9.58,22.66.36.85,1.34.8,2.06.64.28-.06.49-.29.64-.7,2.11-5.76,4.3-11.63,6.57-17.62.67-1.75,1.27-3.39,1.8-4.89.42-1.2,1.13-1.88,2.12-2.04.29-.05.43-.22.44-.51v-.16c0-.21-.09-.32-.3-.31l-4.99.02c-.17,0-.3.13-.31.3-.01.37.17.59.55.65.29.05.55.14.79.27.1.06.17.14.19.26.12.7.12,1.25-.03,1.64-2.24,6.1-4.52,12.23-6.85,18.39h0Z" vector-effect="non-scaling-stroke"/>
        <path class="cls-1" d="M55.59,43.33c0-1.06,0-2.05,1.36-2.14.27-.02.4-.16.41-.43v-.18c.01-.24-.11-.37-.35-.37h-6.95c-.24,0-.36.13-.36.36v.25c0,.24.12.36.36.37,1.24.04,1.42,1.2,1.43,2.19.01,6.45.01,13.03,0,19.76,0,1.16-.09,2.12-1.41,2.46-.15.04-.26.12-.32.25-.08.15-.08.31-.02.48.03.08.11.14.2.14,2.34.02,4.71.01,7.13,0,.12,0,.2-.05.26-.15.09-.15.1-.31,0-.48-.05-.1-.13-.16-.24-.18-1.72-.33-1.51-1.83-1.51-3.14-.01-6.59,0-12.98.02-19.2h0Z" vector-effect="non-scaling-stroke"/>
        <path class="cls-1" d="M81.41,61.83c-2.28-5.51-4.56-11.04-6.83-16.58-.36-.88-1.51-3.48-.06-3.96.31-.1.73-.16.9-.46.08-.15.08-.3-.02-.45-.07-.1-.16-.16-.29-.16h-7.94c-.14,0-.23.07-.27.21-.05.17-.04.34.03.49.05.12.14.19.27.21,1.02.23,1.75.85,2.18,1.86,3.3,7.78,6.55,15.52,9.77,23.21.07.17.2.27.39.28.91.07,1.8.18,2.17-.84,2.71-7.33,5.54-14.89,8.49-22.69.38-1.01,1.06-1.6,2.04-1.76.25-.04.39-.19.39-.45v-.21c.01-.22-.09-.33-.31-.33h-5.08c-.15,0-.24.07-.27.22-.04.17-.02.33.06.47.06.11.15.17.27.2.59.13,1.47.24,1.47,1.05,0,.41-.06.76-.17,1.06-2.34,6.31-4.66,12.51-6.97,18.6-.07.2-.15.2-.23,0h0Z" vector-effect="non-scaling-stroke"/>
        <path class="cls-1" d="M108.07,52.36v-10.52c0-.09.07-.16.16-.16,1.99.02,4.19.01,6.57-.02,3.11-.05,4.23,1.6,5.34,4.21.22.53.45.53.66,0,.02-.06.03-.11.02-.17-.15-1.15-.27-2.31-.36-3.51-.04-.63-.15-1.23-.31-1.81-.02-.09-.1-.15-.19-.15-5.37-.03-10.96-.04-16.76,0-.22,0-.45.02-.67.05-.12.02-.2.08-.24.18-.11.27.02.59.31.67.27.08.54.17.81.26.25.09.43.31.47.56.15.87.23,1.81.23,2.81,0,4.69.01,9.48.02,14.37,0,1.59-.03,3.16-.11,4.72-.07,1.37-.7,1.36-1.66,1.95-.15.09-.2.29-.11.44.04.06.1.11.16.13.21.08.43.11.65.11,5.14,0,11.03,0,17.67-.01.09,0,.16-.06.18-.15.24-1.04.39-2.07.43-3.1.04-.83.22-1.65.32-2.46.03-.19-.05-.27-.24-.26l-.27.02c-.15.01-.24.09-.28.23-.59,2.21-1.72,3.53-3.4,3.97-.75.2-2.3.27-4.64.22-1.58-.03-3.09-.03-4.53,0-.14,0-.26-.11-.26-.25,0,0,0,0,0,0v-10.55c0-.07.06-.13.14-.13,1.83,0,3.62-.01,5.37-.01,1.52,0,2.43.71,2.71,2.13.02.1.08.18.17.23.08.04.16.04.24,0,.11-.06.17-.16.17-.29v-5.74c0-.19-.09-.29-.29-.3h-.09c-.12-.01-.23.08-.24.21-.15,1.62-1.47,2.12-2.9,2.19-1.63.08-3.34.1-5.14.07-.07,0-.13-.06-.13-.13h0Z" vector-effect="non-scaling-stroke"/>
        <path class="cls-1" d="M154.8,65.62c-.99-.45-1.78-1.11-2.36-1.97-1.97-2.91-3.92-5.84-5.83-8.77h-.01s.01-.05.03-.05c1.93-.55,3.42-1.67,4.45-3.35.35-.58.59-1.23.7-1.97.43-2.79-.08-5.22-2.43-7.06-.8-.62-1.58-1.06-2.35-1.31-1.86-.59-3.94-.9-6.24-.92-.93-.01-1.86-.01-2.79-.01-1.87,0-3.76.01-5.67.04-.08,0-.15.04-.2.09-.05.05-.08.13-.08.2v.27c0,.24.14.36.37.37,1.47.04,1.65,1.19,1.65,2.33,0,6.24,0,12.91-.01,20.02,0,1.35-.62,1.78-1.78,2.2-.1.03-.16.09-.2.18-.06.11-.07.23-.03.35.04.12.15.2.28.2,2.41.03,4.74.03,6.97.01.37-.01.52-.18.44-.52-.03-.12-.11-.21-.22-.26-.89-.39-1.47-.4-1.48-1.61,0-2.75,0-5.48-.02-8.18,0-.11.09-.2.2-.2h4.09c.35-.01.67.17.86.46l6.36,10.1c.09.14.24.22.41.22,1.76.02,3.39.01,4.87-.02.23,0,.34-.11.34-.33s-.12-.42-.32-.51ZM141.73,54.1l-3.51.02c-.1,0-.18-.07-.18-.17l-.06-12.07c0-.09.07-.17.17-.17l3.51-.02c3.36-.02,6.09,2.55,6.11,5.75v.85c.02,3.2-2.68,5.8-6.04,5.81Z"/>
        <path class="cls-1" d="M49.18,119.35c-2.49-.9-3.63-3.75-4.38-6.06-3.42-10.6-6.79-20.98-10.09-31.15-.61-1.86-1.52-3.73-3.41-4.35-.9-.3-1.85-.46-2.83-.49-2.05-.05-4.13-.06-6.22-.02-.03,0-.07.01-.1.02s-.05.03-.08.06c-.02.02-.04.05-.05.08-.01.03-.02.06-.02.09s0,.06.02.09c.95,2.45.79,4.79-.08,7.3-1.86,5.31-3.76,10.71-5.71,16.17-.04.11-.14.18-.26.19-2.57.01-5.13-.17-7.75.32-3.53.66-7.71,2.1-8.17,6.31-.35,3.28,1.33,5.63,4.48,6.23,2.24.42,4.22.18,5.94-.73.23-.12.38-.31.45-.56.02-.08-.03-.16-.11-.18-2.32-.54-3.19-2.13-3.25-4.36-.04-1.43.71-2.48,2.25-3.15,1.7-.73,3.41-1.06,5.15-.98.12.01.15.07.12.18-.92,2.58-1.82,5.1-2.69,7.58-.15.43-.3.89-.46,1.38-.79,2.42-2.19,4.77-4.72,5.66-.33.11-.45.34-.36.67.03.1.11.17.21.17,3.08.11,6.13.14,9.15.1.16,0,.32-.03.47-.07.08-.03.14-.08.17-.15.02-.04.03-.07.03-.12,0-.03,0-.06-.01-.09-.01-.04-.03-.08-.06-.1-.02-.04-.05-.06-.09-.08-1.01-.49-2.21-1.23-2.4-2.41-.23-1.42-.09-2.89.43-4.39.94-2.76,1.89-5.49,2.86-8.22.03-.09.12-.16.22-.15l11.63.11c.16.01.26.08.31.24.99,2.97,1.93,5.95,2.8,8.96.71,2.41.5,4.73-2.1,5.85-.12.05-.18.14-.19.27-.02.12.02.22.13.29.06.05.13.07.21.07,6.49.07,12.71.14,18.66.23.1,0,.17-.04.22-.13.14-.28-.05-.58-.32-.68ZM28.69,101.11c0,.06-.05.11-.11.11l-9.79-.1s-.02,0-.03,0c-.06-.02-.09-.08-.07-.14l5.05-15.18s.04-.07.07-.08c.06-.01.12.02.14.08l4.74,15.29v.03Z"/>
        <path class="cls-1" d="M76.22,102.54c-.44-.02-.45-.1-.03-.23.83-.26,1.68-.48,2.55-.67,5.48-1.17,9.23-5.11,9.57-10.74.07-1.24.03-2.39-.12-3.47-.76-5.33-4.74-8.04-9.82-8.98-2.39-.44-4.99-.72-7.46-.71-6.18.04-12.53.03-19.06-.03-.11,0-.18.05-.21.16-.05.19-.06.37,0,.55.03.12.13.22.25.25,2.66.63,3.4,3.07,3.37,5.53-.06,4.72-.1,9.6-.11,14.65,0,.14.11.25.25.25l10.8.03c.12,0,.22-.1.22-.22l.06-19.02c0-.14.09-.26.22-.3,1.06-.34,2.23-.45,3.51-.34,4.42.4,6.68,5.61,6.82,9.51.07,1.85.09,3.88-.47,5.67-.94,2.97-2.35,5.01-5.48,5.91-.98.29-1.85.43-2.6.44-4.27.07-8.68.07-13.22-.01-.06,0-.1.04-.1.1,0,0,0,0,0,0,0,4.35,0,8.48.01,12.4,0,1.21-.29,2.39-.69,3.52-.46,1.31-1.45,2.18-2.96,2.61-.32.09-.42.3-.3.62.04.1.14.17.25.17,6.81.13,12.98.2,18.51.23.33,0,.47-.17.41-.51-.02-.12-.1-.21-.21-.25-2.57-.85-3.85-2.66-3.86-5.44-.01-3.59.04-7.23.14-10.92,0-.15.12-.26.27-.26,0,0,0,0,0,0,.95.03,1.87.02,2.76-.02,3.53-.16,5.75,6.31,6.73,9.03,2.12,5.88,5.35,12.56,10.01,16.42,1.99,1.65,4.14,2.67,6.46,3.05,2.02.34,4.19.15,6.51-.57,3.91-1.21,7.02-4.2,8.97-7.9.2-.38.09-.51-.32-.38-3.5,1.09-8.28,1.49-11.65-.31-1.54-.82-2.82-1.82-3.85-3-2.32-2.66-4.09-5.61-6.02-8.59-2.37-3.67-5.29-6.84-9.56-8.13-.17-.05-.35-.08-.53-.09h0Z" vector-effect="non-scaling-stroke"/>
        <path class="cls-1" d="M136.5,120c-2.39-.73-3.66-3.78-4.36-5.96-3.12-9.69-6.49-20.13-10.13-31.32-.76-2.35-1.99-4.32-4.81-4.43-2.42-.11-4.98-.16-7.67-.16-.02,0-.03,0-.05.01h-.01s-.03.02-.04.03c-.01,0-.01.01-.02.03h-.01s-.02.05-.02.08v.05c.22.69.41,1.35.55,1.99.29,1.28.16,2.74-.26,4.1-.37,1.21-.76,2.37-1.15,3.47-2.98,8.34-6.1,17.19-9.39,26.55-.57,1.62-1.85,3.94-3.41,4.76-.43.23-.88.42-1.33.58-.16.05-.25.22-.21.39.06.22.19.34.4.35,2.78.08,5.84.12,9.18.14.09,0,.18-.04.24-.1.15-.15.18-.3.07-.45-.11-.16-.25-.27-.42-.34-.99-.4-1.6-.99-1.85-1.79-.36-1.19-.34-2.48.07-3.89.69-2.33,1.74-5.38,3.16-9.15.03-.09.1-.13.19-.13l11.67.19c.11,0,.2.07.23.17.93,2.96,1.81,5.78,2.65,8.45.31,1.01.46,2.09.43,3.23-.05,1.65-.9,2.51-2.29,3.07-.3.12-.39.46-.29.75.05.12.14.19.27.19,6.07.08,12.28.1,18.64.04.17,0,.32-.11.37-.28.07-.3-.11-.53-.4-.62ZM116.01,101.88s-.02.05-.05.05l-9.67-.13s-.04,0-.06-.01c-.11-.04-.17-.16-.13-.27,1.23-3.72,2.46-7.44,3.71-11.15.43-1.27.9-2.45,1.11-3.79.05-.35.15-.36.29-.04.13.29.25.61.36.94,1.34,4.25,2.82,9.05,4.44,14.38v.02Z"/>
        <path class="cls-1" d="M176.68,106.07c-.2-2.37-1.13-4.64-2.8-6.83-1.45-1.91-3.41-3.19-5.87-3.85-.03-.01-.04-.02-.05-.05v-.04h.01s.02-.04.03-.05c.59-.21,1.18-.4,1.78-.58,2.69-.81,4.66-3.43,4.92-6.17.11-1.13.1-2.15-.03-3.07-.48-3.53-3.02-5.5-6.37-6.24-1.1-.24-2.07-.38-2.9-.41-3.27-.12-6.68-.01-9.95-.13-4.5-.16-8.95-.27-13.33-.33-.28-.01-.55-.01-.83,0-.12,0-.21.05-.27.15-.12.17-.13.35-.03.52.06.11.15.17.27.19.96.17,1.64.36,2.03.57,1.39.77,2.09,1.89,2.08,3.35-.03,10.06-.06,20.1-.08,30.1,0,.67-.01,1.34-.04,2.01-.09,2.61-1.23,4.41-4.05,4.8-.29.04-.47.2-.53.49-.01.03-.01.06-.01.09.04.21.17.31.38.31,5.84.09,11.79.17,17.83.25,4.42.05,9.38-.23,13.17-2.73,2.99-1.97,4.67-5.43,4.73-9.09.02-1.16-.01-2.24-.09-3.26ZM156.63,80.73c0-.27.22-.49.5-.49h1.11c3.17.01,5.73,2.99,5.72,6.64v1.25c-.02,3.65-2.6,6.61-5.78,6.6h-1.1c-.28-.01-.5-.23-.5-.5l.05-13.5ZM160.75,118.27c-2.16.06-3.43-.91-3.99-3.01-.27-1.04-.47-2.19-.46-3.27.05-5.18.11-10.24.21-15.2,0-.11.06-.17.17-.17.74-.02,1.5.05,2.24.08,4.82.13,6.27,5.69,6.31,9.56.03,3.24.62,11.86-4.48,12.01Z"/>
        <path class="cls-1" d="M195.97,83.53c.18-2.01,1.59-3.3,3.43-3.87.33-.1.42-.32.29-.66-.05-.13-.18-.22-.32-.22l-18.21-.08c-.1,0-.2.04-.26.12-.13.16-.14.31-.04.45.06.08.13.13.23.15,2.5.49,3.74,2.15,3.73,5-.04,6.83-.12,13.62-.24,20.36-.06,3.39-.07,6.67,0,10.03.03,1.53-.14,2.66-.5,3.38-.62,1.24-1.68,2-3.16,2.27-.09.02-.17.06-.24.12-.13.13-.17.29-.1.47.05.16.2.27.37.27,6.09.1,11.89,0,18.11.07.4,0,.55-.18.43-.56-.03-.11-.12-.18-.23-.21-1.79-.41-2.9-1.33-3.33-2.74-.16-.53-.23-1.56-.21-3.07.14-9.75.18-18.96.1-27.63-.01-1.14.04-2.36.16-3.67h0Z" vector-effect="non-scaling-stroke"/>
        <path class="cls-1" d="M243.42,121.05c-2.55-.88-3.79-3.73-4.55-6.09-3.54-11.04-6.88-21.39-10-31.04-.76-2.32-1.9-4.56-4.71-4.69-2.5-.12-5.12-.17-7.83-.17-.03,0-.06.01-.08.02-.01,0-.02,0-.03.02h-.01s-.02.01-.03.02c-.01.01-.02.02-.02.03-.03.03-.04.07-.04.11,0,.03,0,.05.01.08.82,2.16.86,4.29.15,6.41-1.22,3.62-2.68,7.79-4.37,12.5-2.09,5.82-4.05,11.41-5.88,16.77-.81,2.36-2.27,4.9-4.86,5.63-.12.03-.2.1-.24.22-.07.19-.04.35.09.48.08.07.17.11.27.11l9.3.16s.04,0,.05,0h.01s.01,0,.02-.01c.03,0,.07,0,.09-.03.03-.02.06-.03.08-.06.03-.02.05-.05.06-.09h.01s.01-.03.01-.03c.02-.04.03-.08.03-.12v-.07c-.03-.23-.16-.39-.37-.46-1.34-.46-2.09-1.33-2.24-2.62-.11-.98-.05-1.9.19-2.76.87-3.17,2.03-6.3,3.21-9.39.05-.13.18-.22.33-.22l11.62.18c.11,0,.18.05.21.16.75,2.63,1.62,5.4,2.59,8.32.53,1.6.85,3.46.03,4.96-.43.8-1.28,1.18-2,1.67-.17.12-.21.27-.12.45.05.09.14.15.25.15,6.34.01,12.52.05,18.54.13.11,0,.22-.03.32-.09.11-.06.17-.16.16-.3-.01-.15-.11-.28-.25-.33ZM222.59,102.87l-9.68-.14s-.03,0-.04-.01c-.07-.02-.1-.09-.08-.16l5.05-15.08s.04-.07.08-.08c.07-.03.15.01.17.08l4.62,15.22s.01.02.01.04c0,.07-.06.13-.13.13Z"/>
      </g>
      <path class="cls-1" d="M304.93,50.41c1.96-2.75.71-6.14-1.13-8.51-.42-.53.01-1.61.14-2.21.1-.4.1-.81.03-1.23-.35-1.9-1.3-3.32-2.84-4.27-.11-.07-.14-.16-.1-.28,1.09-3.03.39-5.5-2.11-7.43-.27-.2-.52-.43-.75-.66-.07-.07-.1-.15-.11-.25-.33-2.75-1.35-5.28-4.44-5.47-.12,0-.22-.09-.24-.21-.2-1.06-.24-2.11-.72-3.09-1.23-2.52-3.1-3.28-5.66-4.06-.1-.03-.18-.11-.21-.22-.49-2.07-1.77-4.48-3.97-5.14-.45-.13-.92-.24-1.39-.31-.13-.02-.24-.08-.33-.18-.31-.34-.61-.68-.9-1.02-.95-1.09-3.07-2.42-4.78-2.36-.43.01-.85,0-1.25-.03-.12-.01-.22-.06-.3-.14-2.22-2.14-4.65-2.56-7.56-3.09-2.22-.4-4.5-.19-6.79-.23-2.61-.04-5.13.4-7.55,1.13-1.32.4-2.5,1.14-3.55,2.2-.07.07-.16.11-.26.12-.86.06-1.69-.04-2.53.21-1.46.46-2.67,1.2-3.61,2.23-.41.46-.63,1.09-1.32,1.2-.47.07-.92.17-1.36.3-1.92.54-3.19,2.76-3.7,4.61-.14.5-.44.8-.9.9-3.34.72-5.78,3.44-5.83,6.89,0,.18-.15.32-.32.32-1.97-.02-3.45,1.62-4.01,3.44-.21.68-.12,1.32-.18,2.01-.01.13-.07.22-.17.28-1.69.99-2.81,2.36-3.37,4.08-.5,1.57-.17,2.53.38,3.89.06.13.03.24-.09.32-2.53,1.76-3.34,4.18-2.43,7.26.03.11.01.21-.06.29-1.41,1.77-2.2,3.52-2.37,5.26-.11,1.22.29,2.46,1.22,3.74.06.08.08.18.06.28-.25,1.13-.72,2.3-.71,3.43.01,1.05.27,2.08.75,3.11.42.88,1.16,1.58,1.76,2.34.7.88.7,2.04,1.11,3.05.81,2.05,2.29,3.08,4.44,3.11.27.01.49.2.54.46.47,2.41,1.52,5.16,4.1,5.89,1.04.29,2,.59,2.88.91,2.85,1.02,5.93.35,8.87.33,2.35-.01,4.77-1.02,6.08-3.05.13-.21.15-.49.32-.69.09-.1.2-.14.33-.13.44.03.87,0,1.27-.09,2.33-.5,4.47-1.46,6.44-2.87.11-.07.16-.05.16.09-.02,9.7-.11,16.46-.28,20.28-.09,2.18-.16,4.34-.22,6.46-.05,1.75-.33,3.41-.48,5.15-.1,1.28-.22,2.57-.36,3.86-.15,1.46-.34,2.93-.56,4.42-.34,2.32-.9,5.1-1.67,8.31-.91,3.8-2.26,7.48-4.07,11.05-.1.21-.22.41-.35.61-.07.1-.16.17-.29.21-1.01.26-2,.82-2.98,1.68-2.15,1.89-4.41,1.54-6.9.92-1.67-.42-3.45-.5-5.11-.3-.82.09-1.64.45-2.47,1.07-.5.39-.56.83-.16,1.34l.1.13c.3.37.65.44,1.06.2,1.44-.85,2.87-1.21,4.64-.85,2.33.47,4.84,1.1,7.22.64,1.1-.22,2.09-.93,2.97-1.7.7-.62,1.84-.44,2.67-.42.14,0,.26.05.36.14,1.48,1.32,3,2.15,5,1.39.89-.34,1.79-.81,2.7-1.42,1.39-.93,2.74-.64,4.09.13,2.53,1.43,5.03-.08,7.42-.94,1-.37,1.94-.19,2.81.53,1.27,1.04,2.84,2.62,4.44,3.02,1.6.41,3,.54,4.71.38,2.37-.22,4.86-.38,7.49-.49,1.47-.06,2.9-.23,4.29-.5.53-.1.81-.42.86-.96.01-.13-.03-.25-.11-.36-.26-.35-.61-.52-1.05-.49-.68.06-1.39.09-2.14.1-1.84.03-3.61.43-5.45.51-2.25.09-4.89.47-6.8.21-2.79-.37-4.3-2.34-5.35-4.8-2.35-5.56-3.69-11.51-4.44-17.59-.12-.97-.34-1.86-.39-2.85-.07-1.44-.39-2.84-.43-4.27-.08-2.66-.55-5.31-.56-8.07-.01-4.45.04-8.82-.12-13.45-.09-2.39-.12-4.56-.11-6.51.01-2.24-.18-4.5-.21-6.7,0-.14.06-.18.19-.1,2.21,1.38,4.64,2.33,7.28,2.85.31.07.66.09,1.04.08.16-.01.27.05.35.19.81,1.35,1.65,2.37,3.17,2.98,1.19.48,2.3.71,3.35.7.83-.01,1.64.02,2.41.09,1.46.13,2.93.14,4.39.02,1.44-.11,2.62-.86,4.01-1.14,1.43-.29,2.69-.92,3.47-2.22.79-1.32,1.29-2.71,1.52-4.19.02-.11.12-.2.24-.19,3.34.16,5.02-2.54,5.34-5.52.01-.11.05-.22.13-.31.62-.78,1.42-1.46,1.92-2.34,1.08-1.91,1.1-4.29.31-6.43-.13-.36-.09-.69.13-1ZM266.21,113.51c.77,4.61,2.03,9.06,3.76,13.36.06.16.01.23-.16.23-2.23,0-4,1.19-5.97,1.57-1.41.28-2.86-.67-4.19-1.16-1.02-.37-2.06-.24-3.11.39-.86.52-1.74,1.01-2.63,1.46-1.57.78-3.07-.09-4.14-1.21-.07-.07-.09-.18-.04-.27,1.85-3.45,3.27-7.06,4.24-10.84.56-2.17,1.11-4.65,1.65-7.42.3-1.58.41-3.09.65-4.68.16-1.03.28-2.07.38-3.11.13-1.4.37-2.76.43-4.18.1-2.71.51-5.37.49-8.08,0-1.36.01-2.64.03-3.83.16-7.37.45-14.5.47-21.65.01-3.7.23-7.6.21-11.34-.02-2.1.05-4.1.19-6.01.23-2.93.34-5.7.35-8.3.01-3.31.45-6.68.44-9.98,0-1.24.08-2.66.26-4.28.23-2.15.34-4.07.31-5.75-.01-.49.16-1.17.16-1.77,0-1.77.13-3.56.4-5.37.17-1.24.04-2.48.26-3.71.19-1.07.32-2.09.4-3.08.02-.15.1-.22.25-.22h.43c.16-.01.24.07.24.23,0,1.73-.05,3.57.06,5.36.3,4.92.17,9.98.39,14.88.18,3.85.3,7.89.36,12.13.03,2.5.16,5.84.37,10.04.13,2.63.08,5.3.14,7.9.07,2.4.15,4.79.25,7.18.17,3.87.19,8.04.3,12.04.14,4.93.11,9.6.1,14.49-.01,1.86.16,4.68.49,8.44.12,1.34-.04,2.71.15,4.05.16,1.1.27,2.2.33,3.31.05.79.15,1.56.3,2.33.21,1.04.22,2.08.39,3.14.21,1.28.41,2.52.61,3.71ZM303.85,48.3c-.26.71-.84,1.2-1.29,1.79-.49.62.14,1.76.43,2.37,1.14,2.38-.06,4.99-2.11,6.46-.17.12-.28.3-.32.5-.21,1.04-.23,2.35-.8,3.25-.98,1.55-2.46,1.68-4.15,1.59-.21-.01-.39.14-.42.35-.29,1.94-.77,4.3-2.35,5.64-.12.11-.25.16-.41.16-.79.02-1.54.22-2.27.6-1.04.55-2.4.67-3.54.91-1.18.25-2.18-.01-3.31-.32-1.48-.4-3.07.18-4.54-.34-1.34-.48-2.25-1.44-2.71-2.87-.08-.22-.27-.38-.51-.41-.78-.1-1.58-.22-2.39-.35-2.62-.42-5.22-1.69-7.33-3.23-.18-.13-.29-.34-.31-.56l-.1-1.9c0-.14.06-.23.18-.28.48-.18.94-.42,1.34-.73,4.04-3.16,7.93-6.2,11.66-9.12.16-.13.38-.12.53.03,1.38,1.4,3.1,2.37,5.16,2.9,1.33.36,2.54.51,3.62.47.55-.02.86-.39.9-.89.03-.41-.25-.77-.65-.85-2.87-.52-5.38-.84-7.57-2.95-.1-.1-.09-.19.01-.27l12.1-9.43c.49-.38.63-.87.43-1.45-.03-.07-.06-.13-.11-.19-.35-.46-.76-.52-1.22-.16l-2.71,2.12s-.08.05-.13.06c-.18.04-.35-.07-.39-.25-.21-.92-.58-1.77-.62-2.72-.03-.91-.05-1.89.25-2.77.18-.54.36-1.12.55-1.73.29-1.01-1.17-1.54-1.67-.79-.34.5-.58,1.08-.72,1.75-.41,1.88-.41,3.78,0,5.72.17.79.45,1.47.85,2.04.07.09.06.18-.04.24s-.19.13-.28.2c-6.98,5.38-13.45,10.42-19.41,15.12-.59.47-1.23.88-1.78,1.44-.2.2-.3.16-.3-.12.03-2.8-.03-5.56-.19-8.29-.24-4.22-.33-8.46-.28-12.72,0-.32.13-.6.37-.84,2.25-2.34,4.45-4.64,6.61-6.89.11-.12.22-.12.33,0,.26.3.55.62.89.83,1.74,1.05,3.86,2.08,5.85,2.08.87,0,.82-1.16.47-1.63-.06-.08-.13-.13-.23-.15-2.06-.38-3.91-1.16-5.54-2.35-.02,0-.04-.02-.06-.04-.16-.17-.16-.43.01-.59,1.6-1.58,3.1-3.18,4.49-4.81.08-.08.16-.1.26-.04,2.17,1.14,5.21,1.07,7.57.68.74-.13,1.25-.72.91-1.48-.22-.45-.62-.63-1.23-.52-1.93.32-3.86.29-5.77-.11-.02,0-.03-.01-.04-.02-.04-.03-.04-.09,0-.12l4.25-4.47c.16-.18.23-.41.2-.65-.06-.38-.22-.65-.49-.8-.47-.28-.89-.22-1.26.18l-4.29,4.54c-.1.11-.17.09-.22-.05-.64-1.89-.69-3.85-.14-5.9.17-.63.02-1.14-.46-1.52-.41-.33-.97-.13-1.23.29-.26.42-.41.86-.44,1.31-.14,1.8-.13,3.48.02,5.04.05.64.35,1.37.88,2.21.07.11.06.22-.03.32l-11.69,12.25c-.13.14-.2.11-.2-.08l-.44-17.27c0-.11.04-.19.13-.25.44-.31.83-.63,1.15-.96,2.37-2.37,4.86-4.87,7.48-7.5.46-.46.5-.95.12-1.48-.07-.09-.16-.15-.28-.19-.51-.16-.96-.05-1.34.34l-7.23,7.25c-.11.11-.16.09-.17-.06-.02-1.76-.2-3.58-.17-5.32.04-2.25.01-4.55-.07-6.89-.01-.21-.19-.37-.4-.37l-3.95.02c-.09,0-.17.06-.19.14-.35,1.55-.56,3.18-.62,4.88-.02.41-.09,1.02-.21,1.83-.23,1.5-.13,2.97-.33,4.46-.19,1.48-.09,2.94-.22,4.42,0,.03-.02.05-.04.07-.04.04-.1.03-.14-.01l-2.83-3.44c-.13-.15-.18-.36-.14-.55.18-.94.5-1.86.41-2.82-.17-1.67-.48-3.15-.95-4.44-.06-.16-.17-.29-.32-.37-.3-.18-.58-.22-.85-.1-.55.24-.75.66-.6,1.24.26,1.02.64,2.08.65,3.14,0,.52,0,1.04-.03,1.56-.01.12-.05.13-.13.04l-2.19-2.71c-.4-.49-.9-.63-1.5-.43-.16.06-.29.16-.39.31-.25.36-.23.71.06,1.05,2.68,3.15,5.27,6.29,7.77,9.43.17.22.43.37.79.46.11.03.16.1.15.21-.12,1.92-.03,3.76-.23,5.68-.31,2.91-.44,5.78-.41,8.62,0,.2-.07.24-.23.12-2.93-2.27-5.86-4.52-8.81-6.74-.65-.49-1.11-.82-1.4-.98-.1-.06-.12-.14-.06-.23.84-1.51,1.13-3.12.86-4.83-.2-1.27-.61-2.51-1.22-3.7-.22-.42-.58-.59-1.11-.54-.1.02-.18.05-.26.12-.49.42-.59.93-.29,1.5.91,1.74,1.14,3.69.67,5.83-.09.38-.29.45-.6.21-1.55-1.19-3.16-2.42-4.85-3.72-.47-.35-1.13-.34-1.58.03-.06.05-.1.11-.12.19-.16.55-.03.97.37,1.27,1.73,1.3,3.52,2.69,5.38,4.17.01,0,.02.01.02.02.04.05.03.12-.02.16-.59.45-1.23.9-2.02.96-1.06.08-2.06-.05-2.96-.57-.73-.41-1.67-.27-1.83.68-.06.32.09.63.36.79,1.36.8,3.38,1.45,4.93,1.05,1.4-.36,2.11-.81,3.07-1.73.09-.09.18-.1.28-.02,3.42,2.59,6.88,5.23,10.38,7.93.17.13.37.22.6.21.11,0,.17.06.17.18l-.2,9.48s0,.05-.01.08c-.05.09-.16.13-.25.09l-10.43-4.85c-.1-.05-.13-.12-.09-.22,1.01-2.3-.44-6.07-1.51-8.06-.23-.42-.58-.59-1.05-.49-.1.02-.19.06-.27.13-.5.44-.58,1.02-.24,1.72.69,1.41,1.11,2.59,1.26,3.57.1.63.13,1.36.08,2.19,0,.22-.12.28-.32.19l-12.46-5.82c-.22-.1-.47-.11-.7-.03-.75.27-.95.74-.6,1.4.07.15.2.27.35.35l4.29,2.05s.06.04.08.07c.09.11.06.26-.04.34-1.91,1.43-3.98,1.85-6.23,1.25-1.28-.33-1.61.97-.97,1.75.07.09.16.14.27.14,1.05.03,2.04.34,3.1.26,2.29-.15,4.38-.94,5.79-2.7.08-.1.18-.13.31-.07l5.61,2.6c.13.06.14.13.03.22-1.25.98-3.31,1.24-4.84,1.47-.46.06-.7.33-.73.79,0,.21.03.41.15.6.13.23.37.38.64.39,2.64.05,4.95-.71,6.92-2.29.09-.07.19-.09.29-.04l10.5,4.88c.14.06.15.14.02.22-3.67,2.32-7.33,4.62-10.99,6.9-.8.5-1.61.88-2.32,1.52-.13.12-.34.11-.46-.02-1.75-1.77-3.91-1.87-6.25-1.62-.39.04-.97.2-1.75.49-.14.05-.21.15-.21.3v.92c0,.2.08.33.27.4.3.11.61.14.94.09.92-.12,1.8-.43,2.74-.35.83.07,1.66.31,2.49.73.03.02.06.05.08.08.06.1.03.23-.07.29-1.9,1.15-3.92,2.41-6.07,3.78-.42.26-.54.72-.36,1.36.03.1.09.19.18.24.45.27.92.26,1.41-.04,1.86-1.16,3.72-2.33,5.58-3.51.39-.24.59-.14.62.32.03.68.05,1.39.06,2.12.01,1.11-.51,2.03-.7,3.1-.08.45.11.73.56.84l.13.03c.55.13.94-.07,1.16-.59.98-2.23,1.09-4.55.35-6.97-.03-.1,0-.18.09-.24l13.27-8.3s.03,0,.04,0c.05,0,.08.04.08.08-.3,4.21-.4,8.4-.29,12.6.01.24-.09.48-.27.65-1.36,1.24-2.96,2.21-4.81,2.92-1.35.51-2.98.71-4.42.88-.14.02-.23.08-.28.21-.19.42-.34.91-.59,1.3-1.21,1.84-2.88,2.13-4.91,1.98-.9-.07-1.82.05-2.77.34-.67.2-1.36.26-2.08.15-1.55-.21-2.99-.59-4.33-1.14-.44-.18-.87-.3-1.29-.36-.63-.09-1.21-.3-1.57-.86-1.11-1.72-1.32-3.16-1.6-5.05-.02-.16-.16-.28-.33-.27-1.47.05-3.14,0-4.05-1.26-.77-1.07-.89-2.09-1.12-3.35-.06-.34-.23-.64-.5-.88-1.48-1.31-2.59-2.97-2.35-5.04.13-1,.67-1.96,1.17-2.81.15-.25.1-.57-.12-.76-.68-.61-1.42-1.27-1.53-2.23-.07-.6-.04-1.6.24-2.27.52-1.28,1.23-2.42,2.13-3.42.28-.3.33-.67.14-1.04-1.31-2.57-.27-4.84,2.32-5.95.21-.09.36-.28.38-.51.04-.54-.08-1.01-.36-1.42-.51-.73-.56-1.7-.48-2.55.14-1.46,1.57-2.75,2.79-3.42.45-.25.88-.68.8-1.24-.12-.85.01-1.71.38-2.56.65-1.48,1.87-1.76,3.37-1.75.42.01.77-.33.79-.75.08-2.14.23-3.94,2.08-5.25.98-.69,1.99-1.07,3.05-1.15.7-.06,1.15-.57,1.29-1.23.34-1.59.93-3,2.21-3.99.67-.52,1.51-.38,2.3-.35.27,0,.52-.14.64-.38,1.28-2.46,3.54-3.63,6.3-3.17.39.07.7-.07.92-.42,1.13-1.73,2.72-2.11,4.61-2.58.67-.17,1.33-.29,1.97-.36,3.34-.39,6.67-.39,9.98.02.59.07,1.17.18,1.76.33,1.91.49,3.47.83,4.62,2.59.2.32.58.49.96.42,2.46-.41,5.2.64,6.15,3.09.12.29.42.47.73.45,1.16-.09,2.2-.11,3,.91.65.84,1.17,1.85,1.54,3.02.14.46-.02,1.11.48,1.38.68.37,1.42.26,2.14.51,1.87.66,3.57,2.15,3.74,4.22.05.65.06,1.28.04,1.89v.02c0,.42.33.76.75.77,1.77.02,3.08.31,3.64,2.22.16.57.2,1.23.1,1.98-.07.46.09.81.48,1.05,1.56,1,2.73,1.9,3.31,3.81.31,1.05-.49,2.18-.91,3.11-.26.54-.12,1.16.48,1.38.72.29,1.42.82,2.08,1.58.46.54.69,1.12.7,1.77.02.92-.13,1.7-.45,2.35-.22.43-.2.98.13,1.35,1.18,1.36,2.88,4,2.17,5.88Z"/>
      <path class="cls-1" d="M190.7,52.31c-.12-2.13-.67-4.04-1.66-5.75-1.83-3.13-4.54-5.19-8.14-6.17-.97-.26-2.08-.42-3.32-.46-1.28-.05-2.45.01-3.49.18-4.24.71-7.85,3.22-9.8,7.07-.71,1.41-1.16,3.11-1.33,5.09-.14,1.62.01,3.25.44,4.89.88,3.31,2.9,5.92,6.06,7.83,1.64.98,3.8,1.51,5.68,1.8,1.54.24,3.25.14,5.13-.3,4.53-1.04,7.95-3.9,9.64-8.2.65-1.65.91-3.64.79-5.98ZM186.04,57.64c-.95,4.29-4.08,7.87-8.58,8.12-2.03.11-3.79-.31-5.25-1.26-2.63-1.71-4.05-4.38-4.68-7.42-.96-4.66-.22-10.18,3.11-13.64,1.43-1.48,3.57-2.44,5.7-2.46.7-.01,1.37.02,1.99.08,2.78.26,5.3,2.52,6.54,4.91,1.84,3.51,2.03,7.8,1.17,11.67Z"/>
      <path class="cls-1" d="M29.1,61.75c2.33-6.16,4.61-12.29,6.85-18.39.14-.39.15-.94.03-1.64-.02-.12-.08-.2-.19-.26-.24-.13-.51-.22-.79-.27-.38-.07-.56-.28-.55-.65,0-.17.14-.3.31-.3l4.99-.02c.21,0,.31.1.31.31v.16c0,.29-.16.46-.44.51-.99.17-1.7.85-2.12,2.04-.53,1.51-1.13,3.14-1.8,4.89-2.27,5.99-4.46,11.86-6.57,17.62-.15.41-.36.64-.64.7-.72.16-1.7.22-2.06-.64-3.23-7.72-6.42-15.27-9.58-22.66-.22-.52-.56-1.03-1-1.51-.34-.37-.78-.4-1.24-.48-.13-.02-.22-.09-.28-.21-.08-.17-.1-.34-.06-.51.03-.14.12-.21.26-.21l7.94-.02c.24,0,.37.12.4.35,0,.03,0,.06,0,.09-.04.33-.22.51-.55.54-1.44.14-1.15,1.99-.78,2.89,2.39,5.81,4.81,11.7,7.27,17.67.12.28.23.28.33,0Z"/>
      <path class="cls-1" d="M56.95,41.19c-1.37.08-1.35,1.08-1.36,2.14-.02,6.21-.03,12.61-.02,19.2,0,1.32-.21,2.82,1.51,3.14.11.02.19.08.24.18.09.17.08.32,0,.48-.06.1-.15.15-.26.15-2.41.02-4.79.02-7.13,0-.09,0-.16-.06-.2-.14-.07-.17-.06-.33.02-.48.06-.13.17-.21.32-.25,1.33-.34,1.41-1.3,1.41-2.46,0-6.73,0-13.31,0-19.76,0-.99-.18-2.16-1.43-2.19-.24,0-.36-.13-.36-.37v-.25c0-.24.12-.36.36-.36h6.95c.24,0,.36.12.36.36v.18c-.01.27-.15.41-.42.43Z"/>
      <path class="cls-1" d="M81.41,61.83c.08.2.16.19.23,0,2.31-6.09,4.63-12.29,6.97-18.6.11-.3.17-.65.17-1.06,0-.81-.87-.92-1.47-1.05-.12-.03-.21-.09-.27-.2-.08-.14-.11-.3-.06-.47.03-.14.12-.21.27-.21h5.08c.22,0,.32.11.32.33v.21c-.01.26-.14.41-.4.45-.98.16-1.66.75-2.04,1.76-2.94,7.8-5.77,15.36-8.49,22.69-.38,1.01-1.26.9-2.17.84-.19-.02-.32-.11-.39-.28-3.22-7.69-6.48-15.43-9.77-23.21-.43-1.01-1.16-1.64-2.18-1.86-.12-.03-.21-.1-.27-.21-.07-.15-.08-.32-.03-.49.04-.14.13-.21.27-.21h7.94c.12,0,.22.05.29.15.1.15.11.3.02.45-.17.3-.6.36-.9.46-1.45.48-.3,3.09.06,3.96,2.27,5.54,4.55,11.06,6.83,16.58Z"/>
      <path class="cls-1" d="M108.07,52.36c0,.07.06.13.13.13,1.8.03,3.51,0,5.14-.07,1.43-.07,2.75-.57,2.9-2.19.01-.12.12-.22.24-.21h.09c.19.01.29.12.29.31v5.74c0,.13-.06.22-.17.29-.08.05-.16.05-.24,0-.09-.05-.14-.13-.17-.23-.29-1.42-1.19-2.13-2.71-2.13-1.75,0-3.54,0-5.37.01-.07,0-.13.06-.13.13v10.55c0,.14.11.25.25.25,0,0,0,0,0,0,1.44-.04,2.95-.04,4.53,0,2.34.05,3.89-.02,4.64-.22,1.67-.44,2.81-1.76,3.4-3.97.04-.14.13-.22.28-.23l.27-.02c.19-.01.27.07.24.26-.11.81-.28,1.63-.32,2.46-.05,1.02-.19,2.05-.43,3.1-.02.09-.09.15-.18.15-6.64,0-12.53.01-17.67.01-.22,0-.44-.03-.65-.11-.17-.06-.25-.24-.19-.41.02-.07.07-.13.13-.17.96-.59,1.59-.57,1.66-1.95.07-1.56.11-3.13.11-4.72-.01-4.89-.02-9.68-.02-14.37,0-1-.08-1.94-.23-2.81-.05-.26-.23-.47-.47-.56-.27-.1-.53-.19-.81-.26-.29-.08-.42-.4-.31-.67.05-.11.13-.17.24-.18.22-.03.45-.04.67-.05,5.8-.03,11.38-.03,16.76,0,.09,0,.17.06.19.15.17.58.27,1.18.31,1.81.08,1.19.2,2.36.36,3.51,0,.06,0,.11-.02.17-.22.52-.44.52-.66,0-1.1-2.61-2.23-4.25-5.34-4.21-2.39.03-4.58.04-6.57.02-.09,0-.16.07-.16.16v10.52Z"/>
      <path class="cls-1" d="M154.8,65.62c-.99-.45-1.78-1.11-2.36-1.97-1.97-2.91-3.92-5.84-5.83-8.77h-.01s.01-.05.03-.05c1.93-.55,3.42-1.67,4.45-3.35.35-.58.59-1.23.7-1.97.43-2.79-.08-5.22-2.43-7.06-.8-.62-1.58-1.06-2.35-1.31-1.86-.59-3.94-.9-6.24-.92-.93-.01-1.86-.01-2.79-.01-1.87,0-3.76.01-5.67.04-.08,0-.15.04-.2.09-.05.05-.08.13-.08.2v.27c0,.24.14.36.37.37,1.47.04,1.65,1.19,1.65,2.33,0,6.24,0,12.91-.01,20.02,0,1.35-.62,1.78-1.78,2.2-.1.03-.16.09-.2.18-.06.11-.07.23-.03.35.04.12.15.2.28.2,2.41.03,4.74.03,6.97.01.37-.01.52-.18.44-.52-.03-.12-.11-.21-.22-.26-.89-.39-1.47-.4-1.48-1.61,0-2.75,0-5.48-.02-8.18,0-.11.09-.2.2-.2h4.09c.35-.01.67.17.86.46l6.36,10.1c.09.14.24.22.41.22,1.76.02,3.39.01,4.87-.02.23,0,.34-.11.34-.33s-.12-.42-.32-.51ZM141.73,54.1l-3.51.02c-.1,0-.18-.07-.18-.17l-.06-12.07c0-.09.07-.17.17-.17l3.51-.02c3.36-.02,6.09,2.55,6.11,5.75v.85c.02,3.2-2.68,5.8-6.04,5.81Z"/>
      <path class="cls-1" d="M49.18,119.35c-2.49-.9-3.63-3.75-4.38-6.06-3.42-10.6-6.79-20.98-10.09-31.15-.61-1.86-1.52-3.73-3.41-4.35-.9-.3-1.85-.46-2.83-.49-2.05-.05-4.13-.06-6.22-.02-.03,0-.06,0-.09.01h-.01s-.05.04-.08.07c-.02.02-.04.05-.05.08-.01.03-.02.06-.02.09s0,.06.02.09c.95,2.45.79,4.79-.08,7.3-1.86,5.31-3.76,10.71-5.71,16.17-.04.11-.14.18-.26.19-2.57.01-5.13-.17-7.75.32-3.53.66-7.71,2.1-8.17,6.31-.35,3.28,1.33,5.63,4.48,6.23,2.24.42,4.22.18,5.94-.73.23-.12.38-.31.45-.56.02-.08-.03-.16-.11-.18-2.32-.54-3.19-2.13-3.25-4.36-.04-1.43.71-2.48,2.25-3.15,1.7-.73,3.41-1.06,5.15-.98.12.01.15.07.12.18-.92,2.58-1.82,5.1-2.69,7.58-.15.43-.3.89-.46,1.38-.79,2.42-2.19,4.77-4.72,5.66-.33.11-.45.34-.36.67.03.1.11.17.21.17,3.08.11,6.13.14,9.15.1.16,0,.32-.03.47-.07.08-.03.14-.08.17-.15.02-.04.03-.07.03-.12,0-.03,0-.06-.01-.09-.01-.04-.03-.08-.06-.1-.02-.04-.05-.06-.09-.08-1.01-.49-2.21-1.23-2.4-2.41-.23-1.42-.09-2.89.43-4.39.94-2.76,1.89-5.49,2.86-8.22.03-.09.12-.16.22-.15l11.63.11c.16.01.26.08.31.24.99,2.97,1.93,5.95,2.8,8.96.71,2.41.5,4.73-2.1,5.85-.12.05-.18.14-.19.27-.02.12.02.22.13.29.06.05.13.07.21.07,6.49.07,12.71.14,18.66.23.1,0,.17-.04.22-.13.14-.28-.05-.58-.32-.68ZM28.69,101.11c0,.06-.05.11-.11.11l-9.79-.1s-.02,0-.03,0c-.06-.02-.09-.08-.07-.14l5.05-15.18s.04-.07.07-.08c.06-.01.12.02.14.08l4.74,15.29v.03Z"/>
      <path class="cls-1" d="M76.22,102.54c.19,0,.36.04.53.09,4.27,1.29,7.19,4.46,9.56,8.13,1.93,2.98,3.7,5.93,6.02,8.59,1.03,1.18,2.32,2.18,3.85,3,3.37,1.79,8.15,1.4,11.65.31.41-.13.52,0,.32.38-1.95,3.69-5.06,6.69-8.97,7.9-2.33.72-4.5.91-6.51.57-2.32-.39-4.47-1.41-6.46-3.05-4.66-3.86-7.89-10.54-10.01-16.42-.98-2.71-3.2-9.18-6.73-9.03-.89.04-1.8.05-2.76.02-.15,0-.27.11-.27.25,0,0,0,0,0,0-.1,3.69-.15,7.32-.14,10.92,0,2.77,1.3,4.59,3.86,5.44.11.04.19.13.21.25.06.34-.08.51-.41.51-5.53-.02-11.69-.1-18.51-.23-.11,0-.21-.07-.25-.17-.12-.32-.02-.52.3-.62,1.51-.44,2.49-1.31,2.96-2.61.4-1.12.69-2.31.69-3.52,0-3.92-.01-8.05-.01-12.4,0-.06.05-.1.1-.1,0,0,0,0,0,0,4.54.08,8.95.08,13.22.01.75-.01,1.62-.16,2.6-.44,3.12-.9,4.54-2.93,5.48-5.91.56-1.79.54-3.82.47-5.67-.14-3.9-2.39-9.11-6.82-9.51-1.28-.12-2.44,0-3.51.34-.13.04-.22.16-.22.3l-.06,19.02c0,.12-.1.22-.22.22l-10.8-.03c-.14,0-.25-.11-.25-.25.01-5.04.05-9.92.11-14.65.03-2.45-.71-4.9-3.37-5.53-.12-.03-.22-.12-.25-.25-.05-.17-.04-.36,0-.55.03-.11.1-.16.21-.16,6.53.06,12.88.07,19.06.03,2.47-.02,5.06.26,7.46.71,5.07.94,9.05,3.65,9.82,8.98.15,1.08.19,2.23.12,3.47-.34,5.62-4.09,9.56-9.57,10.74-.88.19-1.73.41-2.55.67-.42.13-.41.21.03.23Z"/>
      <path class="cls-1" d="M136.5,120c-2.39-.73-3.66-3.78-4.36-5.96-3.12-9.69-6.49-20.13-10.13-31.32-.76-2.35-1.99-4.32-4.81-4.43-2.42-.11-4.98-.16-7.67-.16-.02,0-.03,0-.05.01h-.01s-.03.02-.04.03c-.01,0-.01.01-.02.03h-.01s-.02.05-.02.08v.05c.22.69.41,1.35.55,1.99.29,1.28.16,2.74-.26,4.1-.37,1.21-.76,2.37-1.15,3.47-2.98,8.34-6.1,17.19-9.39,26.55-.57,1.62-1.85,3.94-3.41,4.76-.43.23-.88.42-1.33.58-.16.05-.25.22-.21.39.06.22.19.34.4.35,2.78.08,5.84.12,9.18.14.09,0,.18-.04.24-.1.15-.15.18-.3.07-.45-.11-.16-.25-.27-.42-.34-.99-.4-1.6-.99-1.85-1.79-.36-1.19-.34-2.48.07-3.89.69-2.33,1.74-5.38,3.16-9.15.03-.09.1-.13.19-.13l11.67.19c.11,0,.2.07.23.17.93,2.96,1.81,5.78,2.65,8.45.31,1.01.46,2.09.43,3.23-.05,1.65-.9,2.51-2.29,3.07-.3.12-.39.46-.29.75.05.12.14.19.27.19,6.07.08,12.28.1,18.64.04.17,0,.32-.11.37-.28.07-.3-.11-.53-.4-.62ZM116.01,101.88s-.02.05-.05.05l-9.67-.13s-.04,0-.06-.01c-.11-.04-.17-.16-.13-.27,1.23-3.72,2.46-7.44,3.71-11.15.43-1.27.9-2.45,1.11-3.79.05-.35.15-.36.29-.04.13.29.25.61.36.94,1.34,4.25,2.82,9.05,4.44,14.38v.02Z"/>
      <path class="cls-1" d="M176.68,106.07c-.2-2.37-1.13-4.64-2.8-6.83-1.45-1.91-3.41-3.19-5.87-3.85-.03-.01-.04-.02-.05-.05v-.02s0-.02.01-.03c.01-.02.02-.03.03-.04.59-.21,1.18-.4,1.78-.58,2.69-.81,4.66-3.43,4.92-6.17.11-1.13.1-2.15-.03-3.07-.48-3.53-3.02-5.5-6.37-6.24-1.1-.24-2.07-.38-2.9-.41-3.27-.12-6.68-.01-9.95-.13-4.5-.16-8.95-.27-13.33-.33-.28-.01-.55-.01-.83,0-.12,0-.21.05-.27.15-.12.17-.13.35-.03.52.06.11.15.17.27.19.96.17,1.64.36,2.03.57,1.39.77,2.09,1.89,2.08,3.35-.03,10.06-.06,20.1-.08,30.1,0,.67-.01,1.34-.04,2.01-.09,2.61-1.23,4.41-4.05,4.8-.29.04-.47.2-.53.49-.01.03-.01.06-.01.09.04.21.17.31.38.31,5.84.09,11.79.17,17.83.25,4.42.05,9.38-.23,13.17-2.73,2.99-1.97,4.67-5.43,4.73-9.09.02-1.16-.01-2.24-.09-3.26ZM156.63,80.73c0-.27.22-.49.5-.49h1.11c3.17.01,5.73,2.99,5.72,6.64v1.25c-.02,3.65-2.6,6.61-5.78,6.6h-1.1c-.28-.01-.5-.23-.5-.5l.05-13.5ZM160.75,118.27c-2.16.06-3.43-.91-3.99-3.01-.27-1.04-.47-2.19-.46-3.27.05-5.18.11-10.24.21-15.2,0-.11.06-.17.17-.17.74-.02,1.5.05,2.24.08,4.82.13,6.27,5.69,6.31,9.56.03,3.24.62,11.86-4.48,12.01Z"/>
      <path class="cls-1" d="M195.97,83.53c-.12,1.31-.17,2.54-.16,3.67.07,8.67.04,17.88-.1,27.63-.02,1.52.05,2.54.21,3.07.43,1.42,1.54,2.33,3.33,2.74.11.02.19.1.23.21.12.38-.02.57-.43.56-6.22-.07-12.02.03-18.11-.07-.17,0-.32-.11-.37-.27-.06-.19-.03-.34.1-.47.07-.06.15-.1.24-.12,1.48-.27,2.54-1.03,3.16-2.27.36-.73.53-1.85.5-3.38-.07-3.37-.06-6.65,0-10.03.13-6.74.21-13.53.24-20.36.02-2.85-1.23-4.52-3.73-5-.09-.02-.17-.07-.23-.15-.1-.14-.09-.29.04-.45.06-.08.16-.13.26-.12l18.21.08c.14,0,.27.09.32.22.13.34.03.55-.29.66-1.84.56-3.25,1.86-3.43,3.87Z"/>
      <path class="cls-1" d="M243.42,121.05c-2.55-.88-3.79-3.73-4.55-6.09-3.54-11.04-6.88-21.39-10-31.04-.76-2.32-1.9-4.56-4.71-4.69-2.5-.12-5.12-.17-7.83-.17-.03,0-.05,0-.08.01h0s-.02,0-.03.03h-.01s-.02.01-.03.02c-.01.01-.02.02-.02.03-.03.03-.04.07-.04.11,0,.03,0,.05.01.08.82,2.16.86,4.29.15,6.41-1.22,3.62-2.68,7.79-4.37,12.5-2.09,5.82-4.05,11.41-5.88,16.77-.81,2.36-2.27,4.9-4.86,5.63-.12.03-.2.1-.24.22-.07.19-.04.35.09.48.08.07.17.11.27.11l9.3.16s.04,0,.05,0h.01s.01,0,.02-.01c.03,0,.07,0,.09-.03.03-.02.06-.03.08-.06.03-.02.05-.05.06-.09h.01s.01-.03.01-.03c.02-.04.03-.08.03-.12v-.07c-.03-.23-.16-.39-.37-.46-1.34-.46-2.09-1.33-2.24-2.62-.11-.98-.05-1.9.19-2.76.87-3.17,2.03-6.3,3.21-9.39.05-.13.18-.22.33-.22l11.62.18c.11,0,.18.05.21.16.75,2.63,1.62,5.4,2.59,8.32.53,1.6.85,3.46.03,4.96-.43.8-1.28,1.18-2,1.67-.17.12-.21.27-.12.45.05.09.14.15.25.15,6.34.01,12.52.05,18.54.13.11,0,.22-.03.32-.09.11-.06.17-.16.16-.3-.01-.15-.11-.28-.25-.33ZM222.59,102.87l-9.68-.14s-.03,0-.04-.01c-.07-.02-.1-.09-.08-.16l5.05-15.08s.04-.07.08-.08c.07-.03.15.01.17.08l4.62,15.22s.01.02.01.04c0,.07-.06.13-.13.13Z"/>
    </g>
  </g>
</svg>