<?xml version="1.0" encoding="UTF-8"?>
<svg id="Capa_2" data-name="Capa 2" xmlns="http://www.w3.org/2000/svg" viewBox="0 0 358.25 86.25">
  <defs>
    <style>
      .cls-1 {
        fill: #fff;
        stroke-width: 0px;
      }
    </style>
  </defs>
  <g id="Capa_1-2" data-name="Capa 1">
    <g>
      <path class="cls-1" d="M11.27,10.17C17.79,3.39,26.1,0,36.19,0c13.5,0,23.37,4.54,29.61,13.64,3.45,5.11,5.3,10.23,5.55,15.37h-16.94c-1.08-3.95-2.46-6.93-4.15-8.95-3.02-3.58-7.49-5.37-13.42-5.37s-10.8,2.53-14.28,7.57c-3.48,5.05-5.23,12.2-5.23,21.45s1.84,16.16,5.51,20.77c3.68,4.6,8.35,6.91,14.02,6.91s10.24-1.98,13.29-5.93c1.68-2.12,3.08-5.32,4.2-9.55h16.83c-1.45,8.98-5.15,16.29-11.13,21.91-5.96,5.63-13.61,8.44-22.93,8.44-11.54,0-20.61-3.8-27.22-11.4C3.3,67.21,0,56.74,0,43.43,0,29.05,3.75,17.96,11.27,10.17Z"/>
      <path class="cls-1" d="M122.2,23.36c3.01,1.31,5.49,3.3,7.42,5.98,1.65,2.28,2.65,4.62,3.01,7.03.37,2.4.55,6.33.55,11.78v35.81h-16.01v-37.1c0-3.29-.54-5.93-1.63-7.95-1.43-2.83-4.12-4.25-8.09-4.25s-7.23,1.42-9.36,4.23c-2.13,2.82-3.19,6.84-3.19,12.05v33.02h-15.68V1.84h15.68v29.07c2.26-3.55,4.88-6.02,7.86-7.42,2.97-1.4,6.1-2.09,9.39-2.09,3.7,0,7.04.66,10.05,1.95Z"/>
      <path class="cls-1" d="M159.54,15.75h-15.89V1.06h15.89v14.7h0ZM143.64,23.02h15.89v60.93h-15.89V23.02Z"/>
      <path class="cls-1" d="M203.52,21.61c.21.02.66.05,1.35.08v16.32c-1-.11-1.87-.18-2.65-.22-.76-.03-1.39-.06-1.86-.06-6.31,0-10.55,2.08-12.71,6.27-1.21,2.35-1.82,5.97-1.82,10.84v29.12h-15.78V23.02h14.96v10.62c2.42-4.07,4.53-6.84,6.33-8.33,2.93-2.49,6.74-3.75,11.44-3.75.3,0,.54,0,.74.03h0Z"/>
      <path class="cls-1" d="M225.67,15.75h-15.9V1.06h15.9v14.7h0ZM209.77,23.02h15.9v60.93h-15.9V23.02Z"/>
      <path class="cls-1" d="M284.7,26.51c3.92,3.3,5.89,8.77,5.89,16.41v41.02h-16.05v-37.05c0-3.21-.43-5.67-1.27-7.38-1.52-3.13-4.44-4.7-8.73-4.7-5.28,0-8.91,2.3-10.88,6.88-1.01,2.42-1.52,5.51-1.52,9.28v32.97h-15.67V23.14h15.17v8.89c2.01-3.13,3.91-5.39,5.7-6.77,3.21-2.46,7.29-3.69,12.22-3.69,6.17,0,11.22,1.65,15.15,4.95Z"/>
      <path class="cls-1" d="M350.66,76.51c-5.06,6.35-12.75,9.52-23.06,9.52s-17.98-3.17-23.05-9.52c-5.06-6.35-7.59-14-7.59-22.93s2.53-16.4,7.59-22.84c5.07-6.44,12.74-9.67,23.05-9.67s17.99,3.22,23.06,9.67c5.06,6.44,7.59,14.05,7.59,22.84s-2.53,16.58-7.59,22.93ZM338.12,67.7c2.45-3.31,3.69-8.01,3.69-14.12s-1.24-10.8-3.69-14.09c-2.45-3.29-5.98-4.94-10.57-4.94s-8.11,1.65-10.58,4.94c-2.48,3.29-3.71,7.99-3.71,14.09s1.23,10.81,3.71,14.12c2.48,3.32,6,4.96,10.58,4.96s8.11-1.65,10.57-4.96Z"/>
      <path class="cls-1" d="M236.43,1.81h1.88v13.97h-1.88V1.81Z"/>
      <path class="cls-1" d="M241.34,1.81h2.18l6.87,11.29V1.81h1.78v13.97h-2.09l-6.96-11.29v11.29h-1.78V1.81h0Z"/>
      <path class="cls-1" d="M255.26,1.81h5.51c1.86,0,3.31.69,4.34,2.05.92,1.22,1.38,2.8,1.38,4.72,0,1.49-.27,2.83-.81,4.02-.96,2.12-2.61,3.18-4.92,3.18h-5.48V1.81h0ZM260.4,14.17c.61,0,1.11-.06,1.52-.19.71-.25,1.29-.73,1.74-1.43.36-.56.62-1.29.78-2.16.09-.53.13-1.02.13-1.47,0-1.74-.33-3.08-1-4.03-.66-.96-1.73-1.44-3.2-1.44h-3.23v10.73h3.25Z"/>
      <path class="cls-1" d="M271.04,1.81v8.64c0,1.01.2,1.85.56,2.53.56,1.02,1.5,1.52,2.84,1.52,1.59,0,2.68-.54,3.24-1.64.31-.59.46-1.4.46-2.4V1.81h1.89v7.85c0,1.72-.23,3.04-.69,3.97-.84,1.69-2.43,2.53-4.76,2.53s-3.91-.84-4.75-2.53c-.45-.92-.69-2.24-.69-3.97V1.81h1.89,0Z"/>
      <path class="cls-1" d="M284.1,11.28c.04.79.22,1.42.52,1.93.6.92,1.65,1.38,3.16,1.38.67,0,1.29-.11,1.84-.31,1.07-.4,1.6-1.1,1.6-2.11,0-.77-.22-1.31-.67-1.63-.47-.32-1.19-.59-2.17-.83l-1.81-.42c-1.17-.28-2.01-.58-2.49-.92-.85-.58-1.27-1.45-1.27-2.61,0-1.26.42-2.29,1.24-3.09.84-.8,2.02-1.21,3.54-1.21,1.4,0,2.59.35,3.58,1.05.98.7,1.47,1.85,1.47,3.39h-1.74c-.09-.74-.28-1.32-.57-1.72-.56-.73-1.47-1.09-2.78-1.09-1.04,0-1.81.23-2.27.7-.45.46-.69,1.02-.69,1.63,0,.69.27,1.19.82,1.51.36.21,1.16.45,2.41.76l1.87.45c.9.21,1.59.51,2.09.88.84.66,1.27,1.6,1.27,2.85,0,1.55-.54,2.66-1.62,3.32-1.07.66-2.34,1-3.77,1-1.67,0-2.97-.44-3.92-1.33-.95-.88-1.4-2.07-1.39-3.58h1.75-.02Z"/>
      <path class="cls-1" d="M305.66,1.81v1.67h-4.64v12.31h-1.87V3.47h-4.63v-1.67h11.15,0Z"/>
      <path class="cls-1" d="M307.6,1.81h6.25c1.03,0,1.88.16,2.55.46,1.27.6,1.89,1.71,1.89,3.3,0,.83-.16,1.52-.51,2.06-.34.53-.81.96-1.42,1.28.54.22.93.52,1.22.87.26.36.42.95.46,1.76l.06,1.87c.02.53.06.93.13,1.2.11.44.32.73.6.85v.32h-2.29c-.06-.12-.11-.28-.15-.47-.04-.19-.07-.56-.1-1.11l-.1-2.33c-.05-.91-.37-1.53-.97-1.83-.35-.17-.89-.26-1.63-.26h-4.13v6h-1.87V1.81ZM313.66,8.21c.84,0,1.52-.18,2.02-.53.49-.36.73-1,.73-1.92,0-1-.35-1.68-1.03-2.04-.38-.19-.87-.28-1.48-.28h-4.43v4.78h4.2Z"/>
      <path class="cls-1" d="M321.65,1.81h1.88v13.97h-1.88V1.81Z"/>
      <path class="cls-1" d="M330.56,1.81h2.11l4.99,13.97h-2.04l-1.44-4.19h-5.39l-1.49,4.19h-1.91l5.18-13.97ZM333.65,10.06l-2.12-6.17-2.19,6.17h4.31Z"/>
      <path class="cls-1" d="M340.56,11.28c.03.79.21,1.42.53,1.93.6.92,1.64,1.38,3.14,1.38.68,0,1.29-.11,1.84-.31,1.07-.4,1.61-1.1,1.61-2.11,0-.77-.22-1.31-.69-1.63-.46-.32-1.18-.59-2.16-.83l-1.81-.42c-1.18-.28-2.02-.58-2.51-.92-.84-.58-1.27-1.45-1.27-2.61,0-1.26.41-2.29,1.24-3.09.84-.8,2.02-1.21,3.54-1.21,1.4,0,2.59.35,3.57,1.05.98.7,1.47,1.85,1.47,3.39h-1.75c-.1-.74-.28-1.32-.57-1.72-.54-.73-1.47-1.09-2.78-1.09-1.04,0-1.8.23-2.26.7-.47.46-.7,1.02-.7,1.63,0,.69.27,1.19.81,1.51.36.21,1.16.45,2.42.76l1.88.45c.89.21,1.59.51,2.07.88.85.66,1.27,1.6,1.27,2.85,0,1.55-.54,2.66-1.62,3.32-1.08.66-2.34,1-3.77,1-1.67,0-2.97-.44-3.92-1.33-.94-.88-1.4-2.07-1.38-3.58h1.77Z"/>
    </g>
  </g>
</svg>