<?xml version="1.0" encoding="UTF-8"?>
<svg id="Capa_2" data-name="Capa 2" xmlns="http://www.w3.org/2000/svg" viewBox="0 0 485.97 69.12">
  <defs>
    <style>
      .cls-1 {
        fill: #fff;
        stroke-width: 0px;
      }
    </style>
  </defs>
  <g id="Capa_1-2" data-name="Capa 1">
    <g>
      <path class="cls-1" d="M8.02,0h61.53c-1.46,14.6-2.94,29.19-4.43,43.79-.4,3.87.99,6.69,4.17,8.47,5.58,3.12,16,2.97,16.84-5.3,1.45-14.38,2.97-29.15,4.54-44.3.03-.3.3-.52.61-.49.1,0,.2.05.28.11,2.99,2.23,4.78,5.34,4.78,9.02,0,14.42,0,29.71.04,45.87,0,2.19-.54,4.17-1.63,5.92-1.43,2.33-3.71,4.24-6.83,5.74H26.7c1.46-14.06,2.92-28.12,4.38-42.17,1.38-13.22-19.92-14.93-21.04-3.29-1.43,14.83-2.9,29.15-4.43,42.96-.02.25-.25.44-.51.42-.08,0-.16-.04-.23-.09-1.61-1.19-3.23-3.07-4.87-5.63V7.14l.28.61c.22.52.4.5.56-.04.87-3.07,3.26-5.64,7.18-7.72ZM59.4,25.04c.41-4.58-2.98-8.63-7.56-9.04h0s-3.81-.34-3.81-.34c-4.58-.41-8.63,2.98-9.04,7.56,0,0,0,0,0,0l-1.93,21.61c-.41,4.58,2.98,8.63,7.56,9.04,0,0,0,0,0,0l3.81.34c4.58.41,8.63-2.98,9.04-7.56,0,0,0,0,0,0l1.93-21.61Z"/>
      <path class="cls-1" d="M249.65,69.12h-14.23l1.14-.38c.61-.2.6-.36-.04-.49-6.5-1.25-10.94-5.07-13.32-11.46-4.34-11.66-.35-27.96,13.97-30.69,7.39-1.41,16.76-.35,21.76,5.45,2.14,2.49,2.71,5.26,1.71,8.31-1.1,3.35-5.5,4.54-8.41,2.81-2.25-1.35-3-3.88-5.13-5.34-1.56-1.08-3.43-1.43-5.62-1.05-3.26.58-5.19,2.89-5.79,6.96-.96,6.61-.01,17.97,10.28,14.89,3.65-1.1,3.75-5.91,7.64-6.43,7.87-1.05,9.73,6.23,5.4,11.3-2.1,2.48-5.23,4.52-9.38,6.12Z"/>
      <path class="cls-1" d="M339.47,69.12h-15.54l1.38-.38c.59-.16.59-.3-.01-.41-13.89-2.71-17.58-17.75-13.79-29.58,3.19-9.97,12.69-13.99,22.61-13.1,14.7,1.33,21.08,12.96,18.8,26.76-1.19,7.27-6.66,15.1-14.46,15.79-.83.07-.85.24-.08.53l1.09.39ZM339.43,43.51c0-3.95-3.2-7.14-7.14-7.14h-1.08c-3.95,0-7.14,3.2-7.14,7.14v7.76c0,3.95,3.2,7.14,7.14,7.14h1.08c3.95,0,7.14-3.2,7.14-7.14v-7.76Z"/>
      <path class="cls-1" d="M170.89,69.12h-4.28c.75-.24,1.53-.4,2.33-.46.02,0,.03,0,.03-.01.03-.04.03-.08.03-.13-.03-.06-.07-.09-.14-.1-3.53-.09-5.37-1.61-5.52-4.54-.26-5.21-.26-11.51-.01-18.9,0-.06-.03-.09-.08-.09l-.34-.04c-.18-.03-.3.05-.34.24-1.61,6.91-3.3,13.68-5.07,20.32-.55,2.04-1.89,2.98-4.03,2.84-.14,0-.23.06-.25.2-.04.19.03.31.23.36l1.16.31h-5.53l1.19-.29c.91-.23.9-.4-.03-.53l-.96-.13c-1.22-.17-2.22-1.05-2.54-2.25l-5.07-19.35c-.52-1.99-.76-1.95-.73.1.08,5.37.06,11.07-.06,17.09-.06,2.48-1.67,4.26-4.84,5.35h-4.15c.64-.27,1.18-.41,1.63-.44,1-.07,1-.1-.01-.11-2.92-.03-4.73-2.35-4.73-5.09V30.81c0-6.11,9.13-5.04,12.71-4.69,2.22.22,3.69,1.53,4.43,3.93,2.19,7.15,4.15,14.2,5.86,21.14.15.62.3.62.46,0,1.73-6.51,3.53-13.06,5.42-19.65,2.03-7.09,7.19-5.17,12.74-5.27,2.69-.04,4.9,2.1,4.94,4.78,0,.02,0,.03,0,.05.07,10.98.08,21.47.03,31.45-.02,3.09-1.51,5.28-4.47,6.57Z"/>
      <path class="cls-1" d="M214.81,69.12h-4.4c-2.2-1.64-3.63-3.64-4.28-5.98-.11-.39-.37-.59-.78-.59h-11.23c-.56,0-.95.26-1.16.78-1.11,2.65-2.64,4.58-4.58,5.79h-4.09c-3.64-2.16-4.81-5.08-3.52-8.76,3.36-9.56,6.82-19.33,10.37-29.3.93-2.58,2.69-4.72,5.64-5,4.03-.39,9.01-.68,10.66,3.87,3.48,9.6,7.09,19.57,10.82,29.91.63,1.74.79,3.27.49,4.59-.44,1.9-1.76,3.47-3.94,4.69ZM195.84,53.29c-.06.2.05.42.26.48.03.01.07.02.1.02h6.84c.21,0,.38-.17.38-.38,0-.04,0-.07-.02-.1l-3.39-11.72c-.05-.21-.27-.33-.47-.28-.14.04-.24.14-.28.28l-3.43,11.71Z"/>
      <path class="cls-1" d="M401.26,69.12h-4.44l1.44-.35c.83-.19.83-.31-.03-.36-2.56-.15-4.62-1.94-4.7-4.58-.23-6.22-.23-12.58.01-19.08.07-1.76-.1-1.78-.5-.08-1.57,6.74-3.39,13.87-5.48,21.41-.39,1.39-1.76,2.31-3.27,2.18-.24-.03-.48,0-.7.09-.52.18-.51.34.03.48l1.2.3h-5.52c.33-.18.75-.25,1.26-.21.18.02.35-.02.49-.11.35-.21.32-.32-.09-.34-2.14-.08-3.45-.99-3.93-2.74-1.76-6.42-3.51-13.06-5.25-19.91-.38-1.45-.57-1.43-.58.06-.05,5.19-.05,10.64-.01,16.35.02,3.44-1.59,5.74-4.83,6.89h-3.95l.83-.3c.53-.19.52-.35-.03-.48l-1.71-.4c-.3-.07-.58-.24-.79-.48-1.13-1.22-1.69-2.57-1.69-4.05-.03-10.24-.05-20.77-.06-31.59-.01-7.11,7.56-6.06,12.25-5.78,2.61.15,4.33,1.63,5.15,4.43,2.09,7.08,4,13.94,5.72,20.57.18.71.37.71.55,0,1.74-6.86,3.58-13.55,5.52-20.08,1.91-6.43,7.49-4.58,12.47-4.68,2.68-.06,4.9,2.07,4.95,4.75,0,.03,0,.05,0,.08.04,10.83.03,21.93-.03,33.32-.02,1.99-1.45,3.55-4.29,4.69Z"/>
      <path class="cls-1" d="M446.44,69.12h-5.84l.98-.28c.74-.22.73-.39-.03-.51l-1.2-.2c-.28-.05-.53-.19-.71-.39-1.22-1.26-2.05-2.75-2.49-4.48-.13-.48-.43-.71-.91-.71h-11.51c-.43,0-.71.2-.86.6-.64,1.68-1.04,3.15-2.53,4.33-.69.54-1.52,1.09-2.48,1.64h-3.6c-2.15-1.2-3.45-2.77-3.9-4.7-.31-1.31-.17-2.81.43-4.49,3.5-9.86,6.96-19.59,10.38-29.19,1.1-3.1,3.25-4.7,6.46-4.79,4.87-.15,8.17-.25,10.07,5,3.41,9.41,6.92,19.16,10.53,29.25.52,1.44.64,2.85.36,4.23-.51,2.48-1.98,3.77-4.4,3.88-.71.03-.73.16-.05.39l1.31.43ZM426.72,53.27c-.06.22.07.45.28.51.04.01.08.02.12.02h6.76c.23,0,.41-.18.42-.41,0-.04,0-.08-.02-.12l-3.38-11.54c-.06-.22-.28-.36-.5-.3-.15.04-.26.15-.3.3l-3.38,11.54Z"/>
      <path class="cls-1" d="M301.29,69.12h-4.9c.67-.08,1.16-.18,1.48-.33.73-.33.69-.51-.11-.53-5.28-.16-5.08-6.62-5.47-10.4-.49-4.72-6.27-4.32-9.91-4.08-.45.03-.67.28-.66.73.08,3.98,1.48,13.49-4.79,13.87-.58.04-.6.16-.06.36l1,.36h-5.32c-2.83-1.6-4.25-3.37-4.25-5.32,0-10.53,0-21.06,0-31.59,0-3.32,2.06-5.13,6.14-5.42,6.06-.43,12.27-.4,18.63.08,9.72.73,13.73,5.73,12.05,14.99-.51,2.79-2.1,4.83-4.77,6.12-.95.46-.93.88.06,1.26,2.66,1.01,4.15,2.7,4.48,5.08.43,3.15.87,6.42,1.3,9.81.25,1.9-1.38,3.57-4.89,4.99ZM281.73,37.39v6.51c0,.28.22.5.5.5h6.37c2.36,0,4.27-1.55,4.27-3.47v-.58c0-1.91-1.91-3.47-4.27-3.47h-6.37c-.28,0-.5.22-.5.5Z"/>
      <path class="cls-1" d="M485.97,30.06v4.44c-1.38,2.02-2.74,3.02-4.08,3.02-2.79-.03-5.58,0-8.39.08-.44,0-.66.24-.66.69-.02,8.07,0,16.09.03,24.06,0,2.09-.7,3.74-2.13,4.93-1.78,1.49-3.85.81-5.98,1-3.45.3-5.55-2.58-5.6-5.83-.11-8.08-.12-16.15-.04-24.2,0-.48-.24-.71-.71-.71h-7.16c-3.34,0-5.01-1.67-5-5.02v-.7c.02-3.45,1.75-5.19,5.2-5.2,9.71-.05,19.49-.05,29.35.01,1.3,0,2.47.45,3.5,1.31.32.27.53.6.64,1.01.36,1.37.7,1.74,1.04,1.11Z"/>
      <path class="cls-1" d="M468.65,69.12h-5.22c1.7-.41,3.44-.41,5.22,0Z"/>
    </g>
  </g>
</svg>