<svg width="156" height="32" viewBox="0 0 156 32" fill="none" xmlns="http://www.w3.org/2000/svg">
<g clip-path="url(#clip0_401_332)">
<path d="M23.0755 9.06369C21.3291 7.56202 19.0252 6.63241 16.4799 6.63241C13.9531 6.63241 11.6307 7.54414 9.88421 9.06369C7.89622 10.8157 6.61424 13.3363 6.61424 16.143V25.6179H26.3641V16.143C26.3641 13.3363 25.1007 10.8157 23.0755 9.06369ZM23.0755 22.4715H9.90278V16.1251C9.90278 12.6212 12.8569 9.77878 16.4984 9.77878C20.14 9.77878 23.0941 12.6212 23.0941 16.1251V22.4715H23.0755ZM6.61424 31.9643H26.3641V28.8H6.61424V31.9643ZM32.6067 12.9609C31.0832 5.73856 24.4318 0.286041 16.4799 0.286041C8.50934 0.286041 1.85793 5.72068 0.334429 12.9609C0.111477 13.9799 0 15.0525 0 16.1251V31.9643H3.28854V16.143C3.28854 9.1352 9.19677 3.45029 16.4799 3.45029C23.5772 3.45029 29.3554 8.84917 29.6526 15.6067C29.6526 15.7855 29.6712 15.9643 29.6712 16.143C29.6712 16.3218 29.6712 16.5006 29.6526 16.6793V31.9821H32.9412V16.143C32.9412 15.0525 32.8297 13.9978 32.6067 12.9609Z" fill="white"/>
<path d="M86.6707 20.3978C87.7111 19.8436 88.5658 19.1464 89.2718 18.3419C90.1636 17.305 90.8139 16.143 91.2041 14.8737C91.5942 13.6045 91.7986 12.3352 91.7986 11.0659C91.7986 9.45698 91.5199 8.00894 90.9625 6.72179C90.4051 5.43464 89.5877 4.32625 88.51 3.41452C87.4324 2.50279 86.1133 1.78771 84.5155 1.28715C82.9363 0.786592 81.1155 0.554188 79.0903 0.554188H66.2334L69.0017 6.48939H80.2422C81.357 6.48939 82.2488 6.66816 82.8991 7.04358C83.568 7.419 84.051 7.86592 84.3669 8.40223C84.6827 8.93854 84.9057 9.47486 84.9986 9.9933C85.0914 10.5117 85.1472 10.9408 85.1472 11.2804C85.1472 11.7274 85.0729 12.2279 84.9057 12.7464C84.7384 13.2648 84.4783 13.7654 84.1068 14.248C83.7352 14.7307 83.2335 15.124 82.5832 15.4279C81.933 15.7318 81.1341 15.8927 80.1679 15.8927H73.052L75.7275 21.8279C84.8685 21.8994 87.5811 31.7497 87.5811 31.7497H94.2139C91.7986 22.8469 86.6707 20.3978 86.6707 20.3978ZM59.1733 0L44.8672 31.7318H51.2956L59.1733 13.5508L66.6236 31.7318H73.851L59.5449 0H59.1733ZM128.307 15.7676H112.384V21.2201H121.544C120.671 23.0078 119.519 24.3307 118.088 25.1709C116.658 26.0112 114.911 26.4402 112.83 26.4402C109.635 26.4402 106.941 25.4212 104.748 23.3832C102.575 21.3452 101.478 18.8425 101.478 15.9106C101.478 13.0682 102.537 10.6547 104.637 8.67039C106.736 6.68603 109.356 5.68492 112.459 5.68492C116.026 5.68492 119.166 7.04357 121.841 9.77877L124.405 4.14748C123.012 2.94972 121.581 2.05587 120.151 1.46592C117.754 0.482681 115.19 0 112.422 0C107.164 0 102.89 1.76983 99.6019 5.32737C96.8336 8.31285 95.4587 11.8168 95.4587 15.8391C95.4587 18.7709 96.2019 21.524 97.7068 24.0626C99.2117 26.6011 101.237 28.5497 103.819 29.9263C106.402 31.3028 109.319 31.9821 112.607 31.9821C115.673 31.9821 118.348 31.3564 120.634 30.105C122.919 28.8536 124.777 27.0302 126.208 24.6346C127.638 22.2391 128.363 19.7184 128.363 17.0547L128.307 15.7676ZM141.706 0H141.353L127.047 31.7318H133.475L141.334 13.5508L148.785 31.7318H156.012L141.706 0Z" fill="white"/>
</g>
<defs>
<clipPath id="clip0_401_332">
<rect width="156" height="32" fill="white"/>
</clipPath>
</defs>
</svg>
