<svg width="98" height="33" viewBox="0 0 98 33" fill="none" xmlns="http://www.w3.org/2000/svg">
<path d="M14.2055 5.64251C13.128 4.67935 11.7079 4.09394 10.1491 4.09394C8.59028 4.09394 7.16814 4.67935 6.09262 5.64251C4.85072 6.754 4.07033 8.36784 4.07033 10.1636V16.2175H16.2298V10.1636C16.2278 8.36784 15.4474 6.754 14.2055 5.64251ZM14.2055 14.1982H6.09262V10.1439C6.09262 7.90703 7.90892 6.09344 10.1491 6.09344C12.3892 6.09344 14.2055 7.90703 14.2055 10.1439V14.1982ZM4.07033 20.2739H16.2298V18.2526H4.07033V20.2739ZM20.0724 8.13249C19.1335 3.51248 15.0414 0.0336304 10.1372 0.0336304C5.23102 0.0336304 1.14088 3.5105 0.202031 8.13249C0.0693243 8.78712 0 9.46351 0 10.1557V20.2739H2.02229V10.1557C2.02229 5.67811 5.65687 2.05093 10.1412 2.05093C14.5086 2.05093 18.0719 5.49616 18.2521 9.81357C18.258 9.92828 18.26 10.041 18.26 10.1557C18.26 10.2704 18.258 10.3851 18.2521 10.4979V20.2719H20.2764V10.1557C20.2744 9.46351 20.2051 8.78712 20.0724 8.13249Z" fill="#E65C1F"/>
<path d="M54.2585 13.0294C54.8963 12.6694 55.4291 12.2323 55.857 11.7142C56.4076 11.0457 56.8057 10.306 57.0513 9.49317C57.295 8.68032 57.4178 7.86746 57.4178 7.05461C57.4178 6.02618 57.2454 5.1006 56.9028 4.27786C56.5581 3.4571 56.057 2.75302 55.3974 2.16563C54.7379 1.58022 53.9198 1.12731 52.9434 0.810875C51.9669 0.494436 50.8537 0.336216 49.6079 0.336216H41.695L43.3984 4.12755H50.309C50.9963 4.12755 51.543 4.24424 51.9491 4.47959C52.3551 4.71494 52.6581 5.00369 52.8582 5.34584C53.0563 5.68997 53.187 6.02816 53.2504 6.36042C53.3138 6.69466 53.3454 6.96957 53.3454 7.18712C53.3454 7.47587 53.2959 7.78835 53.1969 8.12062C53.0979 8.45485 52.9335 8.77525 52.7077 9.0818C52.4819 9.38835 52.1689 9.6415 51.7708 9.83927C51.3727 10.037 50.8755 10.1379 50.2793 10.1379H45.8941L47.542 13.9312C53.1751 13.9747 54.8409 20.2659 54.8409 20.2659H58.9033C57.4178 14.6017 54.2585 13.0294 54.2585 13.0294ZM37.3276 0L28.5154 20.2739H32.4788L37.3236 8.65461L41.9089 20.2739H46.3556L37.5454 0H37.3276ZM79.8987 10.0766H70.0982V13.5555H75.7412C75.2024 14.7006 74.4933 15.5431 73.6139 16.081C72.7345 16.619 71.653 16.888 70.3715 16.888C68.4007 16.888 66.7429 16.2353 65.4 14.932C64.057 13.6267 63.3856 12.0365 63.3856 10.1577C63.3856 8.34212 64.0333 6.79948 65.3267 5.52977C66.622 4.26006 68.2264 3.6252 70.1457 3.6252C72.3463 3.6252 74.2715 4.49739 75.9254 6.24374L77.502 2.65018C76.6424 1.88875 75.7689 1.31718 74.8815 0.941406C73.4059 0.312484 71.8194 0 70.1259 0C66.8855 0 64.2531 1.13325 62.2328 3.39776C60.5294 5.30233 59.6777 7.54114 59.6777 10.1162C59.6777 11.993 60.1392 13.7433 61.0622 15.3671C61.9852 16.9888 63.239 18.2388 64.8236 19.1169C66.4081 19.993 68.2125 20.4321 70.2348 20.4321C72.1244 20.4321 73.7704 20.0306 75.1747 19.2296C76.579 18.4266 77.7219 17.2637 78.6053 15.7389C79.4886 14.214 79.9303 12.6002 79.9303 10.8993L79.8987 10.0766ZM88.7563 0H88.5384L79.7263 20.2739H83.6897L88.5365 8.65461L93.1218 20.2739H97.5684L88.7563 0Z" fill="#303030"/>
<path d="M76.7063 30.5377C76.841 30.4546 76.9539 30.3518 77.045 30.2292C77.1836 30.0413 77.253 29.8059 77.253 29.5231C77.253 29.1414 77.1123 28.8546 76.8291 28.6608C76.5478 28.467 76.1676 28.3721 75.6902 28.3721H74.3453V32.9486H75.8704C76.0745 32.9486 76.2705 32.9248 76.4627 32.8774C76.6548 32.8299 76.8251 32.7528 76.9757 32.646C77.1282 32.5411 77.247 32.4007 77.3362 32.2287C77.4253 32.0566 77.4708 31.847 77.4708 31.5978C77.4708 31.3288 77.3857 31.0974 77.2153 30.9036C77.0846 30.7572 76.9143 30.6346 76.7063 30.5377ZM75.2485 29.2423H75.7338C75.912 29.2423 76.0546 29.2818 76.1596 29.3609C76.2666 29.44 76.3181 29.5587 76.3181 29.715C76.3181 29.8514 76.2765 29.974 76.1913 30.0828C76.1061 30.1916 75.9734 30.245 75.7952 30.245H75.2465V29.2423H75.2485ZM76.4448 31.8885C76.3815 31.9656 76.2963 32.021 76.1893 32.0566C76.0804 32.0922 75.9616 32.11 75.8288 32.11H75.2505V31.1152H75.7674C75.8962 31.1152 76.019 31.129 76.1378 31.1547C76.2567 31.1824 76.3537 31.2299 76.427 31.2971C76.5023 31.3664 76.5399 31.4672 76.5399 31.5997C76.5379 31.7164 76.5062 31.8133 76.4448 31.8885ZM17.9688 31.0895H19.9376V30.2193H17.9688V29.2423H20.1931V28.3721H17.0656V32.9486H20.2802V32.0784H17.9688V31.0895ZM34.4581 28.1921L32.3902 32.9505H33.2815L34.4363 30.1797L35.5296 32.9505H36.5754L34.5076 28.1921H34.4581ZM86.489 28.1921L84.4211 32.9505H85.3124L86.4672 30.1797L87.5605 32.9505H88.6063L86.5385 28.1921H86.489ZM12.4842 30.3162L10.1589 28.1862H10.153V32.9505H11.0245V30.3834L12.5001 31.6255H12.512L13.9698 30.2489V32.9505H14.873V28.1862H14.8611L12.4842 30.3162ZM25.0696 30.9847C25.1963 30.8324 25.2874 30.6623 25.3429 30.4744C25.3984 30.2885 25.4261 30.1006 25.4261 29.9147C25.4261 29.6794 25.3865 29.4658 25.3073 29.2779C25.228 29.09 25.1131 28.9278 24.9606 28.7933C24.8081 28.6588 24.6219 28.554 24.3961 28.4828C24.1723 28.4096 23.9168 28.374 23.6296 28.374H22.2411V32.9505H23.1443V31.4949H23.7465L24.715 32.9505H25.7668L24.6992 31.2873C24.8497 31.2042 24.9725 31.1033 25.0696 30.9847ZM24.4595 30.1599C24.4357 30.2371 24.4001 30.3103 24.3486 30.3815C24.2971 30.4526 24.2238 30.51 24.1327 30.5555C24.0416 30.601 23.9267 30.6247 23.79 30.6247H23.1483V29.2442H23.796C23.9544 29.2442 24.0792 29.2719 24.1723 29.3253C24.2654 29.3787 24.3347 29.446 24.3803 29.5251C24.4258 29.6042 24.4556 29.6813 24.4714 29.7585C24.4853 29.8356 24.4932 29.8989 24.4932 29.9483C24.4932 30.0116 24.4813 30.0848 24.4595 30.1599ZM30.1382 32.0111C29.9639 32.0902 29.7539 32.1298 29.5083 32.1298C29.2964 32.1298 29.1062 32.0942 28.9379 32.023C28.7695 31.9538 28.6249 31.8529 28.5041 31.7224C28.3833 31.5918 28.2922 31.4356 28.2268 31.2536C28.1614 31.0717 28.1297 30.87 28.1297 30.6504C28.1297 30.4428 28.1654 30.2509 28.2347 30.0749C28.306 29.8989 28.4011 29.7446 28.5239 29.6121C28.6467 29.4796 28.7873 29.3768 28.9478 29.3036C29.1082 29.2304 29.2746 29.1948 29.4489 29.1948C29.6727 29.1948 29.8708 29.2363 30.0431 29.3214C30.2154 29.4064 30.3541 29.4875 30.4571 29.5666L30.8116 28.7142C30.6631 28.6193 30.4689 28.5303 30.2313 28.4472C29.9956 28.3642 29.7222 28.3226 29.4152 28.3226C29.0825 28.3226 28.7794 28.38 28.5061 28.4967C28.2327 28.6133 27.997 28.7775 27.799 28.9871C27.6009 29.1988 27.4504 29.4499 27.3454 29.7387C27.2384 30.0294 27.1869 30.3478 27.1869 30.6959C27.1869 31.0064 27.2384 31.2991 27.3434 31.5721C27.4464 31.845 27.5969 32.0882 27.795 32.2999C27.9931 32.5115 28.2327 32.6776 28.518 32.8002C28.8032 32.9229 29.126 32.9881 29.4865 32.996C29.7222 33 29.9401 32.9743 30.1342 32.9209C30.3283 32.8675 30.4947 32.8042 30.6294 32.735C30.7641 32.6657 30.8572 32.6084 30.9067 32.5669L30.5323 31.758C30.4452 31.8489 30.3125 31.932 30.1382 32.0111ZM60.4547 31.0895H62.4235V30.2193H60.4547V29.2423H62.679V28.3721H59.5535V32.9486H62.7681V32.0784H60.4567V31.0895H60.4547ZM41.5727 29.1256C41.3747 28.8981 41.1152 28.7142 40.7904 28.5777C40.4675 28.4413 40.0733 28.3721 39.6138 28.3721H38.2432V32.9486H39.8376C40.1486 32.9486 40.4437 32.8971 40.723 32.7963C41.0003 32.6954 41.2459 32.5471 41.4578 32.3552C41.6698 32.1634 41.8362 31.93 41.959 31.6591C42.0818 31.3881 42.1432 31.0816 42.1432 30.7414C42.1432 30.4546 42.0976 30.1718 42.0065 29.889C41.9154 29.6082 41.7708 29.353 41.5727 29.1256ZM41.0993 31.2853C41.0261 31.4613 40.9231 31.6077 40.7884 31.7243C40.6537 31.841 40.4932 31.928 40.3051 31.9894C40.1189 32.0487 39.9109 32.0784 39.6812 32.0784H39.1464V29.2363H39.8812C39.9842 29.2363 40.111 29.2561 40.2615 29.2957C40.4101 29.3352 40.5566 29.4064 40.7012 29.5112C40.8438 29.6141 40.9647 29.7604 41.0617 29.9503C41.1588 30.1382 41.2083 30.3834 41.2083 30.6801C41.2083 30.9075 41.1726 31.1093 41.0993 31.2853ZM57.0558 29.1256C56.8578 28.8981 56.5983 28.7142 56.2734 28.5777C55.9506 28.4413 55.5564 28.3721 55.0969 28.3721H53.7263V32.9486H55.3207C55.6317 32.9486 55.9268 32.8971 56.2061 32.7963C56.4834 32.6954 56.729 32.5471 56.9409 32.3552C57.1529 32.1634 57.3193 31.93 57.4421 31.6591C57.5649 31.3881 57.6263 31.0816 57.6263 30.7414C57.6263 30.4546 57.5807 30.1718 57.4896 29.889C57.3965 29.6082 57.2519 29.353 57.0558 29.1256ZM56.5824 31.2853C56.5092 31.4613 56.4062 31.6077 56.2715 31.7243C56.1368 31.841 55.9763 31.928 55.7882 31.9894C55.602 32.0487 55.394 32.0784 55.1643 32.0784H54.6295V29.2363H55.3643C55.4673 29.2363 55.5941 29.2561 55.7446 29.2957C55.8932 29.3352 56.0397 29.4064 56.1843 29.5112C56.3269 29.6141 56.4478 29.7604 56.5448 29.9503C56.6419 30.1382 56.6914 30.3834 56.6914 30.6801C56.6914 30.9075 56.6537 31.1093 56.5824 31.2853ZM71.7367 29.0227C71.5189 28.8052 71.2693 28.6331 70.9861 28.5105C70.7048 28.3859 70.4037 28.3246 70.0829 28.3246C69.758 28.3246 69.455 28.3859 69.1737 28.5105C68.8925 28.6351 68.6429 28.8052 68.429 29.0227C68.2151 29.2403 68.0487 29.4895 67.9279 29.7723C67.807 30.0531 67.7476 30.3538 67.7476 30.6682C67.7476 30.9926 67.807 31.2952 67.9279 31.576C68.0487 31.8588 68.2151 32.106 68.429 32.3196C68.6429 32.5332 68.8905 32.6994 69.1737 32.82C69.457 32.9407 69.76 33 70.0829 33C70.4017 33 70.7028 32.9407 70.9861 32.82C71.2693 32.6994 71.5189 32.5332 71.7367 32.3196C71.9546 32.106 72.125 31.8588 72.2478 31.576C72.3706 31.2952 72.432 30.9906 72.432 30.6682C72.432 30.3538 72.3706 30.0551 72.2478 29.7723C72.125 29.4895 71.9546 29.2403 71.7367 29.0227ZM71.3901 31.2358C71.3188 31.4119 71.2218 31.5681 71.097 31.7026C70.9722 31.8371 70.8256 31.9419 70.6573 32.017C70.4889 32.0922 70.3067 32.1278 70.1126 32.1278C69.9086 32.1278 69.7204 32.0902 69.55 32.017C69.3777 31.9419 69.2252 31.8371 69.0945 31.7026C68.9638 31.5681 68.8627 31.4119 68.7895 31.2358C68.7162 31.0598 68.6805 30.87 68.6805 30.6662C68.6805 30.4586 68.7162 30.2667 68.7875 30.0887C68.8568 29.9107 68.9578 29.7545 69.0866 29.618C69.2153 29.4836 69.3658 29.3787 69.5342 29.3036C69.7045 29.2284 69.8887 29.1928 70.0888 29.1928C70.2888 29.1928 70.4731 29.2304 70.6434 29.3036C70.8137 29.3787 70.9623 29.4836 71.089 29.618C71.2158 29.7525 71.3148 29.9088 71.3881 30.0887C71.4614 30.2667 71.4971 30.4606 71.4971 30.6662C71.4971 30.87 71.4614 31.0598 71.3901 31.2358ZM47.8 29.0227C47.5822 28.8052 47.3326 28.6331 47.0493 28.5105C46.7681 28.3859 46.467 28.3246 46.1462 28.3246C45.8233 28.3246 45.5183 28.3859 45.237 28.5105C44.9558 28.6351 44.7062 28.8052 44.4923 29.0227C44.2784 29.2403 44.112 29.4895 43.9912 29.7723C43.8703 30.0531 43.8109 30.3538 43.8109 30.6682C43.8109 30.9926 43.8703 31.2952 43.9912 31.576C44.112 31.8588 44.2784 32.106 44.4923 32.3196C44.7062 32.5332 44.9538 32.6994 45.237 32.82C45.5203 32.9407 45.8233 33 46.1462 33C46.465 33 46.7661 32.9407 47.0493 32.82C47.3326 32.6994 47.5822 32.5332 47.8 32.3196C48.0179 32.106 48.1883 31.8588 48.3111 31.576C48.4339 31.2952 48.4953 30.9906 48.4953 30.6682C48.4953 30.3538 48.4339 30.0551 48.3111 29.7723C48.1883 29.4895 48.0179 29.2403 47.8 29.0227ZM47.4534 31.2358C47.3821 31.4119 47.2851 31.5681 47.1603 31.7026C47.0355 31.8371 46.8889 31.9419 46.7206 32.017C46.5522 32.0922 46.37 32.1278 46.1759 32.1278C45.9719 32.1278 45.7837 32.0902 45.6114 32.017C45.439 31.9419 45.2865 31.8371 45.1558 31.7026C45.0251 31.5681 44.9241 31.4119 44.8508 31.2358C44.7775 31.0598 44.7418 30.87 44.7418 30.6662C44.7418 30.4586 44.7775 30.2667 44.8468 30.0887C44.9181 29.9107 45.0172 29.7545 45.1459 29.618C45.2746 29.4836 45.4232 29.3787 45.5935 29.3036C45.7639 29.2284 45.9481 29.1928 46.1481 29.1928C46.3482 29.1928 46.5324 29.2304 46.7027 29.3036C46.8731 29.3787 47.0216 29.4836 47.1484 29.618C47.2751 29.7525 47.3742 29.9088 47.4475 30.0887C47.5208 30.2667 47.5564 30.4606 47.5564 30.6662C47.5604 30.87 47.5247 31.0598 47.4534 31.2358ZM82.2483 30.9847C82.375 30.8324 82.4662 30.6623 82.5216 30.4744C82.5771 30.2885 82.6048 30.1006 82.6048 29.9147C82.6048 29.6794 82.5652 29.4658 82.486 29.2779C82.4067 29.09 82.2919 28.9278 82.1394 28.7933C81.9888 28.6588 81.8007 28.554 81.5749 28.4828C81.351 28.4096 81.0955 28.374 80.8083 28.374H79.4199V32.9505H80.3231V31.4949H80.9252L81.8937 32.9505H82.9455L81.8779 31.2873C82.0284 31.2042 82.1493 31.1033 82.2483 30.9847ZM81.6382 30.1599C81.6145 30.2371 81.5788 30.3103 81.5253 30.3815C81.4738 30.4526 81.4025 30.51 81.3094 30.5555C81.2183 30.601 81.1034 30.6247 80.9668 30.6247H80.325V29.2442H80.9727C81.1312 29.2442 81.256 29.2719 81.349 29.3253C81.4421 29.3787 81.5115 29.446 81.557 29.5251C81.6026 29.6042 81.6323 29.6813 81.6481 29.7585C81.662 29.8356 81.6699 29.8989 81.6699 29.9483C81.6719 30.0116 81.66 30.0848 81.6382 30.1599Z" fill="#303030"/>
</svg>
