<svg width="245" height="50" viewBox="0 0 245 50" fill="none" xmlns="http://www.w3.org/2000/svg">
<g clip-path="url(#clip0_405_1165)">
<path d="M36.2404 14.1619C33.4976 11.8155 29.8794 10.363 25.8819 10.363C21.9135 10.363 18.2661 11.7876 15.5233 14.1619C12.4011 16.8993 10.3878 20.8378 10.3878 25.2233V40.0278H41.4051V25.2233C41.4051 20.8378 39.4209 16.8993 36.2404 14.1619ZM36.2404 35.1116H15.5524V25.1954C15.5524 19.7205 20.1919 15.2792 25.911 15.2792C31.6301 15.2792 36.2696 19.7205 36.2696 25.1954V35.1116H36.2404ZM10.3878 49.944H41.4051V44.9998H10.3878V49.944ZM51.2093 20.2512C48.8166 8.96633 38.3705 0.446777 25.8819 0.446777C13.364 0.446777 2.91791 8.9384 0.525224 20.2512C0.175075 21.8434 0 23.5194 0 25.1954V49.944H5.1647V25.2233C5.1647 14.2736 14.4437 5.39091 25.8819 5.39091C37.0283 5.39091 46.103 13.8267 46.5698 24.3853C46.5698 24.6647 46.599 24.944 46.599 25.2233C46.599 25.5026 46.599 25.782 46.5698 26.0613V49.9719H51.7345V25.2233C51.7345 23.5194 51.5594 21.8714 51.2093 20.2512Z" fill="#E65C1F"/>
<path d="M136.118 31.8715C137.752 31.0056 139.094 29.9162 140.203 28.6592C141.603 27.0391 142.625 25.2235 143.237 23.2402C143.85 21.257 144.171 19.2737 144.171 17.2905C144.171 14.7765 143.734 12.514 142.858 10.5028C141.983 8.49162 140.699 6.75977 139.007 5.33519C137.314 3.91061 135.242 2.7933 132.733 2.01117C130.253 1.22905 127.393 0.865919 124.213 0.865919H104.021L108.368 10.1397H126.022C127.773 10.1397 129.173 10.419 130.194 11.0056C131.245 11.5922 132.004 12.2905 132.5 13.1285C132.996 13.9665 133.346 14.8045 133.492 15.6145C133.638 16.4246 133.725 17.095 133.725 17.6257C133.725 18.324 133.608 19.1061 133.346 19.9162C133.083 20.7263 132.675 21.5084 132.091 22.2626C131.508 23.0168 130.72 23.6313 129.698 24.1061C128.677 24.581 127.422 24.8324 125.905 24.8324H114.73L118.931 34.1061C133.287 34.2179 137.548 49.6089 137.548 49.6089H147.965C144.171 35.6983 136.118 31.8715 136.118 31.8715ZM92.9327 0L70.4648 49.581H80.5608L92.9327 21.1732L104.634 49.581H115.984L93.5163 0H92.9327ZM201.508 24.6369H176.502V33.1564H190.887C189.516 35.9497 187.706 38.0168 185.46 39.3296C183.213 40.6425 180.47 41.3129 177.202 41.3129C172.183 41.3129 167.952 39.7207 164.509 36.5363C161.095 33.352 159.374 29.4413 159.374 24.8603C159.374 20.419 161.037 16.648 164.334 13.5475C167.631 10.4469 171.745 8.88268 176.618 8.88268C182.221 8.88268 187.152 11.0056 191.354 15.2793L195.381 6.48045C193.192 4.60894 190.945 3.21229 188.699 2.2905C184.934 0.754189 180.908 0 176.56 0C168.302 0 161.591 2.76536 156.426 8.32402C152.079 12.9888 149.92 18.4637 149.92 24.7486C149.92 29.3296 151.087 33.6313 153.45 37.5978C155.814 41.5642 158.994 44.6089 163.05 46.7598C167.106 48.9106 171.687 49.9721 176.852 49.9721C181.666 49.9721 185.868 48.9944 189.457 47.0391C193.046 45.0838 195.964 42.2346 198.211 38.4916C200.458 34.7486 201.596 30.8101 201.596 26.648L201.508 24.6369ZM222.551 0H221.997L199.529 49.581H209.625L221.968 21.1732L233.669 49.581H245.019L222.551 0Z" fill="#F6F6F6"/>
</g>
<defs>
<clipPath id="clip0_405_1165">
<rect width="245" height="50" fill="white"/>
</clipPath>
</defs>
</svg>
