<svg width="157" height="32" viewBox="0 0 157 32" fill="none" xmlns="http://www.w3.org/2000/svg">
<path d="M23.0755 9.06369C21.3291 7.56201 19.0252 6.6324 16.4799 6.6324C13.9531 6.6324 11.6307 7.54413 9.88421 9.06369C7.89622 10.8156 6.61424 13.3363 6.61424 16.143V25.6179H26.3641V16.143C26.3641 13.3363 25.1007 10.8156 23.0755 9.06369ZM9.90278 22.4715V16.1251C9.90278 12.6212 12.8569 9.77877 16.4984 9.77877C20.14 9.77877 23.0941 12.6212 23.0941 16.1251V22.4715H9.90278ZM6.61424 31.9642H26.3641V28.8H6.61424V31.9642ZM32.6067 12.9609C31.0832 5.73855 24.4318 0.286032 16.4799 0.286032C8.50934 0.286032 1.85793 5.72067 0.334429 12.9609C0.111477 13.9799 0 15.0525 0 16.1251V31.9642H3.28854V16.143C3.28854 9.13519 9.19677 3.45028 16.4799 3.45028C23.5772 3.45028 29.3554 8.84916 29.6526 15.6067C29.6526 15.7855 29.6712 15.9642 29.6712 16.143C29.6712 16.3218 29.6712 16.5006 29.6526 16.6793V31.9821H32.9412V16.143C32.9412 15.0525 32.8297 13.9978 32.6067 12.9609Z" fill="#E65C1F"/>
<path d="M86.6709 20.3978C87.7114 19.8436 88.566 19.1464 89.272 18.3419C90.1639 17.305 90.8141 16.143 91.2043 14.8737C91.5945 13.6045 91.7988 12.3352 91.7988 11.0659C91.7988 9.45698 91.5201 8.00894 90.9628 6.72179C90.4054 5.43463 89.5879 4.32625 88.5103 3.41452C87.4327 2.50279 86.1136 1.78771 84.5157 1.28715C82.9365 0.786592 81.1157 0.554188 79.0906 0.554188H66.2337L69.002 6.48939H80.2425C81.3573 6.48939 82.2491 6.66816 82.8993 7.04358C83.5682 7.419 84.0513 7.86592 84.3671 8.40223C84.683 8.93854 84.9059 9.47486 84.9988 9.9933C85.0917 10.5117 85.1474 10.9408 85.1474 11.2804C85.1474 11.7274 85.0731 12.2279 84.9059 12.7464C84.7387 13.2648 84.4786 13.7654 84.107 14.248C83.7354 14.7307 83.2338 15.124 82.5835 15.4279C81.9332 15.7318 81.1343 15.8927 80.1682 15.8927H73.0523L75.7277 21.8279C84.8687 21.8994 87.5813 31.7497 87.5813 31.7497H94.2142C91.7988 22.8469 86.6709 20.3978 86.6709 20.3978ZM59.1735 0L44.8674 31.7318H51.2959L59.1735 13.5508L66.6238 31.7318H73.8512L59.5451 0H59.1735ZM128.307 15.7676H112.385V21.2201H121.544C120.671 23.0078 119.519 24.3307 118.089 25.1709C116.658 26.0112 114.912 26.4402 112.831 26.4402C109.635 26.4402 106.941 25.4212 104.749 23.3832C102.575 21.3452 101.479 18.8425 101.479 15.9106C101.479 13.0682 102.538 10.6547 104.637 8.67039C106.737 6.68603 109.356 5.68492 112.459 5.68492C116.026 5.68492 119.166 7.04357 121.842 9.77877L124.406 4.14748C123.012 2.94972 121.582 2.05587 120.151 1.46592C117.754 0.482681 115.19 0 112.422 0C107.164 0 102.891 1.76983 99.6022 5.32737C96.8338 8.31285 95.459 11.8168 95.459 15.8391C95.459 18.7709 96.2021 21.524 97.7071 24.0626C99.212 26.6011 101.237 28.5497 103.82 29.9263C106.402 31.3028 109.319 31.9821 112.608 31.9821C115.673 31.9821 118.349 31.3564 120.634 30.105C122.919 28.8536 124.777 27.0302 126.208 24.6346C127.638 22.2391 128.363 19.7184 128.363 17.0547L128.307 15.7676ZM141.706 0H141.353L127.047 31.7318H133.476L141.335 13.5508L148.785 31.7318H156.012L141.706 0Z" fill="#1C1C1C"/>
</svg>
