<?xml version="1.0" encoding="UTF-8"?>
<svg id="Capa_2" data-name="Capa 2" xmlns="http://www.w3.org/2000/svg" viewBox="0 0 402.08 131.91">
  <defs>
    <style>
      .cls-1, .cls-2 {
        fill: #fff;
        stroke-width: 0px;
      }

      .cls-2 {
        fill-rule: evenodd;
      }
    </style>
  </defs>
  <g id="Capa_1-2" data-name="Capa 1">
    <g>
      <polygon class="cls-1" points="45.6 44.5 48.92 55.6 39.84 48.87 30.76 55.6 34.08 44.5 25.15 37.56 36.28 37.43 39.84 26.41 43.4 37.43 54.53 37.56 45.6 44.5"/>
      <polygon class="cls-1" points="70.97 69.29 74.29 80.39 65.21 73.66 56.14 80.39 59.46 69.29 50.52 62.35 61.66 62.22 65.21 51.21 68.77 62.22 79.9 62.35 70.97 69.29"/>
      <polygon class="cls-1" points="105.28 87.14 96.35 94.08 99.67 105.18 90.59 98.45 81.51 105.18 84.83 94.08 75.9 87.14 87.03 87.01 90.59 76 94.15 87.01 105.28 87.14"/>
      <path class="cls-1" d="M101.33,0H29.39C14.75,0,.01,14.73.01,29.38v102.53s130.69,0,130.69,0V29.38c0-14.65-14.72-29.38-29.37-29.38ZM114.53,94.01v.69s-.01,20.34-.01,20.34H16.72V36.16c0-10.95,8.89-19.83,19.85-19.83h58.12c10.96,0,19.84,8.88,19.84,19.83v57.85Z"/>
      <polygon class="cls-1" points="45.6 44.5 48.92 55.6 39.84 48.87 30.76 55.6 34.08 44.5 25.15 37.56 36.28 37.43 39.84 26.41 43.4 37.43 54.53 37.56 45.6 44.5"/>
      <polygon class="cls-1" points="70.97 69.29 74.29 80.39 65.21 73.66 56.14 80.39 59.46 69.29 50.52 62.35 61.66 62.22 65.21 51.21 68.77 62.22 79.9 62.35 70.97 69.29"/>
      <polygon class="cls-1" points="105.28 87.14 96.35 94.08 99.67 105.18 90.59 98.45 81.51 105.18 84.83 94.08 75.9 87.14 87.03 87.01 90.59 76 94.15 87.01 105.28 87.14"/>
      <path class="cls-1" d="M101.33,0H29.39C14.75,0,.01,14.73.01,29.38v102.53s130.69,0,130.69,0V29.38c0-14.65-14.72-29.38-29.37-29.38ZM114.53,94.01v.69s-.01,20.34-.01,20.34H16.72V36.16c0-10.95,8.89-19.83,19.85-19.83h58.12c10.96,0,19.84,8.88,19.84,19.83v57.85Z"/>
      <polygon class="cls-1" points="45.6 44.5 48.92 55.6 39.84 48.87 30.76 55.6 34.08 44.5 25.15 37.56 36.28 37.43 39.84 26.41 43.4 37.43 54.53 37.56 45.6 44.5"/>
      <polygon class="cls-1" points="70.97 69.29 74.29 80.39 65.21 73.66 56.14 80.39 59.46 69.29 50.52 62.35 61.66 62.22 65.21 51.21 68.77 62.22 79.9 62.35 70.97 69.29"/>
      <polygon class="cls-1" points="96.35 94.08 99.67 105.18 90.59 98.45 81.51 105.18 84.83 94.08 75.9 87.14 87.03 87.01 90.59 76 94.15 87.01 105.28 87.14 96.35 94.08"/>
      <polygon class="cls-1" points="45.6 44.5 48.92 55.6 39.84 48.87 30.76 55.6 34.08 44.5 25.15 37.56 36.28 37.43 39.84 26.41 43.4 37.43 54.53 37.56 45.6 44.5"/>
      <polygon class="cls-1" points="70.97 69.29 74.29 80.39 65.21 73.66 56.14 80.39 59.46 69.29 50.52 62.35 61.66 62.22 65.21 51.21 68.77 62.22 79.9 62.35 70.97 69.29"/>
      <polygon class="cls-1" points="96.35 94.08 99.67 105.18 90.59 98.45 81.51 105.18 84.83 94.08 75.9 87.14 87.03 87.01 90.59 76 94.15 87.01 105.28 87.14 96.35 94.08"/>
      <path class="cls-2" d="M390.26,97.54c-5.39-1.17-11.1-2.01-11.1-7.33,0-4.75,5.06-6.43,9.61-6.43,5.59,0,9.81,2.46,9.87,8.5h2.47c0-7.6-5.26-10.65-12.34-10.65-5.65,0-12.08,1.95-12.08,8.58s5.71,8.31,11.49,9.48c5.72,1.17,11.43,2.01,11.43,7.66s-6.23,7.08-10.58,7.08c-6.04,0-10.65-3.57-11.04-9.74h-2.47c.2,7.79,5.91,11.88,13.51,11.88,5.84,0,13.05-2.01,13.05-9.22s-5.19-8.57-11.82-9.81ZM369.19,113.65c-2.2,0-2.2-2.08-2.2-4.03v-19.28c0-6.89-5.85-8.71-11.69-8.71-7.86,0-12.41,3.7-12.73,11.04h2.47c.32-5.78,4.28-8.89,10.26-8.89,7.6,0,9.28,5.06,9.28,6.56,0,5.45-.45,6.17-11.49,6.94-5.52.46-12.28,2.08-12.28,9.88,0,7.01,4.87,9.41,11.17,9.41s10.85-3.44,12.41-7.4l.13,1.75c0,2.73.58,4.87,4.48,4.87.65,0,1.3-.13,2.01-.26v-2.07c-.78.12-1.36.19-1.82.19ZM364.52,103.07c0,1.75-1.23,11.36-12.47,11.36-5.84,0-8.77-3.25-8.77-7.27,0-5,3.32-7.08,9.16-7.73,4.81-.65,10.13-.39,12.08-2.6v6.24ZM325.02,89.82l-.19-7.41h-2.47v33.38h2.47v-18.25c.26-5,1.3-7.07,3.77-9.61,2.98-2.92,6.62-3.57,9.22-3.24v-2.47c-6.04-.26-11.5,3.25-12.8,7.6ZM299.95,81.63c-10.07,0-14.87,8.9-14.74,18.06-.13,9.22,5,16.88,14.74,16.88,7.92,0,13.12-4.28,14.42-12.08h-2.47c-1.17,6.18-5.65,9.94-11.95,9.94-8.25,0-12.4-7.14-12.27-15h26.95c.45-9.55-4.22-17.8-14.68-17.8ZM287.68,97.29c.52-6.63,4.87-13.51,12.27-13.51s12.08,6.49,12.21,13.51h-24.48ZM274.41,72.71v17.17c-1.88-5.26-7.01-8.25-12.47-8.25-10.06,0-14.87,7.67-14.87,17.54,0,9.22,4.35,17.4,14.42,17.4,5.98,0,10.06-2.66,12.79-7.92l.13,7.14h2.47v-43.08h-2.47ZM262.01,114.43c-8.57,0-12.47-7.4-12.47-15.26s3.57-15.39,12.4-15.39,12.41,7.6,12.41,15.39-3.9,15.26-12.34,15.26ZM241.01,113.65c-2.21,0-2.21-2.08-2.21-4.03v-19.28c0-6.89-5.85-8.71-11.69-8.71-7.86,0-12.41,3.7-12.73,11.04h2.47c.32-5.78,4.28-8.89,10.26-8.89,7.6,0,9.28,5.06,9.28,6.56,0,5.45-.45,6.17-11.49,6.94-5.52.46-12.27,2.08-12.27,9.88,0,7.01,4.87,9.41,11.16,9.41s10.85-3.44,12.41-7.4l.13,1.75c0,2.73.58,4.87,4.48,4.87.65,0,1.3-.13,2.01-.26v-2.07c-.78.12-1.36.19-1.81.19ZM236.33,103.07c0,1.75-1.23,11.36-12.47,11.36-5.84,0-8.76-3.25-8.76-7.27,0-5,3.31-7.08,9.15-7.73,4.81-.65,10.13-.39,12.08-2.6v6.24ZM194.42,81.63c-5.39,0-8.64,2.54-10.58,7.08-.85-3.44-3.84-7.08-10.2-7.08-5,0-9.42,3.38-10.45,7.6l-.14-6.82h-2.46v33.38h2.46v-19.74c0-8.57,5.85-12.27,10.59-12.27,2.14,0,7.86.78,7.86,9.15v22.86h2.46v-19.74c0-7.99,4.42-12.27,10.46-12.27,1.95,0,7.99.65,7.99,9.15v22.86h2.47v-22.79c0-7.86-4.42-11.37-10.46-11.37ZM380.44,54.36v-5.61h18.24v-10.73h-18.24v-5.61h20.25v-11.54h-33.28v45.03h33.93v-11.54h-20.9ZM364.4,56.25c-.48-5.61-2.67-9.77-6.22-11.22,4.32-1.71,6.33-6.63,6.33-11.29,0-8.52-6.39-12.87-13.79-12.87h-24.81v45.03h13.02v-15.7h6.93c5.15,0,5.51,4.47,5.86,8.76.18,2.34.42,4.67,1.07,6.94h13.03c-1.19-2.08-1.25-7.44-1.42-9.65ZM345.74,40.55h-6.81v-8.96h6.1c4.98,0,6.46,1.64,6.46,4.48,0,4.04-3.32,4.48-5.75,4.48ZM322.8,32.41v-11.54h-30.11v45.03h13.02v-17.15h15.16v-10.73h-15.16v-5.61h17.09ZM289.58,32.41v-11.54h-30.11v45.03h13.03v-17.15h15.16v-10.73h-15.16v-5.61h17.08ZM242.24,20.87v24.53c0,4.61,0,10.35-6.16,10.35s-6.33-5.74-6.33-10.35v-24.53h-13.03v27.62c0,12.49,6.4,18.48,19.31,18.48s19.24-5.99,19.24-18.48v-27.62h-13.03ZM199.57,20.87v45.03h13.02V20.87h-13.02ZM178.19,41.12v9.64h5.75c-.65,3.35-3.73,4.99-6.76,4.99-7.93,0-9.53-7.38-9.53-11.61,0-3.09-.3-13.11,8.65-13.11,3.08,0,5.68,2.33,6.15,5.61h12.5c-1.9-10.6-8.71-16.84-19.48-16.84-9.54,0-20.85,6.87-20.85,24.03,0,12.8,7.7,23.14,20.19,23.14,4.62,0,9.12-1.7,12.03-5.67l.41,4.6h8.23v-24.78h-17.29Z"/>
    </g>
  </g>
</svg>