<?xml version="1.0" encoding="UTF-8"?>
<svg id="Capa_2" data-name="Capa 2" xmlns="http://www.w3.org/2000/svg" viewBox="0 0 249.21 148.32">
  <defs>
    <style>
      .cls-1 {
        fill: #fff;
        stroke-width: 0px;
      }
    </style>
  </defs>
  <g id="Capa_1-2" data-name="Capa 1">
    <g>
      <path class="cls-1" d="M19.83,0h18.38l-8.63,56.17c-.55,3.62-.13,3.73,1.25.35,2.97-7.29,5.57-14.58,7.81-21.9.49-1.6,1.97-2.71,3.67-2.73l11.75-.04c1.77,0,2.33.83,1.68,2.5-3.49,8.93-7.35,18.42-11.59,28.49-2.19,5.13-3.01,10.14-2.46,15.03,1.41,12.44,2.33,25.02,2.77,37.74.05,1.87-.82,2.52-2.62,1.95-4.19-1.38-8.22-1.43-12.1-.16-1.29.42-2.68-.29-3.1-1.58-.05-.15-.08-.3-.1-.45-1.33-10.2-1.87-19.67-1.64-28.41.13-5.13-.42-5.19-1.64-.2-1.95,8.07-3.45,17.24-4.49,27.52-.21,1.95-1.94,3.37-3.87,3.16-.25-.03-.49-.08-.73-.16-3.25-1.09-6.87-1.07-10.85.08-1.39.39-2.83-.43-3.22-1.82-.1-.37-.12-.77-.06-1.15L19.83,0Z"/>
      <path class="cls-1" d="M73.96,83.49c-3.56,11.32-5.59,21.27-6.09,29.86-.18,3.23-1.83,4.44-4.96,3.63-2.81-.73-5.65-.57-8.51.47-1.7.63-3.58-.24-4.21-1.93-.2-.54-.26-1.13-.16-1.7l14.21-79.58c.23-1.35,1.04-2.03,2.42-2.03l15.73-.04c1.5,0,2.73,1.21,2.77,2.73.13,7.94.47,15.99,1.01,24.16.05.57.35.86.9.86h.04c.36.03.57-.14.62-.51,1.46-9.37,2.89-17.8,4.29-25.29.21-1.2.92-1.78,2.15-1.76l11.67.27c1.69.05,2.41.91,2.15,2.58l-12.92,80.52c-.19,1.17-1.31,1.96-2.5,1.77-.08-.01-.16-.03-.23-.05-4.74-1.3-9.24-1.3-13.5,0-1.01.29-1.89.05-2.62-.7-.78-.83-1.17-1.25-1.17-1.25.16-.03.23-.12.23-.27-.42-10.56-.82-21.14-1.21-31.73.02-.04.02-.07-.02-.07-.03,0-.08.03-.1.07h0Z"/>
      <path class="cls-1" d="M129.27,104.29c.21-1.38-.71-2.67-2.07-2.89-.44-.08-.87-.1-1.29-.08-2.08.05-3.43,1.08-4.06,3.08l-3.04,10.07c-.39,1.28-1.25,1.95-2.58,2.03l-14.05.66c-1.95.1-2.64-.78-2.07-2.65,8.9-29.33,18.03-56.11,27.4-80.37.47-1.25,1.38-1.85,2.73-1.8l19.71.59c1.59.05,2.33.87,2.22,2.46l-6.21,80.6c-.13,1.59-.95,2.13-2.46,1.64-4.24-1.43-8.59-1.44-13.04-.04-1.17.38-2.42-.27-2.8-1.46-.11-.33-.14-.69-.08-1.04l1.68-10.81ZM135.71,57.06c.75-.03,1.11-.33,1.05-.9-.34-5.23-1.24-5.32-2.69-.27-2.86,9.86-5.49,19.71-7.88,29.55-.39,1.67.26,2.42,1.95,2.26l2.42-.23c1.77-.18,2.69-1.16,2.77-2.93l1.05-26.11c.02-.75.6-1.35,1.33-1.37Z"/>
      <path class="cls-1" d="M174.2,106.95l1.72-.39c2.39-.57,3.77-2.06,4.14-4.45l10.54-68.11c.13-.75.57-1.14,1.33-1.17l15.96-.55c.39-.03.72.28.74.69,0,.04,0,.09,0,.13-3.88,23.73-7.92,47.9-12.14,72.52-2.54,14.79-18.5,15.03-30.37,13.66-9.81-1.17-13.77-6.64-11.87-16.39,4.66-24.04,8.55-46.92,11.67-68.62.13-.83.61-1.25,1.44-1.25l15.46.04c.7,0,.99.34.86,1.01l-11.67,70.84c-.18.95.46,1.87,1.43,2.05.25.05.51.04.75-.02Z"/>
      <path class="cls-1" d="M249.21,33.06v1.95c-1.3,3.36-2.02,6.93-2.15,10.73-.03,1.69-.9,2.56-2.62,2.62l-7.77.16c-1.35.03-2.15.7-2.38,2.03l-2.3,13.04c-.23,1.35.34,2.02,1.72,1.99l5.82-.12c1.77-.03,3.23,1.37,3.26,3.14,0,.28-.03.56-.1.84l-1.95,7.96c-.44,1.82-1.61,2.69-3.51,2.62l-6.44-.31c-1.67-.08-2.63.72-2.89,2.38l-10.07,66.24h-20.14l19.16-113.31c.23-1.33,1.03-1.99,2.38-1.99l29.98.04Z"/>
    </g>
  </g>
</svg>