<?xml version="1.0" encoding="UTF-8"?>
<svg id="Capa_2" data-name="Capa 2" xmlns="http://www.w3.org/2000/svg" viewBox="0 0 307.63 98">
  <defs>
    <style>
      .cls-1 {
        fill: #fff;
        stroke-width: 0px;
      }
    </style>
  </defs>
  <g id="Capa_1-2" data-name="Capa 1">
    <g>
      <path class="cls-1" d="M125.18,61.17c2.83.68,7.01.79,7.08-3.35.07-4.26.09-8.49.04-12.68-.01-1.3-.72-2.49-1.85-3.13-4.41-2.47-8.83-4.99-13.28-7.56-2.04-1.18-3.62-3.38-3.62-5.77,0-5.48-.01-11.16-.06-17.03-.05-6.66,3.02-11.03,9.83-11.49,4-.27,7.34-.21,10.03.17,8.64,1.22,8.43,9.58,8.31,17.36-.01.85-.45,1.28-1.3,1.27h-6.86c-.97,0-1.38-.49-1.24-1.44.21-1.41.2-3.21,0-5.4-.23-2.37-1.54-3.55-3.92-3.54h-1.7c-2.54,0-3.81,1.28-3.81,3.82v12.27c0,1.36.76,2.61,1.96,3.25,4.49,2.4,8.82,4.79,12.99,7.17,2.51,1.44,3.78,3.47,3.79,6.09.03,5.75.04,11.62.01,17.63-.05,11.61-9.21,11.59-17.71,11.08-9.52-.57-10.44-7.45-10.41-15.04,0-.85.42-1.28,1.27-1.28h7.11c.8,0,1.16.4,1.07,1.19-.24,2.04-.41,5.76,2.28,6.41Z"/>
      <rect class="cls-1" x="149.48" y=".11" width="9.36" height="69.86" rx=".4" ry=".4"/>
      <path class="cls-1" d="M177.29,61.44h12.97c.24,0,.43.19.43.43h0s.02,7.66.02,7.66c0,.24-.19.43-.43.43h-22.28c-.24,0-.43-.18-.43-.42V.49c0-.24.19-.43.43-.43l22.15.13c.23,0,.42.19.43.42l.13,7.56c0,.24-.18.43-.42.44,0,0,0,0-.01,0l-12.97-.08c-.24,0-.43.19-.43.43l-.03,20.38c0,.24.19.43.43.43l11.35-.06c.24,0,.43.19.43.43l.02,7.64c0,.24-.19.43-.43.43h-11.36c-.24,0-.43.19-.43.43h0v22.37c0,.24.19.43.43.43h0Z"/>
      <path class="cls-1" d="M227.24,69.47l-6.26-27.83c-.09-.39.04-.7.37-.93,3.21-2.18,4.85-5.38,4.92-9.6.13-7.55.12-14.32-.03-20.3-.17-7.1-3.77-10.67-10.8-10.71-5.67-.03-11.58-.03-17.73,0-.22,0-.39.17-.39.38v69.24c0,.17.09.26.27.26l8.95-.02c.13,0,.19-.07.19-.2l-.1-27.31c-.01-.47.23-.71.71-.71l4.28-.04c.42,0,.78.29.87.7l5.85,27.02c.07.31.35.54.68.54l7.81.02c.35,0,.48-.17.41-.51ZM217.11,29.13c0,2.59-1.89,4.69-4.22,4.69h-5.48c-.52,0-.94-.42-.94-.94V9.52c0-.52.42-.94.94-.94h5.48c2.33,0,4.22,2.1,4.22,4.69v15.86Z"/>
      <path class="cls-1" d="M257.7,41.65c-.07-.29-.03-.56.13-.8.18-.27.43-.47.74-.6,2.87-1.2,4.41-5.98,4.44-8.72.05-4.78.11-10.63.16-17.56.05-7.9-1.91-13.86-10.77-13.88-6.11-.01-12.01-.01-17.7-.01-.32,0-.58.26-.58.58v68.83c0,.26.22.48.49.48h8.42c.3,0,.45-.15.45-.46l-.02-27.11c0-.45.23-.68.68-.68h4.29c.46,0,.74.22.84.67l5.92,27.44c.02.09.07.13.16.14h8.46s.02,0,.03-.01c.11-.02.18-.12.16-.23-1.99-9.21-4.09-18.57-6.3-28.08ZM253.82,29.33c0,2.5-1.91,4.53-4.27,4.53h-5.34c-.46,0-.83-.37-.83-.83V9.37c0-.46.37-.83.83-.83h5.34c2.36,0,4.27,2.03,4.27,4.53v16.26Z"/>
      <path class="cls-1" d="M299.77,13.45c.08-13.77-7.25-13.68-18.7-13.31-7.11.23-10.68,4.16-10.69,11.79-.05,19.47-.05,38.6,0,57.39,0,.36.3.66.66.66h8.03c.49-.02.74-.27.74-.76l-.04-24.54h0c0-.2.15-.35.34-.35l9.76-.06c.27,0,.49.21.49.48v24.75c.01.27.23.49.5.49l8.42-.05c.27,0,.48-.22.48-.48-.11-19.1-.1-37.77.01-56.01ZM290.41,35.12c0,.47-.38.85-.85.85h-9.06c-.47,0-.85-.38-.85-.85V12.4c0-2.11,1.59-3.81,3.54-3.81h3.68c1.96,0,3.54,1.7,3.54,3.81v22.72Z"/>
      <path class="cls-1" d="M82.18,14.98C73.47,6.27,61.43.88,48.14.88S22.81,6.27,14.1,14.98C5.39,23.69,0,35.73,0,49.02c0,26.59,21.55,48.14,48.14,48.14s48.14-21.55,48.14-48.14c0-13.29-5.39-25.33-14.1-34.04ZM25.93,39.08l12.85-21.92c.59-1.01,1.67-1.63,2.83-1.63h35.86c.73,0,1.36.25,1.89.75l2.59,2.48c.54.52.44.78-.31.78h-41.05c-.58,0-1.11.29-1.4.79l-12.24,20.83c-.26.43-.51.43-.75-.01-.07-.13-.14-.25-.22-.36-.34-.51-.36-1.18-.05-1.71ZM3.03,52.72l-.26-2.51c-.06-.6.21-.9.81-.9l24.71.02c.55,0,1.05-.29,1.32-.76l14.77-25.39c.54-.92,1.53-1.49,2.59-1.49l36.57-.07c.45,0,.81.18,1.06.55l1.97,2.82c.27.39.17.58-.3.58l-40.13.11c-.51,0-.99.27-1.25.72l-14.72,25.2c-.61,1.05-1.72,1.69-2.93,1.7l-23.4.14c-.49.01-.76-.23-.81-.72ZM3.86,58.43l-.52-2.67c-.09-.43.09-.65.53-.65,9.85.07,19.58.07,29.21.01.41-.01.68-.03.79-.08.52-.24.95-.62,1.24-1.1,5.18-8.83,10.15-17.31,14.91-25.43.53-.9,1.49-1.45,2.53-1.45l34.98.04c.19,0,.33.09.42.26l1.62,3.32s.02.03.01.05c0,.01,0,.02-.01.03t-.01.02h-.01s-.02.03-.03.04c-.01,0-.02,0-.04,0l-37.51.07c-.73,0-1.27.31-1.64.94l-14.99,25.41c-.63,1.07-1.78,1.73-3.02,1.73l-27.77.02c-.34,0-.63-.24-.69-.57ZM5.48,64.22l-1.2-3.63c-.04-.12,0-.18.13-.18l34.71.02c.71,0,1.37-.37,1.73-.98l14.77-25.05c.6-1.02,1.7-1.65,2.89-1.66l31.34-.04c.37,0,.61.17.74.52l1.03,2.87c.15.41.01.61-.43.61h-33.61c-.66,0-1.27.35-1.6.92l-14.91,25.28c-.56.95-1.59,1.54-2.71,1.54H5.8c-.16.01-.27-.07-.32-.22ZM7.84,69.8l-1.36-2.8c-.05-.09-.05-.19-.02-.29,0-.03.01-.05.03-.08,0-.01.01-.02.01-.02.01-.02.02-.03.04-.04h0s.03-.04.03-.04c0-.01.01-.01.02-.02.02-.03.05-.05.08-.06.01-.01.03-.01.04-.01.04-.02.09-.03.14-.03l38.44.02c.62,0,1.09-.27,1.4-.81l15.1-25.64c.56-.96,1.6-1.55,2.71-1.55l27.1-.07c.36,0,.68.26.75.62l.53,2.76s.01.08.01.12c0,.05-.01.1-.02.14,0,.01,0,.02-.01.03,0,.02-.01.04-.02.06,0,.04-.03.08-.06.11-.02.03-.04.06-.07.08,0,0,0,0-.01,0-.01.02-.02.03-.04.04-.02.02-.04.03-.06.04-.06.04-.12.07-.19.08-.04,0-.08.01-.12.01h-28.92c-.51-.01-.98.26-1.24.7l-15.15,25.77c-.57.96-1.6,1.55-2.71,1.55H8.93c-.51.01-.87-.22-1.09-.68ZM71.16,58.22l-13.15,22.39c-.4.68-1.14,1.1-1.93,1.1H17.64c-.69,0-1.26-.25-1.71-.76l-2.19-2.44c-.49-.55-.37-.83.37-.82l42.43.03c.58,0,1.12-.3,1.42-.81l12.04-20.51c.12-.21.39-.3.62-.2.23.11.41.27.54.5.3.51.3,1.01,0,1.52ZM92.9,48.17l-24.07-.04c-.67,0-1.3.36-1.64.94l-14.7,25.09c-.56.96-1.6,1.55-2.71,1.55H11.97c-.32.01-.63-.16-.8-.43l-1.92-2.98c-.21-.31-.12-.47.25-.47l41.22-.05c.57,0,1.1-.31,1.39-.8l14.91-25.5c.47-.79,1.31-1.28,2.23-1.28l23.51-.05c.28,0,.43.14.45.42l.19,3.07c.02.35-.15.53-.5.53Z"/>
      <path class="cls-1" d="M89.48,30.83s.05-.02.07-.04c-.01.02-.02.02-.03.03-.01,0-.02,0-.04,0Z"/>
      <rect class="cls-1" x="104.93" y="73.38" width="202.7" height="2.06" rx=".49" ry=".49"/>
      <ellipse class="cls-1" cx="287.84" cy="78.78" rx="1.51" ry=".89" transform="translate(43.06 249.5) rotate(-50.2)"/>
      <rect class="cls-1" x="217.43" y="81.35" width="2.14" height="16.6" rx=".77" ry=".77" transform="translate(-.47 1.15) rotate(-.3)"/>
      <path class="cls-1" d="M115.54,91.19l-.21,4.12c-.03.6.25.9.86.89h1.71c.41-.01.73.16.96.5l.18.26c.17.26.1.61-.16.78-.09.06-.2.09-.31.09l-4.71-.09c-.33,0-.5-.18-.5-.51l-.04-15.09c0-.39.19-.58.57-.58l4.69-.04c.73,0,.88.28.43.87l-.32.43c-.32.42-.84.62-1.36.53-.51-.09-1.01-.06-1.49.1-.35.11-.51.35-.5.72l.16,3.58c.02.38.2.64.55.78.55.22,1.15.26,1.81.13.29-.06.58.12.64.41,0,.04.01.08.01.12v.39c-.02.54-.28.83-.81.88l-1.61.15c-.3.03-.53.28-.55.58Z"/>
      <path class="cls-1" d="M122.98,96.22l2.18-.02c.13,0,.25.08.31.2l.5,1.04c.08.17.01.37-.16.46-.05.02-.1.04-.15.03l-4.77-.03c-.19,0-.34-.15-.34-.34v-15.78c0-.19.16-.34.35-.34,0,0,0,0,.01,0l1.44.04c.18,0,.33.16.33.34l-.04,14.06c0,.19.15.34.34.34Z"/>
      <path class="cls-1" d="M129.21,91.22l.03,4.45c0,.31.26.56.56.55h0l2.12-.04c.41-.01.77.28.84.69l.05.32c.06.32-.16.63-.49.68-.03,0-.07,0-.1,0h-4.55c-.33.01-.59-.26-.59-.59h0l-.03-15.2c0-.43.21-.65.64-.64l4.67.05c.31,0,.55.26.55.57,0,.06-.01.13-.04.19-.09.24-.23.47-.4.69-.21.27-.47.41-.8.42-.58.03-1.19.04-1.83.05-.4,0-.73.33-.73.73,0,.01,0,.03,0,.04l.21,3.77c.02.35.3.63.65.65l2.03.11c.26.02.47.24.45.51,0,.02,0,.05,0,.07l-.09.39c-.11.5-.54.86-1.05.87l-1.49.04c-.4,0-.6.21-.6.62Z"/>
      <path class="cls-1" d="M138.64,84.16c-.28-.83-1.22-1.11-1.91-.61-.27.2-.41.47-.41.8l-.06,10.83c0,.34.15.6.44.79.25.16.53.24.82.24.46,0,.79-.21,1-.64.13-.27.26-.55.37-.83.15-.35.41-.59.78-.71.74-.25,1.18.2,1.32,1.33.15,1.19-.69,2.28-1.89,2.44-.95.12-1.95.17-3.01.16-1.15-.01-1.76-.6-1.81-1.75-.24-4.61-.23-8.99.02-13.12.05-.79.45-1.27,1.22-1.45,3.05-.7,6.1-.28,5.41,3.97-.07.44-.33.65-.78.63l-.52-.03c-.49-.03-.87-.45-.84-.94,0,0,0,0,0,0,.03-.38-.02-.75-.15-1.11Z"/>
      <path class="cls-1" d="M143.29,83.43c-.57,0-1.02-.23-1.37-.68-.53-.7-.36-1.1.51-1.19,1.81-.18,3.75-.18,5.8-.01.41.04.54.25.39.64-.26.64-.76,1.02-1.49,1.15-.61.11-.92.47-.92,1.09l-.02,12.57c0,.61-.3.92-.91.94l-.43.02c-.51.02-.77-.23-.77-.74v-13c0-.53-.27-.79-.79-.79Z"/>
      <path class="cls-1" d="M156.61,97.35c-.3-1.89-1.7-5.56-.39-7.09.24-.28.36-.6.36-.97l-.06-6.23c-.01-1.05-.54-1.58-1.59-1.59l-4.13-.02c-.72,0-1.08.36-1.08,1.08l.04,14.64c0,.51.26.78.78.79h.49c.65.02.97-.3.96-.95l-.15-5.24c0-.31.14-.46.45-.45h.32c.52.02.83.29.93.8l.95,5.02c.11.55.44.82,1,.83h.57c.43.02.62-.19.55-.62ZM154.35,88.6c0,.59-.48,1.07-1.07,1.07h-.34c-.59,0-1.07-.48-1.07-1.07v-4.26c0-.59.48-1.07,1.07-1.07h.34c.59,0,1.07.48,1.07,1.07v4.26Z"/>
      <rect class="cls-1" x="158.53" y="81.46" width="2.14" height="16.48" rx=".56" ry=".56"/>
      <path class="cls-1" d="M167.25,95.44c.13-.41.32-.78.59-1.11.32-.41.92-.49,1.33-.16.2.15.32.38.36.62.12.81,0,1.65-.36,2.5-.17.41-.48.61-.92.62l-3.66.06c-.98.01-1.78-.77-1.79-1.75,0,0,0-.01,0-.02l-.04-12.75c0-.86.6-1.61,1.45-1.8,1.07-.23,2.25-.29,3.54-.16.47.04.85.25,1.12.64.69.97.92,2.07.67,3.32-.13.7-.55.97-1.25.81-.11-.03-.21-.05-.32-.08-.37-.09-.54-.32-.51-.69.03-.46,0-.89-.11-1.3-.17-.66-.6-.96-1.27-.9-.79.07-1.17.48-1.16,1.25.05,3.41.06,6.91.01,10.51,0,.47.26.9.69,1.09.31.15.63.15.96.02.34-.14.56-.38.67-.72Z"/>
      <rect class="cls-1" x="171.38" y="81.46" width="2.22" height="16.5" rx=".64" ry=".64" transform="translate(-.16 .3) rotate(-.1)"/>
      <path class="cls-1" d="M182.8,84.19c-.01-1.52-1.11-2.76-2.46-2.75l-3.88.02h-.01c-.46,0-.83.38-.82.84l.08,14.88c.01.45.38.82.83.82l3.88-.02c1.36-.01,2.45-1.25,2.44-2.77l-.06-11.02ZM179.52,96.23h-.7c-.52,0-.94-.42-.94-.94l-.04-11.06c0-.52.42-.94.94-.94h.7c.52,0,.94.41.94.93l.04,11.06c0,.52-.42.95-.94.95Z"/>
      <path class="cls-1" d="M189.1,81.46h-2.02c-1.67-.01-2.51.83-2.51,2.5v13.23c0,.49.25.74.74.75l1.09.03c.4.01.6-.19.59-.58l-.05-4.69c0-.37.28-.67.64-.68l1.25-.07c.35-.01.54.16.55.51l.17,4.98c.01.33.18.5.51.51l1.02.03h.02c.29,0,.52-.23.52-.52v-13.48c0-1.67-.84-2.51-2.52-2.52ZM188.63,90.1h-.74c-.49.02-.9-.37-.91-.87l-.08-5c-.01-.5.39-.91.89-.92h.74c.49,0,.9.38.91.88l.08,5c.01.5-.39.9-.89.91Z"/>
      <path class="cls-1" d="M200.8,83.82h0c-.01-1.32-1.1-2.37-2.43-2.36l-4.08.03c-.37,0-.67.31-.66.68l.1,15.15h0c.01.38.31.67.68.67l4.08-.03c1.33-.01,2.4-1.08,2.39-2.39l-.08-11.75ZM198.43,95.29c0,.53-.43.96-.96.96h-.68c-.53,0-.96-.43-.96-.96v-11.04c0-.53.43-.96.96-.96h.68c.53,0,.96.43.96.96v11.04Z"/>
      <path class="cls-1" d="M208.68,91.27l-.1,4.17c-.01.41.31.75.72.76,0,0,.01,0,.02,0h2.26c.33,0,.5.16.52.49l.03.56c.02.42-.18.63-.6.64l-4.35.04c-.43,0-.64-.2-.65-.63l-.08-15.16c0-.47.22-.7.69-.69h4.22c.43.02.77.36.76.79h0s0,.43,0,.43c0,.49-.26.73-.75.71l-2.08-.06c-.47-.01-.7.22-.69.69l.15,4.08c.01.31.17.48.48.51l2.03.22c.36.03.56.23.59.59.05.55-.2.89-.73,1.01-.61.14-1.2.21-1.79.22-.41,0-.63.21-.64.63Z"/>
      <path class="cls-1" d="M224.27,96.2l2.21-.04c.12,0,.23.07.29.18l.52,1.01c.08.16.02.36-.14.44-.05.02-.1.04-.16.04l-4.81-.04c-.18,0-.33-.15-.33-.33l-.03-15.63c0-.18.14-.32.32-.33l1.52-.05c.18,0,.33.14.34.32,0,0,0,0,0,.01l-.07,14.08c0,.18.14.33.32.34,0,0,.01,0,.02,0Z"/>
      <path class="cls-1" d="M230.57,94.82c0,.73.35,1.21,1.04,1.44.33.11.69.1,1.07-.04.42-.16.69-.57.69-1.01l-.04-13.04c0-.53.25-.78.78-.77l.75.02c.53.01.79.28.79.81v13.83c0,1.11-.56,1.69-1.67,1.73l-3.68.15c-1.31.05-1.97-.58-1.97-1.89v-13.97c0-.35.27-.64.62-.65l.59-.02c.7-.03,1.05.31,1.05,1l-.02,12.41Z"/>
      <path class="cls-1" d="M239.89,90.24c-.11,2.13-.1,4.38.03,6.75.03.66-.28.98-.94.96h-.45c-.51-.02-.76-.29-.76-.8l-.03-14.84c0-.48.24-.77.71-.87.46-.1.91-.06,1.36.13.32.13.52.36.59.69l1.4,6.42c.29,1.32.62,1.33.99.04.55-1.93,1.01-4.05,1.36-6.36.09-.65.47-.96,1.12-.94l.7.02c.48.01.87.41.87.9v14.87c0,.41-.34.75-.75.75,0,0-.01,0-.02,0h-.72c-.47-.02-.71-.27-.7-.74l.04-6.88c0-.21-.1-.33-.31-.34h-.31s-.07,0-.07.05c-.17,1.52-.39,3-.67,4.45-.08.39-.31.63-.69.73-.37.09-.69.02-.96-.21-.27-.24-.43-.57-.46-.93-.11-1.52-.41-2.83-.89-3.93-.26-.61-.41-.59-.44.08Z"/>
      <rect class="cls-1" x="248.87" y="81.45" width="2.26" height="16.5" rx=".61" ry=".61" transform="translate(-.31 .87) rotate(-.2)"/>
      <path class="cls-1" d="M255.58,88.97v8.25c0,.52-.26.77-.77.75l-.61-.02c-.56-.02-.84-.31-.84-.88v-15.05c.01-.24.17-.44.4-.51,1.19-.36,1.93.05,2.24,1.23.46,1.73.9,3.34,1.31,4.85.03.08.07.09.13.04.07-.07.14-.12.23-.17.1-.05.15-.13.15-.24.02-1.66.02-3.26.01-4.8,0-.62.3-.95.92-.99l.57-.03c.56-.03.84.23.84.79l-.05,14.98c0,.49-.26.75-.75.77l-.55.02c-.51.02-.78-.23-.81-.74-.14-2.81-.74-5.59-1.81-8.36-.07-.16-.25-.24-.41-.18-.12.05-.2.16-.2.29Z"/>
      <path class="cls-1" d="M266.65,81.46h-1.95c-1.76,0-2.64.88-2.63,2.63v13.15c.01.51.27.76.79.73l.86-.04c.39-.02.59-.22.6-.61l.12-4.54c.01-.53.28-.8.81-.82l.83-.03c.45-.02.82.33.84.78l.14,4.75c.01.28.24.51.52.51h1.03c.36,0,.54-.18.54-.54l.05-13.4c.01-1.71-.84-2.57-2.55-2.57ZM266.95,89.28c0,.49-.41.88-.9.87h-.84c-.49-.01-.88-.42-.87-.91l.07-5.06c0-.49.41-.88.9-.88h.84c.49.02.88.43.88.92l-.08,5.06Z"/>
      <path class="cls-1" d="M275.59,84.06c-.26-.75-1.06-1.06-1.77-.69-.33.17-.49.44-.49.81v11.08c0,.55.44.99.98.99,0,0,0,0,0,0,.83,0,1.35-.48,1.58-1.42.1-.41.36-.66.78-.74.2-.03.39-.01.58.07.49.21.71.57.64,1.1l-.24,1.9c-.06.45-.32.68-.78.69l-3.94.05c-1.07.01-1.63-.52-1.68-1.59-.19-4.46-.22-8.66-.09-12.59.1-2.99,3.6-2.41,5.5-2.04.33.07.57.25.72.56.46.97.59,2.02.38,3.16-.1.55-.43.82-.99.81h-.48c-.25-.02-.46-.22-.45-.47.02-.57-.07-1.13-.26-1.68Z"/>
      <rect class="cls-1" x="279.72" y="81.44" width="2.12" height="16.46" rx=".59" ry=".59" transform="translate(-.16 .49) rotate(-.1)"/>
      <path class="cls-1" d="M289.55,81.54h-3.7c-1.02,0-1.85.82-1.85,1.84l-.02,12.66c0,1.02.82,1.85,1.85,1.86h3.7c1.02,0,1.85-.82,1.85-1.85l.02-12.65c0-1.03-.82-1.86-1.85-1.86ZM289.23,95.04c0,.69-.56,1.26-1.26,1.26h-.62c-.7,0-1.26-.57-1.26-1.26v-10.52c0-.7.56-1.26,1.26-1.26h.62c.7,0,1.26.56,1.26,1.26v10.52Z"/>
      <path class="cls-1" d="M296.78,88.78c-.04-.23-.18-.35-.41-.34h-.33c-.17.02-.26.11-.27.28l-.25,8.56c-.01.51-.27.73-.77.67l-.36-.03c-.54-.06-.81-.36-.81-.91l-.02-14.93c0-.37.18-.59.54-.66,1.16-.23,1.83.47,2.09,1.52.25,1.01.47,1.99.64,2.94.53,2.93.94,2.91,1.22-.06.1-1.08.15-2.21.14-3.4,0-.59.3-.91.89-.95l.49-.03c.54-.04.81.21.8.75l-.19,15.05c0,.43-.22.65-.64.67l-.69.04c-.41.02-.63-.17-.66-.57-.11-1.15-.05-2.37-.35-3.49-.41-1.61-.77-3.32-1.06-5.11Z"/>
    </g>
  </g>
</svg>