<?xml version="1.0" encoding="UTF-8"?>
<svg id="Capa_2" data-name="Capa 2" xmlns="http://www.w3.org/2000/svg" viewBox="0 0 489.04 113.74">
  <defs>
    <style>
      .cls-1 {
        fill: none;
      }

      .cls-1, .cls-2 {
        stroke-width: 0px;
      }

      .cls-2 {
        fill: #fff;
      }
    </style>
  </defs>
  <g id="Capa_1-2" data-name="Capa 1">
    <g>
      <g>
        <path class="cls-2" d="M71.62,8.95c.23,0,.41.18.41.41h0v17.42c0,.23.18.41.41.41l8.14-.03c.23,0,.41-.18.41-.41h0V.41c0-.23-.18-.41-.41-.41h0L.49.04C.27.04.08.23.08.45l-.08,26.33c0,.23.18.41.41.41H.41l8.13-.02c.23,0,.41-.18.41-.41V9.32c0-.23.19-.41.42-.41h0l62.25.04h0Z" vector-effect="non-scaling-stroke"/>
        <path class="cls-2" d="M254.42,66.71c.14,8.7,4.82,13.64,13.54,14.04,5.17.24,10.97.29,17.4.16,11.81-.24,16.63-4.4,16.4-16.42,0-.34-.18-.51-.51-.51l-8.13-.02c-.18,0-.34.15-.34.33,0,.01,0,.02,0,.03.16,1.94.07,3.85-.28,5.73-.51,2.73-4.89,2.74-7.22,2.78-4.96.07-10.24.06-15.85-.04-1.96-.04-5.38-.33-5.78-2.69-.33-1.92-.51-4.12-.53-6.59-.04-4.2.04-8.16.23-11.86.2-3.68,3.23-4.04,6.12-4.09,5.33-.08,10.87-.1,16.63-.04,1.78.01,3.36.27,4.74.76,2.29.82,2.05,4.97,2.02,6.93,0,.35.17.53.53.53l7.77-.04c.27,0,.41-.13.44-.4.61-5.94-.84-11.94-6.96-14.22-2.46-.92-4.81-1.42-7.04-1.5-5.51-.19-11.39-.21-17.65-.07-4.62.11-9.95,1.22-12.87,4.94-2.26,2.87-2.69,6.78-2.72,10.33-.03,3.94-.01,7.92.05,11.94h0Z" vector-effect="non-scaling-stroke"/>
        <path class="cls-2" d="M475.38,39.54l-23.94-.04c-7.24-.01-13.12,5.84-13.13,13.08l-.03,15.13c-.01,7.24,5.85,13.11,13.09,13.13l23.93.04c7.24.01,13.12-5.85,13.13-13.09l.03-15.12c0-7.24-5.85-13.12-13.08-13.13ZM479.66,68.22c0,2.53-2.05,4.58-4.58,4.58h-23.33c-2.53,0-4.58-2.05-4.58-4.58v-16.12c0-2.53,2.05-4.58,4.58-4.58h23.33c2.53,0,4.58,2.05,4.58,4.58v16.12Z"/>
        <path class="cls-2" d="M197.89,40.01c0-.14-.11-.25-.25-.25h-8.81c-.14,0-.25.11-.25.25h0v39.79c0,.14.11.25.25.25h8.81c.14,0,.25-.11.25-.25v-39.79h0Z" vector-effect="non-scaling-stroke"/>
        <path class="cls-2" d="M72.03,71.68c0,.18-.15.33-.33.33H9.28c-.18,0-.33-.15-.33-.33v-31.16c-.01-.18-.16-.33-.35-.33l-8.24.04c-.18,0-.33.15-.33.33v40.04c-.01.18.14.33.32.33h80.27c.18,0,.33-.15.33-.33v-40.1c0-.18-.14-.33-.33-.33h0l-8.24.06c-.18,0-.33.15-.33.33l-.02,31.11h0Z" vector-effect="non-scaling-stroke"/>
        <path class="cls-2" d="M210.58,80.24c.14,0,.26-.12.26-.26h0s0-28.27,0-28.27c0-.14.11-.26.26-.26.07,0,.13.02.18.07l30.97,28.64s.11.07.18.07h8.54c.14,0,.26-.11.26-.25h0s0-39.52,0-39.52c0-.14-.12-.26-.26-.26h0l-8.25.04c-.14,0-.26.12-.26.26h0v27.31c0,.14-.11.26-.26.26-.07,0-.13-.02-.18-.07l-29.04-27.73s-.11-.07-.18-.07l-10.6.02c-.14,0-.26.12-.26.26h0s-.04,39.49-.04,39.49c0,.14.12.26.26.26h0l8.42.02h0Z" vector-effect="non-scaling-stroke"/>
        <path class="cls-2" d="M392.09,72.33c0-.15-.12-.28-.28-.28h-27.53c-.15,0-.28-.12-.28-.27l-.02-31.35c0-.15-.12-.28-.28-.28l-8.31.08c-.15,0-.28.12-.28.28h0s-.04,39.44-.04,39.44c0,.15.12.28.28.28h36.46c.15,0,.28-.13.28-.28h0s0-7.62,0-7.62h0Z" vector-effect="non-scaling-stroke"/>
        <path class="cls-2" d="M133.15,58.71c-.2-.16-.24-.44-.1-.65,1.86-2.77,2.55-5.97,2.05-9.58-.59-4.38-2.68-6.89-7.07-7.78-1.25-.25-2.65-.5-3.92-.5-10.22,0-21.16.01-32.82.02-.33,0-.5.17-.5.5l-.03,39.03c0,.3.15.45.45.45,10.46.06,20.58.05,30.36-.03,7.16-.07,14.26-1.71,14.99-10.18.36-4.25.09-8.39-3.41-11.28ZM99.46,49.64c0-.73.59-1.32,1.32-1.32l24.13-.09h.01c.73,0,1.32.59,1.32,1.32v3.16c.01,1.27-.82,2.3-1.86,2.31l-23.01.08c-1.04,0-1.89-1.03-1.9-2.3v-3.16ZM127.83,69.4c0,1.45-1.78,2.62-3.97,2.62l-23.72.04c-.31,0-.56-.25-.56-.57l-.02-7.75c0-.31.26-.57.57-.57l23.71-.03h.01c2.19-.01,3.97,1.16,3.98,2.6v3.66Z"/>
        <path class="cls-2" d="M182.58,62.85c-.14-.16-.14-.32,0-.48,3.28-3.48,3.09-7.53,3.04-12.03-.04-3.59-1.35-6.77-4.72-8.22-2.72-1.17-5.76-1.78-9.12-1.82-6.44-.08-12.81-.12-19.12-.12-4.23,0-8.44.01-12.62.05-.19,0-.35.16-.35.35v39.39c-.01.17.08.26.25.26h8.23c.22-.01.4-.19.4-.41v-13.48c0-.13.1-.23.23-.23,7.13-.04,14.2-.04,21.21.02,1.66.01,3.32.2,4.98.56.54.12.92.59.93,1.14l.11,11.93c0,.25.21.45.46.45l7.9.02c.25,0,.46-.21.47-.47.1-4.11.06-8.01-.13-11.7-.11-2.08-.82-3.82-2.15-5.21ZM176.53,56.27c-.06.6-.5,1.09-1.09,1.22-1.08.24-2.11.37-3.09.39-6.57.18-14.32.24-23.25.17-.33,0-.49-.17-.49-.5l-.08-8.74c0-.32.16-.49.49-.49,6.78.01,13.51,0,20.17-.02,2.34,0,4.54.14,6.57.43.43.07.77.41.82.85.23,2.19.21,4.42-.05,6.69Z"/>
        <path class="cls-2" d="M327.41,50.29c.09-.15.29-.2.44-.11.05.03.08.07.11.11l16.9,29.77c.06.1.16.16.28.16h9c.18,0,.32-.14.32-.32,0-.05-.01-.11-.04-.15l-22.39-39.4c-.06-.1-.16-.16-.28-.16h-8.64c-.11.02-.22.08-.28.18l-22.43,39.38c-.09.15-.03.35.12.44.05.03.1.04.15.04h9.48c.11,0,.22-.06.28-.16l16.98-29.77h0Z" vector-effect="non-scaling-stroke"/>
        <path class="cls-2" d="M418.52,80.22c.2,0,.36-.16.36-.36v-31.2c-.01-.2.15-.36.34-.36l17.05-.04c.2,0,.36-.16.36-.36v-7.35c.01-.2-.15-.36-.34-.36h-43.65c-.2.01-.36.17-.36.37l-.02,7.36c0,.2.16.36.36.36l17.13.03c.2,0,.36.16.36.36h0s0,31.19,0,31.19c0,.2.16.36.36.36h8.08Z" vector-effect="non-scaling-stroke"/>
        <path class="cls-2" d="M103.29,89.74c.15-.21.1-.5-.11-.65-.02-.02-.05-.03-.08-.05l-2.35-1.09c-.23-.11-.5-.01-.62.22l-2.13,4.27c-.11.23-.01.51.22.63.01,0,.02.01.03.01l1.71.68c.2.08.43.01.56-.16l2.76-3.86h0Z" vector-effect="non-scaling-stroke"/>
        <path class="cls-2" d="M201.28,95.28c.08-.45-.21-.89-.67-.97,0,0,0,0,0,0h-.03c-.45-.09-.89.21-.97.66l-3.18,16.97c-.08.45.21.89.67.97,0,0,0,0,0,0h.03c.45.09.89-.21.97-.66l3.18-16.97h0Z" vector-effect="non-scaling-stroke"/>
        <path class="cls-2" d="M313.62,95.17c.08-.42-.2-.82-.62-.9h-.03c-.42-.08-.82.19-.9.61h0s-3.16,17.07-3.16,17.07c-.08.42.2.82.62.9h.03c.42.08.82-.19.9-.61h0s3.16-17.07,3.16-17.07h0Z" vector-effect="non-scaling-stroke"/>
        <path class="cls-2" d="M166.06,94.86h-1.28c-4.01,0-7.26,3.25-7.26,7.26v4.05c0,4.01,3.25,7.27,7.26,7.27h1.28c4.01,0,7.27-3.26,7.27-7.27v-4.05c0-4.01-3.26-7.26-7.27-7.26ZM169.12,106.5c-.02,1.93-1.6,3.48-3.54,3.46h-.49c-1.93-.02-3.48-1.6-3.46-3.54l.05-4.64c.02-1.93,1.6-3.48,3.53-3.46h.5c1.93.02,3.48,1.61,3.46,3.54l-.05,4.64Z"/>
        <path class="cls-2" d="M180.34,100.79c-.42-1.26.02-2.04,1.3-2.35,1.69-.41,3.21-.06,4.58,1.03.38.31.75.29,1.1-.07l1.52-1.53c.43-.43.4-.84-.07-1.23-2.17-1.76-4.83-2.31-7.99-1.65-6.26,1.31-6.22,9.68.07,10.55,1.13.16,2.26.35,3.38.57,1.73.33,1.99,2.65.48,3.42-2.08,1.06-4.44.1-6.14-1.17-.3-.23-.59-.21-.86.05l-1.6,1.53c-.38.36-.38.73-.01,1.1,3.57,3.62,12.18,3.8,13.43-2.23.46-2.22-.07-3.93-1.59-5.15-1.86-1.49-4.74-1.41-6.98-2.25-.31-.11-.52-.33-.62-.64h0Z" vector-effect="non-scaling-stroke"/>
        <path class="cls-2" d="M215.18,109.56c-1.96.98-4.21.16-5.81-1.12-.41-.32-.8-.3-1.17.06l-1.49,1.44c-.41.4-.4.79.02,1.17,2.6,2.33,5.65,3.01,9.16,2.05,2.86-.79,4.31-2.63,4.35-5.5.07-5.05-4.67-5.22-8.31-6.05-.81-.18-1.33-.97-1.18-1.79.46-2.62,4.54-1.38,5.87-.49.52.34,1,.29,1.44-.15l1.23-1.26c.58-.59.52-1.1-.18-1.53-2.72-1.7-5.54-2.11-8.45-1.23-2.59.78-3.87,2.54-3.85,5.26.04,4.48,3.79,5.12,7.29,5.57.7.09,1.21.27,1.54.54,1.01.85.71,2.43-.47,3.02h0Z" vector-effect="non-scaling-stroke"/>
        <path class="cls-2" d="M277.68,94.53c-4.55.02-8.22,4.33-8.2,9.62.01,5.3,3.72,9.59,8.27,9.57s8.22-4.32,8.21-9.62c-.02-5.3-3.73-9.58-8.28-9.57ZM281.46,106.45c-.01,1.95-1.59,3.53-3.54,3.52h-.48c-1.95-.01-3.52-1.59-3.51-3.54v-4.59c.02-1.95,1.6-3.52,3.55-3.51h.48c1.95,0,3.52,1.59,3.52,3.54l-.02,4.58Z"/>
        <path class="cls-2" d="M297.76,107c.42.82.25,1.88-.59,2.39-2.02,1.21-4.41.47-6.24-1.02-.3-.24-.59-.23-.87.04l-1.74,1.66c-.34.32-.33.65,0,.97,2.45,2.28,5.39,3.04,8.84,2.28,3-.66,4.6-2.47,4.8-5.42.36-5.06-4.64-5.6-8.35-6.23-.81-.14-1.36-.91-1.22-1.73.05-.28.17-.53.36-.74,1.16-1.29,3.02-1.26,5.58.08.64.33,1.19.24,1.67-.29l1.09-1.18c.47-.51.42-.96-.16-1.34-4.12-2.68-12.54-2.76-12.43,4,.07,4.82,4.37,5.17,8.01,5.66.54.07,1,.4,1.24.88h0Z" vector-effect="non-scaling-stroke"/>
        <path class="cls-2" d="M398.92,102.17c-.55-.18-1.1-.25-1.67-.22-.25,0-.48-.06-.67-.22-.88-.69-1.08-1.57-.59-2.61.09-.2.25-.34.46-.41,1.64-.53,3.17-.31,4.58.66,1.04.71,1.91.54,2.61-.5l.4-.59c.66-.99.46-1.75-.6-2.29-3-1.5-5.89-1.7-8.68-.58-2.84,1.14-4.45,5.06-2.66,7.87.65,1.02,1.34,1.6,2.08,1.74,1.61.32,3.28.68,5.01,1.09,1.12.26,1.89,1.39,1.41,2.47-.09.2-.23.36-.42.48-1.52.95-2.72.5-4.31.26-.27-.04-.51-.15-.72-.33-.53-.45-1.13-.71-1.79-.8-.23-.03-.41.05-.55.23l-1.27,1.69c-.37.49-.29.9.22,1.24.63.41,1.27.82,1.92,1.23,1.59,1,3.92.66,5.78.71,1.1.03,2.07-.2,2.91-.71,2.2-1.32,3.16-3.37,2.86-6.14-.05-.49-.21-.96-.46-1.41-.35-.65-.65-1.06-.89-1.24-1.21-.94-3.29-1.12-4.95-1.64h0Z" vector-effect="non-scaling-stroke"/>
        <path class="cls-2" d="M425.16,100.71c-.47,1.4-.64,2.91-.51,4.4l.51-4.4Z" vector-effect="non-scaling-stroke"/>
        <path class="cls-2" d="M439.78,98.89c-1.46-2.59-3.91-4.21-6.58-4.34-3.54-.16-6.78,2.31-8.04,6.15l-.52,4.4c.17,1.93.84,3.76,1.92,5.24,1.77,2.44,4.48,3.69,7.22,3.33,3-.39,5.58-2.66,6.73-5.9,1.03-2.92.76-6.24-.73-8.88ZM436.55,106.49c-.01,1.93-1.58,3.48-3.51,3.47h-.51c-1.92-.01-3.48-1.58-3.47-3.51l.02-4.64c.02-1.93,1.59-3.49,3.51-3.48h.51c1.93.02,3.48,1.59,3.47,3.52l-.02,4.64Z"/>
        <path class="cls-1" d="M424.65,105.1l.51-4.4" vector-effect="non-scaling-stroke"/>
        <path class="cls-2" d="M108.09,112.62l-5.65-17.33c-.06-.19-.24-.32-.44-.32h-4.29c-.2-.01-.38.12-.45.31l-5.71,17.38s-.02.05-.01.08c-.01.01-.01.02-.01.04-.01.03,0,.07.01.11,0,.01,0,.02.01.03-.01,0,0,0,0,.02h0s.02.06.03.08c0,0,0,.01.01.01.02.04.04.07.07.1.04.04.08.07.13.09h.01s.01.01.01.01c.01.01.02.02.03.02.02.01.05.01.08.01.03.01.05.01.08.01l3.23-.09c.21,0,.39-.15.44-.35l.93-3.58c.06-.21.24-.35.46-.35h5.44c.21.01.39.15.45.35l1.02,3.61c.06.2.24.34.45.34l3.21.03c.07,0,.13-.01.18-.04.05-.01.08-.04.12-.07t.02-.02s.05-.04.06-.07c0,0,.02-.01.01-.02.02-.01.02-.02.03-.04.01-.01.01-.03.02-.04.02-.04.03-.08.03-.13.01-.06.01-.12-.01-.18ZM101.5,105.54h-3.45s-.05,0-.08-.01c-.13-.04-.21-.19-.17-.33l1.72-5.88c.02-.1.1-.17.19-.19.14-.04.28.05.32.19l1.71,5.88s.02.05.02.08c0,.14-.12.26-.26.26Z"/>
        <path class="cls-2" d="M125.07,112.45l-3.05-5.78c-.16-.31-.09-.55.21-.72,2.79-1.65,3.59-4.18,2.39-7.61-.74-2.14-2.36-3.22-4.87-3.26-2.75-.03-5.59-.07-8.53-.11-.21,0-.31.1-.31.31v17.53c.01.05.02.1.03.14,0,.02.02.03.03.05.01.04.03.07.06.09.02.03.04.05.06.06.03.04.08.06.12.08h0c.05.03.11.04.17.04h.05l3-.08c.29-.01.43-.16.43-.45l-.03-5.53c-.01-.4.19-.63.6-.68.7-.09,1.36-.03,1.97.18.3.1.51.29.64.56l2.49,5.26c.22.47.7.76,1.22.74l2.89-.09c.53-.02.67-.26.42-.73ZM120.98,101.84c-.01.8-.91,1.45-2.02,1.44l-3.5-.02c-.35,0-.63-.29-.63-.64v-3.53c.02-.36.31-.64.66-.64l3.5.03c1.11,0,2,.65,2,1.45v1.91Z"/>
        <path class="cls-2" d="M129.54,110.04l-1.34.14c-.35.04-.53.24-.53.59l-.02,1.88c0,.4.2.6.6.6l7.68-.04c.33,0,.5-.17.5-.5l.02-2.02c0-.3-.14-.48-.42-.54-.4-.08-.81-.07-1.24.02-.33.08-.66-.13-.74-.46-.01-.05-.02-.1-.02-.15l.08-10.89c0-.27.14-.42.41-.43l1.31-.06c.4-.02.6-.23.6-.63v-2c0-.3-.24-.54-.54-.54h-7.7c-.33,0-.49.17-.5.51l-.04,2.07c0,.41.19.62.6.64l1.29.07c.36.02.54.21.54.57v10.56c0,.37-.17.57-.54.61h0Z" vector-effect="non-scaling-stroke"/>
        <path class="cls-2" d="M146.85,94.98h-6.83c-.18,0-.32.14-.32.31v17.66c0,.17.14.31.32.31h6.83c4.32,0,7.82-3.55,7.82-7.93v-2.43c0-4.37-3.5-7.92-7.82-7.92ZM150.53,105.98c0,2.09-1.74,3.78-3.88,3.77h-2.31c-.33-.01-.6-.28-.6-.61v-10.05c.01-.33.28-.6.62-.6h2.3c2.15.01,3.88,1.71,3.87,3.8v3.69Z"/>
        <path class="cls-2" d="M233.73,106.46c-.02,4.81-6.41,4.87-6.45.08-.04-3.65-.04-7.26-.01-10.84,0-.4-.19-.6-.6-.61l-2.68-.04c-.44,0-.67.21-.68.66-.08,4.41-.05,8.17.1,11.27.24,4.85,2.98,7.03,8.24,6.56,3.85-.35,5.82-2.4,5.92-6.15.11-3.8.15-7.63.11-11.48,0-.65-.33-.96-.98-.95l-2.13.03c-.48,0-.87.4-.86.89h0c.02,3.47.03,7,0,10.59h0Z" vector-effect="non-scaling-stroke"/>
        <path class="cls-2" d="M245.42,99.27c0-.41.31-.74.72-.75,0,0,.01,0,.02,0h7.12c.41,0,.74-.33.74-.74v-2.06c-.01-.41-.34-.74-.75-.74h0l-11.05.03c-.41,0-.74.33-.74.74v16.77c0,.41.33.74.74.74,0,0,0,0,0,0l11.07-.09c.41,0,.73-.34.73-.74,0,0,0-.01,0-.02l-.07-2.05c-.01-.4-.34-.71-.74-.71l-7.06.02c-.41,0-.74-.33-.74-.74,0,0,0-.02,0-.02l.06-2.43c.01-.4.34-.71.74-.71l5.89-.03c.41,0,.74-.33.74-.74,0,0,0,0,0,0l-.03-1.98c0-.4-.33-.73-.74-.73h-5.89c-.4,0-.73-.33-.74-.73l-.03-2.28h0Z" vector-effect="non-scaling-stroke"/>
        <path class="cls-2" d="M262.19,109.68c-.39,0-.71-.31-.71-.7,0,0,0,0,0,0v-13.25c.02-.38-.29-.7-.67-.71l-2.66-.07c-.39-.01-.72.29-.73.68,0,0,0,.02,0,.02l.02,16.98c0,.39.32.7.71.7h0l9.67-.16c.39,0,.7-.33.69-.72h0s-.03-2.1-.03-2.1c0-.39-.32-.7-.71-.7h0l-5.57.03h0Z" vector-effect="non-scaling-stroke"/>
        <path class="cls-2" d="M325.75,98.62c.21,0,.38.18.38.39l-.05,13.9c0,.22.18.39.39.39,0,0,0,0,0,0l3.22-.08c.21,0,.39-.18.39-.39l-.04-13.94c0-.22.18-.39.39-.39h4.25c.22-.01.39-.19.39-.41l-.03-2.68c0-.22-.18-.39-.39-.39l-13.09.02c-.21,0-.38.16-.39.37l-.13,2.64c-.01.22.15.4.37.42,0,0,0,0,0,0l4.32.15h0Z" vector-effect="non-scaling-stroke"/>
        <path class="cls-1" d="M337.56,96.99v13.57" vector-effect="non-scaling-stroke"/>
        <path class="cls-2" d="M351.73,112.43l-2.98-5.79s0-.01-.01-.02c-.09-.2-.07-.42.03-.59.03-.04.06-.07.1-.1.03-.04.08-.07.13-.1.01-.01.01-.02.02-.02,1.64-.83,2.54-2.09,2.68-3.78.4-4.77-1.71-7.11-6.31-7.02-2.65.05-5.07.05-7.26-.01-.24,0-.39.1-.47.33-.15.48-.19,1.03-.11,1.66v13.57s-.07,2.08-.07,2.08v.04c0,.08.02.16.05.23.03.08.08.14.13.2.06.06.13.11.21.15.07.03.15.05.23.05h.04l2.92-.06c.39-.01.6-.21.6-.61l.05-5.63c0-.33.18-.5.51-.49l1.7.03c.32.01.62.2.76.49l2.64,5.57c.19.41.6.66,1.05.66h2.85s.04.01.06,0h.02s.04,0,.05-.01c.05-.01.09-.02.13-.05.05-.03.1-.06.13-.09.03-.03.06-.06.08-.09,0,0,0-.01,0-.01.02-.02.04-.05.04-.08.02-.02.03-.05.04-.09.01-.05.02-.1.02-.15,0-.09-.02-.18-.07-.27ZM347.79,101.38c0,1.03-.86,1.86-1.92,1.85h-3.73c-.26-.01-.47-.23-.47-.49v-3.82c0-.27.23-.48.49-.48h3.73c1.05.02,1.9.85,1.9,1.87v1.07Z"/>
        <path class="cls-2" d="M337.55,110.56c.44-4.52.44-9.04,0-13.57v13.57Z" vector-effect="non-scaling-stroke"/>
        <path class="cls-2" d="M370.64,112.57l-5.6-17.24c-.07-.22-.28-.36-.51-.36l-4.25.05c-.22,0-.42.15-.49.36l-5.72,17.17c-.02.05-.03.11-.03.16s.01.11.03.16c.01.05.03.09.06.13.06.1.16.18.28.21.05.02.09.03.15.03l3.18.03c.24,0,.45-.17.5-.4l.89-3.59c.06-.23.27-.39.51-.39h5.38c.24.01.45.16.51.39l.98,3.63c.06.22.27.38.5.38l3.14-.03s.1-.01.16-.03c.04-.01.08-.03.12-.06.03-.02.06-.04.08-.07.02-.02.04-.05.06-.07.02-.03.04-.06.05-.09.01-.04.02-.07.03-.1,0-.04,0-.07,0-.11,0-.05,0-.1-.02-.16ZM364.08,105.54h-3.55s-.04,0-.06-.01c-.12-.04-.19-.16-.15-.28l1.78-5.94c.02-.08.08-.14.16-.16.12-.03.24.04.27.16l1.76,5.95s.01.04.01.06c0,.12-.1.22-.22.22Z"/>
        <path class="cls-2" d="M384.54,95.04c-.12,0-.22.1-.22.22l.03,10.73c0,.12-.1.22-.22.22-.08,0-.15-.04-.19-.11l-6.19-10.95c-.04-.07-.11-.11-.19-.11l-4.15-.07c-.12,0-.22.1-.22.22l-.06,17.89c0,.12.1.22.22.22l3.43-.02c.12,0,.22-.1.22-.22l-.04-10.94c0-.12.08-.23.21-.24.09,0,.18.04.22.13l6.17,11.14c.04.07.12.12.2.12h4.18c.12-.01.22-.11.22-.24v-17.86c.01-.12-.08-.22-.21-.22,0,0,0,0,0,0l-3.41.1h0Z" vector-effect="non-scaling-stroke"/>
        <path class="cls-1" d="M408.53,97.68l-.03,11.49" vector-effect="non-scaling-stroke"/>
        <path class="cls-2" d="M416.59,95.05c-2.44-.02-4.98-.04-7.63-.07-.24,0-.37.12-.37.36l-.06,2.34-.03,11.49-.06,3.46c-.01.5.24.74.74.72l2.79-.1c.4-.01.6-.22.59-.62l-.07-5.44v-.06s0-.01.01-.02c0-.05.01-.09.03-.14.02-.05.05-.09.08-.13.01-.02.03-.05.06-.07.02-.02.05-.04.07-.06t.02-.01s.06-.03.09-.04c.08-.04.17-.05.26-.04,4.2.36,9.37.3,9.62-5.2.19-4.21-1.86-6.33-6.14-6.37ZM418.38,102.39c0,.44-.35.78-.79.78h-4.37c-.43-.01-.78-.37-.78-.8v-3.11c0-.43.36-.78.79-.78l4.38.02c.43,0,.78.35.78.78v3.11Z"/>
        <path class="cls-2" d="M408.5,109.18c.54-3.84.55-7.67.03-11.49l-.03,11.49Z" vector-effect="non-scaling-stroke"/>
        <path class="cls-2" d="M458.54,112.45l-3.15-5.83c-.12-.23-.04-.51.19-.63,2.61-1.46,3.51-3.8,2.69-7.04-.67-2.66-2.62-3.97-5.83-3.94-2.84.04-5.42.03-7.73-.04h-.01c-.18,0-.32.14-.32.32l-.02,17.37c0,.41.21.62.62.61h2.89c.3,0,.45-.15.45-.45l.03-5.74c0-.34.17-.54.51-.6,1.35-.19,2.25.14,2.71.99.81,1.54,1.58,3.19,2.31,4.95.24.58.68.86,1.3.85l2.92-.06c.56-.01.7-.27.44-.76ZM454.45,101.46c0,1.01-.89,1.81-1.96,1.81l-3.75-.02h-.01c-.25-.01-.46-.22-.45-.47l.03-3.89c0-.25.21-.45.46-.45l3.75.02h.01c1.07.01,1.94.83,1.93,1.84v1.16Z"/>
        <path class="cls-2" d="M464.55,98.53c.27,0,.48.22.48.48h0s-.02,13.79-.02,13.79c0,.27.22.48.48.48,0,0,0,0,0,0l3.05-.06c.26,0,.48-.22.48-.48l-.02-13.76c0-.27.21-.49.48-.49,0,0,0,0,0,0l4.14-.03c.26,0,.48-.22.48-.48l.02-2.47c0-.27-.21-.49-.48-.49,0,0,0,0-.01,0l-13.08.04c-.26,0-.48.21-.48.48l-.02,2.52c0,.27.21.49.48.49,0,0,0,0,0,0h4.01Z" vector-effect="non-scaling-stroke"/>
        <path class="cls-2" d="M481.04,102.26c-.31,0-.56-.26-.55-.57l.04-2.57c0-.3.24-.55.54-.56l7.41-.27c.31-.01.55-.27.54-.58l-.04-1.96c0-.3-.25-.55-.56-.55l-11.29-.18c-.31,0-.57.25-.57.56,0,0,0,0,0,0l-.05,17.1c0,.31.25.57.57.57,0,0,0,0,0,0l11.38-.17c.31,0,.56-.27.55-.58h0s-.07-2.08-.07-2.08c0-.3-.25-.54-.55-.55l-7.39-.16c-.31,0-.56-.27-.55-.58h0s.07-2.78.07-2.78c0-.3.25-.54.55-.55l6.31-.15c.31,0,.56-.27.55-.58,0-.01,0-.02,0-.03l-.16-2.09c-.02-.29-.26-.51-.55-.52l-6.2-.18h0Z" vector-effect="non-scaling-stroke"/>
      </g>
      <path class="cls-2" d="M71.62,8.95l-62.25-.04c-.23,0-.41.18-.41.41h0s0,17.44,0,17.44c0,.23-.18.41-.41.41l-8.13.02c-.23,0-.41-.18-.41-.41h0L.08.45C.08.23.27.04.49.04l80.09-.04c.23,0,.41.18.41.41h0v26.34c0,.23-.18.41-.41.41h0l-8.14.03c-.23,0-.41-.18-.41-.41V9.36c0-.23-.18-.41-.41-.41h0Z"/>
      <path class="cls-2" d="M267.96,80.74c-8.72-.4-13.4-5.34-13.54-14.04-.06-4.01-.08-7.99-.05-11.94.03-3.55.47-7.46,2.72-10.33,2.92-3.72,8.25-4.83,12.87-4.94,6.26-.14,12.14-.12,17.65.07,2.23.08,4.58.58,7.04,1.5,6.12,2.29,7.57,8.28,6.96,14.22-.02.27-.17.4-.44.4l-7.77.04c-.36,0-.53-.18-.53-.53.02-1.96.26-6.11-2.02-6.93-1.38-.49-2.96-.74-4.74-.76-5.76-.06-11.3-.05-16.63.04-2.89.04-5.92.41-6.12,4.09-.19,3.7-.27,7.65-.23,11.86.02,2.47.2,4.67.53,6.59.4,2.36,3.82,2.66,5.78,2.69,5.61.1,10.89.12,15.85.04,2.33-.04,6.71-.04,7.22-2.78.35-1.88.44-3.79.28-5.73-.02-.18.12-.35.3-.36.01,0,.02,0,.03,0l8.13.02c.34,0,.51.18.51.51.23,12.02-4.58,16.18-16.4,16.42-6.43.13-12.23.08-17.4-.16Z"/>
      <path class="cls-2" d="M475.38,39.54l-23.94-.04c-7.24-.01-13.12,5.84-13.13,13.08l-.03,15.13c-.01,7.24,5.85,13.11,13.09,13.13l23.93.04c7.24.01,13.12-5.85,13.13-13.09l.03-15.12c0-7.24-5.85-13.12-13.08-13.13ZM479.66,68.22c0,2.53-2.05,4.58-4.58,4.58h-23.33c-2.53,0-4.58-2.05-4.58-4.58v-16.12c0-2.53,2.05-4.58,4.58-4.58h23.33c2.53,0,4.58,2.05,4.58,4.58v16.12Z"/>
      <rect class="cls-2" x="188.59" y="39.77" width="9.3" height="40.28" rx=".25" ry=".25"/>
      <path class="cls-2" d="M72.03,71.68l.02-31.11c0-.18.15-.33.33-.33l8.24-.06c.18,0,.33.15.33.33h0v40.1c0,.18-.16.33-.34.33H.34c-.18,0-.33-.15-.33-.33v-40.04c.01-.18.16-.33.35-.33l8.24-.04c.18,0,.33.15.33.33v31.16c.01.18.16.33.35.33h62.41c.18,0,.33-.15.33-.33h0Z"/>
      <path class="cls-2" d="M210.58,80.24l-8.42-.02c-.14,0-.26-.12-.26-.26h0s.04-39.49.04-39.49c0-.14.12-.26.26-.26h0l10.6-.02c.07,0,.13.03.18.07l29.04,27.73c.1.1.27.09.37-.01.05-.05.07-.11.07-.18v-27.31c0-.14.12-.26.26-.26h0l8.25-.04c.14,0,.26.12.26.26h0s0,39.52,0,39.52c0,.14-.12.26-.26.26h-8.54c-.07,0-.13-.03-.18-.07l-30.97-28.64c-.1-.1-.27-.09-.37.01-.05.05-.07.11-.07.18v28.27c0,.14-.12.26-.27.26h0Z"/>
      <path class="cls-2" d="M392.09,72.33v7.62c0,.15-.12.28-.27.28h-36.46c-.15,0-.28-.12-.28-.27h0l.04-39.44c0-.15.12-.28.28-.28h0l8.31-.08c.15,0,.28.12.28.28l.02,31.35c0,.15.12.28.28.28h27.53c.15,0,.28.12.28.27Z"/>
      <path class="cls-2" d="M133.15,58.71c-.2-.16-.24-.44-.1-.65,1.86-2.77,2.55-5.97,2.05-9.58-.59-4.38-2.68-6.89-7.07-7.78-1.25-.25-2.65-.5-3.92-.5-10.22,0-21.16.01-32.82.02-.33,0-.5.17-.5.5l-.03,39.03c0,.3.15.45.45.45,10.46.06,20.58.05,30.36-.03,7.16-.07,14.26-1.71,14.99-10.18.36-4.25.09-8.39-3.41-11.28ZM99.46,49.64c0-.73.59-1.32,1.32-1.32l24.13-.09h.01c.73,0,1.32.59,1.32,1.32v3.16c.01,1.27-.82,2.3-1.86,2.31l-23.01.08c-1.04,0-1.89-1.03-1.9-2.3v-3.16ZM127.83,69.4c0,1.45-1.78,2.62-3.97,2.62l-23.72.04c-.31,0-.56-.25-.56-.57l-.02-7.75c0-.31.26-.57.57-.57l23.71-.03h.01c2.19-.01,3.97,1.16,3.98,2.6v3.66Z"/>
      <path class="cls-2" d="M182.58,62.85c-.14-.16-.14-.32,0-.48,3.28-3.48,3.09-7.53,3.04-12.03-.04-3.59-1.35-6.77-4.72-8.22-2.72-1.17-5.76-1.78-9.12-1.82-6.44-.08-12.81-.12-19.12-.12-4.23,0-8.44.01-12.62.05-.19,0-.35.16-.35.35v39.39c-.01.17.08.26.25.26h8.23c.22-.01.4-.19.4-.41v-13.48c0-.13.1-.23.23-.23,7.13-.04,14.2-.04,21.21.02,1.66.01,3.32.2,4.98.56.54.12.92.59.93,1.14l.11,11.93c0,.25.21.45.46.45l7.9.02c.25,0,.46-.21.47-.47.1-4.11.06-8.01-.13-11.7-.11-2.08-.82-3.82-2.15-5.21ZM176.53,56.27c-.06.6-.5,1.09-1.09,1.22-1.08.24-2.11.37-3.09.39-6.57.18-14.32.24-23.25.17-.33,0-.49-.17-.49-.5l-.08-8.74c0-.32.16-.49.49-.49,6.78.01,13.51,0,20.17-.02,2.34,0,4.54.14,6.57.43.43.07.77.41.82.85.23,2.19.21,4.42-.05,6.69Z"/>
      <path class="cls-2" d="M327.41,50.29l-16.98,29.77c-.06.1-.16.16-.28.16h-9.48c-.18,0-.32-.15-.32-.32,0-.05.01-.11.04-.15l22.43-39.38c.06-.1.16-.16.28-.16h8.64c.11-.01.22.05.28.15l22.39,39.4c.09.15.03.35-.12.44-.05.03-.1.04-.15.04h-9c-.11,0-.22-.07-.28-.17l-16.9-29.77c-.09-.15-.29-.2-.44-.11-.05.03-.08.07-.11.11Z"/>
      <path class="cls-2" d="M418.52,80.22h-8.08c-.2,0-.36-.15-.36-.35v-31.19c0-.2-.15-.36-.35-.36h0l-17.13-.03c-.2,0-.36-.16-.36-.36l.02-7.36c0-.2.16-.36.36-.36h43.65c.2-.01.36.15.36.34v7.35c-.01.2-.17.36-.37.36l-17.05.04c-.2,0-.36.16-.36.36v31.2c.01.2-.15.36-.34.36Z"/>
      <path class="cls-2" d="M103.29,89.74l-2.76,3.86c-.13.18-.36.25-.56.16l-1.71-.68c-.24-.09-.36-.37-.27-.61,0-.01,0-.02.01-.03l2.13-4.27c.11-.23.39-.32.62-.22l2.35,1.09c.24.11.34.39.23.62-.01.03-.03.05-.05.08Z"/>
      <rect class="cls-2" x="189.39" y="102.76" width="18.94" height="1.7" rx=".83" ry=".83" transform="translate(60.44 280.02) rotate(-79.4)"/>
      <rect class="cls-2" x="301.81" y="102.78" width="18.91" height="1.58" rx=".77" ry=".77" transform="translate(152.71 390.74) rotate(-79.5)"/>
      <path class="cls-2" d="M166.06,94.86h-1.28c-4.01,0-7.26,3.25-7.26,7.26v4.05c0,4.01,3.25,7.27,7.26,7.27h1.28c4.01,0,7.27-3.26,7.27-7.27v-4.05c0-4.01-3.26-7.26-7.27-7.26ZM169.12,106.5c-.02,1.93-1.6,3.48-3.54,3.46h-.49c-1.93-.02-3.48-1.6-3.46-3.54l.05-4.64c.02-1.93,1.6-3.48,3.53-3.46h.5c1.93.02,3.48,1.61,3.46,3.54l-.05,4.64Z"/>
      <path class="cls-2" d="M180.96,101.43c2.24.84,5.12.76,6.98,2.25,1.52,1.22,2.05,2.93,1.59,5.15-1.25,6.03-9.87,5.84-13.43,2.23-.37-.37-.36-.74.01-1.1l1.6-1.53c.27-.26.56-.28.86-.05,1.7,1.27,4.06,2.23,6.14,1.17,1.51-.77,1.24-3.09-.48-3.42-1.12-.22-2.25-.41-3.38-.57-6.3-.87-6.33-9.24-.07-10.55,3.16-.66,5.83-.11,7.99,1.65.47.39.49.8.07,1.23l-1.52,1.53c-.35.35-.72.37-1.1.07-1.36-1.1-2.89-1.44-4.58-1.03-1.29.31-1.72,1.1-1.3,2.35.1.31.31.53.62.64Z"/>
      <path class="cls-2" d="M215.18,109.56c1.18-.59,1.48-2.17.47-3.02-.33-.27-.84-.45-1.54-.54-3.51-.45-7.25-1.09-7.29-5.57-.02-2.72,1.26-4.48,3.85-5.26,2.91-.88,5.73-.47,8.45,1.23.69.44.75.95.18,1.53l-1.23,1.26c-.44.44-.92.49-1.44.15-1.33-.89-5.41-2.13-5.87.49-.14.82.38,1.6,1.18,1.79,3.63.83,8.38,1,8.31,6.05-.04,2.87-1.49,4.71-4.35,5.5-3.51.97-6.56.29-9.16-2.05-.43-.38-.43-.77-.02-1.17l1.49-1.44c.37-.36.76-.38,1.17-.06,1.61,1.28,3.86,2.09,5.81,1.12Z"/>
      <path class="cls-2" d="M277.68,94.53c-4.55.02-8.22,4.33-8.2,9.62.01,5.3,3.72,9.59,8.27,9.57s8.22-4.32,8.21-9.62c-.02-5.3-3.73-9.58-8.28-9.57ZM281.46,106.45c-.01,1.95-1.59,3.53-3.54,3.52h-.48c-1.95-.01-3.52-1.59-3.51-3.54v-4.59c.02-1.95,1.6-3.52,3.55-3.51h.48c1.95,0,3.52,1.59,3.52,3.54l-.02,4.58Z"/>
      <path class="cls-2" d="M297.76,107c-.24-.48-.71-.81-1.24-.88-3.64-.49-7.93-.84-8.01-5.66-.11-6.76,8.31-6.68,12.43-4,.58.38.64.83.16,1.34l-1.09,1.18c-.48.53-1.04.62-1.67.29-2.57-1.34-4.43-1.37-5.58-.08-.55.62-.5,1.56.12,2.11.21.19.47.31.74.36,3.71.63,8.71,1.17,8.35,6.23-.2,2.95-1.8,4.76-4.8,5.42-3.45.76-6.4,0-8.84-2.28-.34-.32-.34-.65,0-.97l1.74-1.66c.28-.27.57-.28.87-.04,1.83,1.49,4.23,2.23,6.24,1.02.84-.51,1.01-1.57.59-2.39Z"/>
      <path class="cls-2" d="M398.92,102.17c1.66.52,3.74.7,4.95,1.64.24.18.53.59.89,1.24.25.46.41.93.46,1.41.3,2.77-.66,4.82-2.86,6.14-.84.51-1.81.74-2.91.71-1.85-.06-4.19.29-5.78-.71-.65-.41-1.29-.82-1.92-1.23-.52-.33-.59-.74-.22-1.24l1.27-1.69c.14-.18.32-.26.55-.23.66.08,1.26.35,1.79.8.21.17.45.28.72.33,1.59.24,2.79.68,4.31-.26.19-.12.33-.28.42-.48.48-1.08-.29-2.21-1.41-2.47-1.73-.41-3.4-.77-5.01-1.09-.73-.14-1.43-.72-2.08-1.74-1.79-2.81-.19-6.73,2.66-7.87,2.78-1.12,5.68-.92,8.68.58,1.07.53,1.27,1.29.6,2.29l-.4.59c-.7,1.04-1.57,1.21-2.61.5-1.41-.97-2.94-1.19-4.58-.66-.21.07-.37.21-.46.41-.49,1.05-.3,1.92.59,2.61.19.15.42.23.67.22.57-.03,1.13.04,1.67.22Z"/>
      <path class="cls-2" d="M439.78,98.89c-1.46-2.59-3.91-4.21-6.58-4.34-3.54-.16-6.78,2.31-8.04,6.15l-.52,4.4c.17,1.93.84,3.76,1.92,5.24,1.77,2.44,4.48,3.69,7.22,3.33,3-.39,5.58-2.66,6.73-5.9,1.03-2.92.76-6.24-.73-8.88ZM436.55,106.49c-.01,1.93-1.58,3.48-3.51,3.47h-.51c-1.92-.01-3.48-1.58-3.47-3.51l.02-4.64c.02-1.93,1.59-3.49,3.51-3.48h.51c1.93.02,3.48,1.59,3.47,3.52l-.02,4.64Z"/>
      <path class="cls-2" d="M108.09,112.62l-5.65-17.33c-.06-.19-.24-.32-.44-.32h-4.29c-.2-.01-.38.12-.45.31l-5.71,17.38s-.02.05-.01.08c-.01.01-.01.02-.01.04-.01.01-.01.02-.01.03,0,.03.01.06.02.08,0,.01,0,.02.01.03-.01,0,0,0,0,.02h0s.02.06.03.08c0,0,0,.01.01.01.02.04.04.07.07.1.04.04.08.07.13.09h.01s.01.01.01.01c.04.02.07.03.11.03.03.01.05.01.08.01l3.23-.09c.21,0,.39-.15.44-.35l.93-3.58c.06-.21.24-.35.46-.35h5.44c.21.01.39.15.45.35l1.02,3.61c.06.2.24.34.45.34l3.21.03s.1-.01.15-.02c.01,0,.02-.01.03-.02.05-.01.08-.04.12-.07t.02-.02s.05-.04.06-.07c0,0,.02-.01.01-.02.02-.01.02-.02.03-.04.01-.01.01-.03.02-.04.02-.04.03-.08.03-.13.01-.06.01-.12-.01-.18ZM101.5,105.54h-3.45s-.05,0-.08-.01c-.13-.04-.21-.19-.17-.33l1.72-5.88c.02-.1.1-.17.19-.19.14-.04.28.05.32.19l1.71,5.88s.02.05.02.08c0,.14-.12.26-.26.26Z"/>
      <path class="cls-2" d="M125.07,112.45l-3.05-5.78c-.16-.31-.09-.55.21-.72,2.79-1.65,3.59-4.18,2.39-7.61-.74-2.14-2.36-3.22-4.87-3.26-2.75-.03-5.59-.07-8.53-.11-.21,0-.31.1-.31.31v17.53c.01.05.02.1.03.14,0,.02.02.03.03.05.01.04.03.07.06.09.02.03.04.05.06.06.03.04.08.06.12.08h0c.05.03.11.04.17.04h.05l3-.08c.29-.01.43-.16.43-.45l-.03-5.53c-.01-.4.19-.63.6-.68.7-.09,1.36-.03,1.97.18.3.1.51.29.64.56l2.49,5.26c.22.47.7.76,1.22.74l2.89-.09c.53-.02.67-.26.42-.73ZM120.98,101.84c-.01.8-.91,1.45-2.02,1.44l-3.5-.02c-.35,0-.63-.29-.63-.64v-3.53c.02-.36.31-.64.66-.64l3.5.03c1.11,0,2,.65,2,1.45v1.91Z"/>
      <path class="cls-2" d="M130.08,109.43v-10.56c0-.36-.19-.55-.54-.57l-1.29-.07c-.4-.02-.6-.23-.6-.64l.04-2.07c0-.33.17-.5.5-.5h7.7c.3,0,.54.23.54.53v2c0,.4-.19.61-.6.63l-1.31.06c-.27.01-.41.16-.41.43l-.08,10.89c0,.34.27.62.61.63.05,0,.1,0,.15-.02.42-.09.83-.1,1.24-.02.29.06.43.24.42.54l-.02,2.02c0,.33-.17.5-.5.5l-7.68.04c-.4,0-.6-.19-.6-.6l.02-1.88c0-.35.18-.55.53-.59l1.34-.14c.36-.04.54-.24.54-.61Z"/>
      <path class="cls-2" d="M146.85,94.98h-6.83c-.18,0-.32.14-.32.31v17.66c0,.17.14.31.32.31h6.83c4.32,0,7.82-3.55,7.82-7.93v-2.43c0-4.37-3.5-7.92-7.82-7.92ZM150.53,105.98c0,2.09-1.74,3.78-3.88,3.77h-2.31c-.33-.01-.6-.28-.6-.61v-10.05c.01-.33.28-.6.62-.6h2.3c2.15.01,3.88,1.71,3.87,3.8v3.69Z"/>
      <path class="cls-2" d="M227.28,106.54c.04,4.79,6.43,4.73,6.45-.08.02-3.59.02-7.12,0-10.59,0-.49.38-.88.86-.89h0l2.13-.03c.64,0,.97.31.98.95.03,3.85,0,7.68-.11,11.48-.1,3.75-2.08,5.8-5.92,6.15-5.25.48-8-1.71-8.24-6.56-.15-3.1-.19-6.86-.1-11.27,0-.44.24-.66.68-.66l2.68.04c.4,0,.6.21.6.61-.03,3.57-.02,7.19.01,10.84Z"/>
      <path class="cls-2" d="M245.42,99.27l.03,2.28c0,.4.34.72.74.72h5.89c.4,0,.73.33.74.74l.03,1.98c0,.41-.32.74-.73.74,0,0,0,0,0,0l-5.89.03c-.4,0-.72.32-.74.71l-.06,2.43c-.01.41.31.75.71.76,0,0,.02,0,.02,0l7.06-.02c.4,0,.72.32.74.71l.07,2.05c.01.41-.31.75-.71.76,0,0-.01,0-.02,0l-11.07.09c-.41,0-.74-.32-.74-.73,0,0,0,0,0,0v-16.77c0-.41.33-.74.74-.74l11.05-.03c.41,0,.74.33.74.74h0s.01,2.06.01,2.06c0,.41-.33.74-.74.74h-7.12c-.41,0-.74.33-.74.74,0,0,0,.01,0,.02Z"/>
      <path class="cls-2" d="M262.19,109.68l5.57-.03c.39,0,.71.31.71.7h0s.03,2.1.03,2.1c0,.39-.3.71-.69.72,0,0,0,0,0,0l-9.67.16c-.39,0-.71-.31-.71-.7h0s-.02-16.98-.02-16.98c0-.39.32-.71.71-.71,0,0,.02,0,.02,0l2.66.07c.38.01.69.33.68.71v13.25c-.01.39.3.71.69.71,0,0,0,0,0,0Z"/>
      <path class="cls-2" d="M325.75,98.62l-4.32-.15c-.22,0-.39-.19-.38-.41,0,0,0,0,0,0l.13-2.64c.01-.21.19-.37.39-.37l13.09-.02c.22,0,.39.18.39.39l.03,2.68c0,.22-.18.39-.39.39h-4.25c-.22.01-.39.19-.39.41h0s.04,13.94.04,13.94c0,.21-.17.39-.39.39l-3.22.08c-.22,0-.4-.17-.4-.39,0,0,0,0,0,0l.05-13.9c0-.21-.17-.39-.38-.39Z"/>
      <path class="cls-2" d="M351.73,112.43l-2.98-5.79s0-.01-.01-.02c-.09-.2-.07-.42.03-.59.03-.03.05-.07.1-.1.03-.04.07-.08.13-.1.01-.01.01-.02.02-.02,1.64-.83,2.54-2.09,2.68-3.78.4-4.77-1.71-7.11-6.31-7.02-2.65.05-5.07.05-7.26-.01-.24,0-.39.1-.47.33-.15.48-.19,1.03-.11,1.66.44,4.53.44,9.05-.01,13.57l-.06,2.08v.04c0,.08.02.16.05.23.03.08.08.14.13.2.06.06.13.11.21.15.07.03.15.05.23.05h.04l2.92-.06c.39-.01.6-.21.6-.61l.05-5.63c0-.33.18-.5.51-.49l1.7.03c.32.01.62.2.76.49l2.64,5.57c.19.41.6.66,1.05.66h2.85s.04.01.06,0h.02s.04,0,.05-.01c.05-.01.09-.02.13-.05.05-.03.1-.06.13-.09.03-.03.06-.06.08-.09,0,0,0-.01,0-.01.02-.02.04-.05.04-.08.02-.02.03-.05.04-.09.01-.05.02-.1.02-.15,0-.09-.02-.18-.07-.27ZM347.79,101.38c0,1.03-.86,1.86-1.92,1.85h-3.73c-.26-.01-.47-.23-.47-.49v-3.82c0-.27.23-.48.49-.48h3.73c1.05.02,1.9.85,1.9,1.87v1.07Z"/>
      <path class="cls-2" d="M370.64,112.57l-5.6-17.24c-.07-.22-.28-.36-.51-.36l-4.25.05c-.22,0-.42.15-.49.36l-5.72,17.17c-.02.05-.03.11-.03.16s.01.11.03.16c.01.05.03.09.06.13.06.1.16.18.28.21.05.02.09.03.15.03l3.18.03c.24,0,.45-.17.5-.4l.89-3.59c.06-.23.27-.39.51-.39h5.38c.24.01.45.16.51.39l.98,3.63c.06.22.27.38.5.38l3.14-.03s.1-.01.16-.03c.04-.01.08-.03.12-.06.03-.02.06-.04.08-.07.02-.02.04-.05.06-.07.02-.03.04-.06.05-.09.01-.04.02-.07.03-.1,0-.04,0-.07,0-.11,0-.05,0-.1-.02-.16ZM364.08,105.54h-3.55s-.04,0-.06-.01c-.12-.04-.19-.16-.15-.28l1.78-5.94c.02-.08.08-.14.16-.16.12-.03.24.04.27.16l1.76,5.95s.01.04.01.06c0,.12-.1.22-.22.22Z"/>
      <path class="cls-2" d="M384.54,95.04l3.41-.1c.12,0,.23.09.23.22,0,0,0,0,0,0v17.86c-.01.12-.11.22-.24.22h-4.18c-.08.02-.16-.03-.2-.1l-6.17-11.14c-.05-.11-.19-.16-.3-.11-.08.04-.13.13-.13.22l.04,10.94c0,.12-.1.22-.22.22l-3.43.02c-.12,0-.22-.1-.22-.22l.06-17.89c0-.12.1-.22.22-.22l4.15.07c.08,0,.15.04.19.11l6.19,10.95c.06.11.2.14.3.08.07-.04.11-.11.11-.19l-.03-10.73c0-.12.1-.22.22-.22Z"/>
      <path class="cls-2" d="M416.59,95.05c-2.44-.02-4.98-.04-7.63-.07-.24,0-.37.12-.37.36l-.06,2.34c.52,3.82.51,7.65-.03,11.49l-.06,3.46c-.01.5.24.74.74.72l2.79-.1c.4-.01.6-.22.59-.62l-.07-5.44v-.06s0-.01.01-.02c0-.05.01-.09.03-.14.02-.05.05-.09.08-.13.01-.02.03-.05.06-.07.02-.02.05-.04.07-.06t.02-.01s.06-.03.09-.04c.08-.04.17-.05.26-.04,4.2.36,9.37.3,9.62-5.2.19-4.21-1.86-6.33-6.14-6.37ZM418.38,102.39c0,.44-.35.78-.79.78h-4.37c-.43-.01-.78-.37-.78-.8v-3.11c0-.43.36-.78.79-.78l4.38.02c.43,0,.78.35.78.78v3.11Z"/>
      <path class="cls-2" d="M458.54,112.45l-3.15-5.83c-.12-.23-.04-.51.19-.63,2.61-1.46,3.51-3.8,2.69-7.04-.67-2.66-2.62-3.97-5.83-3.94-2.84.04-5.42.03-7.73-.04h-.01c-.18,0-.32.14-.32.32l-.02,17.37c0,.41.21.62.62.61h2.89c.3,0,.45-.15.45-.45l.03-5.74c0-.34.17-.54.51-.6,1.35-.19,2.25.14,2.71.99.81,1.54,1.58,3.19,2.31,4.95.24.58.68.86,1.3.85l2.92-.06c.56-.01.7-.27.44-.76ZM454.45,101.46c0,1.01-.89,1.81-1.96,1.81l-3.75-.02h-.01c-.25-.01-.46-.22-.45-.47l.03-3.89c0-.25.21-.45.46-.45l3.75.02h.01c1.07.01,1.94.83,1.93,1.84v1.16Z"/>
      <path class="cls-2" d="M464.55,98.53h-4.01c-.27,0-.48-.21-.48-.48,0,0,0,0,0,0l.02-2.52c0-.26.22-.48.48-.48l13.08-.04c.27,0,.49.21.49.48,0,0,0,0,0,.01l-.02,2.47c0,.26-.21.48-.48.48l-4.14.03c-.27,0-.48.22-.48.48,0,0,0,0,0,0l.02,13.76c0,.26-.21.48-.48.48l-3.05.06c-.27,0-.49-.21-.49-.48,0,0,0,0,0,0l.02-13.79c0-.27-.22-.48-.48-.48h0Z"/>
      <path class="cls-2" d="M481.04,102.26l6.2.18c.29,0,.53.23.55.52l.16,2.09c.02.31-.21.58-.52.61-.01,0-.02,0-.03,0l-6.31.15c-.3,0-.54.25-.55.55l-.07,2.78c0,.31.24.57.55.58,0,0,0,0,0,0l7.39.16c.3,0,.54.25.55.55l.07,2.08c0,.31-.24.57-.55.58,0,0,0,0,0,0l-11.38.17c-.31,0-.57-.25-.57-.56,0,0,0,0,0,0l.05-17.1c0-.31.25-.57.57-.57,0,0,0,0,0,0l11.29.18c.3,0,.55.25.56.55l.04,1.96c0,.31-.23.57-.54.58l-7.41.27c-.3.01-.54.26-.54.56l-.04,2.57c0,.31.24.57.55.57Z"/>
      <path class="cls-2" d="M337.56,96.99c.44,4.53.43,9.05,0,13.57v-13.57Z"/>
      <path class="cls-2" d="M408.53,97.68c.52,3.82.51,7.65-.03,11.49l.03-11.49Z"/>
      <path class="cls-2" d="M425.16,100.71l-.51,4.4c-.13-1.49.05-3,.51-4.4Z"/>
    </g>
  </g>
</svg>