<?xml version="1.0" encoding="UTF-8"?>
<svg id="Capa_2" data-name="Capa 2" xmlns="http://www.w3.org/2000/svg" viewBox="0 0 535.28 129.32">
  <defs>
    <style>
      .cls-1 {
        fill: #fff;
        stroke-width: 0px;
      }
    </style>
  </defs>
  <g id="Capa_1-2" data-name="Capa 1">
    <g>
      <path class="cls-1" d="M144.7,13.94c-4.14-9.1-14.86-13.94-27.91-13.94-8.45,0-17.89,2.03-27.16,6.26-19.46,8.87-32.11,24.62-32.11,38.27,0,2.9.57,5.71,1.77,8.33,4.14,9.1,14.86,13.94,27.91,13.94,8.45,0,17.89-2.03,27.16-6.26,23.59-10.75,37.17-31.61,30.34-46.6ZM111.5,53.31c-22.22,10.46-44.4,10.06-49.54-.87-5.15-10.94,8.69-28.28,30.9-38.73,22.21-10.46,44.39-10.07,49.54.87,5.15,10.94-8.69,28.28-30.9,38.73Z"/>
      <path class="cls-1" d="M3.87,43.85c7.88-15.19,20.1-23.37,36.65-24.55,1.69-.12,2.52.66,2.51,2.36l-.08,8.59c-.02,1.55-.81,2.31-2.36,2.27-3.15-.08-6.06.45-8.71,1.6-12.77,5.52-19.19,15.28-19.27,29.29-.01.87-.45,1.31-1.33,1.31l-9.99-.11c-.81-.01-1.23-.42-1.26-1.22-.33-7.48.95-13.99,3.82-19.53Z"/>
      <path class="cls-1" d="M271.16,93.18c-.19-.24-.42-.35-.7-.34l-8.61-15.43c-.29-.52-.24-.99.15-1.42,1.37-1.53,2.58-2.45,3.69-4.27,3.46-5.66,2.89-10.7-1.71-15.12-2.11-2.03-4.59-3.12-7.45-3.28-6.1-.37-11.93-.52-17.49-.44-.74.01-1.18.38-1.31,1.11l-1.39,7.37c-.02.09-.03.17-.03.26-.01.78.62,1.43,1.4,1.44,1.93.04,2.91,1.01,2.93,2.93.06,7.31-.14,14.67-.6,22.07l.61,5.24c.07.53.37.79.91.78l7.93-.15c.68-.01,1-.35.98-1.03l-.37-12.89c0-.32.21-.6.53-.68.5-.12.85.04,1.05.48,2.27,5.21,5.26,10.93,8.97,17.16.45.77,1.09.98,1.91.63l8.34-3.52c.47-.19.56-.49.26-.9ZM256.59,67.79h0c-.01.15-.02.29-.05.43l-.37,1.08c-.04.09-.09.18-.15.26l-.67.82-1.48.96c-.28.12-.58.22-.89.3l-.47.09c-.16.03-.32.05-.49.06l-.5.02c-.12,0-.23,0-.34-.01l-.21-.02c-.41-.02-.71-.37-.7-.77l.39-7.07c0-.05.01-.1.02-.15.02-.07.05-.14.08-.2.04-.06.08-.11.13-.16.14-.13.33-.21.54-.2h.21c.16.02.32.03.47.06.06,0,.11.01.16.02.13.02.26.04.38.07.13.02.26.06.39.1.03.01.07.02.1.03.49.14.94.35,1.35.61.11.07.22.14.32.22.24.18.47.37.67.59.11.1.2.22.28.33.1.11.18.23.25.35.05.08.1.16.14.25.04.07.08.15.12.23.01.03.02.05.03.08.04.07.06.14.08.21.09.25.16.52.19.79.02.14.03.28.03.42,0,.07-.01.13-.01.2Z"/>
      <path class="cls-1" d="M429.83,93.16l-7.91-15.54c-.27-.51-.22-.99.14-1.43l4.96-6.2c-.05-1.97-.14-3.75-.26-5.35-.46-6.56-4.4-11.09-11.33-11.37-5.66-.23-11.06-.37-16.2-.42-.79,0-1.49.53-1.7,1.3l-2,7.54c-.16.61.06,1,.66,1.15l1.94.48c.57.14.85.51.85,1.09l.22,29.04,9.22.56c.62.03.93-.27.92-.9-.06-4.48-.18-8.91-.35-13.3-.01-.26.09-.45.32-.57.3-.17.56-.14.79.11.18.21.34.45.46.71,2.8,5.8,5.83,11.31,9.09,16.51.41.65.99.86,1.73.61l7.89-2.65c.72-.25.9-.7.56-1.37ZM415.91,68.45c-.04,1.78-1.47,3.22-3.33,3.53-.11.02-.23.03-.34.04-.13.01-.27.02-.4.02h-.13l-1.35-.03c-.79-.01-1.41-.66-1.39-1.45l.15-6.19c.02-.79.67-1.41,1.45-1.39l1.36.03c2.26.06,4.05,1.75,4.01,3.78l-.03,1.66Z"/>
      <path class="cls-1" d="M344.5,94.16c-3.97,4.08-8.28,3.68-12.95-1.2,7.88-4.86,10.22-10.47,10.48-19.25.26-8.54,3.7-14.79,10.33-18.76,4.84-2.88,9.96-2.31,12.89,3.21.84,1.58.36,2.41-1.43,2.5-14.26.68-11.64,17.42-14.26,26.48-.69,2.39-2.37,4.74-5.06,7.03Z"/>
      <path class="cls-1" d="M43.47,54.7c1.42,12.71,8.54,19.06,21.38,19.04,25.03-.04,50-.05,74.91-.03.25,0,.37.12.37.37l-.12,4.96c-.01.28-.16.42-.45.42-25.11-.13-49.71-.11-73.8.08-6.31.05-11.11-.6-14.4-1.96-9.6-3.96-12.87-12.62-14.46-22.69,1.39-1.24,3.58-1.31,6.57-.18Z"/>
      <path class="cls-1" d="M174.52,53.38l.46,14c.02.67.57,1.2,1.25,1.2l8.62.03c.95,0,1.41-.47,1.39-1.42l-.17-11.3c-.02-1.21.58-1.82,1.8-1.82l6.46-.02c1.48,0,2.21.74,2.2,2.22l-.25,28.31-.22,8.86c0,.46-.37.83-.83.85l-7.95.26c-.54.02-.98-.4-1-.94,0,0,0-.01,0-.02l-.15-13.87c-.01-.77-.4-1.15-1.16-1.14l-8.68.06c-.76.01-1.15.4-1.17,1.16l-.22,13.47c-.01.73-.38,1.1-1.11,1.13l-8.45.18c-.73.02-1.34-.56-1.36-1.29,0-.01,0-.02,0-.03l-.18-37.95c0-.67.54-1.22,1.21-1.22.04,0,.09,0,.13,0,3.16.34,6.29.1,9.37-.72Z"/>
      <path class="cls-1" d="M328.44,92.4l-9.28-.03-.52-36.84c0-.69.53-1.27,1.22-1.29l7.75-.31c.72-.03,1.07.31,1.06,1.02l-.23,37.45Z"/>
      <path class="cls-1" d="M452.1,54.47l6.12,1.4c.96.22,1.57,1.18,1.35,2.14-.03.12-.07.23-.12.34l-15.97,34.77c-.23.52-.85.75-1.37.52-.24-.11-.43-.3-.53-.55l-12.84-30.32-2.57-5.73c-.14-.31-.05-.5.29-.57l9.91-2.17c.27-.06.54.1.62.37l4.52,15.46c.76,2.62,1.59,2.64,2.48.06,1.64-4.76,3.55-9.71,5.7-14.84.37-.88,1.17-1.18,2.4-.88Z"/>
      <path class="cls-1" d="M223.75,55.57c-2.78-.97-5.6-.42-8.45-.51-6.78-.22-13.18,4.64-15.63,10.52-2.37,5.7-2.39,11.79-.06,18.27,1.91,3.48,4.62,6.12,8.14,7.91,1.88.95,4.34,1.54,7.4,1.75,3.8.28,6.36.29,7.69.02,6.34-1.28,10.77-5.4,13.28-12.35,2.08-11.26-.77-21.51-12.37-25.61ZM227.31,75.26c-.4,5.88-5.24,10.33-10.82,9.95-5.33-.36-9.41-5.01-9.41-10.56,0-.25.01-.51.03-.77.38-5.64,4.87-9.97,10.17-9.97.22,0,.44,0,.66.02,5.33.36,9.4,5.01,9.4,10.55,0,.26-.01.52-.03.78Z"/>
      <path class="cls-1" d="M316.94,92.79l-8.28.82c-.72.07-1.37-.41-1.53-1.11l-2.27-10.22c-.28-1.27-.79-1.37-1.53-.29l-7.4,10.9c-1.22,1.8-2.29,1.71-3.19-.28-2.14-4.67-4.35-8.71-6.63-12.13-.45-.7-.74-.64-.86.18l-1.71,12.44c-.1.67-.71,1.13-1.36,1.04-.07-.01-.14-.03-.21-.05-2.38-.76-4.94-1.02-7.66-.77-.54.05-.92-.03-1.13-.25-.25-.28-.39-.7-.42-1.26l9.91-35.84c.11-.4.49-.68.91-.66.29.01.49.14.6.4,3,6.82,6.16,13.81,9.46,20.95.64,1.38,1.29,1.39,1.97.03l9.71-19.51c.22-.44.75-.62,1.2-.41.06.03.12.07.17.11.38.31.64.7.79,1.19,3.42,11.43,6.7,22.9,9.83,34.42.04.18-.09.29-.4.31Z"/>
      <path class="cls-1" d="M392.79,92.13l-22,.54c-.49.01-.8-.22-.92-.69l-.94-3.47.32-32.15c0-.58.49-1.05,1.08-1.05l19.71.09c.87,0,1.45.42,1.73,1.25l1.85,5.49c.27.77,0,1.15-.82,1.14l-11.47-.11c-1.31-.01-1.96.64-1.96,1.94l-.02,1.7c-.01,1,.8,1.83,1.81,1.84.04,0,.09,0,.13,0l5.3-.34c1.37-.09,2.03.54,1.99,1.91l-.18,6.83c-.02,1.09-.58,1.63-1.66,1.63l-5.95-.03c-.84,0-1.27.42-1.28,1.26l-.02,2.79c0,.81.66,1.46,1.46,1.46,0,0,.01,0,.02,0l12.87-.14c.53,0,.96.42.96.95,0,.09-.01.18-.04.27l-1.99,6.89Z"/>
      <path class="cls-1" d="M253.87,71.34l1.48-.96c-.41.39-.91.72-1.48.96Z"/>
      <path class="cls-1" d="M479.61,73.8c-4.5-1.03-8.22,4.1-8.2,7.8.02,5.27-.51,9.85-4.98,13.3-1.55,1.2-3.25,1.5-5.1.88l-.68-.23c-1.7-.57-1.9-1.46-.6-2.7,3.67-3.5,5.61-8.49,5.58-13.59-.03-3.69,1.69-6.7,5.15-9.03,4.38-2.95,7.6-2.1,9.68,2.54.4.91.12,1.26-.85,1.03Z"/>
      <path class="cls-1" d="M504.64,92.85c-1.97-2.57-3.79-5.6-5.47-9.11-.27-.57-.14-1.05.37-1.42,2.71-2,4.72-4.48,3.45-8.15-1.14-3.31-3.26-5.13-6.36-5.47-3.39-.36-7.02-.39-10.87-.09-.62.05-1.1.32-1.46.81-1.39,1.91-1.27,3.54.37,4.87.46.39.7.89.71,1.5l.27,17.17c.01.77.4,1.14,1.16,1.11l3.99-.19c.65-.02,1.15-.57,1.13-1.23l-.16-4.3c-.12-3.13.58-3.33,2.1-.58l4.58,8.23c.28.52.93.72,1.46.46l4.42-2.22c.66-.34.76-.8.31-1.39ZM496.06,78.36c-.1,1.29-1.31,2.26-2.7,2.16l-.85-.06c-.25-.02-.47-.15-.6-.35-.05-.08-.09-.17-.11-.26-.01-.07-.02-.14-.01-.21l.34-4.7c.02-.42.38-.75.81-.72h.02l.85.06c1.4.1,2.45,1.24,2.35,2.54l-.1,1.54Z"/>
      <path class="cls-1" d="M522.15,87.66l4.7-.26c1.08-.06,1.44.42,1.08,1.43l-1.37,3.99c-.24.66-.88,1.09-1.57,1.06l-8.49-.31c-.52-.01-1,.14-1.43.45-.37.27-.76.29-1.17.08-.38-.21-.58-.52-.59-.96l-.65-23.29c-.02-1.02.48-1.53,1.5-1.53l4.73-.02c1.35-.01,2.01.66,2,2l-.17,15.98c-.01.74.58,1.35,1.32,1.36.04,0,.07,0,.11,0Z"/>
      <path class="cls-1" d="M41.56,95.52c-2.91-6.64-10.54-8.43-16.35-4.5-.55.36-1.28.21-1.65-.33-.05-.08-.1-.16-.13-.25-.38-1.08-.08-2.17.91-3.27.27-.31.61-.56.99-.74,14.24-6.75,24.83,7.43,19.1,20.47-1.15,2.62-3.18,4.44-6.09,5.46-1.05.37-2.21.09-2.97-.71l-.32-.34c-.45-.46-.43-1.21.04-1.66.1-.1.22-.18.35-.23,5.56-2.44,8.69-8.08,6.13-13.89Z"/>
      <path class="cls-1" d="M103.34,111.92c-.61-1.36-.81-2.12-.6-2.3.38-.33.71-.55.99-.66,5.64-2.61,7.78-6.69,6.43-12.24-1.81-7.39-7.16-9.26-16.06-5.61-.98.4-1.64.11-2-.88l-.18-.52c-.58-1.55-.1-2.66,1.42-3.33,9.54-4.16,19.13.08,21.41,10.2.7,3.1.22,6.29-1.45,9.57-2.2,4.34-5.51,6.26-9.94,5.76Z"/>
      <path class="cls-1" d="M128.51,109.11c14.29-5.87,4.55-26.87-9.29-17.66-.4.27-.78.24-1.13-.09-.72-.65-1.19-1.45-1.4-2.4-.11-.49.02-.91.39-1.26,1.61-1.54,3.58-2.46,5.89-2.76,6.98-.89,12.15,1.72,15.51,7.83,3.96,7.23.26,16.2-6.8,19.65-1.01.49-1.88.31-2.62-.54l-.92-1.08c-.65-.74-.52-1.3.39-1.68Z"/>
      <circle class="cls-1" cx="477.22" cy="91.13" r="2.91"/>
      <path class="cls-1" d="M509.98,93.27c-.19.58-.82.9-1.4.71,0,0,0,0,0,0l-.42-.14c-2.07-.67-3.42-2.21-3.02-3.45,0,0,0,0,0,0l.17-.52c.4-1.24,2.4-1.7,4.47-1.03,0,0,0,0,0,0l.42.14c.59.18.91.81.73,1.39,0,0,0,0,0,.01l-.94,2.9Z"/>
      <ellipse class="cls-1" cx="533.11" cy="90.97" rx="2.27" ry="2.1" transform="translate(130.68 452.26) rotate(-51.6)"/>
      <ellipse class="cls-1" cx="478.27" cy="115.37" rx="2.27" ry=".89" transform="translate(6.39 254.59) rotate(-30)"/>
      <path class="cls-1" d="M326.57,117.13c-.44-.12-.52-.35-.23-.7l1.32-1.6c.13-.15.11-.29-.04-.41l-.34-.3c-.18-.14-.36-.15-.56-.03-1.92,1.16-2.89,3.53-4.33,5.3-2.19,2.73-1.79,8.33,2.25,9.24,3.95.89,6.17-.66,6.66-4.66.45-3.64-1.12-5.92-4.73-6.84ZM329.56,123.2c-.01,2.45-1.53,4.43-3.4,4.42-1.85,0-3.35-1.99-3.35-4.43v-.02c.01-2.44,1.52-4.42,3.39-4.42h.01c1.85.01,3.35,1.99,3.35,4.43v.02Z"/>
      <path class="cls-1" d="M168.23,124.91l2.82-7.46c.05-.12.14-.17.28-.15l.66.14c.36.07.48.28.37.63l-3.51,10.3c-.25.73-1.05,1.13-1.78.88-.41-.14-.73-.46-.87-.86l-3.71-10.47c-.18-.5-.01-.73.52-.68l.71.08c.26.02.43.15.51.4l2.47,7.18c.49,1.44,1.01,1.44,1.54.02Z"/>
      <path class="cls-1" d="M177.43,124.37c-.49.03-.86.44-.86.92l-.02.79c-.01.82.39,1.22,1.2,1.2l3.7-.05c.42,0,.63.21.63.63v.51c0,.42-.34.76-.77.76-.02,0-.03,0-.05,0l-5.29-.4c-.61-.04-1.07-.55-1.06-1.16l.15-8.68c.01-.94.48-1.42,1.42-1.45l5.36-.23c.3,0,.55.23.55.52,0,.05,0,.09-.01.14l-.17.65c-.12.48-.44.69-.94.63l-2.64-.34c-1.34-.17-2.02.42-2.05,1.77l-.02.99c-.01.88.42,1.29,1.29,1.22l2.67-.18c.35-.02.65.1.89.35.24.27.27.55.09.85-.12.21-.3.32-.54.34l-3.56.22Z"/>
      <path class="cls-1" d="M187,121.52l.08,6.81c0,.22-.11.33-.34.34l-.57.03c-.4.02-.74-.3-.75-.71,0,0,0-.01,0-.02l-.03-10c0-.46.36-.84.82-.84.24,0,.48.1.63.29l5.72,6.7c.72.83,1.06.7,1.03-.4l-.12-5.53c-.01-.31.14-.47.45-.49l.57-.05c.41-.03.62.16.63.57l.28,8.85c.07,2.15-.57,2.38-1.93.71l-5.41-6.63c-.71-.87-1.06-.75-1.05.37Z"/>
      <path class="cls-1" d="M202.51,119.93l-.09,8.48c-.01.39-.21.57-.59.52l-.51-.06c-.47-.06-.81-.46-.8-.92l.06-7.71c.01-.65-.3-1.03-.92-1.16l-2.45-.51c-.47-.1-.58-.35-.32-.76.1-.15.2-.31.28-.46,0-.01.09-.01.26,0l7.92.12c.37,0,.66.3.68.66.01.44-.15.73-.49.88-.28.12-.57.14-.86.06-.46-.13-.92-.15-1.39-.06-.51.09-.77.4-.77.91Z"/>
      <path class="cls-1" d="M216.46,127.98l-3.81-9.97c-.13-.34-.39-.61-.73-.75-.67-.27-1.44.06-1.72.73l-3.99,9.85c-.36.9-.1,1.17.8.8.67-.27,1.2-.7,1.62-1.29.04-.07.08-.13.13-.18,1.15-1.46,3.27-1.7,4.72-.55.52.42.93.95,1.22,1.57.15.34.47.57.85.61.13.01.26.01.4,0,.52-.06.69-.33.51-.82ZM212.56,124.7c-.53.19-1.08.16-1.65-.1-.25.08-.51.08-.77,0-.41-.1-.56-.36-.44-.77l.93-2.91c.43-1.38.9-1.39,1.4-.03l1.02,2.76c.18.51.02.86-.49,1.05Z"/>
      <path class="cls-1" d="M227.52,117.3l-2.71-.02c-.78-.01-1.43.62-1.43,1.4l-.03,8.79c-.01.78.61,1.43,1.4,1.43l2.71.02c2.95.02,5.35-2.36,5.36-5.3v-.96c.02-2.94-2.35-5.35-5.3-5.36ZM226.97,127.62l-.36.02c-.64.02-1.17-.49-1.18-1.13l-.19-6.56c-.02-.64.49-1.17,1.13-1.19h.35s.01-.01.01-.01c2.21-.06,4.05,1.62,4.11,3.76l.03,1.14c.06,2.13-1.69,3.91-3.9,3.97Z"/>
      <path class="cls-1" d="M238.71,124.34c-.84-.14-1.26.22-1.25,1.08v.74c.01.81.43,1.2,1.25,1.16l3.59-.22c.27-.02.46.09.59.32l.29.57c.26.49.11.77-.45.83-2.15.22-4.12.16-5.92-.15-.66-.11-.99-.5-.99-1.17l-.08-8.49c0-.84.65-1.54,1.5-1.57l5.24-.23c.49-.02.72.21.69.69l-.05.57c-.02.44-.25.66-.69.65l-3.92-.08c-1.12-.02-1.54.51-1.25,1.6l.31,1.11c.17.63.76,1.05,1.4,1l2.6-.2c.54-.04.87.21.99.74.04.2-.07.4-.34.62-.26.21-.55.34-.88.4-.9.16-1.79.17-2.65.03Z"/>
      <path class="cls-1" d="M253.6,125.65c.1.87.05,1.78-.17,2.71-.02.13-.1.22-.23.25l-.57.17c-.6.17-.89-.04-.89-.65l.02-10.17c0-.58.28-.79.83-.65l.46.12c.25.08.42.3.42.55l-.08,3.58c0,.67.53,1.23,1.2,1.24.03,0,.06,0,.1,0l3.95-.22c.77-.04,1.37-.69,1.33-1.47,0-.16-.04-.31-.1-.46-.44-1.13-.29-2.07.46-2.82.88-.87,1.33-.69,1.33.55l-.08,10.16c0,.23-.11.32-.32.29l-.88-.12c-.16-.02-.26-.11-.28-.28l-.51-3.48c-.06-.42-.44-.72-.88-.71l-4.02.15c-.8.03-1.16.45-1.08,1.25Z"/>
      <path class="cls-1" d="M269.53,117.33c-2.83-.11-5.23,2.42-5.35,5.64-.12,3.23,2.07,5.93,4.9,6.04,2.84.11,5.23-2.42,5.36-5.64.12-3.23-2.07-5.93-4.91-6.04ZM269.15,127.48c-1.82-.04-3.25-1.95-3.2-4.28.05-2.3,1.54-4.13,3.33-4.13h.06c1.82.04,3.26,1.96,3.2,4.28-.05,2.33-1.57,4.18-3.39,4.13Z"/>
      <path class="cls-1" d="M285.82,128.09l-1.82-2.5c-.37-.5-.33-.97.14-1.4,2.21-2.06,2.21-4.02.01-5.89-1.28-1.09-3.12-1.39-5.5-.91-.69.13-1.04.55-1.06,1.25l-.3,9.28c0,.39.27.73.65.78l.42.05c.27.05.53-.14.6-.42l.66-2.99c.25-1.11.73-1.22,1.45-.35l3.05,3.7c.17.21.45.3.71.24l.72-.15c.46-.09.54-.32.27-.69ZM283.04,122.97c-.43.44-1.04.71-1.71.71s-1.28-.27-1.71-.71c-.44-.44-.71-1.04-.71-1.71,0-1.34,1.08-2.42,2.42-2.42s2.42,1.08,2.42,2.42c0,.67-.27,1.27-.71,1.71Z"/>
      <path class="cls-1" d="M290.16,121.91l-.35,6.21c-.02.27-.22.5-.49.55l-.46.08c-.49.08-.76-.12-.8-.62-.29-3.56,1.13-6.54.72-9.94-.05-.44.26-.84.69-.89.02,0,.05,0,.07,0l.66-.02c.75-.03,1.23.31,1.43,1.03.59,2.04,1.51,3.91,2.76,5.6.16.23.48.28.71.12.1-.07.17-.18.2-.3.34-1.4.86-2.76,1.56-4.1,1.88-3.62,3.01-3.4,3.39.66l.72,7.52c.04.42-.26.8-.68.86l-.52.08c-.4.05-.62-.12-.65-.52l-.46-6.67c-.07-1.07-.33-1.12-.79-.15-.72,1.54-1.36,3.09-1.91,4.65-.21.55-.59.93-1.14,1.13-.47.15-.88.06-1.23-.28-.27-.26-.46-.55-.57-.89-.49-1.54-1.17-2.98-2.03-4.32-.49-.74-.77-.67-.82.22Z"/>
      <rect class="cls-1" x="299.67" y="122.14" width="11.25" height="1.88" rx=".65" ry=".65" transform="translate(177.97 426.63) rotate(-89.2)"/>
      <path class="cls-1" d="M317.03,125.79c.24-.92-.31-1.54-1.63-1.85-1.37-.33-1.39-.72-.06-1.19.76-.27,1.59-.28,2.48-.03.54.15.84.51.89,1.08l.32,3.92c.04.47-.32.87-.79.91-.08,0-.16,0-.24-.02-2.17-.45-4.1.94-6.13-.23-2.55-1.46-3.47-3.57-2.77-6.32,1.11-4.43,4.23-5.75,9.37-3.96.23.07.35.31.28.54,0,0,0,0,0,.01l-.12.37c-.11.34-.46.54-.8.45-1.66-.42-3.28-.48-4.84-.18-.71.13-1.22.52-1.54,1.16-1.43,2.89-1.02,5.18,1.22,6.87,1.23.93,2.98.69,3.9-.54.22-.3.38-.63.48-.99Z"/>
      <path class="cls-1" d="M342.03,123.23l-.05-4.39c-.01-.5.18-.91.59-1.22.42-.32.72-.38.89-.18.2.21.3.45.31.74.06,3.25.08,6.33.06,9.25-.01,1.93-.57,2.11-1.68.52-1.5-2.13-3.2-4.15-5.1-6.06-1.04-1.05-1.54-.83-1.5.65l.18,5.47c0,.31-.24.58-.55.6l-.55.05c-.46.04-.69-.17-.68-.65l.15-9c.04-1.93.69-2.17,1.96-.71l4.65,5.43c.89,1.04,1.33.87,1.31-.49Z"/>
      <path class="cls-1" d="M355.22,124.39c-.8.02-1.14.43-1.02,1.22l.06.43c.11.72.73,1.24,1.46,1.23l3.19-.05c.52,0,.91.23,1.16.68.08.15.14.31.18.48.08.32-.04.48-.35.49l-5.49.23c-1.17.05-1.77-.51-1.79-1.68l-.15-8.54c-.02-1,.47-1.5,1.46-1.51l5.35-.11c.95-.02,1.17.37.68,1.17l-.39.62c-.16.25-.48.36-.76.26-1.25-.43-2.43-.48-3.51-.15-.72.22-1.13.7-1.23,1.46-.07.6.09,1.1.49,1.51.32.33.76.51,1.22.51l2.76-.03c.62-.01.92.29.92.91.01.18-.05.34-.18.46-.3.29-.66.43-1.09.42-1.05-.04-2.04-.05-2.97-.02Z"/>
      <path class="cls-1" d="M381.61,127.93l-3.27-8.51c-1.12-2.92-2.29-2.95-3.53-.07-1.04,2.43-1.96,4.88-2.74,7.33h0c-.26.81-1.12,1.25-1.93.99-1.3-.44-2.58-.52-3.83-.23-.11.02-.21.03-.32.03-.77-.01-1.39-.64-1.38-1.4l.12-8.29s0-.08-.01-.11c-.06-.2-.27-.31-.46-.25l-.5.14c-.29.08-.51.32-.57.62-.54,3.22-.51,6.56.09,10.01.1.53.58.9,1.11.87l7.82-.46c.5-.04.88-.27,1.14-.71,1.03-1.73,2.67-2.25,4.92-1.56.52.17.97.52,1.26.99.33.55.79.97,1.39,1.26.77.37,1,.15.69-.65ZM377.82,124.82h-2.44c-.07,0-.14-.01-.2-.04-.34-.12-.52-.49-.4-.82l1.21-3.41c.06-.18.2-.32.38-.39.34-.12.71.05.83.39l1.24,3.41c.02.07.03.14.03.22,0,.36-.29.64-.65.64Z"/>
      <path class="cls-1" d="M392.02,119.04c-.03-.93-.8-1.66-1.73-1.64l-5.17.14c-.93.02-1.66.79-1.64,1.72l.21,7.92c.02.93.8,1.66,1.72,1.64l5.18-.14c.93-.02,1.66-.8,1.64-1.72l-.21-7.92ZM387.74,118.67c1.49-.1,2.75.64,2.82,1.66.07,1.02-1.08,1.93-2.56,2.03-.1,0-.2,0-.29,0-1.36,0-2.46-.71-2.53-1.66-.07-1.02,1.07-1.93,2.56-2.04ZM390.64,126.04h0c-.08,1-2.03,1.66-4.36,1.48l-.28-.03c-.4-.04-.7-.39-.67-.79l.2-2.53c.03-.4.38-.7.78-.68l.28.02h.01c2.32.18,4.14,1.13,4.06,2.13l-.02.4Z"/>
      <path class="cls-1" d="M416.26,128.1l-1.97-2.63c-.31-.42-.24-1.01.15-1.34,2.41-2.03,2.5-3.94.3-5.74-1.53-1.24-3.65-1.5-6.37-.77-.59.17-.88.55-.88,1.16v9.66c-.01.25.11.37.36.36h.66c.45-.01.7-.25.75-.7l.28-2.56c.01-.11.05-.23.11-.33.24-.43.79-.59,1.22-.34,1.45.83,2.79,2.21,4.03,4.16.12.18.27.23.45.14l.73-.36c.35-.16.41-.4.18-.71ZM412.51,123.71l-1.72-.1c-.88-.04-1.56-.8-1.52-1.68l.08-1.54c.05-.88.8-1.56,1.69-1.52l1.72.09c.89.05,1.57.8,1.52,1.69l-.08,1.54c-.05.88-.8,1.56-1.69,1.52Z"/>
      <path class="cls-1" d="M428.08,127.99c-1.02-3.74-2.29-7.14-3.79-10.21-.13-.28-.37-.49-.65-.6-.62-.23-1.31.07-1.54.69l-3.91,10.17c-.17.44-.02.66.44.66h.84c.18-.01.3-.1.35-.27.19-.66.45-1.24.79-1.73.29-.4.67-.6,1.15-.59l2.98.02c.56,0,.97.25,1.23.75.33.66.78,1.21,1.36,1.64.76.56,1.01.39.75-.53ZM424.86,124.42c0,.26-.2.47-.46.48l-2.16.03h-.01c-.27,0-.48-.22-.48-.48v-.19c-.03-2.25.55-4.08,1.28-4.1h.46c.74,0,1.35,1.82,1.37,4.07v.19Z"/>
      <path class="cls-1" d="M434.48,117.34l-2.45.03c-.97.02-1.74.81-1.73,1.78l.1,8.01c.01.97.81,1.75,1.78,1.73l2.45-.02c3.13-.04,5.63-2.51,5.58-5.52v-.64h0c-.04-3.01-2.61-5.41-5.73-5.37ZM434.33,127.47l-.7.05c-.61.03-1.14-.44-1.17-1.05l-.35-6.51c-.04-.6.42-1.13,1.03-1.17l.69-.03h.01c2.37-.13,4.4,1.59,4.52,3.84l.03.55s.01,0,.01.01c.12,2.25-1.7,4.18-4.07,4.31Z"/>
      <path class="cls-1" d="M452.78,122.73c-.26-3.25-2.91-5.69-5.93-5.46s-5.27,3.05-5.02,6.31c.25,3.25,2.91,5.69,5.93,5.46,3.02-.23,5.27-3.06,5.02-6.31ZM447.28,127.5c-1.01,0-1.93-.48-2.6-1.26-.66-.77-1.07-1.85-1.08-3.03,0-1.19.41-2.27,1.07-3.05.67-.78,1.58-1.26,2.6-1.26s1.93.48,2.59,1.26c.67.77,1.08,1.85,1.08,3.03,0,2.38-1.63,4.31-3.66,4.31Z"/>
      <path class="cls-1" d="M464.2,121.61c.8-1.1,1.59-2.25,2.36-3.44.26-.4.61-.64,1.05-.72.97-.18,1.18.13.63.96l-3.3,5.06c-.35.53-.52,1.16-.48,1.79.08,1.13-.05,2.22-.39,3.28-.11.37-.5.57-.87.46-.16-.05-.29-.15-.38-.29l-.22-.34c-.08-.11-.11-.24-.08-.39.62-3.32-.69-6.42-3.92-9.31-.16-.15-.19-.33-.08-.52l.43-.79c.13-.26.3-.29.51-.09,1.31,1.21,2.4,2.63,3.28,4.25.43.79.91.82,1.43.09Z"/>
      <path class="cls-1" d="M494.7,128.23c-.39-.64-.86-1.24-1.4-1.79-.41-.41-.65-.9-.71-1.45-.08-.72.24-1.18.97-1.39.59-.18,1.02-.7,1.06-1.31.39-5.16-4.54-5.36-8.21-4.88-.62.08-.93.43-.93,1.06l-.06,9.88c0,.15.06.28.19.38.17.14.37.23.58.27.47.07.76-.13.85-.6l.49-2.66c.04-.2.13-.39.26-.54.42-.49,1.16-.55,1.65-.13,1.33,1.13,2.53,2.34,3.6,3.63.22.28.51.41.87.4.14,0,.27,0,.41-.03.55-.08.68-.36.38-.84ZM489.78,123.65c-1.57,0-2.84-1.1-2.85-2.46,0-.68.32-1.3.83-1.74.51-.45,1.21-.73,2-.73,1.57-.01,2.84,1.09,2.84,2.45v.02c0,1.35-1.27,2.45-2.82,2.46Z"/>
      <rect class="cls-1" x="497.61" y="117.28" width="1.88" height="11.68" rx=".91" ry=".91"/>
      <path class="cls-1" d="M506.66,117.27l-2.34-.02c-.87-.01-1.58.69-1.59,1.56l-.03,8.63c0,.87.69,1.58,1.56,1.59h2.34c3.22.03,5.84-2.52,5.86-5.69v-.31c.01-3.17-2.58-5.75-5.8-5.76ZM510.25,123.62c.04,2.17-1.74,3.95-3.97,3.99h-.25c-.63,0-1.15-.5-1.16-1.13l-.12-6.47c-.01-.63.5-1.15,1.13-1.16h.24c2.23-.03,4.06,1.69,4.1,3.86l.03.89v.02Z"/>
      <path class="cls-1" d="M519.89,117.27c-.12-.01-.25-.01-.37-.01-2.81,0-5.22,2.39-5.45,5.51-.23,3.27,1.98,6.08,4.95,6.3,2.97.22,5.58-2.24,5.81-5.51.01-.16.02-.32.02-.48,0-3.05-2.14-5.6-4.96-5.81ZM522.84,123.27c-.1,2.33-1.72,4.14-3.62,4.06-1.83-.09-3.25-1.91-3.25-4.13v-.23c.11-2.27,1.66-4.05,3.5-4.05h.12c1.84.08,3.25,1.9,3.25,4.12v.23Z"/>
      <path class="cls-1" d="M529.06,121.52c2.76.42,7.51,2.11,5.5,5.76-1.28,2.33-4.56,2.02-6.57,1.02-.43-.22-.7-.56-.82-1.03-.16-.74.11-.99.83-.74.8.28,1.63.5,2.5.68.81.16,1.45.02,1.93-.45.62-.62.63-1.62,0-2.25-.28-.28-.65-.45-1.04-.47-2.53-.12-4.12-1.18-4.78-3.18-.22-.64-.06-1.36.42-1.85,1.9-1.96,4.16-2.28,6.78-.94.25.13.39.4.35.68l-.06.51c-.03.32-.21.45-.52.39l-3.21-.66c-.97-.2-1.55.18-1.76,1.14l-.12.59c-.09.35.13.7.49.79.02,0,.05.01.07.01Z"/>
      <path class="cls-1" d="M399.59,117.38c-2.75.11-4.89,2.67-4.89,5.78v.25c.13,3.23,2.52,5.75,5.34,5.64,2.75-.1,4.89-2.67,4.89-5.78v-.25c-.13-3.22-2.52-5.75-5.34-5.64ZM403.16,123.26c-.1,2.37-1.65,4.23-3.47,4.16-1.76-.07-3.13-1.93-3.13-4.19,0-.08.01-.16.01-.24.09-2.32,1.58-4.16,3.35-4.16h.11c1.76.07,3.13,1.93,3.13,4.21v.22Z"/>
      <path class="cls-1" d="M483.6,128.35l-3.88-10.04c-.13-.32-.38-.59-.7-.74-.68-.31-1.49-.01-1.8.67-1.45,3.08-2.72,6.31-3.82,9.68-.05.16-.06.33-.02.49.07.25.18.38.36.39.52.01.89-.23,1.11-.71.68-1.52,2.03-2.21,4.05-2.05.92.06,1.75.55,2.27,1.31.46.68,1.05,1.21,1.75,1.6.13.07.29.08.43.03.24-.11.36-.39.25-.63ZM479.53,124.85l-1.95-.18c-.37-.04-.65-.34-.67-.7-.04-1.17.13-2.23.5-3.19.08-.2.24-.37.44-.45.41-.15.86.05,1.02.45l1.26,3.28c.03.09.05.17.04.26-.03.32-.31.56-.64.53Z"/>
    </g>
  </g>
</svg>