<?xml version="1.0" encoding="UTF-8"?>
<svg id="Capa_2" data-name="Capa 2" xmlns="http://www.w3.org/2000/svg" viewBox="0 0 58.72 54.72">
  <defs>
    <style>
      .cls-1 {
        fill: none;
      }

      .cls-1, .cls-2 {
        stroke-width: 0px;
      }

      .cls-2 {
        fill: #e65c1f;
      }
    </style>
  </defs>
  <g id="Capa_1-2" data-name="Capa 1">
    <g>
      <path class="cls-1" d="M19.99,9.37c0-3.65-2.97-6.62-6.62-6.62s-6.62,2.97-6.62,6.62,2.97,6.62,6.62,6.62,6.62-2.97,6.62-6.62Z"/>
      <path class="cls-1" d="M51.35,31.98c2.55,0,4.62-2.07,4.62-4.62s-2.07-4.62-4.62-4.62-4.62,2.07-4.62,4.62,2.07,4.62,4.62,4.62Z"/>
      <path class="cls-1" d="M2.74,31.55c0,3.83,0,4.42,2.63,4.42.65,0,1.22.46,1.35,1.1l2.01,10.04c.74,2.94,2.56,4.84,4.64,4.84s3.92-1.96,4.67-5l1.97-9.88c.13-.64.69-1.1,1.35-1.1,1.39,0,1.99-.22,2.29-.84.33-.68.33-1.88.33-3.87-.64-7.58-2.49-10.45-5.48-12.83-.09-.07-.17-.15-.24-.25l-.45-.59-.46.22c-.36.17-.73.3-1.02.39l-.12.02-5.81-.02c-.29-.09-.66-.23-1.05-.4l-.46-.14-.43.54c-.06.09-.15.17-.23.24-2.98,2.39-4.84,5.3-5.49,13.12Z"/>
      <path class="cls-1" d="M51.35,51.97c2.55,0,4.62-2.07,4.62-4.62s-2.07-4.62-4.62-4.62-4.62,2.07-4.62,4.62,2.07,4.62,4.62,4.62Z"/>
      <path class="cls-1" d="M51.35,11.99c2.55,0,4.62-2.07,4.62-4.62s-2.07-4.62-4.62-4.62-4.62,2.07-4.62,4.62,2.07,4.62,4.62,4.62Z"/>
      <path class="cls-2" d="M20.42,16.45l-.5-.41.43-.49c1.54-1.73,2.39-3.93,2.39-6.19C22.74,4.2,18.54,0,13.37,0S4,4.2,4,9.37c0,2.25.85,4.45,2.39,6.19l.43.49-.5.41c-3.92,3.23-5.69,7.42-6.32,14.99,0,3.94.27,6.57,3.82,7.17l.42.07,1.81,9.05c1.06,4.25,3.94,6.99,7.32,6.99s6.27-2.8,7.35-7.15l1.78-8.89.42-.07c3.55-.61,3.81-3.33,3.8-7.44-.62-7.37-2.39-11.5-6.31-14.72ZM8.23,18.44c.09-.07.17-.15.23-.24l.43-.54.46.14c.39.18.77.31,1.05.4l5.81.02.12-.02c.29-.09.66-.22,1.02-.39l.46-.22.45.59c.07.1.15.18.24.25,2.98,2.39,4.84,5.26,5.48,12.83,0,1.99,0,3.19-.33,3.87-.3.62-.9.84-2.29.84-.65,0-1.22.46-1.35,1.1l-1.97,9.88c-.76,3.04-2.59,5-4.67,5s-3.9-1.91-4.64-4.84l-2.01-10.04c-.13-.64-.69-1.1-1.35-1.1-2.62,0-2.62-.59-2.63-4.42.65-7.82,2.5-10.73,5.49-13.12ZM6.75,9.37c0-3.65,2.97-6.62,6.62-6.62s6.62,2.97,6.62,6.62-2.97,6.62-6.62,6.62-6.62-2.97-6.62-6.62Z"/>
      <path class="cls-2" d="M43.27,28.73h.09c.06-.03.11-.04.16-.05l.56-.08.14.54c.83,3.28,3.75,5.58,7.12,5.58,4.06,0,7.37-3.31,7.37-7.37s-3.31-7.37-7.37-7.37c-3.37,0-6.3,2.29-7.12,5.58l-.14.55-.55-.08c-.06,0-.11-.02-.17-.04h-4.64V8.74h4.56l.14-.03s.04-.01.11-.02l.55-.07.14.54c.83,3.28,3.75,5.58,7.12,5.58,4.06,0,7.37-3.31,7.37-7.37s-3.31-7.37-7.37-7.37c-3.37,0-6.3,2.29-7.12,5.58l-.14.55-.55-.08c-.06,0-.11-.02-.17-.04h-6.02c-.76-.01-1.37.6-1.37,1.36v18.61h-4.62c-.76,0-1.37.62-1.37,1.37s.62,1.37,1.37,1.37h4.62v18.61c0,.76.62,1.37,1.37,1.37h5.94l.14-.03s.04-.01.1-.02l.56-.08.14.54c.83,3.28,3.75,5.58,7.12,5.58,4.06,0,7.37-3.31,7.37-7.37s-3.31-7.37-7.37-7.37c-3.37,0-6.3,2.29-7.12,5.58l-.14.55-.55-.08c-.06,0-.11-.02-.17-.04h-4.64v-17.25h4.54ZM46.73,27.36c0-2.55,2.07-4.62,4.62-4.62s4.62,2.07,4.62,4.62-2.07,4.62-4.62,4.62-4.62-2.07-4.62-4.62ZM46.73,7.37c0-2.55,2.07-4.62,4.62-4.62s4.62,2.07,4.62,4.62-2.07,4.62-4.62,4.62-4.62-2.07-4.62-4.62ZM46.73,47.35c0-2.55,2.07-4.62,4.62-4.62s4.62,2.07,4.62,4.62-2.07,4.62-4.62,4.62-4.62-2.07-4.62-4.62Z"/>
    </g>
  </g>
</svg>