<?xml version="1.0" encoding="UTF-8"?>
<svg id="Capa_2" data-name="Capa 2" xmlns="http://www.w3.org/2000/svg" viewBox="0 0 60.4 56.69">
  <defs>
    <style>
      .cls-1 {
        fill: none;
      }

      .cls-1, .cls-2 {
        stroke-width: 0px;
      }

      .cls-2 {
        fill: #e65c1f;
      }
    </style>
  </defs>
  <g id="Capa_1-2" data-name="Capa 1">
    <g>
      <path class="cls-1" d="M42.56,50.61c-.68-8.59-2.56-10.19-5.97-13.08l-1.26-1.07-.57.27c-.13.06-.25.12-.37.17l-.2.08-3.18,4.38,3.38,7.75-4.22,5.16-4.22-5.16,3.38-7.75-3.19-4.38-.2-.08c-.11-.04-.21-.09-.35-.16l-.54-.25-1.23,1.05c-3.41,2.89-5.29,4.48-5.98,13.33v.1c.06.37.57.88,1.37,1.35,1.88,1.09,5.29,1.8,9.34,1.96l1.67.07h.41s.38-.03.38-.03l.78-.03c4.09-.15,7.52-.87,9.42-1.96l.19.32-.19-.32c.92-.53,1.36-1.08,1.36-1.69ZM38.65,50.92c-.34,0-.59-.24-.59-.55,0-1.59,0-6.42-3.07-7.96-.14-.07-.25-.19-.3-.34-.05-.15-.04-.31.03-.45.14-.28.52-.41.8-.26,3.72,1.86,3.72,7.25,3.72,9.01,0,.32-.25.55-.59.55Z"/>
      <path class="cls-1" d="M38.93,26.6c0-4.83-3.93-8.76-8.76-8.76s-8.76,3.93-8.76,8.76,3.93,8.76,8.76,8.76,8.76-3.93,8.76-8.76ZM29.61,21.51c0-.33.27-.59.59-.59,3.11,0,5.65,2.53,5.65,5.65,0,.32-.25.55-.59.55s-.59-.24-.59-.55c0-2.46-2-4.46-4.46-4.46-.33,0-.59-.27-.59-.59Z"/>
      <path class="cls-2" d="M14.14,6.04c0,.33.27.59.59.59,2.46,0,4.46,2,4.46,4.46,0,.32.25.55.59.55s.59-.24.59-.55c0-3.11-2.53-5.65-5.65-5.65-.33,0-.59.27-.59.59Z"/>
      <path class="cls-2" d="M50.14,11.09c0,.32.25.55.59.55s.59-.24.59-.55c0-3.11-2.53-5.65-5.65-5.65-.33,0-.59.27-.59.59s.27.59.59.59c2.46,0,4.46,2,4.46,4.46Z"/>
      <path class="cls-2" d="M53.54,34.89c0,.32.25.55.59.55s.59-.24.59-.55c0-1.77,0-7.15-3.73-9.02-.29-.14-.65-.01-.79.27-.15.29-.03.65.27.79,3.07,1.53,3.07,6.37,3.07,7.96Z"/>
      <path class="cls-2" d="M34.67,26.57c0,.32.25.55.59.55s.59-.24.59-.55c0-3.11-2.53-5.65-5.65-5.65-.33,0-.59.27-.59.59s.27.59.59.59c2.46,0,4.46,2,4.46,4.46Z"/>
      <path class="cls-2" d="M35.52,41.35c-.28-.14-.66-.01-.8.26-.07.14-.08.3-.03.45.05.15.16.27.3.34,3.07,1.53,3.07,6.37,3.07,7.96,0,.32.25.55.59.55s.59-.24.59-.55c0-1.77,0-7.15-3.72-9.01Z"/>
      <path class="cls-2" d="M8.35,22.06l1.23-1.04.44.2c1.84.85,3.66,1.18,5.56,1l.34-.03v-2.39l-.42.05c-.27.03-.53.05-.8.05-4.83,0-8.76-3.93-8.76-8.76S9.86,2.37,14.69,2.37s8.76,3.93,8.76,8.76c0,.22,0,.44-.03.65l-.03.41h2.37l.03-.34c.02-.25.03-.48.03-.71C25.82,4.99,20.83,0,14.69,0S3.56,4.99,3.56,11.13c0,3.02,1.19,5.84,3.36,7.96l.59.57-.63.53c-4.01,3.4-6.14,5.62-6.88,15.12,0,1.38.89,2.61,2.55,3.57,2.18,1.26,6.41,2.14,11.04,2.3h.39s0-2.36,0-2.36h-.37c-4.29-.12-7.89-.84-9.88-1.99-.8-.46-1.31-.97-1.36-1.31v-.22c.68-8.76,2.56-10.35,5.97-13.24Z"/>
      <path class="cls-2" d="M60.4,35.06c-.73-9.26-2.84-11.45-6.8-14.81l-.73-.62.58-.57c2.14-2.11,3.32-4.93,3.32-7.93,0-6.14-4.99-11.13-11.13-11.13s-11.13,4.99-11.13,11.13c0,.23,0,.47.02.71l.02.35h2.38s-.03-.4-.03-.4c-.02-.22-.02-.44-.02-.65,0-4.83,3.93-8.76,8.76-8.76s8.76,3.93,8.76,8.76-3.93,8.76-8.76,8.76c-.25,0-.5-.01-.75-.03l-.41-.04v2.38s.35.03.35.03c1.92.15,3.73-.19,5.53-1.03l.44-.21,1.26,1.07c3.41,2.89,5.29,4.48,5.97,13.08,0,.6-.45,1.17-1.35,1.69-1.99,1.15-5.59,1.87-9.88,1.98h-.37s0,2.38,0,2.38h.39c4.63-.17,8.86-1.05,11.04-2.31,1.71-.99,2.54-2.23,2.54-3.79v-.03Z"/>
      <path class="cls-2" d="M38.12,35.72l-.73-.62.58-.58c2.14-2.11,3.32-4.92,3.32-7.93,0-6.14-4.99-11.13-11.13-11.13s-11.13,4.99-11.13,11.13c0,3.02,1.19,5.84,3.36,7.96l.59.58-.64.53c-4.01,3.4-6.14,5.61-6.87,15.11,0,1.38.89,2.61,2.55,3.57,2.53,1.46,7.09,2.34,12.18,2.34s9.65-.87,12.18-2.34c1.71-.99,2.54-2.23,2.54-3.79v-.03c-.73-9.26-2.84-11.45-6.81-14.81ZM41.39,52.63l-.19-.32c-1.9,1.1-5.33,1.81-9.42,1.96l-.78.03-.38.05h-.41s-1.67-.08-1.67-.08c-4.05-.16-7.46-.87-9.34-1.96-.8-.47-1.31-.98-1.36-1.35v-.1c.68-8.85,2.56-10.44,5.97-13.33l1.23-1.05.54.25c.15.07.25.12.35.16l.2.08,3.19,4.38-3.38,7.75,4.22,5.16,4.22-5.16-3.38-7.75,3.18-4.38.2-.08c.12-.05.24-.1.37-.17l.57-.27,1.26,1.07c3.41,2.89,5.29,4.48,5.97,13.08,0,.61-.44,1.16-1.36,1.69l.19.32ZM21.41,26.6c0-4.83,3.93-8.76,8.76-8.76s8.76,3.93,8.76,8.76-3.93,8.76-8.76,8.76-8.76-3.93-8.76-8.76Z"/>
    </g>
  </g>
</svg>