<svg width="75" height="74" viewBox="0 0 75 74" fill="none" xmlns="http://www.w3.org/2000/svg">
<path d="M74.8861 36.7497C74.8861 57.046 58.1223 73.4994 37.4431 73.4994C16.7638 73.4994 0 57.046 0 36.7497C0 16.4534 16.7638 0 37.4431 0C58.1223 0 74.8861 16.4534 74.8861 36.7497Z" fill="#E65C1F"/>
<path fill-rule="evenodd" clip-rule="evenodd" d="M37.7198 56.0769C48.9139 56.0769 57.9885 47.0023 57.9885 35.8082C57.9885 24.6141 48.9139 15.5396 37.7198 15.5396C26.5258 15.5396 17.4512 24.6141 17.4512 35.8082C17.4512 47.0023 26.5258 56.0769 37.7198 56.0769ZM37.7198 60.0769C51.123 60.0769 61.9885 49.2114 61.9885 35.8082C61.9885 22.405 51.123 11.5396 37.7198 11.5396C24.3166 11.5396 13.4512 22.405 13.4512 35.8082C13.4512 49.2114 24.3166 60.0769 37.7198 60.0769Z" fill="#F6F6F6"/>
<path fill-rule="evenodd" clip-rule="evenodd" d="M20.8281 18.8018C14.9293 24.7006 12.7383 32.903 14.255 40.5131C15.1513 45.0101 17.3423 49.3003 20.8281 52.7861C24.3138 56.2718 28.604 58.4628 33.1011 59.3591C40.7112 60.8758 48.9136 58.6848 54.8123 52.7861L20.8281 18.8018Z" fill="#F6F6F6"/>
</svg>
