<svg width="78" height="77" viewBox="0 0 78 77" fill="none" xmlns="http://www.w3.org/2000/svg">
<path d="M78 38.5C78 59.763 60.5391 77 39 77C17.4609 77 0 59.763 0 38.5C0 17.237 17.4609 0 39 0C60.5391 0 78 17.237 78 38.5Z" fill="#E65C1F"/>
<path fill-rule="evenodd" clip-rule="evenodd" d="M39 61C51.7734 61 62 50.8563 62 38.5C62 26.1438 51.7734 16 39 16C26.2266 16 16 26.1438 16 38.5C16 50.8563 26.2266 61 39 61ZM39 65C53.9117 65 66 53.1355 66 38.5C66 23.8645 53.9117 12 39 12C24.0883 12 12 23.8645 12 38.5C12 53.1355 24.0883 65 39 65Z" fill="#F6F6F6"/>
</svg>
