<svg width="24" height="24" viewBox="0 0 24 24" fill="none" xmlns="http://www.w3.org/2000/svg">
<g clip-path="url(#clip0_401_2242)">
<path d="M23.9764 7.05607C23.9201 5.78085 23.7139 4.90416 23.4185 4.14449C23.1138 3.33812 22.6449 2.61617 22.0307 2.01602C21.4305 1.40652 20.7038 0.932921 19.9068 0.632936C19.1427 0.337529 18.2706 0.131312 16.9954 0.0750879C15.7106 0.0141019 15.3028 0 12.0443 0C8.78589 0 8.37803 0.0141019 7.09806 0.0703262C5.82285 0.126551 4.94615 0.332951 4.18666 0.628174C3.38011 0.932922 2.65816 1.40176 2.05801 2.01602C1.44852 2.61617 0.975097 3.34288 0.674928 4.13991C0.379522 4.90416 0.173304 5.77609 0.11708 7.0513C0.0560941 8.33604 0.0419922 8.7439 0.0419922 12.0023C0.0419922 15.2608 0.0560941 15.6686 0.112318 16.9486C0.168543 18.2238 0.374943 19.1005 0.67035 19.8602C0.975097 20.6666 1.44852 21.3885 2.05801 21.9887C2.65816 22.5982 3.38487 23.0718 4.1819 23.3718C4.94615 23.6672 5.81808 23.8734 7.09348 23.9296C8.37327 23.986 8.78131 23.9999 12.0398 23.9999C15.2982 23.9999 15.7061 23.986 16.986 23.9296C18.2612 23.8734 19.1379 23.6672 19.8974 23.3718C21.5104 22.7482 22.7856 21.4729 23.4092 19.8602C23.7044 19.096 23.9108 18.2238 23.967 16.9486C24.0232 15.6686 24.0373 15.2608 24.0373 12.0023C24.0373 8.7439 24.0326 8.33604 23.9764 7.05607ZM21.8151 16.8549C21.7635 18.027 21.5666 18.6599 21.4025 19.0819C20.9992 20.1274 20.1694 20.9572 19.1238 21.3605C18.7019 21.5246 18.0644 21.7215 16.8968 21.7729C15.631 21.8293 15.2513 21.8433 12.0491 21.8433C8.84687 21.8433 8.46246 21.8293 7.20117 21.7729C6.02906 21.7215 5.39613 21.5246 4.97417 21.3605C4.45387 21.1682 3.98026 20.8634 3.59585 20.4649C3.19733 20.0758 2.89259 19.6069 2.70029 19.0866C2.53619 18.6647 2.33932 18.027 2.28785 16.8596C2.23145 15.5937 2.21753 15.2139 2.21753 12.0117C2.21753 8.80946 2.23145 8.42505 2.28785 7.16394C2.33932 5.99183 2.53619 5.3589 2.70029 4.93694C2.89259 4.41645 3.19733 3.94303 3.60061 3.55843C3.9896 3.15992 4.45844 2.85517 4.97893 2.66306C5.40089 2.49896 6.03859 2.30209 7.20593 2.25044C8.4718 2.19422 8.85164 2.18011 12.0537 2.18011C15.2607 2.18011 15.6403 2.19422 16.9016 2.25044C18.0737 2.30209 18.7066 2.49896 19.1286 2.66306C19.6489 2.85517 20.1225 3.15992 20.5069 3.55843C20.9054 3.94761 21.2102 4.41645 21.4025 4.93694C21.5666 5.3589 21.7635 5.99641 21.8151 7.16394C21.8713 8.42981 21.8854 8.80946 21.8854 12.0117C21.8854 15.2139 21.8713 15.589 21.8151 16.8549Z" fill="#1C1C1C"/>
<path d="M12.0447 5.83691C8.64098 5.83691 5.87939 8.59832 5.87939 12.0022C5.87939 15.406 8.64098 18.1674 12.0447 18.1674C15.4485 18.1674 18.2099 15.406 18.2099 12.0022C18.2099 8.59832 15.4485 5.83691 12.0447 5.83691ZM12.0447 16.0014C9.83653 16.0014 8.04541 14.2105 8.04541 12.0022C8.04541 9.79386 9.83653 8.00293 12.0447 8.00293C14.253 8.00293 16.0439 9.79386 16.0439 12.0022C16.0439 14.2105 14.253 16.0014 12.0447 16.0014Z" fill="#1C1C1C"/>
<path d="M19.893 5.5936C19.893 6.38844 19.2485 7.03291 18.4535 7.03291C17.6586 7.03291 17.0142 6.38844 17.0142 5.5936C17.0142 4.79859 17.6586 4.1543 18.4535 4.1543C19.2485 4.1543 19.893 4.79859 19.893 5.5936Z" fill="#1C1C1C"/>
</g>
<defs>
<clipPath id="clip0_401_2242">
<rect width="24" height="24" fill="white"/>
</clipPath>
</defs>
</svg>
