<svg width="24" height="24" viewBox="0 0 24 24" fill="none" xmlns="http://www.w3.org/2000/svg">
<path d="M21.6014 21.6V14.568C21.6014 11.112 20.8574 8.47205 16.8254 8.47205C14.8814 8.47205 13.5854 9.52805 13.0574 10.536H13.0094V8.78405H9.19336V21.6H13.1774V15.24C13.1774 13.56 13.4894 11.952 15.5534 11.952C17.5934 11.952 17.6174 13.848 17.6174 15.336V21.576H21.6014V21.6Z" fill="white"/>
<path d="M2.71289 8.784H6.69689V21.6H2.71289V8.784Z" fill="white"/>
<path d="M4.70439 2.40002C3.43239 2.40002 2.40039 3.43202 2.40039 4.70402C2.40039 5.97602 3.43239 7.03202 4.70439 7.03202C5.97639 7.03202 7.00839 5.97602 7.00839 4.70402C7.00839 3.43202 5.97639 2.40002 4.70439 2.40002Z" fill="white"/>
</svg>
