<svg width="24" height="24" viewBox="0 0 24 24" fill="none" xmlns="http://www.w3.org/2000/svg">
<path d="M21.5999 21.6007V14.5687C21.5999 11.1127 20.8559 8.47266 16.8239 8.47266C14.8799 8.47266 13.5839 9.52866 13.0559 10.5367H13.0079V8.78466H9.19189V21.6007H13.1759V15.2407C13.1759 13.5607 13.4879 11.9527 15.5519 11.9527C17.5919 11.9527 17.6159 13.8487 17.6159 15.3367V21.5767H21.5999V21.6007Z" fill="#1C1C1C"/>
<path d="M2.71191 8.78418H6.69591V21.6002H2.71191V8.78418Z" fill="#1C1C1C"/>
<path d="M4.7039 2.40039C3.4319 2.40039 2.3999 3.43239 2.3999 4.70439C2.3999 5.97639 3.4319 7.03239 4.7039 7.03239C5.9759 7.03239 7.0079 5.97639 7.0079 4.70439C7.0079 3.43239 5.9759 2.40039 4.7039 2.40039Z" fill="#1C1C1C"/>
</svg>
