<svg width="40" height="41" viewBox="0 0 40 41" fill="none" xmlns="http://www.w3.org/2000/svg">
<rect y="0.845703" width="40" height="40" rx="20" fill="#E65C1F"/>
<path d="M20 30.8457C25.5228 30.8457 30 26.3686 30 20.8457C30 15.3229 25.5228 10.8457 20 10.8457C14.4772 10.8457 10 15.3229 10 20.8457C10 26.3686 14.4772 30.8457 20 30.8457Z" stroke="white" stroke-width="1.5" stroke-linecap="round" stroke-linejoin="round"/>
<path d="M15.9996 11.8457H16.9996C15.0496 17.6857 15.0496 24.0057 16.9996 29.8457H15.9996" stroke="white" stroke-width="1.5" stroke-linecap="round" stroke-linejoin="round"/>
<path d="M23 11.8457C24.95 17.6857 24.95 24.0057 23 29.8457" stroke="white" stroke-width="1.5" stroke-linecap="round" stroke-linejoin="round"/>
<path d="M11 24.8457V23.8457C16.84 25.7957 23.16 25.7957 29 23.8457V24.8457" stroke="white" stroke-width="1.5" stroke-linecap="round" stroke-linejoin="round"/>
<path d="M11 17.8457C16.84 15.8957 23.16 15.8957 29 17.8457" stroke="white" stroke-width="1.5" stroke-linecap="round" stroke-linejoin="round"/>
</svg>
