<svg width="40" height="41" viewBox="0 0 40 41" fill="none" xmlns="http://www.w3.org/2000/svg">
<rect y="0.845703" width="40" height="40" rx="20" fill="#E65C1F"/>
<g clip-path="url(#clip0_328_225)">
<path d="M31.9773 15.9018C31.9211 14.6266 31.7149 13.7499 31.4195 12.9902C31.1147 12.1838 30.6459 11.4619 30.0316 10.8617C29.4315 10.2522 28.7048 9.77862 27.9078 9.47864C27.1437 9.18323 26.2716 8.97702 24.9964 8.92079C23.7116 8.8598 23.3038 8.8457 20.0453 8.8457C16.7869 8.8457 16.379 8.8598 15.099 8.91603C13.8238 8.97225 12.9471 9.17865 12.1876 9.47388C11.3811 9.77862 10.6591 10.2475 10.059 10.8617C9.44949 11.4619 8.97607 12.1886 8.6759 12.9856C8.3805 13.7499 8.17428 14.6218 8.11806 15.897C8.05707 17.1817 8.04297 17.5896 8.04297 20.848C8.04297 24.1065 8.05707 24.5144 8.11329 25.7943C8.16952 27.0695 8.37592 27.9462 8.67133 28.7059C8.97607 29.5123 9.44949 30.2342 10.059 30.8344C10.6591 31.4439 11.3858 31.9175 12.1829 32.2175C12.9471 32.5129 13.8191 32.7191 15.0945 32.7753C16.3742 32.8317 16.7823 32.8456 20.0407 32.8456C23.2992 32.8456 23.707 32.8317 24.987 32.7753C26.2622 32.7191 27.1389 32.5129 27.8984 32.2175C29.5113 31.5939 30.7865 30.3186 31.4101 28.7059C31.7054 27.9417 31.9118 27.0695 31.968 25.7943C32.0242 24.5144 32.0383 24.1065 32.0383 20.848C32.0383 17.5896 32.0336 17.1817 31.9773 15.9018ZM29.8161 25.7006C29.7644 26.8727 29.5676 27.5056 29.4035 27.9276C29.0002 28.9731 28.1704 29.8029 27.1248 30.2062C26.7029 30.3703 26.0653 30.5672 24.8978 30.6186C23.632 30.675 23.2523 30.689 20.0501 30.689C16.8479 30.689 16.4634 30.675 15.2021 30.6186C14.03 30.5672 13.3971 30.3703 12.9751 30.2062C12.4548 30.0139 11.9812 29.7092 11.5968 29.3106C11.1983 28.9215 10.8936 28.4526 10.7013 27.9323C10.5372 27.5104 10.3403 26.8727 10.2888 25.7053C10.2324 24.4394 10.2185 24.0596 10.2185 20.8574C10.2185 17.6552 10.2324 17.2707 10.2888 16.0096C10.3403 14.8375 10.5372 14.2046 10.7013 13.7826C10.8936 13.2622 11.1983 12.7887 11.6016 12.4041C11.9906 12.0056 12.4594 11.7009 12.9799 11.5088C13.4019 11.3447 14.0396 11.1478 15.2069 11.0961C16.4728 11.0399 16.8526 11.0258 20.0547 11.0258C23.2616 11.0258 23.6413 11.0399 24.9026 11.0961C26.0747 11.1478 26.7076 11.3447 27.1296 11.5088C27.6499 11.7009 28.1235 12.0056 28.5079 12.4041C28.9064 12.7933 29.2112 13.2622 29.4035 13.7826C29.5676 14.2046 29.7644 14.8421 29.8161 16.0096C29.8723 17.2755 29.8864 17.6552 29.8864 20.8574C29.8864 24.0596 29.8723 24.4347 29.8161 25.7006Z" fill="white"/>
<path d="M20.0442 14.6828C16.6405 14.6828 13.8789 17.4442 13.8789 20.848C13.8789 24.2519 16.6405 27.0133 20.0442 27.0133C23.448 27.0133 26.2094 24.2519 26.2094 20.848C26.2094 17.4442 23.448 14.6828 20.0442 14.6828ZM20.0442 24.8473C17.836 24.8473 16.0449 23.0564 16.0449 20.848C16.0449 18.6397 17.836 16.8488 20.0442 16.8488C22.2525 16.8488 24.0434 18.6397 24.0434 20.848C24.0434 23.0564 22.2525 24.8473 20.0442 24.8473Z" fill="white"/>
<path d="M27.8925 14.439C27.8925 15.2339 27.248 15.8783 26.453 15.8783C25.6581 15.8783 25.0137 15.2339 25.0137 14.439C25.0137 13.644 25.6581 12.9997 26.453 12.9997C27.248 12.9997 27.8925 13.644 27.8925 14.439Z" fill="white"/>
</g>
<defs>
<clipPath id="clip0_328_225">
<rect width="24" height="24" fill="white" transform="translate(8 8.8457)"/>
</clipPath>
</defs>
</svg>
