<svg width="23" height="22" viewBox="0 0 23 22" fill="none" xmlns="http://www.w3.org/2000/svg">
<path d="M11.5 21C17.0228 21 21.5 16.5228 21.5 11C21.5 5.47715 17.0228 1 11.5 1C5.97715 1 1.5 5.47715 1.5 11C1.5 16.5228 5.97715 21 11.5 21Z" fill="white" fill-opacity="0.1"/>
<path fill-rule="evenodd" clip-rule="evenodd" d="M11.5 2C6.52944 2 2.5 6.02944 2.5 11C2.5 15.9706 6.52944 20 11.5 20C16.4706 20 20.5 15.9706 20.5 11C20.5 6.02944 16.4706 2 11.5 2ZM0.5 11C0.5 4.92487 5.42487 0 11.5 0C17.5751 0 22.5 4.92487 22.5 11C22.5 17.0751 17.5751 22 11.5 22C5.42487 22 0.5 17.0751 0.5 11Z" fill="white"/>
<path d="M8.6 9.52C8.6 7.61 9.95 6.84 11.6 7.79L14.16 9.27C15.81 10.22 15.81 11.78 14.16 12.73L11.6 14.21C9.95 15.16 8.6 14.38 8.6 12.48V9.52Z" fill="white"/>
</svg>
