<svg width="38" height="30" viewBox="0 0 38 30" fill="none" xmlns="http://www.w3.org/2000/svg">
<path d="M35.6098 0V6.09756H32.0732C29.1463 6.09756 27.6829 7.56098 27.6829 10.4878V14.3902H29.3902C31.748 14.3902 33.6992 15.122 35.2439 16.5854C36.8699 18.0488 37.6829 19.878 37.6829 22.0732C37.6829 24.4309 36.8699 26.3415 35.2439 27.8049C33.6992 29.2683 31.748 30 29.3902 30C27.0325 30 25.0813 29.2276 23.5366 27.6829C21.9919 26.1382 21.2195 24.187 21.2195 21.8293V10.4878C21.2195 3.49594 24.7154 0 31.7073 0H35.6098ZM14.3902 0V6.09756H10.8537C7.92683 6.09756 6.46342 7.56098 6.46342 10.4878V14.3902H8.17073C10.5285 14.3902 12.4797 15.122 14.0244 16.5854C15.6504 18.0488 16.4634 19.878 16.4634 22.0732C16.4634 24.4309 15.6504 26.3415 14.0244 27.8049C12.4797 29.2683 10.5285 30 8.17073 30C5.81301 30 3.86179 29.2276 2.31707 27.6829C0.772358 26.1382 0 24.187 0 21.8293V10.4878C0 3.49594 3.49594 0 10.4878 0H14.3902Z" fill="#E65C1F"/>
</svg>
