<svg width="14" height="16" viewBox="0 0 14 16" fill="none" xmlns="http://www.w3.org/2000/svg">
<path fill-rule="evenodd" clip-rule="evenodd" d="M11.9602 3.01111C11.3144 2.36111 10.5461 1.8457 9.69971 1.49476C8.85333 1.14382 7.94574 0.964307 7.02949 0.966636C3.18746 0.966636 0.0597892 4.09353 0.0582362 7.93712C0.0582362 9.16551 0.378923 10.3644 0.988461 11.422L0 15.0334L3.69528 14.0636C4.71743 14.62 5.86259 14.9117 7.02639 14.9123H7.02949C10.8707 14.9123 13.9984 11.7854 14 7.94177C14.0026 7.0259 13.8237 6.11859 13.4736 5.27228C13.1235 4.42596 12.6091 3.65744 11.9602 3.01111ZM7.02949 13.7359H7.02716C5.98941 13.736 4.97075 13.4568 4.07808 12.9276L3.86688 12.8018L1.6741 13.3771L2.25879 11.2395L2.12135 11.0205C1.54115 10.0968 1.23401 9.0279 1.23538 7.93712C1.23694 4.74267 3.83582 2.14378 7.03182 2.14378C7.79297 2.14209 8.54689 2.29138 9.24996 2.583C9.95303 2.87462 10.5913 3.30279 11.1278 3.84273C11.6671 4.38008 12.0946 5.01901 12.3856 5.72259C12.6765 6.42616 12.8251 7.18042 12.8228 7.94177C12.8213 11.1362 10.2224 13.7359 7.02949 13.7359ZM10.2076 9.39612C10.0329 9.30838 9.17724 8.88753 9.01729 8.82929C8.85811 8.77106 8.74241 8.74233 8.62594 8.91626C8.50947 9.09019 8.17558 9.48231 8.07386 9.59879C7.97214 9.71526 7.87042 9.72924 7.69649 9.64227C7.52256 9.5553 6.96116 9.37128 6.29572 8.77805C5.7778 8.31604 5.42839 7.7461 5.32667 7.57139C5.22495 7.39668 5.3158 7.30273 5.40354 7.21576C5.48196 7.13812 5.57747 7.01232 5.66444 6.91061C5.7514 6.80889 5.78013 6.73667 5.83837 6.6202C5.8966 6.50373 5.86787 6.40201 5.82362 6.31504C5.78013 6.2273 5.43149 5.37007 5.28629 5.02143C5.14575 4.68366 5.0021 4.72869 4.89494 4.72403C4.78397 4.71949 4.6729 4.71742 4.56183 4.71782C4.47351 4.72007 4.38661 4.74055 4.30657 4.77796C4.22654 4.81537 4.15509 4.86892 4.09672 4.93524C3.93676 5.10994 3.48718 5.5308 3.48718 6.38803C3.48718 7.24527 4.11147 8.07378 4.19844 8.19025C4.2854 8.30672 5.42683 10.0655 7.17392 10.8202C7.59011 10.9996 7.91468 11.1067 8.16704 11.1875C8.58401 11.3202 8.96371 11.3008 9.26421 11.2566C9.59887 11.2069 10.2946 10.8357 10.4398 10.4288C10.585 10.022 10.585 9.67333 10.5415 9.60034C10.498 9.52735 10.3808 9.48309 10.2076 9.39612Z" fill="#F1F1F1"/>
</svg>
