<?xml version="1.0" encoding="UTF-8"?>
<svg id="Capa_2" data-name="Capa 2" xmlns="http://www.w3.org/2000/svg" viewBox="0 0 510.66 79.9">
  <defs>
    <style>
      .cls-1 {
        fill: #fff;
        stroke-width: 0px;
      }
    </style>
  </defs>
  <g id="Capa_1-2" data-name="Capa 1">
    <g>
      <path class="cls-1" d="M22.88,0h12.56c2.23,2.31,2.77,6.64,1.64,12.96-.19,1.01-.77,1.67-1.72,1.99-1.04.35-2.16.45-3.37.29-1.7-.21-2.87.48-3.53,2.07l-.29.66c-.67,1.64-.11,2.53,1.67,2.65,2.28.14,4.38.68,6.31,1.62.78.37,1.18.99,1.22,1.86l.29,9.14c.02,1.18-.84,2.2-2.01,2.36l-5.25.74c-1.25.18-1.88.9-1.88,2.17v34.35c.02,1.77-.87,2.65-2.65,2.65l-15.9-.03c-1.73,0-2.6-.87-2.6-2.6l-.21-34.8c0-.85-.68-1.54-1.53-1.55-.07,0-.13,0-.2.01-3.38.42-5.19-1.17-5.43-4.77v-5.51l.93-3c.25-.85.79-1.4,1.62-1.64,2.7-.85,4.29-3.21,4.74-7.08C8.31,6.14,13.51,1.29,22.88,0Z"/>
      <path class="cls-1" d="M49.23,2.37h18.1c1.59,3.48,1.9,8.01.93,13.6-.18,1.04-.79,1.56-1.83,1.56l-16.14.03c-.96,0-1.79-.66-2.01-1.59-1.22-5.18-.9-9.71.95-13.6Z"/>
      <path class="cls-1" d="M196.82,2.37h19.62l.98,23.38c.02.7.61,1.25,1.33,1.23.25,0,.48-.09.69-.22,13.73-9.36,34.27-5.27,34.03,14.53-.12,12.46-.16,23.71-.11,33.74,0,1.82-.91,2.75-2.73,2.78l-14.79.34c-2.09.04-3.12-.99-3.1-3.07l.05-27.75c.02-4.17-1.93-6.99-5.83-8.46-.71-.27-1.4-.31-2.09-.13-4.93,1.25-7.4,4.43-7.42,9.52l-.03,27.65c0,1.06-.85,1.92-1.91,1.93l-16.7.27c-1.2.03-2.2-.93-2.23-2.15,0-.02,0-.04,0-.05l.24-73.53Z"/>
      <path class="cls-1" d="M98,34.28c-4.97,2.88-4.57,4.97,1.19,6.28,6.17,1.38,11.98,2.85,17.44,4.4,16.78,4.8,15.4,26.06.32,32.02-14.39,5.65-40.32,4.45-42.38-15.9-.09-.86.55-1.63,1.42-1.72.07,0,.15,0,.22,0,4.05.18,8.13.39,12.25.64,6.76.45,12.06,10.18,18.82,4.45,1.07-.91,1.21-2.51.31-3.59-.29-.35-.67-.61-1.1-.76-5.85-2.03-11.88-3.67-18.1-4.9-7.34-1.46-13.04-6.44-13.31-14.39-.69-19.99,26.53-21.07,39.76-16.96,5.81,1.82,9.57,5.61,11.27,11.37.51,1.79-.53,3.65-2.32,4.16-.41.12-.84.15-1.26.11-3.43-.37-6.87-.55-10.34-.53-3.9.03-6.52-2.49-9.78-4.27-1.73-.94-3.2-1.07-4.4-.4Z"/>
      <path class="cls-1" d="M170.92,42.26c-3.29-4.53-10.76-7.98-14.05-1.35-3.57,7.21-3.31,14.08.77,20.6,2.41,3.84,7.29,4.21,10.21.61,1.43-1.77,2.69-3.61,3.76-5.54.44-.79,1.28-1.27,2.2-1.27h14.66c1.03,0,1.87.83,1.88,1.86.4,17.26-19.22,25-33.64,21.95-10.53-2.21-17.94-8.69-22.21-19.43-5.59-14.08,3.6-30.43,16.94-35.7,13.49-5.35,37.4.05,38.67,17.57.09,1.36-.93,2.53-2.27,2.62-.06,0-.13,0-.19,0l-13.17-.08c-1.41,0-2.74-.68-3.55-1.83Z"/>
      <path class="cls-1" d="M282.18,55.38l35.28-.03h.14c.96-.08,1.68-.92,1.61-1.88-1.03-14.42-6.59-23.95-16.68-28.6-18.02-8.3-40.39.93-42.7,21.63-1.4,12.7,5.22,26.67,17.18,30.77,16.94,5.84,30.43,1.59,40.45-12.72.18-.25.3-.55.35-.86.19-1.12-.58-2.19-1.7-2.37-8.17-1.42-15.76-.56-22.77,2.57-5.28,2.33-10.95-.85-12.97-5.81-.09-.23-.14-.48-.14-.73-.01-1.08.86-1.96,1.95-1.97ZM280.64,43.9v-.26h0c-.06-3.77,3.48-6.88,7.9-6.95h1.06c4.42-.07,8.05,2.92,8.11,6.68v.27c0,.22-.18.39-.4.39l-16.27.27c-.22,0-.4-.18-.4-.4Z"/>
      <path class="cls-1" d="M348.57,26.88c3.59-2.72,7.65-4.05,12.19-3.98.98.01,1.76.82,1.75,1.8h0s-.16,13.49-.16,13.49c-.01,1.27-1.01,2.32-2.28,2.39-6.87.45-13.36,2.89-13.52,10.89-.16,8.68-.19,16.6-.11,23.78.01,1.4-1.1,2.54-2.49,2.57l-15.88.24c-1.57.03-2.86-1.23-2.89-2.81,0-.02,0-.04,0-.05l-.08-49.62c0-1.13.56-1.73,1.67-1.8,4.43-.29,8.88.03,13.31-.19,3.06-.14,5.39.88,7,3.07.42.57.92.64,1.48.21Z"/>
      <rect class="cls-1" x="47.83" y="23.62" width="20.68" height="54.34" rx="1.91" ry="1.91" transform="translate(-.09 .1) rotate(-.1)"/>
      <path class="cls-1" d="M506.21,57.34l-7.58-5.25c-.08-.05-.15-.11-.21-.17-.12-.11-.23-.23-.32-.36-.04-.06-.08-.13-.12-.21-.02-.03-.03-.06-.05-.09-.02-.04-.04-.09-.05-.13-.05-.13-.08-.27-.1-.4-.05-.29-.03-.59.07-.89.04-.15.11-.3.2-.44.01-.04.04-.07.06-.11.15-.22.35-.41.57-.55.09-.06.18-.11.27-.15,3.23-1.48,6.04-3.75,8.43-6.81.32-.42.3-.83-.05-1.22l-.46-.5c-.35-.39-.72-.41-1.11-.05-3.14,2.96-6.89,5.46-11.24,7.5-1.08.5-2.36.32-3.28-.45-3.24-2.69-2.56-3.44,2.04-2.26-16.14-9.89-33.23-14.58-51.29-14.05-6.34.19-13.58,2.36-20.49,3.21-5.32.64-12.01,3.49-20.07,8.56,4.21.15,2.83,1.87-4.13,5.17-.28.13-.53.31-.75.51-.1.1-.2.2-.29.32-.08.09-.15.19-.21.29-.02.02-.03.05-.05.07-.13.22-.22.45-.28.68-.08.26-.12.53-.12.8,0,.11.01.23.02.34,0,.06.01.11.02.16.02.09.04.18.06.26.03.12.07.25.12.36.03.09.07.17.11.24.04.08.08.16.13.24.03.04.06.09.09.13.08.1.16.2.24.29.1.11.21.22.33.31.11.09.23.17.36.25,31.94,18.79,63.75,18.91,95.45.37,1.26-.73,2.86-.55,3.93.45l8.72,8.3c.06.05.12.1.18.14s.13.08.2.11c.07.03.14.05.22.07.07.01.15.02.22.03.11.01.22,0,.32-.02.08-.01.16-.04.24-.07.07-.03.14-.07.21-.11.07-.04.13-.09.19-.15.05-.05.11-.11.15-.17.05-.07.09-.13.12-.21.08-.15.11-.31.12-.47l.08-1.43c.04-.96-.42-1.88-1.22-2.44ZM488.87,50.61c-.01.07-.03.15-.06.23-.02.06-.05.13-.09.2-.04.08-.09.16-.15.23-.1.11-.21.21-.33.29-11.48,7.42-24.86,11.96-38.73,11.4-7.79-.32-15.13.93-22.9-.9-8.6-2.03-16.65-5.43-24.15-10.18-.09-.06-.18-.13-.26-.21l-.03-.03c-.06-.07-.12-.15-.17-.24-.03-.05-.06-.11-.09-.16-.12-.25-.16-.54-.12-.82.02-.1.04-.2.08-.29.01-.04.02-.07.04-.11.03-.06.06-.13.1-.19.05-.07.1-.14.16-.2,0-.01.01-.02.02-.02.02-.03.05-.06.08-.07.07-.08.14-.13.22-.18,4.77-2.93,10.11-5.35,16.01-7.26.1-.03.2-.05.29-.05.07,0,.14.01.21.03.14.03.26.08.37.17.04.02.07.05.09.08.04.03.07.07.1.11.07.09.11.18.14.27.06.17.06.36.02.53-.03.12-.03.44,0,.95.78-1.36,1.7-1.53,2.76-.53.6-2.66,1.61-4.03,3.02-4.11,17.15-.9,37.56-1.72,54.23,5.76,1.93.86,1.88,1.57-.16,2.12-.03.02-.58.17-1.64.45,1.61-.16,2.72.21,3.34,1.11,2.37-1.75,4.74-1.66,7.1.27.09.07.16.14.22.23.03.03.05.06.07.09.03.04.05.08.07.13.07.12.11.25.13.38.02.09.03.18.03.27,0,.08,0,.17-.02.25Z"/>
      <path class="cls-1" d="M401.43,42.52c4.21.14,2.83,1.86-4.14,5.17-1.48.71-2.11,2.48-1.4,3.96.26.54.67.99,1.19,1.29,31.93,18.78,63.75,18.91,95.45.37,1.26-.74,2.85-.55,3.92.45l8.72,8.3c.52.49,1.34.47,1.83-.04.21-.22.33-.5.34-.81l.08-1.43c.04-.96-.42-1.88-1.22-2.44l-7.58-5.25c-.92-.63-1.15-1.88-.52-2.8.21-.31.5-.55.84-.7,3.23-1.48,6.04-3.76,8.43-6.81.32-.42.3-.83-.05-1.22l-.45-.5c-.35-.39-.72-.41-1.11-.05-3.15,2.97-6.89,5.47-11.24,7.5-1.08.5-2.37.33-3.29-.45-3.23-2.69-2.55-3.44,2.04-2.25,5.07-2.19,10.06-5.67,14.98-10.44.94-.9,1.56-.72,1.86.53,1.52,6.18-.07,10.45-4.77,12.8-3.87,1.93-3.9,3.9-.08,5.91,4.86,2.6,6.43,7.02,4.72,13.25-.14.49-.66.78-1.15.63-.11-.03-.22-.09-.31-.16l-13.6-10.89c-.67-.53-1.38-.57-2.12-.13-29.58,17.72-59.73,18.73-90.44,3.02-4.21-2.16-8.02-4.81-11.45-7.95-.81-.76-.75-1.45.19-2.07l10.34-6.79Z"/>
      <path class="cls-1" d="M434.8,55.01c-.99.72-1.89.63-2.7-.29-.48-.55-1.05-.95-1.72-1.2-.99-.35-1.94-.25-2.84.3-3.07,1.85-5.28,1.18-6.63-2.02-.29-.72-1.05-1.15-1.83-1.03-1.53.26-2.68,1.11-3.44,2.54-.85,1.63-1.75,1.66-2.7.11-.31-.5-.53-1.04-.67-1.62-.31-1.27.18-2.61,1.25-3.34l6.2-4.27c.78-1.36,1.7-1.53,2.76-.53-1.01,1.33-1.44,2.51-1.3,3.56.12.98.66,1.33,1.62,1.03l2.73-.9c-.09.97-.13,1.48-.11,1.54.15.37.37.68.66.94.06.07.14.14.22.2.01,0,.03.02.05.03.07.06.15.11.23.15.3.18.63.31.99.36.06.02.13.03.2.04.11.01.23.02.35.02.11,0,.22-.01.33-.02.11-.01.22-.03.33-.05.21-.04.42-.11.62-.2,0,0,.02-.01.03-.01.27-.12.53-.27.76-.46,1.4-1.13,2.9-2.05,4.51-2.75.9-.41,1.56-.17,1.99.71,1.34,2.81.71,5.2-1.89,7.16Z"/>
      <path class="cls-1" d="M429.45,45.62c-.69,1.08-2,1.66-3.92,1.73-.07-.73.04-1.48.34-2.26.3-.79.82-1.31,1.56-1.56.43-.14.86-.13,1.3.03,1.1.4,1.34,1.09.72,2.06Z"/>
      <path class="cls-1" d="M481.27,48.99c-1.34,1.91-3.24,3.25-5.7,4.03-6.87,2.21-13.67,2.3-20.38.27-.78-.23-1.56-.24-2.34-.03-3.9,1.01-8.07,1.46-12.51,1.35-.08,0-.17-.01-.25-.02-.07-.01-.14-.02-.2-.04-.08-.01-.17-.03-.25-.06-.1-.03-.19-.07-.28-.12-.11-.05-.22-.11-.33-.19-.08-.06-.16-.12-.23-.19-.22-.19-.39-.42-.52-.69-.05-.08-.08-.17-.11-.26-.04-.09-.06-.18-.08-.27-.03-.08-.05-.18-.05-.28-.01-.09-.02-.18-.02-.27v-.07c0-.1.01-.2.03-.3.01-.12.04-.24.08-.36.02-.06.04-.11.06-.17.03-.07.06-.13.09-.2.05-.1.11-.2.18-.3,1.15-1.59,2.87-2.5,5.17-2.73.79-.08,1.58.25,2.09.87.41.55.91.85,1.51.91.85.08,1.54-.21,2.07-.88l4-4.88c.89-1.09,1.3-.93,1.25.48-.16,3.5,1.79,5.57,5.86,6.2.97.15,1.76-.18,2.36-.98l1.75-2.33c.36-.51,1.05-.7,1.64-.45l1.17.48c.72.3,1.07.85,1.03,1.64-.03.72.27,1.13.9,1.22.87.12,1.67-.04,2.41-.5,2.05-1.28,4.14-1.94,6.26-1.99,1.61-.16,2.72.21,3.34,1.11Z"/>
    </g>
  </g>
</svg>