<?xml version="1.0" encoding="UTF-8"?>
<svg id="Capa_2" data-name="Capa 2" xmlns="http://www.w3.org/2000/svg" viewBox="0 0 928.86 349.7">
  <defs>
    <style>
      .cls-1 {
        stroke: #5c82bd;
      }

      .cls-1, .cls-2, .cls-3 {
        fill: none;
        stroke-width: 2px;
      }

      .cls-4 {
        fill: #9cc5ea;
      }

      .cls-4, .cls-5, .cls-6 {
        stroke-width: 0px;
      }

      .cls-2 {
        stroke: #5972b3;
      }

      .cls-5 {
        fill: #97a5d7;
      }

      .cls-3 {
        stroke: #9ab5e1;
      }

      .cls-6 {
        fill: #1b3e8f;
      }
    </style>
  </defs>
  <g id="Capa_1-2" data-name="Capa 1">
    <g>
      <g>
        <path class="cls-3" d="m157.98,72.57c-.15.04-.28.09-.39.15-.38.21-.52.11-.42-.29.03-.09-.06-.13-.26-.13-.14,0-.24.06-.31.18-.26.45-.62.59-1.08.44-.08-.03-.15-.01-.21.05-.11.11-.19.25-.22.41-.05.28-.22.45-.49.52-1.31.33-2.32.83-3.05,1.51-2.81,2.61-5.56,5.27-8.27,7.98-.41.41-.86.64-1.33.67-.31.02-.44.18-.39.49.05.33-.04.61-.27.84-10.18,10.17-20.36,20.35-30.53,30.52-.13.13-.29.17-.46.12-.13-.03-.26-.04-.39,0-.18.04-.33.12-.46.25l-17.8,17.74c-.23.23-.41.5-.52.81-.07.17-.13.35-.18.52-.07.24-.18.25-.32.04-.03-.05-.07-.07-.12-.06-.39.07-.62-.1-.68-.49-.09-.63-.35-1.16-.78-1.57-.48-.47-.91-.43-1.28.11" vector-effect="non-scaling-stroke"/>
        <path class="cls-2" d="m87.77,133.37l-3.27-10.66c-.1-.33-.32-.49-.66-.49l-22.97-.08" vector-effect="non-scaling-stroke"/>
        <path class="cls-1" d="m214.24,156.57c-.88-.38-1.55-.39-2.01-.02-.32.26-.48.6-.49,1.01-.1,19.06-.11,37.85-.02,56.37,0,.31-.05.62-.14.91l-.17.52" vector-effect="non-scaling-stroke"/>
        <path class="cls-1" d="m184.72,254.67l-.02-132.2c0-.18-.15-.33-.33-.33h-42.16c-.28,0-.53.18-.62.45-6.31,19.32-12.48,38.94-18.53,58.86-4.71,15.51-8.46,29.42-11.26,41.73-.19.83-.38.83-.57,0-1.14-4.89-2.01-9.77-3.19-14.58-6.21-25.23-12.96-50.31-20.27-75.24" vector-effect="non-scaling-stroke"/>
        <path class="cls-1" d="m178.43,260.41l-21.87.04c-.43,0-.78-.35-.79-.78-.27-37.51-.13-70.59.42-99.23.11-5.62.31-11.32.6-17.09,0-.24-.17-.44-.41-.45-.03,0-.07,0-.1,0-.24.05-.39.19-.44.42-9.59,39.36-21.66,78.47-33.46,116.84-.04.12-.15.2-.28.2l-24.73.02c-.37,0-.69-.24-.78-.59-10.36-38.83-20.99-77.61-30.16-116.75-.07-.29-.25-.42-.55-.38l-.27.04c-.09.01-.13.06-.13.15,2.4,38.88,1.82,78.22,1.67,117,0,.37-.18.55-.55.55l-25.7-.12c-.6,0-1.08-.48-1.08-1.08l.03-101.36" vector-effect="non-scaling-stroke"/>
        <path class="cls-2" d="m39.8,149.84l.03-25.15" vector-effect="non-scaling-stroke"/>
        <path class="cls-2" d="m57.06,122.13l-15.28-.07" vector-effect="non-scaling-stroke"/>
        <path class="cls-3" d="m34.38,205.98c-.89-.59-1.36-1.55-1.41-2.88-.01-.37-.21-.55-.58-.52-1.17.09-2.29-.1-3.36-.55-.25-.11-.51-.15-.78-.12-.52.06-.87-.17-1.06-.7-.05-.16-.22-.24-.38-.19-.04.02-.09.04-.12.08-.51.55-1.16.79-1.94.73-.59-.04-1.16.21-1.51.68-.68.89-1.53,1.4-2.54,1.52-.33.04-.45.22-.38.54.15.62.09,1.28-.17,1.97-.11.31-.22.31-.31,0-.01-.03-.03-.06-.04-.09-.29-.49-.46-.44-.49.13-.05,1.08-.35,1.88-.9,2.39" vector-effect="non-scaling-stroke"/>
        <path class="cls-3" d="m18.26,208.84c-.44-.03-.79-.21-1.05-.55-.47-.59-.6-.52-.41.21.04.15.06.3.05.44-.07,1.46-1.15,2.61-2.42,2.56-.06,0-.12,0-.18-.01-.54-.07-1.06-.04-1.56.08-.34.08-.56.42-.48.77,0,.02.01.05.02.07.26.72.1,1.28-.47,1.68-.24.17-.41.39-.5.66-.29.83-.79,1.53-1.51,2.09-.24.18-.56.22-.84.09-.29-.14-.59-.16-.9-.06-.37.11-.63.42-.8.92-.31.96-.44,2-.39,3.11" vector-effect="non-scaling-stroke"/>
      </g>
      <path class="cls-5" d="m157.98,72.57c-.15.04-.28.09-.39.15-.38.21-.52.11-.42-.29.03-.09-.06-.13-.26-.13-.14,0-.24.06-.31.18-.26.45-.62.59-1.08.44-.08-.03-.15-.01-.21.05-.11.11-.19.25-.22.41-.05.28-.22.45-.49.52-1.31.33-2.32.83-3.05,1.51-2.81,2.61-5.56,5.27-8.27,7.98-.41.41-.86.64-1.33.67-.31.02-.44.18-.39.49.05.33-.04.61-.27.84-10.18,10.17-20.36,20.35-30.53,30.52-.13.13-.29.17-.46.12-.13-.03-.26-.04-.39,0-.18.04-.33.12-.46.25l-17.8,17.74c-.23.23-.41.5-.52.81-.07.17-.13.35-.18.52-.07.24-.18.25-.32.04-.03-.05-.07-.07-.12-.06-.39.07-.62-.1-.68-.49-.09-.63-.35-1.16-.78-1.57-.48-.47-.91-.43-1.28.11l-3.27-10.66c-.1-.33-.32-.49-.66-.49l-22.97-.08c1.21-1.58,2.44-2.98,3.45-4.68,2.68-4.54,6.3-8.16,9.4-12.36,11.08-15.02,21.2-29.35,30.36-44.88,5.13-8.71,8.82-18.05,13.01-27.22,1.61-3.53,3.02-7.39,4.22-11.58,2.05-7.11,4.05-14.02,6-20.72.27-.95.51-.94.7.03,2.38,11.81,6.22,22.55,10.19,33.62,4.75,13.22,12.26,26.14,19.78,38.22Z"/>
      <path class="cls-5" d="m18.26,208.84c-.44-.03-.79-.21-1.05-.55-.47-.59-.6-.52-.41.21.04.15.06.3.05.44-.07,1.46-1.15,2.61-2.42,2.56-.06,0-.12,0-.18-.01-.54-.07-1.06-.04-1.56.08-.34.08-.56.42-.48.77,0,.02.01.05.02.07.26.72.1,1.28-.47,1.68-.24.17-.41.39-.5.66-.29.83-.79,1.53-1.51,2.09-.24.18-.56.22-.84.09-.29-.14-.59-.16-.9-.06-.37.11-.63.42-.8.92-.31.96-.44,2-.39,3.11-2.59-7.29-4.41-13.96-5.45-20.01-2.57-14.95-1.51-29.43,3.19-43.44,3.15-9.4,7.59-18.19,13.31-26.37,7.39-10.57,15.46-20.67,24.27-30.81,7.17-8.25,14.4-16.94,21.71-26.08,4.63-5.79,8.49-11.19,11.6-16.19,7.17-11.55,13.87-23.45,18.63-36.19,1.95-5.21,3.78-10.47,5.49-15.78.8-2.46,1.11-2.4.94.18-.27,4.19-1,8.57-2.18,13.15-3.25,12.65-8.72,26.41-16.4,41.26-6.28,12.15-12.38,22.2-18.29,30.13-7.31,9.79-14.98,19.87-22.99,30.23-3.49,4.51-6.75,9.15-9.78,13.92-6.04,9.47-11.43,19.47-13.99,30.4-1.73,7.36-3.1,13.63-2.64,20.8.37,5.65,1.1,11.42,2.19,17.29.36,1.96,1.11,3.61,1.83,5.45Z"/>
      <path class="cls-5" d="m57.06,122.13l-15.28-.07c4.96-6.75,9.04-11.93,12.23-15.56,9.11-10.33,18.16-21.11,27.13-32.34,4.71-5.89,8.64-11.41,11.8-16.54,5.95-9.68,10.43-17.73,13.46-24.16,3.87-8.23,7.27-17.2,10.22-26.91.95-3.11,1.32-3.04,1.11.2-.27,4.15-.98,8.38-2.13,12.67-5.3,19.61-14.48,39.06-25.24,57.12-2.85,4.78-6.41,10.04-10.68,15.79-7.41,9.95-14.95,19.89-22.62,29.8Z"/>
      <path class="cls-4" d="m157.98,72.57c7.88,12.37,14.2,21.47,18.95,27.28,4.85,5.92,8.62,10.74,11.32,14.46,4.03,5.57,6.13,8.46,6.29,8.67,8.06,10.63,14.8,20.88,19.7,33.59-.88-.38-1.55-.39-2.01-.02-.32.26-.48.6-.49,1.01-.1,19.06-.11,37.85-.02,56.37,0,.31-.05.62-.14.91l-.17.52c-1.87,4.47-3.47,7.72-4.8,9.75-3.35,5.09-6.62,10.23-9.81,15.42-2.63,4.27-6.66,8.98-12.08,14.14l-.02-132.2c0-.18-.15-.33-.33-.33h-42.16c-.28,0-.53.18-.62.45-6.31,19.32-12.48,38.94-18.53,58.86-4.71,15.51-8.46,29.42-11.26,41.73-.19.83-.38.83-.57,0-1.14-4.89-2.01-9.77-3.19-14.58-6.21-25.23-12.96-50.31-20.27-75.24.37-.54.8-.58,1.28-.11.43.41.69.94.78,1.57.06.39.29.56.68.49.05,0,.09.01.12.06.14.21.25.2.32-.04.05-.17.11-.35.18-.52.11-.31.29-.58.52-.81l17.8-17.74c.13-.13.28-.21.46-.25.13-.03.26-.02.39,0,.17.05.33.01.46-.12,10.17-10.17,20.35-20.35,30.53-30.52.23-.23.32-.51.27-.84-.05-.31.08-.47.39-.49.47-.03.92-.26,1.33-.67,2.71-2.71,5.46-5.37,8.27-7.98.73-.68,1.74-1.18,3.05-1.51.27-.07.44-.24.49-.52.03-.16.11-.3.22-.41.06-.06.13-.08.21-.05.46.15.82,0,1.08-.44.07-.12.17-.18.31-.18.2,0,.29.04.26.13-.1.4.04.5.42.29.11-.06.24-.11.39-.15Z"/>
      <rect class="cls-6" x="211.83" y="114.07" width="28.8" height="25.6" rx=".31" ry=".31"/>
      <rect class="cls-6" x="266.37" y="114.08" width="28.76" height="146.26" rx=".43" ry=".43"/>
      <rect class="cls-6" x="320.88" y="114.07" width="28.8" height="146.26" rx=".27" ry=".27"/>
      <rect class="cls-6" x="606.2" y="114.07" width="28.78" height="25.6" rx=".35" ry=".35"/>
      <path class="cls-6" d="m41.78,122.06l15.28.07h3.81s22.97.09,22.97.09c.34,0,.56.16.66.49l3.27,10.66c7.31,24.93,14.06,50.01,20.27,75.24,1.18,4.81,2.05,9.69,3.19,14.58.19.82.38.82.57,0,2.8-12.31,6.55-26.22,11.26-41.73,6.05-19.92,12.22-39.54,18.53-58.86.09-.27.34-.45.62-.45h42.16c.18,0,.33.15.33.33l.02,132.2-.14,5.1c-.01.33-.19.5-.52.51l-5.63.13-21.87.04c-.43,0-.78-.35-.79-.78-.27-37.51-.13-70.59.42-99.23.11-5.62.31-11.32.6-17.09,0-.24-.17-.44-.41-.45-.03,0-.07,0-.1,0-.24.05-.39.19-.44.42-9.59,39.36-21.66,78.47-33.46,116.84-.04.12-.15.2-.28.2l-24.73.02c-.37,0-.69-.24-.78-.59-10.36-38.83-20.99-77.61-30.16-116.75-.07-.29-.25-.42-.55-.38l-.27.04c-.09.01-.13.06-.13.15,2.4,38.88,1.82,78.22,1.67,117,0,.37-.18.55-.55.55l-25.7-.12c-.6,0-1.08-.48-1.08-1.08l.03-101.36-.05-8.01.03-25.15c.04-1.94.69-2.82,1.95-2.63Z"/>
      <path class="cls-5" d="m39.83,124.69l-.03,25.15c-2.8,5.39-4.63,10.24-5.49,14.54-1.01,5-2.49,10.22-2.69,15.1-.36,8.88.56,17.71,2.76,26.5-.89-.59-1.36-1.55-1.41-2.88-.01-.37-.21-.55-.58-.52-1.17.09-2.29-.1-3.36-.55-.25-.11-.51-.15-.78-.12-.52.06-.87-.17-1.06-.7-.05-.16-.22-.24-.38-.19-.04.02-.09.04-.12.08-.51.55-1.16.79-1.94.73-.59-.04-1.16.21-1.51.68-.68.89-1.53,1.4-2.54,1.52-.33.04-.45.22-.38.54.15.62.09,1.28-.17,1.97-.11.31-.22.31-.31,0-.01-.03-.03-.06-.04-.09-.29-.49-.46-.44-.49.13-.05,1.08-.35,1.88-.9,2.39-.97-6.95-1.33-14.97-1.06-24.07.32-10.77,1.62-20.02,5.37-30.07,4.03-10.8,9.73-20.84,17.11-30.13Z"/>
      <path class="cls-4" d="m178.43,260.41c-6,5.15-11.09,8.64-15.26,10.47-3.59,1.57-7.19,3.17-10.78,4.78-5.45,2.45-11.2,4.19-17.25,5.24-6.97,1.2-13.77,1.73-20.39,1.59-5.8-.12-11.39-.12-16.78,0-9.45.23-18.47-1.16-27.08-4.16-2.96-1.04-5.92-1.45-8.79-2.74-4.21-1.9-8.06-3.73-11.57-5.5-9.89-4.99-19.24-13.18-27.22-22.08-1.91-2.13-3.77-4.59-5.58-7.39-4.16-6.43-7.79-11.94-10.91-19.73-.05-1.11.08-2.15.39-3.11.17-.5.43-.81.8-.92.31-.1.61-.08.9.06.28.13.6.09.84-.09.72-.56,1.22-1.26,1.51-2.09.09-.27.26-.49.5-.66.57-.4.73-.96.47-1.68-.12-.33.05-.7.39-.82.02,0,.05-.02.07-.02.5-.12,1.02-.15,1.56-.08,1.26.16,2.42-.89,2.58-2.35,0-.07.01-.14.02-.2,0-.14,0-.29-.05-.44-.19-.73-.06-.8.41-.21.26.34.61.52,1.05.55.05.04.1.08.15.12.55-.51.85-1.31.9-2.39.03-.57.2-.62.49-.13.01.03.03.06.04.09.09.32.2.32.31,0,.26-.69.32-1.35.17-1.97-.07-.32.05-.5.38-.54,1.01-.12,1.86-.63,2.54-1.52.35-.47.92-.72,1.51-.68.78.06,1.43-.18,1.94-.73.11-.12.3-.12.42,0,.03.03.06.07.08.12.19.53.54.76,1.06.7.27-.03.53.01.78.12,1.07.45,2.19.64,3.36.55.37-.03.57.15.58.52.05,1.33.52,2.29,1.41,2.88.45.76.77,1.58.94,2.45.02.12.09.17.21.15h.01c.12-.03.17-.1.15-.22-1.25-7.55-1.46-15.09-.65-22.63.19-1.75.55-5.49,1.06-11.23.51-5.67,1.76-11.22,3.75-16.65l-.03,101.36c0,.6.48,1.08,1.08,1.08l25.7.12c.37,0,.55-.18.55-.55.15-38.78.73-78.12-1.67-117,0-.09.04-.14.13-.15l.27-.04c.3-.04.48.09.55.38,9.17,39.14,19.8,77.92,30.16,116.75.09.35.41.59.78.59l24.73-.02c.13,0,.24-.08.28-.2,11.8-38.37,23.87-77.48,33.46-116.84.05-.23.2-.37.44-.42.23-.04.46.11.5.34,0,.03,0,.07,0,.1-.29,5.77-.49,11.47-.6,17.09-.55,28.64-.69,61.72-.42,99.23,0,.43.36.78.79.78l21.87-.04Z"/>
      <path class="cls-6" d="m398.28,215.26c.23,15.89,9.75,27.49,26.75,24.5,6.48-1.14,9.28-4.6,12.02-10.1.17-.34.44-.51.83-.51h27.92c.14,0,.25.11.25.25,0,.03,0,.06-.01.08-8.25,25.5-29.71,35.73-54.88,32.84-36.55-4.2-47.24-40.86-39.49-71.85,6.11-24.48,24.85-36.91,49.6-36.26,9.17.25,17.01,2.2,23.5,5.86,19.47,10.99,23.53,33.31,22.21,53.79-.03.44-.39.78-.83.78h-67.25c-.42-.01-.63.2-.62.62Zm.67-18.57c-.02.2.07.3.27.3h38.67c.24,0,.43-.2.43-.44.01-10.57-4.67-20.68-16.47-21.65-15.19-1.26-21.65,8.45-22.9,21.79Z"/>
      <path class="cls-6" d="m516.67,168.98c8.1-13.32,24.62-17,39.12-13.71,19.68,4.47,25.14,23.51,25.08,41.21-.07,21.16-.07,42.22,0,63.19,0,.37-.3.67-.67.67h0l-27.91-.04c-.19,0-.34-.15-.34-.34h0c.11-20.39.11-41.9,0-64.54-.06-13.64-9.24-20.57-22.49-17.26-10.72,2.67-13.08,13.5-13.13,22.98-.09,19.65-.12,39.25-.07,58.82,0,.21-.17.38-.38.38h-27.89c-.25,0-.37-.12-.37-.37l-.15-103.05c0-.16.13-.29.28-.29h27.01c.42,0,.65.21.68.63l.84,11.62c.03.45.17.49.4.1Z"/>
      <path class="cls-6" d="m806.46,167.9c.05.6.25.65.6.16,6.36-8.96,15.41-13.58,27.15-13.87,11.75-.29,22.29,4.31,27.52,15.04.13.25.43.36.68.23.07-.04.13-.09.18-.15,5.62-7.8,13.01-12.56,22.16-14.27,26.98-5.05,42.25,11.14,42.27,37.1.03,24.43.02,46.96-.01,67.58,0,.4-.2.6-.6.6l-27.01.02c-.27,0-.49-.22-.49-.49h0c.01-21.71.01-43.28,0-64.71-.01-11.75-6.28-19.4-18.73-17.58-10.67,1.55-13.27,12.04-13.29,21.08-.05,20.93-.07,41.28-.05,61.03,0,.36-.28.65-.64.66,0,0,0,0-.01,0h-27.26c-.18,0-.32-.14-.32-.32h0c.07-22.21.06-44.1-.04-65.65-.04-7.7-3.09-15.55-11.86-16.66-15.96-2.02-20.17,9.9-20.16,22.75,0,19.75,0,39.59,0,59.51,0,.22-.17.39-.39.39l-27.73-.04c-.22,0-.39-.17-.39-.39h0s-.05-102.7-.05-102.7c0-.39.2-.59.59-.59h26.37c.37,0,.58.19.61.56l.9,10.71Z"/>
      <path class="cls-6" d="m214.24,156.57l26.11.06c.19,0,.28.1.28.29v102.94c0,.25-.2.46-.45.46h-27.79c-.33,0-.6-.27-.6-.6.05-14.64.07-29.25.04-43.83,0-.3-.15-.48-.42-.53l.17-.52c.09-.29.14-.6.14-.91-.09-18.52-.08-37.31.02-56.37,0-.41.17-.75.49-1.01.46-.37,1.13-.36,2.01.02Z"/>
      <rect class="cls-6" x="606.21" y="156.63" width="28.8" height="103.7" rx=".46" ry=".46"/>
      <path class="cls-6" d="m722.97,249.27c-4.7,7.59-11.99,11.94-21,13.03-21.07,2.56-37.4-6.12-41.07-28.09-.44-2.65-.67-6.88-.68-12.68-.05-21.56-.06-43.11-.02-64.65,0-.14.11-.25.25-.25h28c.29,0,.53.24.53.53h0c0,20.37,0,40.92-.03,61.65-.02,13.55,5.86,22.55,20.5,20.16,12.99-2.11,14.02-16.3,14.02-26.58-.02-18.51-.04-37.01-.05-55.49,0-.18.09-.27.27-.27h27.94c.35,0,.53.18.53.54.03,24.09.02,49.99-.01,77.71-.01,8.11.08,16.43.28,24.97,0,.27-.2.48-.46.49,0,0,0,0-.01,0h-27.37c-.29,0-.52-.22-.54-.51l-.54-10.43c-.03-.62-.21-.66-.54-.13Z"/>
      <path class="cls-6" d="m73.81,315.02c-1.98-6.17-8.66-9.1-14.69-8.59-8.53.72-13.46,5.52-14.79,14.4-.85,5.69-.24,10.77,1.83,15.25,3.81,8.26,13.95,10.49,21.68,6.91,3.07-1.42,5.08-3.95,6.01-7.59.09-.35.4-.59.76-.58l2.07.02c.29,0,.53.25.52.54,0,.03,0,.07-.01.1-1.47,6.49-5.38,10.37-11.73,11.65-16.81,3.39-25.45-8.48-24.76-23.69.42-9.13,5.05-17.35,14.17-19.59,9.37-2.31,19.22,1.42,22.27,11,.16.49-.02.75-.54.76l-1.92.03c-.45,0-.74-.2-.87-.62Z"/>
      <path class="cls-6" d="m629.9,303.41c25.17,3.56,22.11,47.36-6.05,44.17-25.74-2.93-22.97-48.28,6.05-44.17Zm2.92,40.09c8.1-2.99,11.06-11.13,10.76-19.35-.41-10.93-7.25-18.59-18.91-17.65-12.8,1.02-16.69,13.97-14.41,24.7,2.23,10.57,12.45,16.03,22.56,12.3Z"/>
      <path class="cls-6" d="m803.13,342.66l5.79,4.52c.33.25.36.54.11.87l-1.07,1.38c-.23.3-.66.35-.97.12l-6.23-4.83c-.33-.25-.68-.27-1.03-.06-4.67,2.8-9.53,3.73-14.59,2.8-15.45-2.83-20.42-20.25-14.41-33.27,6.43-13.92,26.92-14.88,34.87-1.9,5.32,8.71,4.52,22.03-2.54,29.49-.29.32-.27.61.07.88Zm-8.66-6.27c.15-.2.33-.22.52-.07l4.47,3.5c.51.41.98.36,1.41-.15,8.37-9.95,6.31-31.2-9.42-33.08-6.86-.83-12.19,1.18-15.99,6.03-3.95,5.04-4.64,13.37-2.93,19.38,3.21,11.32,13.69,15.37,24.4,10.63.25-.11.35-.4.24-.65-.03-.07-.08-.13-.14-.18l-3.94-3.05c-.16-.12-.18-.26-.06-.42l1.44-1.94Z"/>
      <path class="cls-6" d="m924.35,314.04c-2.74-7.81-11.6-8.84-18.59-6.78-4.26,1.26-6.65,5.45-4.99,9.69,1.14,2.91,4.94,4.37,7.78,5,3.23.71,6.51,1.48,9.85,2.3,7.27,1.78,12.64,7.14,9.59,15.06-3.71,9.65-17.32,9.94-25.23,6.44-4.43-1.96-6.9-5.62-7.39-10.98,0-.07.04-.12.11-.13,0,0,0,0,.01,0h2.84c.13-.01.2.05.23.17,1.73,9.54,11.72,10.99,19.55,9.13,3.73-.89,6.05-2.87,6.96-5.94,1.71-5.74-2.31-9.02-7.4-10.33-3.49-.89-7.05-1.79-10.66-2.68-3.92-.96-8.52-3.31-9.7-7.45-4.76-16.71,26.68-20.27,30.21-3.51.04.23-.1.45-.33.49-.02,0-.05,0-.07,0l-2.01.03c-.38,0-.63-.17-.76-.52Z"/>
      <path class="cls-6" d="m83.57,346.98h-2.79c-.17.01-.3-.12-.3-.29,0-.04,0-.08.02-.11l16.38-42.43c.04-.12.16-.2.29-.2l4.1.09c.12,0,.22.07.27.18l17.32,42.37c.06.15-.01.33-.17.39-.04.01-.07.02-.11.02l-3.23-.05c-.12,0-.23-.08-.27-.19l-5.07-13.36c-.05-.11-.16-.19-.28-.19h-20.69c-.13,0-.24.08-.28.2l-4.91,13.37c-.04.12-.15.2-.28.2Zm6.11-16.43c-.06.16.02.34.18.4.04.01.07.02.11.02l18.61-.13c.17,0,.31-.13.31-.31,0-.04,0-.08-.02-.12l-9.47-22.79c-.07-.16-.25-.23-.41-.16-.07.03-.13.09-.16.16l-9.15,22.93Z"/>
      <path class="cls-6" d="m127.46,343.85l21.37-.04c.23,0,.42.19.42.42l.02,2.31c0,.23-.19.42-.42.42h-24.57c-.23-.01-.42-.2-.42-.43v-42.15c0-.23.18-.42.41-.42l2.35-.02c.23,0,.42.19.42.42h0v39.07c0,.23.19.42.42.42Z"/>
      <rect class="cls-6" x="157.23" y="304" width="3.3" height="42.98" rx=".47" ry=".47"/>
      <path class="cls-6" d="m170.98,304.3c0-.2.17-.37.37-.37l15.38.03c10.49.02,18.98,8.3,18.96,18.5l-.02,6.04c-.02,10.2-8.53,18.46-19.02,18.44h0l-15.38-.03c-.2,0-.37-.17-.37-.37l.08-42.24Zm3.16,3.15v36.02c0,.17.14.31.31.31h12.39c8.55,0,15.48-6.79,15.48-15.16h0v-6.32c0-8.37-6.93-15.16-15.48-15.16h-12.39c-.17,0-.31.14-.31.31Z"/>
      <path class="cls-6" d="m237.98,333.21h-20.63c-.14,0-.27.09-.32.23l-4.85,13.28c-.05.14-.18.23-.32.23l-2.72.07c-.19,0-.35-.15-.36-.34,0-.04,0-.09.02-.13l16.35-42.32c.05-.13.19-.22.33-.22l4.02-.03c.14,0,.28.09.33.22l17.29,42.32c.07.18-.02.38-.19.45-.04.02-.09.03-.14.02l-3.09-.03c-.14,0-.27-.09-.32-.22l-5.07-13.31c-.05-.14-.18-.23-.33-.23Zm-20.01-2.66c-.06.16.02.34.18.4.04.01.07.02.11.02l18.63-.13c.17,0,.31-.14.3-.32,0-.04,0-.08-.02-.11l-9.47-22.79c-.07-.16-.25-.23-.41-.16-.07.03-.13.09-.16.16l-9.16,22.93Z"/>
      <path class="cls-6" d="m252.25,304.37c0-.23.18-.41.41-.41h0l15.4.03c10.51.02,19.01,8.46,18.99,18.84v5.36c-.02,10.39-8.55,18.8-19.06,18.78h-.01l-15.4-.03c-.23,0-.41-.18-.41-.41l.08-42.16Zm3.19,3.09v36c0,.18.14.32.32.32h12.38c8.55,0,15.48-6.77,15.48-15.13h0v-6.38c0-8.36-6.93-15.13-15.48-15.13h-12.38c-.18,0-.32.14-.32.32Z"/>
      <path class="cls-6" d="m331.65,323l24.46-.02c.23,0,.41.18.41.41h0v2.37c.01.23-.17.41-.4.41h-24.47c-.23,0-.41.18-.41.41h0v16.85c0,.23.18.41.41.41h0l27.11-.02c.23,0,.41.18.41.41h0v2.32c.01.23-.17.41-.4.41h-30.26c-.23-.01-.41-.19-.41-.42v-42.12c0-.23.18-.41.41-.41h29.2c.22,0,.4.18.41.4l.05,2.31c0,.23-.17.41-.4.42,0,0,0,0-.01,0h-26.13c-.23,0-.41.18-.41.41h0l.02,15.04c0,.23.18.41.41.41Z"/>
      <path class="cls-6" d="m369.38,346.98h-2.63c-.17,0-.3-.13-.3-.3h0l.02-42.36c0-.17.13-.3.3-.3l3.95-.06c.1,0,.2.05.25.14l25.4,38.19c.09.14.28.18.42.08.08-.05.13-.15.13-.24l-.02-37.89c0-.17.13-.3.3-.3h0l2.58.03c.17,0,.3.13.3.3h0v42.39c0,.17-.13.3-.3.3h-3.73c-.1.01-.19-.04-.25-.12l-25.58-38.26c-.09-.14-.28-.18-.42-.08-.09.06-.14.15-.13.25v37.93c.01.17-.12.3-.29.3Z"/>
      <path class="cls-6" d="m457.17,307.49v39.17c0,.19-.16.35-.35.35h-2.49c-.19,0-.35-.16-.35-.35v-39.18c.01-.19-.15-.35-.34-.35h0l-14.14.02c-.19,0-.35-.16-.35-.35l-.02-2.44c0-.19.16-.35.35-.35h32.35c.19,0,.34.14.35.33l.14,2.43c.01.19-.14.36-.33.37,0,0-.01,0-.02,0h-14.45c-.19,0-.35.16-.35.35Z"/>
      <path class="cls-6" d="m481.18,307.55v15.04c0,.23.18.41.41.41l24.44-.02c.23,0,.41.18.41.41l.02,2.37c0,.23-.18.41-.41.41h-24.46c-.23,0-.41.18-.41.41v16.84c0,.23.18.41.41.41h27.14c.23-.01.41.17.41.4v2.32c.01.23-.17.41-.4.41h-30.31c-.23,0-.41-.19-.41-.42h0s-.01-42.12-.01-42.12c0-.23.18-.41.41-.41h29.26c.22,0,.4.18.41.4l.06,2.31c0,.23-.17.41-.4.42,0,0,0,0-.01,0h-26.15c-.23,0-.41.18-.41.41Z"/>
      <path class="cls-6" d="m520.18,328.1v18.58c0,.22-.11.33-.32.33h-2.46c-.25,0-.38-.12-.38-.37v-42.16c0-.28.22-.5.5-.5,6.36.05,12.89.06,19.58.02,4.13-.02,9.45,1.05,11.71,4.73,3.88,6.33,1.64,15.77-6.4,17.73-.19.04-.3.23-.26.42.02.08.06.15.13.2,1.63,1.23,2.8,2.77,3.52,4.61,2.05,5.23,3.97,10.27,5.75,15.1.03.08-.01.18-.1.21-.02,0-.04.01-.06.01l-3.16-.07c-.11,0-.18-.05-.21-.15-1.51-4.21-3.12-8.47-4.83-12.77-1.78-4.49-4.7-6.7-8.77-6.64-4.47.07-8.98.07-13.53.01-.47,0-.71.24-.71.71Zm0-20.61v16.44c0,.19.16.35.35.35h17.61c4.99,0,9.04-3.35,9.04-7.49h0v-2.16c0-4.14-4.05-7.49-9.04-7.49h-17.61c-.19,0-.35.16-.35.35Z"/>
      <path class="cls-6" d="m596.2,310.92c0-1.11-.21-1.16-.63-.13l-14.54,35.58c-.17.41-.48.62-.93.62h-2.05c-.43,0-.72-.2-.88-.59l-14.71-36.11c-.33-.8-.49-.77-.49.1l.02,36.08c0,.29-.23.53-.52.53,0,0,0,0,0,0h-2.01c-.38,0-.57-.19-.57-.56v-41.76c0-.49.24-.73.73-.72l3.12.06c.49,0,.82.24,1,.69l15.01,37.36c.24.61.48.61.73,0l15.11-37.4c.19-.47.53-.7,1.04-.69l3.11.03c.46,0,.69.24.69.71v41.95c0,.2-.1.3-.31.31h-2.74c-.13,0-.2-.06-.2-.19l.03-35.87Z"/>
      <path class="cls-6" d="m668.66,307.48v39.17c0,.19-.17.35-.36.35,0,0,0,0-.01,0l-2.54-.03c-.19,0-.34-.16-.34-.35v-39.13c.01-.19-.15-.35-.34-.35h-14.15c-.19,0-.35-.16-.35-.35,0,0,0,0,0-.01l.08-2.43c0-.19.16-.34.35-.34h32.33c.19,0,.35.16.35.35h0s0,2.43,0,2.43c0,.19-.16.35-.35.35h-14.33c-.19-.01-.35.15-.35.34Z"/>
      <path class="cls-6" d="m714.23,333.21h-20.68c-.13.01-.24.09-.28.21l-4.91,13.36c-.05.11-.16.19-.28.19l-2.79.03c-.17,0-.3-.14-.3-.3,0-.03,0-.07.02-.1l16.37-42.38c.04-.11.15-.19.27-.19l4.1-.07c.12,0,.23.08.28.19l17.34,42.45c.06.15-.01.33-.17.39-.04.01-.07.02-.11.02l-3.21-.04c-.12,0-.23-.08-.27-.19l-5.1-13.38c-.05-.11-.16-.19-.28-.19Zm-20.03-2.71c-.07.18.02.37.2.44.04.01.08.02.12.02l18.54-.12c.19,0,.34-.15.34-.34,0-.05-.01-.1-.03-.14l-9.43-22.69c-.07-.17-.27-.25-.45-.18-.08.04-.15.1-.18.19l-9.11,22.82Z"/>
      <path class="cls-6" d="m758.28,341.92l-.02-37.37c0-.38.19-.57.57-.57h2.01c.39,0,.59.21.59.6v41.6c0,.65-.32.92-.96.82-1.29-.2-2.83.52-3.7-.77-8.63-12.92-17.03-25.49-25.19-37.7-.32-.47-.48-.42-.48.15l.02,38.1c0,.13-.07.2-.2.2h-2.72c-.21.01-.31-.09-.31-.29v-42.02c0-.49.24-.73.73-.72l2.89.07c.54.01.96.24,1.26.69l24.87,37.4c.43.65.64.58.64-.19Z"/>
      <path class="cls-6" d="m849.05,330.44c-.06,8.3-2.67,15.67-11.99,16.99-12.64,1.79-20.85-2.75-20.89-16.38-.03-8.71-.03-17.59-.02-26.66,0-.23.18-.41.41-.41h2.2c.39.01.58.2.57.59-.08,8.59-.07,17.07.03,25.46.14,11.75,5.57,15.83,17.12,14.29,7.51-1,9.33-7.44,9.37-13.87.05-8.77.06-17.42.03-25.94,0-.37.17-.55.54-.55h1.99c.38-.02.68.29.69.67h0c.04,8.74.02,17.34-.05,25.81Z"/>
      <path class="cls-6" d="m861.64,307.48v15.17c-.01.19.15.35.34.35h0l24.5-.03c.19,0,.35.15.36.34h0s.03,2.51.03,2.51c0,.19-.15.35-.34.36,0,0,0,0-.01,0l-24.53-.02c-.19,0-.35.16-.35.35h0s-.01,16.98-.01,16.98c0,.19.16.35.35.35h0l27.26-.02c.19,0,.35.16.35.35l-.04,2.44c0,.19-.16.35-.35.35h0l-30.46-.02c-.19,0-.35-.16-.35-.35h0v-42.23c0-.19.16-.35.35-.35h29.43c.19,0,.35.16.35.35v2.43c.01.19-.15.35-.34.35h-26.19c-.19-.01-.35.15-.35.34h0Z"/>
    </g>
  </g>
</svg>