<?xml version="1.0" encoding="UTF-8"?>
<svg id="Capa_2" data-name="Capa 2" xmlns="http://www.w3.org/2000/svg" viewBox="0 0 396.89 122.55">
  <defs>
    <style>
      .cls-1 {
        fill: rgba(255, 255, 255, .94);
      }

      .cls-1, .cls-2, .cls-3 {
        stroke-width: 0px;
      }

      .cls-2 {
        fill: #fff;
      }

      .cls-3 {
        fill: rgba(255, 255, 255, .28);
      }
    </style>
  </defs>
  <g id="Capa_1-2" data-name="Capa 1">
    <g>
      <path class="cls-2" d="M141.25,36.12c-10.55,3.07-20.13,7.87-28.74,14.39,1.18-1.67,1.66-3.74,1.44-6.23-.01-.14.01-.27.07-.4.32-.69.43-1.4.34-2.13-.13-1.05-.2-1.6-.2-1.66-.04-.54-.14-1.1-.28-1.69-.04-.14-.17-.22-.31-.18-.06.02-.11.05-.15.11-.17.27-.42.54-.48.86-.33,1.77-.87,3.44-1.63,5.02,0,.02-.02.03-.05.03-.05,0-.1,0-.14,0-.08,0-.12-.05-.12-.13,0-.09-.04-.15-.1-.18l1.32-7.57c.23-.44.37-.86.41-1.26l.75-3.79c.02-.09-.04-.18-.14-.2-.04,0-.07,0-.11.01l-4.16,2.08c-9.01,4.46-17.86,9.43-26.54,14.91l3.85-4.22c.09-.1.16-.22.21-.36.13-.4.31-.77.54-1.11.08-.12.13-.25.14-.39.04-.4.21-.73.52-1,.17-.15.18-.4.04-.56,0,0,0,0-.01-.01-.29-.31-.64-.43-1.06-.38-.52.06-1.05.09-1.59.11-.41,0-.79-.08-1.15-.26-.4-.2-.81-.4-1.22-.58-.13-.05-.25-.04-.37.04-.21.14-.38.1-.51-.11-.27-.45-.67-.77-1.18-.96-.14-.05-.25-.13-.34-.25-.64-.84-1.43-1.49-2.38-1.96-.13-.07-.23-.17-.29-.31-.03-.08-.09-.14-.17-.18-.53-.27-1-.62-1.42-1.05-.1-.1-.23-.14-.37-.11-.31.06-.6.01-.88-.14-.99-.54-1.97-1.12-2.94-1.76-1.39-.91-2.73-.86-4.32-.51-.34.07-.61-.01-.8-.26-.07-.09-.17-.15-.28-.17-.45-.07-.97-.26-1.57-.6-1.03-.57-1.69-.99-1.97-1.27-.44-.42-.73-.89-.87-1.41-.04-.14-.1-.25-.2-.36-.54-.59-.81-1.27-1.38-1.86-.37-.38-.73-.75-1.09-1.11-.29-.29-.56-.62-.84-1-.54-.77-1.34-1.11-2.39-1.02-.22.02-.4-.07-.54-.26-.1-.13-.25-.21-.42-.2-.58.03-1.14,0-1.67-.1-.34-.06-.69-.09-1.04-.1-.45-.01-.88-.12-1.29-.32-.3-.15-.58-.1-.83.15-.02.02-.05.02-.07,0,0,0,0,0,0-.01-.01-.03-.03-.07-.05-.1-.08-.13-.19-.15-.32-.06-.09.06-.16.14-.21.24-.07.13-.18.18-.32.14-.65-.15-1.29-.26-1.94-.33-.35-.04-.67-.18-.96-.41-.29-.23-.51-.5-.67-.81-.12-.23-.3-.41-.55-.55-.3-.16-.59-.29-.88-.39-.12-.04-.25.01-.31.12-.03.06-.08.11-.13.16-.08.07-.2.05-.27-.03-.61-.73-1.33-1.41-2.15-2.03-.39-.29-.37-.61-.92-.79-1.84-.61-3.77-1.23-5.78-1.88-.55-.18-1.09-.3-1.64-.37-.16-.02-.29-.09-.39-.2-.42-.47-.91-.75-1.47-.85-.12-.02-.17-.09-.17-.21,0-.19-.09-.33-.27-.41-.11-.05-.2-.13-.27-.23-.39-.57-.85-1.05-1.38-1.42-.92-.64-1.54-1.74-2.67-1.98-.54-.12-1.53-.13-2.97-.05-.7.04-1.27.01-1.69-.08l.14-6.97c0-.37.31-.67.68-.68C59.18,1.38,95.75.73,132.4.05c3.13-.06,5.94-.06,8.42-.01.14,0,.21.08.22.22l.21,35.87Z"/>
      <path class="cls-2" d="M21.86,9.64c.42.09.99.12,1.69.08,1.44-.08,2.43-.07,2.97.05,1.13.24,1.75,1.34,2.67,1.98.54.37,1,.85,1.38,1.42.07.1.16.18.27.23.18.08.27.22.27.41,0,.12.06.19.17.21.55.1,1.04.38,1.47.85.1.12.23.18.39.2.55.07,1.1.19,1.64.37,2.01.65,3.94,1.27,5.78,1.88.54.17.53.5.92.79.82.62,1.53,1.29,2.15,2.03.07.08.19.09.27.03.05-.05.1-.1.13-.16.06-.11.2-.16.31-.12.29.1.59.23.88.39.25.13.43.32.55.55.16.31.38.58.67.81.29.23.62.37.96.41.65.07,1.3.18,1.94.33.14.03.25-.01.32-.14.05-.1.12-.18.21-.24.13-.09.23-.07.32.06.02.03.04.06.05.1.01.03.04.04.07.03,0,0,0,0,.01,0,.25-.25.53-.3.83-.15.41.2.84.31,1.29.32.35,0,.7.04,1.04.1.53.09,1.09.13,1.67.1.16,0,.32.07.42.2.14.19.32.28.54.26,1.05-.09,1.84.25,2.39,1.02.27.38.55.72.84,1,.36.36.73.73,1.09,1.11.58.6.84,1.27,1.38,1.86.1.1.16.22.2.36.14.52.44.99.87,1.41.29.27.95.7,1.97,1.27.59.33,1.12.53,1.57.6.12.02.21.08.28.17.2.25.46.33.8.26,1.59-.35,2.93-.4,4.32.51.97.63,1.94,1.22,2.94,1.76.28.15.57.2.88.14.14-.03.27.01.37.11.42.43.9.78,1.42,1.05.08.04.13.1.17.18.06.14.16.24.29.31.95.47,1.74,1.12,2.38,1.96.09.12.2.2.34.25.52.19.91.51,1.18.96.13.22.3.25.51.11.12-.08.24-.09.37-.04.41.18.82.37,1.22.58.36.18.74.26,1.15.26.54-.01,1.07-.05,1.59-.11.41-.05.77.08,1.06.38.15.16.15.41-.01.56,0,0,0,0-.01.01-.31.27-.48.61-.52,1-.02.14-.07.28-.14.39-.23.35-.41.72-.54,1.11-.05.13-.11.25-.21.36l-3.85,4.22-1.89,1.26v-.4c.03-.35-.13-.68-.41-.88-.45-.33-.74-.73-.87-1.18-.04-.14-.13-.26-.26-.34-.63-.37-1.16-.79-1.61-1.27-.12-.13-.28-.22-.46-.26-.58-.12-1.13-.34-1.63-.67-.07-.05-.09-.1-.05-.17l.09-.17c.08-.14.05-.26-.08-.36-.17-.13-.34-.13-.52-.01-.1.07-.19.05-.27-.04l-.67-.81c-.09-.11-.21-.19-.35-.23-.95-.23-1.83-.63-2.64-1.21-.12-.08-.24-.13-.38-.14-.38-.04-.68-.2-.89-.49-.07-.1-.16-.17-.27-.22-2.04-.98-4.06-2.06-6.08-3.24-.24-.14-.46-.3-.68-.49-.63-.56-1.61-.81-2.42-1.04-.64-.18-.9-.69-1.36-1.1-.09-.08-.21-.11-.34-.09-.31.05-.62.02-.92-.08-.84-.3-1.64-.64-2.41-1.01-.62-.3-1.26-.45-1.92-.45-.85,0-1.69-.05-2.52-.16-1.3-.17-2.54-.09-3.83.06-.21.03-.41.1-.59.22-.16.1-.34.16-.54.15-.39-.01-.75.08-1.1.26-.12.07-.26.1-.39.1-.99.02-1.86.23-2.6.65-1.7.95-3.61,1.2-5.74.75-.32-.07-.61-.2-.89-.4-.09-.07-.19-.09-.29-.07-.4.07-.75-.04-1.04-.33-1.04-1.02-1.72-2.13-2.03-3.32-.48-1.85-.69-3.7-.65-5.56.02-1.11.37-2.2,1.05-3.27.13-.21.17-.46.1-.69-.06-.2-.06-.4,0-.6.04-.14.02-.28-.05-.41-.41-.75-.91-1.49-1.49-2.23-.44-.56-1.03-1.06-1.78-1.49-1.1-.65-2.25-1.45-3.43-2.42-.75-.61-1.49-.71-2.21-.28,0,0-.14.14-.41.39-.23.23-.52.19-.86-.11l.02-4.6Z"/>
      <path class="cls-2" d="M80.54,49.38l-15.05,10.9.04-8.81.53-6.66c.02-.22-.15-.42-.37-.44-.07,0-.13,0-.19.03-.52.22-.92.51-1.19.88-1.09.33-2.03.84-2.83,1.55-1.12.33-2.12.92-3,1.75-.31.29-.77.65-1.39,1.06-.52.35-.92.79-1.22,1.31l-7.83,5.87c-.07.05-.11.12-.13.2-.01.06-.05.1-.09.14-2.11,1.62-4.14,3.32-6.1,5.1-.65.59-1.31,1.17-1.98,1.73-.68.57-1.31,1.18-1.9,1.83-.65.72-1.33,1.41-2.03,2.08-.7.67-1.4,1.34-2.1,2.01-1.85,1.79-3.67,3.6-5.46,5.42l-1.75,1.72c-.05.05-.05.1,0,.15l.09.08s.08.04.12,0l1.53-1.49c.2.06.36,0,.48-.21.14-.23.34-.36.59-.37-2.17,2.02-4.22,4.16-6.14,6.41-.7.82-1.45,1.38-2.26,2.1l.96-69.5c.34.3.63.34.86.11.26-.25.4-.39.41-.39.72-.43,1.46-.34,2.21.28,1.18.97,2.33,1.78,3.43,2.42.74.44,1.34.93,1.78,1.49.58.74,1.08,1.48,1.49,2.23.07.13.09.27.05.41-.05.2-.05.4,0,.6.06.23.03.48-.1.69-.68,1.07-1.03,2.16-1.05,3.27-.04,1.86.18,3.71.65,5.56.31,1.19.99,2.3,2.03,3.32.29.28.64.39,1.04.33.11-.02.21,0,.29.07.28.2.57.34.89.4,2.13.45,4.04.2,5.74-.75.74-.42,1.61-.63,2.6-.65.14,0,.27-.04.39-.1.35-.18.71-.27,1.1-.26.2,0,.38-.05.54-.15.18-.12.38-.19.59-.22,1.29-.15,2.53-.23,3.83-.06.83.11,1.67.16,2.52.16.66,0,1.3.15,1.92.45.77.37,1.57.71,2.41,1.01.3.11.61.14.92.08.12-.02.24.01.34.09.47.41.72.92,1.36,1.1.81.23,1.79.48,2.42,1.04.21.19.44.35.68.49,2.01,1.18,4.04,2.26,6.08,3.24.11.05.2.12.27.22.21.29.51.45.89.49.14.02.27.07.38.14.81.57,1.69.97,2.64,1.21.14.04.26.11.35.23l.67.81c.08.09.17.11.27.04.18-.12.35-.11.52.01.13.1.16.22.08.36l-.09.17c-.04.07-.02.13.05.17.51.33,1.05.55,1.63.67.18.04.34.13.46.26.44.48.98.9,1.61,1.27.13.08.22.2.26.34.13.46.42.85.87,1.18.28.2.44.54.42.88v.4Z"/>
      <path class="cls-2" d="M172.54,27.54c-2.82,1.67-5.33,3.68-7.54,6.01-3.94,3.24-6.43,5.33-7.47,6.26-4.76,4.23-10.22,9.44-16.38,15.61-.1.1-.15.22-.15.36l.3,29.6c-.31-.08-.44.11-.41.55.01.18-.07.25-.25.23-.08-.01-.12-.06-.13-.14-.01-.12-.08-.18-.2-.15-.65.13-1.08.41-1.29.85-.03.06-.07.07-.13.05-.03-.01-.04-.04-.03-.09,0-.02-.01-.02-.05-.02l-2.29.35c-.18.03-.33-.02-.47-.14-.08-.08-.16-.07-.22.02-.09.13-.21.18-.36.17-.08,0-.13-.04-.16-.09-.06-.15-.16-.18-.3-.08-.3.22-.65.32-1.04.31-.11,0-.15.05-.13.15.05.3-.08.5-.4.59-.05.01-.07.04-.07.09,0,.04,0,.08.03.11.12.17.07.25-.14.23-.36-.02-.72.05-1.07.2-.14.07-.29.08-.45.04-.23-.06-.24-.15-.06-.29.25-.18.44-.41.58-.69.05-.11.02-.17-.11-.17h-1.04c-.18,0-.27.1-.26.28,0,.04.02.08.04.11.13.18.08.29-.14.33-.19.03-.32.15-.38.34-.04.12-.16.19-.28.16-.16-.04-.31-.04-.47,0-.93.2-1.83.35-2.72.46-.13.02-.14,0-.03-.08.05-.03.09-.07.13-.11.04-.05.06-.11.07-.18l.04-.73c.02-.33-.13-.45-.45-.36l-1.46.41c-.22.06-.27,0-.15-.2.06-.09.08-.19.06-.29-.02-.1-.07-.15-.17-.15h-1.28c-.12,0-.17.06-.15.17l.04.28c.03.22-.06.34-.28.37l-1.04.14c-.23.03-.3-.06-.2-.27l.17-.38c.07-.16.03-.27-.14-.33-.04-.01-.08-.01-.11,0-.21.07-.29,0-.23-.22.03-.11.02-.21-.03-.31-.06-.11-.15-.15-.27-.14-.2.03-.41.02-.63-.04-.17-.05-.22-.15-.16-.32l.39-.98c.06-.14.02-.24-.11-.31-.43-.21-.88-.33-1.35-.34-.12,0-.21-.09-.22-.21-.03-.4-.17-.74-.42-1.02-.37-.41-.58-.66-.63-.74-.16-.28-.32-.56-.46-.85-.08-.16-.22-.24-.4-.24-.12,0-.22-.05-.29-.16-.32-.5-.78-.73-1.38-.7-.15,0-.26-.05-.35-.17-.07-.1-.16-.15-.28-.15-.1,0-.19.04-.25.12,0,.01-.01.02-.02.04-.03.2-.14.26-.35.19-.14-.05-.26-.13-.36-.23-.1-.1-.21-.12-.33-.06-.19.1-.28.24-.26.45.01.16-.02.17-.11.04-.03-.05-.07-.08-.12-.11-.18-.08-.36-.08-.54.02-.35.19-.6.1-.74-.27-.03-.09-.11-.15-.2-.17-.19-.05-.3,0-.33.14-.02.11-.13.19-.24.17-.05,0-.11,0-.16,0-.09.01-.12-.02-.09-.11.02-.05,0-.1-.02-.15-.06-.1-.15-.14-.27-.14-.22.02-.35-.08-.4-.28-.05-.23-.17-.27-.35-.11-.1.09-.18.19-.25.31-.06.12-.15.17-.28.17-.27-.01-.48.11-.62.36-.03.06-.07.07-.12.02-.03-.03-.05-.06-.06-.09-.03-.19-.11-.21-.23-.06-.06.07-.11.16-.13.25-.05.17-.14.2-.28.08-.1-.08-.18-.08-.24.03-.07.11-.17.17-.3.19-.29.03-.54.15-.75.35-.09.08-.2.13-.33.13h-1.31c-.15,0-.26.07-.32.21-.05.11-.06.23-.03.35.03.13-.04.26-.17.29-.04.01-.08,0-.12,0-.13-.03-.26-.02-.37.04-.21.11-.27.06-.19-.16.02-.04,0-.08-.06-.11-.08-.04-.15-.02-.19.06l-.18.33c-.05.1-.14.15-.25.16-.27,0-.49.12-.65.32-.1.13-.16.11-.18-.05-.03-.25.04-.45.23-.6.13-.1.14-.22.01-.33-.03-.03-.08-.05-.12-.06-.12-.01-.21.03-.28.14-.03.05-.04.09-.03.14,0,.07-.04.14-.11.15,0,0-.01,0-.02,0-.3,0-.56-.09-.76-.27-.21-.18-.34-.13-.39.13-.02.09,0,.17.05.23.12.16.08.23-.12.2-.15-.02-.25-.11-.3-.25-.05-.14-.15-.21-.29-.2l-1.13.02c-.14,0-.24-.05-.31-.17l-.17-.29s-.07-.05-.11-.03c-.02.01-.03.04-.04.06-.01.17-.08.32-.18.45-.07.09-.15.09-.23,0-.03-.04-.04-.08,0-.14.05-.09,0-.2-.08-.24-.05-.03-.12-.03-.17,0-.44.24-.81.18-1.1-.18-.07-.09-.16-.13-.28-.11-.11.01-.19.06-.24.14-.05.08-.15.12-.24.1l-1.56-.35c-.12-.03-.24-.08-.34-.16-.09-.07-.21-.12-.34-.14-.33-.05-.44-.24-.33-.56.04-.11.11-.18.21-.2.13-.03.2-.11.21-.25l.03-.62c.73-.57,1.94-1.57,3.63-3,3.43-2.9,7.17-5.89,11.2-8.96.16-.12.32-.25.48-.37,11.8-9.33,23.45-17.77,34.93-25.32.16-.1.18-.24.08-.4,10.12-6.57,20.65-12.31,31.56-17.22.45-.2.49-.14.11.17l-3.29,2.76Z"/>
      <path class="cls-2" d="M172.54,27.54c-2.34,2.22-4.86,4.22-7.54,6.01,2.21-2.34,4.72-4.34,7.54-6.01Z"/>
      <path class="cls-2" d="M112.62,35.11c-.42.07-.84-.04-1.23-.32-.43-.3-.78-.51-1.03-.63-.52-.24-.98-.55-1.39-.94l4.16-2.08c.08-.04.19,0,.23.08.02.03.02.07.01.11l-.75,3.79Z"/>
      <path class="cls-2" d="M108.96,33.22c.41.39.87.7,1.39.94.25.12.6.33,1.03.63.4.28.81.39,1.23.32-.04.4-.18.82-.41,1.26-.52.12-.69.33-.51.61-14.92,7.09-28.92,15.2-42.02,25.4-.27.21-.54.22-.83.04l-3.35-2.13,15.05-10.9,1.89-1.26c8.68-5.48,17.52-10.45,26.54-14.91Z"/>
      <path class="cls-2" d="M141.25,36.12l-2.85,4.24c-.1.15-.27.26-.45.28-.53.07-.96.29-1.28.67-.17.2-.37.33-.62.39-9.36,2.62-17.94,7.05-25.74,13.27-.41.33-.85.59-1.32.79-.29.12-.55.29-.78.53-.18.18-.26.15-.22-.11l.48-3.18c.18.09.32.05.42-.13.12.1.24.11.34.04,1.03-.77,2.12-1.57,3.28-2.4,8.61-6.52,18.19-11.32,28.74-14.39Z"/>
      <path class="cls-2" d="M112.21,36.37l-1.32,7.57s-.06.02-.11.08c-.02.03-.04.07-.05.12-.46,2.64-1,5.26-1.61,7.86,0,0-.08.11-.23.3-.08.11-.08.3,0,.58-.1.18-.24.22-.42.13l3.23-16.02c-.18-.28,0-.49.51-.61Z"/>
      <path class="cls-2" d="M112.5,50.51c-1.16.82-2.25,1.62-3.28,2.4-.1.07-.21.06-.34-.04-.08-.28-.07-.47,0-.58.15-.2.23-.3.23-.3.61-2.6,1.15-5.22,1.61-7.86,0-.05.02-.09.05-.12.04-.06.08-.08.11-.08.07.03.1.09.1.18,0,.08.04.12.12.13.05,0,.09,0,.14,0,.02,0,.04-.01.05-.03.76-1.58,1.3-3.25,1.63-5.02.06-.32.31-.59.48-.86.08-.12.24-.15.35-.07.05.03.09.09.11.15.14.59.24,1.16.28,1.69,0,.06.07.61.2,1.66.09.73-.02,1.44-.34,2.13-.06.13-.08.26-.07.4.22,2.48-.26,4.56-1.44,6.23Z"/>
      <path class="cls-2" d="M144.15,41.82c.1.17.07.3-.08.4-11.48,7.55-23.13,15.99-34.93,25.32-.16.13-.32.25-.48.37-4.03,3.07-7.76,6.06-11.2,8.96-1.69,1.43-2.9,2.43-3.63,3l-5.2,4.17c-.02-.06-.04-.12-.06-.17,11.02-9.38,22.27-18.36,33.75-26.93,7.11-5.31,14.39-10.35,21.84-15.13Z"/>
      <path class="cls-2" d="M65.53,51.48c-6.55,5-13.13,10.41-19.73,16.22-5.71,5.02-10.96,10.18-15.75,15.47-.35.39-.92.75-1.52.75-2.52,0-5.07-.06-7.64-.17.81-.72,1.57-1.28,2.26-2.1,1.93-2.25,3.97-4.39,6.14-6.41,2.18-2.26,5.14-5.02,8.87-8.28,6.28-5.49,10.99-9.48,14.13-11.97,4-3.17,8-6.4,12.01-9.7.27-.37.67-.67,1.19-.88.21-.09.45,0,.53.22.03.06.04.13.03.19l-.53,6.66Z"/>
      <path class="cls-2" d="M64.3,45.29c-4.01,3.3-8.01,6.53-12.01,9.7-3.13,2.49-7.84,6.47-14.13,11.97-3.73,3.26-6.68,6.02-8.87,8.28-.25.01-.45.13-.59.37-.12.2-.28.27-.48.21v-.47c1.8-1.83,3.62-3.63,5.47-5.42.7-.67,1.4-1.34,2.1-2.01.7-.66,1.38-1.35,2.03-2.08.59-.65,1.23-1.26,1.9-1.83.67-.56,1.32-1.13,1.98-1.73,1.96-1.79,3.99-3.49,6.1-5.1.05-.04.08-.08.09-.14.02-.08.06-.15.13-.2l7.83-5.87,1.56-1.17c.1-.08.22-.14.34-.19.41-.16.57-.48.88-.74.5-.42,1.02-.84,1.54-1.27.12-.1.25-.15.4-.17.52-.05.82-.25.89-.59.8-.7,1.74-1.22,2.83-1.55Z"/>
      <path class="cls-2" d="M61.47,46.83c-.07.34-.36.54-.89.59-.15.01-.28.07-.4.17-.52.43-1.03.85-1.54,1.27-.31.26-.47.58-.88.74-.12.05-.23.11-.34.19l-1.56,1.17c.3-.52.7-.96,1.22-1.31.62-.42,1.08-.77,1.39-1.06.89-.84,1.89-1.42,3-1.75Z"/>
      <path class="cls-1" d="M187.35,69.1c0-.27-.07-.28-.2-.05l-8.42,15.01c-.08.15-.21.22-.38.22h-4.05c-.2,0-.35-.09-.45-.26l-8.35-14.29c-.16-.27-.24-.24-.24.06v15.12c0,.18-.09.27-.27.27h-6.4c-.15,0-.22-.08-.22-.23v-27.17c0-.2.1-.32.29-.38l6.44-1.73c.1-.03.18,0,.23.1l10.93,19.99c.03.06.11.09.18.05.02-.01.04-.03.05-.05l10.79-19.28c.04-.07.11-.11.19-.11h6.68c.06,0,.11.05.11.11v28.46c0,.15-.08.23-.23.23h-6.46c-.15,0-.23-.08-.23-.23v-15.85Z"/>
      <path class="cls-1" d="M213.44,63.81l-9.85,21.29s-.07.08-.12.08h-6.97c-.07,0-.13-.06-.13-.13,0-.02,0-.04.01-.06l13.58-27.44s.05-.06.08-.07l6.72-1.81c.06-.02.12.01.15.07l14.04,29.26c.03.07,0,.14-.06.17-.02,0-.04.01-.05.01h-6.98c-.05,0-.1-.03-.12-.08l-1.74-3.69s-.07-.08-.12-.08h-13.09c-.07,0-.13-.06-.13-.13,0-.02,0-.03.01-.05l2.42-5.61s.07-.08.12-.08h7.76c.07,0,.13-.05.13-.12,0-.02,0-.04-.01-.05l-5.42-11.47c-.03-.07-.11-.09-.18-.06-.03.01-.05.04-.06.06Z"/>
      <path class="cls-1" d="M255.14,56.39h6.62c.07,0,.13.06.13.13v28.53c0,.07-.06.13-.13.13h-6.68s-.08-.02-.1-.05l-14.77-18.61c-.05-.06-.13-.06-.19-.02-.03.02-.05.06-.05.1v18.45c0,.07-.05.13-.13.13h-6.62c-.07,0-.13-.07-.13-.14v-27.45c0-.06.04-.11.1-.13l6.69-1.81c.05-.01.11,0,.14.05l14.74,18.59c.05.06.13.06.19.02.03-.02.05-.06.05-.1v-17.69c0-.07.06-.13.13-.13Z"/>
      <path class="cls-1" d="M271.14,85.18h-6.97c-.07,0-.13-.06-.13-.13,0-.02,0-.04.01-.06l13.58-27.44s.05-.06.08-.07l6.72-1.81c.06-.02.12.01.15.07l14.04,29.26c.03.07,0,.14-.06.17-.02,0-.04.01-.05.01h-6.98c-.05,0-.1-.03-.12-.08l-1.74-3.69s-.07-.08-.12-.08h-13.09c-.07,0-.13-.07-.13-.14,0-.02,0-.03.01-.05l2.41-5.61s.07-.08.12-.08h7.77c.07,0,.13-.06.13-.13,0-.02,0-.04-.01-.05l-5.42-11.47c-.03-.07-.11-.09-.18-.06-.03.01-.05.04-.06.06l-9.85,21.3s-.07.08-.12.08Z"/>
      <path class="cls-1" d="M322.42,78.77v-6.16c0-.16.11-.31.27-.35l6.36-1.72c.18-.05.26.02.26.2v14.2c0,.17-.09.26-.26.25-5.79-.04-11.44-.04-16.96.02-2.22.02-3.99-.2-5.3-.67-11.32-4.01-10.71-24.41.85-27.75,1.08-.31,2.73-.46,4.93-.44,5.23.05,10.15.05,14.74,0,.09,0,.17.06.2.14l1.78,5.86c.02.06-.02.13-.08.16-.01,0-.02,0-.04,0-5.44.02-11.03.01-16.78-.03-1.3-.01-2.32.19-3.05.6-3.52,1.95-3.87,7.25-3,10.79.56,2.29,2.06,4.67,4.54,5.07.63.1,1.66.14,3.1.11,2.77-.06,5.48-.06,8.14,0,.21,0,.31-.1.31-.31Z"/>
      <path class="cls-1" d="M341.48,62.68v4.91c0,.08.06.15.14.15h17.57c.08,0,.15.07.15.15v5.85c0,.08-.07.15-.15.15h-17.56c-.08,0-.15.07-.15.15h0s0,4.86,0,4.86c0,.08.07.15.15.15h20.66c.08,0,.15.07.15.15,0,.01,0,.03,0,.04l-1.76,5.83c-.02.06-.08.11-.14.11h-25.78c-.08,0-.15-.07-.15-.15v-28.49c0-.08.07-.15.15-.15h27.54c.08,0,.15.07.15.15,0,.01,0,.03,0,.04l-1.77,5.85c-.02.06-.08.11-.14.11h-18.88c-.08,0-.15.07-.15.15h0Z"/>
      <path class="cls-1" d="M373.47,76.38v8.68c0,.08-.04.11-.12.11h-6.56c-.14,0-.22-.08-.22-.22v-17.94c0-.19.09-.31.27-.36l6.37-1.72c.17-.05.25.02.25.19v4.62c0,.15.08.23.23.23,3.68,0,7.64,0,11.86,0,4.36,0,4.45-7.42.13-7.43-6.17,0-12.45,0-18.83,0-.21,0-.28-.1-.22-.3l1.69-5.58c.06-.21.2-.31.41-.31,4.68.06,9.48.06,14.41-.01,3.11-.04,5.31.19,6.58.69,3.32,1.32,5.37,3.76,6.15,7.33,1.03,4.71-1.24,9.34-5.88,11.09-.07.03-.11.11-.08.18,0,.01.01.02.02.03l6.87,9.29c.11.15.07.22-.11.22h-7.62c-.15,0-.27-.06-.36-.19l-6-8.7c-.08-.12-.22-.19-.36-.19h-8.62c-.19,0-.28.09-.28.28Z"/>
      <path class="cls-2" d="M88.87,60.56l-1.85,9.11c-.16-.32-.66-.51-1.51-.57-.14-.01-.26.03-.37.11-.35.27-.75.38-1.2.31-.14-.02-.27,0-.39.07-.37.2-.76.34-1.16.43-.46.11-.88.24-1.24.4-.4.17-.81.37-1.23.58-.43.22-.89.39-1.38.51-1.12.27-2.21.67-3.27,1.2-.44.22-.94.37-1.52.45-.4.06-.85.18-1.32.35-.38.14-.83.18-1.35.14-.14-.01-.28.01-.4.07-.4.19-.84.19-1.3-.02,6.22-4.65,12.61-9.02,19.18-13.13.08-.05.19-.06.31-.02Z"/>
      <path class="cls-2" d="M88.87,60.56s.09-.04.15-.05c.11-.01.2.02.28.09l1.7,1.68c.11.11.16.27.11.42-1.21,4.43-2.06,8.94-2.54,13.53-.27,2.5-.27,5.05,0,7.65.02.06.04.11.06.17l-1.95,1.74c-.06.06-.16.05-.22-.01-.02-.02-.04-.05-.04-.08-.4-2.88-.47-5.77-.19-8.66.23-2.4.49-4.85.8-7.37l1.85-9.11Z"/>
      <path class="cls-2" d="M87.03,69.67c-.31,2.51-.58,4.97-.8,7.37-.27,2.89-.21,5.77.19,8.66.01.09.09.15.18.14.03,0,.06-.02.08-.04l1.95-1.74,5.2-4.17-.03.62c0,.14-.08.22-.21.25-.1.02-.17.09-.21.2-.11.32,0,.5.33.56.13.02.24.07.34.14.1.08.22.13.34.16l1.56.35c.09.02.19-.02.24-.1.05-.08.13-.13.24-.14.11-.01.21.03.28.11.29.36.65.42,1.1.18.09-.05.2-.02.25.07.03.05.03.12,0,.17-.03.06-.03.11,0,.14.08.09.15.09.23,0,.11-.13.17-.28.18-.45,0-.04.04-.08.09-.07.02,0,.05.02.06.04l.17.29c.07.12.17.17.31.17l1.13-.02c.15,0,.24.07.29.2.05.14.15.23.3.25.2.03.24-.03.12-.2-.05-.06-.06-.14-.05-.23.05-.26.18-.31.39-.13.21.18.46.26.76.27.07,0,.13-.05.13-.13,0,0,0-.02,0-.02,0-.05,0-.09.03-.14.07-.11.16-.16.28-.14.05,0,.09.03.12.06.12.12.12.23-.01.33-.19.15-.26.35-.23.6.02.16.08.17.18.05.16-.21.38-.31.65-.32.11,0,.2-.06.25-.16l.18-.33c.05-.08.11-.1.19-.06.06.03.08.07.06.11-.08.22-.02.27.19.16.12-.06.24-.08.37-.04.13.04.26-.04.29-.17.01-.04.01-.08,0-.12-.03-.12-.02-.24.03-.35.06-.14.17-.21.32-.21h1.31c.12,0,.24-.05.33-.13.2-.2.45-.32.75-.35.13-.01.23-.08.3-.19.07-.1.15-.11.24-.03.14.12.23.09.28-.08.03-.09.07-.18.13-.25.12-.15.2-.13.23.06,0,.04.02.07.06.09.05.05.09.04.12-.02.14-.25.34-.38.62-.36.13,0,.22-.05.28-.17.06-.12.14-.22.25-.31.18-.15.3-.11.35.11.05.2.18.3.4.28.12,0,.21.04.27.14.03.05.04.1.02.15-.03.09,0,.13.09.11.05,0,.1,0,.16,0,.11.02.21-.06.24-.17.03-.14.14-.19.33-.14.09.02.16.08.2.17.15.37.39.46.74.27.18-.09.36-.1.54-.02.05.02.09.06.12.11.09.13.12.12.11-.04-.01-.2.07-.35.26-.45.12-.07.23-.05.33.06.1.11.22.19.36.23.21.07.33.01.35-.19,0-.01,0-.03.02-.04.07-.08.15-.12.25-.12.12,0,.21.05.28.15.08.12.2.18.35.17.6-.03,1.06.2,1.38.7.07.1.16.16.29.16.18,0,.31.08.4.24.15.28.3.56.46.85.05.08.26.33.63.74.25.27.39.61.42,1.02,0,.12.1.21.22.21.47.02.92.13,1.35.34.13.07.17.17.11.31l-.39.98c-.07.16-.01.27.16.32.22.06.42.08.63.04.12-.02.21.03.27.14.05.1.06.2.03.31-.06.22.01.29.23.22.04-.01.08-.01.11,0,.17.05.22.16.14.33l-.17.38c-.09.21-.03.3.2.27l1.04-.14c.22-.03.31-.16.28-.37l-.04-.28c-.02-.12.03-.17.15-.17h1.28c.1,0,.15.05.17.15.02.1,0,.2-.06.29-.12.2-.07.26.15.2l1.46-.41c.32-.09.47.03.45.36l-.04.73c0,.07-.03.12-.07.18-.04.04-.08.08-.13.11-.11.07-.1.1.03.08.89-.11,1.8-.26,2.72-.46.16-.03.31-.03.47,0,.12.03.24-.04.28-.16.06-.2.19-.31.38-.34.22-.04.26-.15.14-.33-.02-.03-.04-.07-.04-.11,0-.18.08-.28.26-.28h1.04c.12,0,.16.05.11.16-.14.27-.33.5-.58.69-.19.14-.17.23.06.29.16.04.31.03.45-.04.35-.16.71-.23,1.07-.2.21.01.25-.06.14-.23-.02-.03-.03-.07-.03-.11,0-.05.02-.08.07-.09.32-.09.45-.29.4-.59-.02-.1.02-.16.13-.15.39,0,.74-.1,1.04-.31.14-.1.24-.07.3.08.02.05.08.08.16.09.15.02.27-.04.36-.17.06-.09.14-.1.22-.02.13.12.29.17.47.14l2.29-.35s.05,0,.05.02c-.01.05,0,.08.03.09.06.02.1,0,.13-.05.21-.44.64-.72,1.29-.85.12-.02.19.03.2.15,0,.08.05.13.13.14.18.03.26-.05.25-.23-.03-.44.11-.62.41-.55l.39,28.95c-.09.03-.12.1-.08.21-.03.02-.07.05-.1.08-.1.11-.15.09-.17-.05-.03-.2-.01-.4.03-.59,0-.01,0-.02-.01-.03,0,0,0,0-.01,0h-.11c-.07,0-.1.03-.09.1.07.59.08,1.2.03,1.81,0,.13-.05.25-.12.37l-.75,1.13c-.07.11-.17.19-.3.23-.19.07-.38.07-.56,0-.17-.06-.31-.02-.42.11l-.25.3c-.11.13-.24.16-.39.08-.74-.34-1.38-.3-1.94.11-.11.08-.23.12-.36.12h-1.7c-.14,0-.24.07-.3.2-.12.26-.33.36-.65.29-.14-.03-.28-.01-.42.06-.51.27-1.06.37-1.64.3-.14-.02-.27-.07-.39-.15-.14-.1-.27-.08-.38.06-.1.13-.21.13-.31.01-.32-.35-.63-.35-.93,0-.07.07-.15.1-.24.09-.34-.06-.66-.02-.95.11-.12.05-.26.07-.38.03-.8-.21-1.59-.23-2.35-.06-.77.17-1.5.26-2.19.29-1.46.06-2.93.15-4.41.08-1.18-.05-2.34-.06-3.49-.01-.12,0-.24.04-.34.11-.03.02-.06.04-.08.07-.14.17-.26.17-.37-.02-.08-.13-.19-.17-.32-.11-.34.12-.93.06-1.27-.02-.16-.04-.31-.03-.47.02-.82.27-1.55.07-2.37.26-1.04.25-2.19.31-3.46.19-.14-.01-.27,0-.4.05-.35.13-.72.2-1.1.21-1.13.04-2.2.23-3.21.56-.52.17-1.08.32-1.68.43-.55.1-1.09.16-1.63.18-.65.02-1.29.05-1.92.09-2.75.18-6.01.18-9.79.02-4.18-.18-8.35-.37-12.53-.58-2.42-.12-8.01-.12-16.79,0-.5-.03-1-.04-1.49-.05-.04,0-.06-.02-.06-.06h0s.02-.07.06-.07c1.01-.07,2.03-.15,3.05-.23,1-.08,2.02-.12,3.06-.13,4.8-.05,9.14,0,13.02.14,1.75.06,3.07.08,3.95.06.02,0,.03,0,.03-.03,0-.01,0-.03,0-.04,0-.02-.02-.03-.05-.03-1.07-.02-2.16-.1-3.29-.25-.78-.1-1.43.11-2.19.03-.44-.05-.89-.08-1.34-.09-4.9-.05-9.73.04-14.49.25-.27.01-.55.07-.82.15-.25.08-.52.12-.79.12-1.78,0-3.55.03-5.33.11-.05,0-.08-.02-.08-.07h0s.01-.08.06-.08c1.56-.3,3.15-.44,4.79-.43.63,0,1.12-.29,1.71-.37,1.25-.18,2.59-.28,4.02-.31.86-.02,1.71-.05,2.57-.08.83-.03,1.67-.05,2.53-.03,1.49.02,2.93,0,4.33-.03,2.21-.06,4.87.13,7.97.59.52.08,1.02.11,1.52.11.5,0,1.02.05,1.55.16.58.12,1.18.16,1.78.11.12,0,.23,0,.34.05.33.12.5.25.88.23,1.08-.05,2.15-.1,3.18-.14.12,0,.2-.07.23-.19.06-.23.2-.4.42-.52.15-.08.27-.19.36-.34.07-.12.09-.24.06-.36-.04-.18.02-.3.19-.37.2-.08.34-.22.42-.42.06-.14.06-.28-.02-.42-.47-.86-.94-1.63-1.43-2.28-.31-.42-.54-.92-.7-1.49-.07-.26-.1-.25-.09.02,0,.11-.02.21-.06.3-.05.11-.05.22.02.31.16.23.21.49.15.79-.03.16-.1.17-.2.05-.34-.43-.62-.86-.83-1.27-.19-.36-.39-.73-.61-1.1-.18-.31-.35-.62-.51-.93-.15-.31-.34-.61-.57-.92-.24-.31-.43-.71-.56-1.19-.1-.36-.22-.7-.37-1.02-.15-.32-.26-.66-.33-1.01-.11-.55-.32-1.12-.64-1.71-.03-.05-.05-.11-.07-.17-.09-.26-.12-.25-.1.02.02.21.02.42-.01.64-.03.23-.08.24-.16.01-.26-.8-.45-1.59-.58-2.39-.19-1.15-.32-2.31-.4-3.47,0-.05,0-.09,0-.14.01-.07.04-.13.08-.17.18-.19.14-.26-.12-.21-.05,0-.09,0-.14,0-.08-.02-.13-.08-.14-.17-.07-.82.07-1.56.41-2.23.33-.63.55-1.21.67-1.75.25-1.15.62-2.33,1.1-3.55.16-.41.28-.83.35-1.27.03-.2-.05-.27-.25-.21-.45.14-.81.38-1.07.71-.12.15-.2.13-.23-.06-.27-1.63-.65-2.99-1.11-4.09-.07-.17-.32-.49-.73-.97-.03-.03-.04-.06-.03-.1,0-.04,0-.08,0-.12-.05-.28.02-.31.2-.09.07.08.14.05.22-.08.03-.04.04-.1.04-.15,0-.09,0-.17.06-.25.06-.1.14-.16.26-.19.1-.03.19,0,.26.08.18.22.41.26.69.14.16-.07.18-.17.06-.3-.22-.24-.48-.47-.77-.69-.31-.23-.58-.48-.81-.76-.55-.66-1.16-1.24-1.83-1.74-.91-.68-1.84-1.36-2.76-2.04-.04-.03-.08-.05-.12-.06-.06-.01-.11-.03-.17-.05-.18-.06-.32-.16-.43-.31-.19-.27-.41-.53-.64-.79-.25-.27-.52-.5-.82-.69-.33-.22-.65-.46-.95-.73-.83-.77-1.6-1.02-2.69-.98-.74.02-1.36.52-2.03.79-.48.2-.93.46-1.37.79-1.09.83-2.13,1.65-3.14,2.46-.8.64-1.56,1.31-2.26,2.02-.41.41-.87.79-1.38,1.14-.52.35-1,.74-1.45,1.17-.03.03-.07.04-.11.03-.05,0-.09,0-.14.01-.03,0-.05.02-.07.05-.6.72-1.53.97-2.28,1.55-.38.29-.83.55-1.35.78-.5.22-.98.46-1.44.73-.46.27-.9.56-1.34.87-.39.28-.85.56-1.38.84-.12.06-.23.07-.36.03-.11-.04-.22-.04-.34,0-.14.05-.26.12-.35.23-.29.33-.62.53-.98.61l4.43-4.16c5.61-4.84,10.51-8.84,16.46-13.43.46.2.89.21,1.3.02.13-.06.26-.08.4-.07.52.04.97,0,1.35-.14.48-.17.92-.29,1.32-.35.58-.08,1.08-.24,1.52-.45,1.05-.53,2.14-.93,3.27-1.2.49-.12.95-.29,1.38-.51.42-.22.84-.41,1.23-.58.36-.16.78-.29,1.24-.4.4-.09.79-.24,1.16-.43.12-.07.25-.09.39-.07.45.07.85-.04,1.2-.31.11-.08.23-.12.37-.11.84.06,1.35.25,1.51.57Z"/>
      <path class="cls-2" d="M49.26,73.24l-3.35,19.25c-.12-.48-.7-.8-1.72-.98-.13-.02-.25-.08-.34-.18-.28-.29-.62-.49-1.01-.57-.34-.07-.65-.22-.92-.43-.54-.43-1.04-.95-1.49-1.55-.1-.14-.23-.21-.4-.23l-4.44-.42c-.21-.02-.41.02-.59.14-.31.19-.58.17-.81-.08-.04-.04-.06-.03-.07.02,0,.03,0,.07.03.11.01.02,0,.03-.01.04-.57.25-1.17.46-1.8.63-.4.11-.77.26-1.11.47-.36.22-.73.38-1.12.48-.66.17-1.03.74-1.69.93-.44.12-.85.3-1.23.51-.11.07-.22.06-.32-.02-.07-.05-.15-.09-.24-.1-.15-.03-.28,0-.39.1-.77.6-1.56,1.21-2.37,1.81-.01,0-.02.02-.03.03s-.01.03-.01.04c0,.05-.01.09-.05.12-.5.39-.95.84-1.34,1.33-.02.03-.04.04-.07.05-.04,0-.08,0-.12,0-.2-.04-.28.04-.23.24,0,.04,0,.08-.03.12-.04.05-.09.08-.16.06-.24-.05-.4.05-.48.29-.03.07-.05.07-.08,0-.01-.03-.04-.06-.07-.08-.03-.01-.05,0-.06,0-.49.51-1,1-1.53,1.47-.33.29-.54.7-.99.78-.1.02-.18.08-.22.18-.02.05-.04.1-.05.15-.04.13-.11.25-.22.34-.47.38-.91.77-1.31,1.17-.25.25-.55.39-.89.42,10.32-9.83,21.43-18.71,33.35-26.66Z"/>
      <path class="cls-2" d="M49.26,73.24l5.78.73c.14.02.2.1.18.24l-2.31,12.93-4.43,4.16-2.21,2.07c-.1.1-.27.09-.37-.01-.03-.03-.05-.07-.06-.12-.03-.15-.02-.4.06-.75l3.35-19.25Z"/>
      <path class="cls-2" d="M28.23,75.35v.47s-1.54,1.49-1.54,1.49c-.04.04-.08.04-.12,0l-.09-.08c-.05-.05-.05-.1,0-.15l1.75-1.72Z"/>
      <path class="cls-2" d="M57.62,121.09c-.5-.03-.99,0-1.49.06-.05,0-.07.03-.06.08h0s.03.07.08.07c5.09,0,10.19,0,15.29,0,.03,0,.07.01.11.04.07.04.15.07.23.07l9.94.28c-7.85-.13-15.71-.21-23.57-.25-2.46-.01-5.04.15-7.56.08-2.09-.06-3.98-.07-5.65-.04-1.96.04-3.91.06-5.87.08-.55,0-1.09-.02-1.63-.06-.55-.05-1.1-.05-1.62,0-1.31.11-2.58-.06-3.87-.06-2.11,0-4.23-.04-6.34-.11-.63-.02-1.28-.08-1.94-.17-.6-.08-1.26-.09-1.97-.04,0,0-.02,0-.02.02,0,0,0,.01.01.01h0c.21.05.43.06.65.05.02,0,.03,0,.03.02,0,.02,0,.03-.02.03-.01,0-.02,0-.03,0-.78-.13-1.57-.13-2.37,0,.21-1.12.21-2.25,0-3.4-.03-.19,0-.38.08-.55l.06-9.44c.03-.17.04-.27.03-.31-.01-.27-.15-.36-.41-.28-1.5.5-2.8,1-3.89,1.5-2.44,1.14-4.95,2.35-7.33,3.64-1.85.99-3.9,1.65-5.84,2.53-.1.05-.2.06-.31.03-.36-.07-.68.08-.92.34-.29.31-.58.64-.89.99-.16.04-.28.06-.36.05-.1-.01-.18-.1-.16-.21,0-.04.02-.08.05-.11,5.16-5.61,10.45-10.99,15.86-16.13.35-.03.64-.17.89-.42.4-.4.84-.79,1.31-1.17.11-.09.18-.2.22-.34.01-.05.03-.1.05-.15.04-.1.11-.16.22-.18.45-.08.67-.49.99-.78.53-.47,1.04-.96,1.53-1.47.02-.02.04-.02.06,0,.03.02.06.05.07.08.03.07.05.07.08,0,.08-.24.24-.33.48-.29.07.01.12,0,.16-.06.03-.04.04-.08.03-.12-.05-.2.02-.28.23-.24.04,0,.08,0,.12,0,.03,0,.06-.02.07-.05.39-.5.83-.94,1.34-1.33.04-.03.05-.07.05-.12,0-.01,0-.03.01-.04s.02-.03.03-.03c.81-.6,1.6-1.21,2.37-1.81.12-.09.25-.13.39-.1.09.01.17.05.24.1.1.08.21.08.32.02.39-.22.8-.39,1.23-.51.65-.19,1.03-.76,1.69-.93.39-.1.76-.26,1.12-.48.34-.2.71-.36,1.11-.47.63-.17,1.23-.38,1.8-.63.02,0,.02-.02.01-.04-.02-.04-.03-.07-.03-.11,0-.05.03-.06.07-.02.23.24.51.27.81.08.18-.12.37-.16.59-.14l4.44.42c.17.01.3.09.4.23.45.61.95,1.13,1.49,1.55.27.21.58.36.92.43.39.09.73.28,1.01.57.09.1.21.16.34.18,1.02.18,1.6.5,1.72.98-.07.35-.09.6-.06.75.03.14.17.23.31.19.04-.01.09-.03.12-.06l2.21-2.07c.36-.07.69-.28.98-.61.09-.1.21-.18.35-.23.12-.04.23-.04.34,0,.12.05.24.04.36-.03.52-.28.98-.56,1.38-.84.44-.31.88-.6,1.34-.87.46-.27.94-.52,1.44-.73.52-.23.97-.49,1.35-.78.75-.57,1.68-.82,2.28-1.55.02-.02.04-.04.07-.05.05-.01.09-.02.14-.01.05,0,.08,0,.11-.03.44-.42.93-.81,1.45-1.17.51-.35.97-.73,1.38-1.14.7-.7,1.46-1.38,2.26-2.02,1.01-.81,2.06-1.63,3.14-2.46.44-.33.9-.6,1.37-.79.67-.27,1.29-.77,2.03-.79,1.1-.04,1.86.21,2.69.98.3.27.62.52.95.73.29.19.57.42.82.69.23.26.45.52.64.79.11.15.25.25.43.31.06.02.11.03.17.05.05,0,.09.03.12.06.93.68,1.85,1.36,2.76,2.04.67.5,1.29,1.08,1.83,1.74.23.28.51.53.81.76.29.22.55.45.77.69.12.13.1.23-.06.3-.28.12-.51.08-.69-.14-.07-.08-.15-.11-.26-.08-.12.03-.21.09-.26.19-.05.08-.06.16-.06.25,0,.05-.01.1-.04.15-.08.13-.15.16-.22.08-.18-.22-.25-.19-.2.09,0,.04,0,.08,0,.12,0,.04,0,.07.03.1.42.48.66.8.73.97.47,1.09.84,2.45,1.11,4.09.03.19.11.21.23.06.26-.33.62-.56,1.07-.71.2-.06.28,0,.25.21-.08.44-.19.86-.35,1.27-.48,1.22-.84,2.41-1.1,3.55-.12.54-.34,1.12-.67,1.75-.34.67-.48,1.41-.41,2.23,0,.09.05.14.14.17.05.01.09.01.14,0,.25-.05.29.02.12.21-.04.05-.07.11-.08.17,0,.05,0,.09,0,.14.08,1.16.22,2.32.4,3.47.13.8.32,1.6.58,2.39.07.23.13.22.16-.01.03-.21.03-.42.01-.64-.03-.27,0-.28.1-.02.02.06.04.12.07.17.31.59.53,1.16.64,1.71.07.36.18.7.33,1.01.15.32.27.66.37,1.02.13.48.32.88.56,1.19.23.3.42.61.57.92.15.32.32.63.51.93.22.37.42.74.61,1.1.21.42.49.84.83,1.27.1.12.16.11.2-.05.06-.3,0-.56-.15-.79-.07-.1-.08-.2-.02-.31.05-.09.07-.19.06-.3-.01-.27.02-.28.09-.02.16.57.39,1.06.7,1.49.49.66.96,1.42,1.43,2.28.08.14.08.28.02.42-.09.2-.23.34-.42.42-.17.07-.23.2-.19.37.03.12.01.24-.06.36-.09.15-.21.26-.36.34-.22.11-.36.29-.42.52-.03.12-.11.18-.23.19-1.04.04-2.1.09-3.18.14-.38.02-.55-.11-.88-.23-.11-.04-.22-.06-.34-.05-.61.05-1.2.01-1.78-.11-.53-.11-1.04-.17-1.55-.16-.5,0-1.01-.03-1.52-.11-3.1-.45-5.75-.65-7.97-.59-1.4.04-2.84.05-4.33.03-.85-.01-1.69,0-2.53.03-.85.03-1.71.06-2.57.08-1.43.03-2.77.14-4.02.31-.59.08-1.08.38-1.71.37-1.64,0-3.23.14-4.79.43-.05,0-.07.04-.06.08h0c0,.05.03.08.08.08,1.78-.08,3.55-.12,5.33-.11.27,0,.53-.04.79-.12.27-.09.55-.14.82-.15,4.76-.21,9.59-.29,14.49-.25.45,0,.9.04,1.34.09.76.09,1.41-.12,2.19-.03,1.12.14,2.22.23,3.29.25.02,0,.04,0,.05.03,0,.01,0,.03,0,.04,0,.02,0,.03-.03.03-.89.02-2.2,0-3.95-.06-3.88-.14-8.22-.18-13.02-.14-1.04.01-2.06.06-3.06.13-1.02.08-2.04.16-3.05.23-.04,0-.06.02-.06.06h0s.02.06.06.06c.5,0,1,.03,1.49.05Z"/>
      <path class="cls-1" d="M162.61,121.87l-2.82.06-.38-.1c-.14-.04-.22-.13-.23-.27l-.04-.51.05-4.06.02-23.82c0-.09.04-.14.13-.14h27.47c.19,0,.26.09.2.27l-1.72,5.67c-.04.14-.13.21-.28.21h-18.64c-.18,0-.28.09-.28.28v4.63c0,.15.12.28.27.28h17.36c.14,0,.2.07.2.2v5.81c0,.09-.05.14-.14.14h-17.46c-.16,0-.23.08-.23.23v4.77c0,.09.07.16.16.16l20.69.03c.1,0,.13.05.11.14l-1.74,5.74c-.05.16-.15.23-.31.23l-22.4.05Z"/>
      <path class="cls-1" d="M198.26,115.71h19.91c.08,0,.15.06.15.14,0,.02,0,.03,0,.04l-1.78,5.84c-.02.06-.07.1-.14.1h-25.03c-.08,0-.14-.07-.14-.15v-28.53c0-.08.06-.14.14-.14h6.6c.08.01.14.08.14.16h0s0,22.39,0,22.39c0,.08.06.14.14.14Z"/>
      <path class="cls-1" d="M228.2,110.66l-.02,4.89c0,.08.07.15.15.15h20.65c.08,0,.15.07.15.15,0,.01,0,.03,0,.04l-1.77,5.83c-.02.07-.08.11-.15.11h-25.76c-.08,0-.15-.07-.15-.15h0s0-28.51,0-28.51c0-.08.07-.15.15-.15h27.53c.08,0,.15.06.15.15,0,.01,0,.03,0,.04l-1.77,5.85c-.02.07-.08.11-.15.11h-18.87c-.08,0-.15.07-.15.15v4.88c0,.08.06.15.14.15h17.57c.08,0,.15.07.15.15v5.84c0,.08-.07.15-.16.15h-17.55c-.08,0-.15.07-.15.15h0Z"/>
      <path class="cls-1" d="M258.5,108.51c.2,3.3,1.89,7.17,5.67,7.18,5.44.03,11.3.03,17.56.01.1,0,.14.05.11.14l-1.76,5.82c-.04.13-.15.21-.28.21-4.61-.08-9.16-.08-13.63,0-2.69.05-4.67-.11-5.95-.47-11.61-3.26-12.25-24.08-.54-27.84,1.24-.4,3.09-.59,5.54-.57,5.74.05,11.25.05,16.52.02.06,0,.11.05.11.11,0,0,0,.02,0,.03l-1.75,5.81c-.05.15-.15.23-.31.23-5.28-.02-10.58-.01-15.89.01-.84,0-1.79.38-2.45.9-2.4,1.89-3.13,5.42-2.94,8.41Z"/>
      <path class="cls-1" d="M293.01,99.17h-10.33c-.08,0-.14-.06-.14-.14h0s0-5.87,0-5.87c0-.08.06-.14.14-.14h29.8c.08,0,.14.06.14.14,0,.01,0,.03,0,.04l-1.78,5.87c-.02.06-.07.1-.13.1h-10.52c-.08,0-.14.06-.14.14h0s0,22.39,0,22.39c0,.08-.06.14-.14.14h-6.62c-.08,0-.14-.06-.14-.14h0v-22.39c0-.08-.06-.14-.14-.14Z"/>
      <path class="cls-1" d="M339.22,112.41l6.85,9.26s.03.11-.02.15c-.02.01-.04.02-.06.02h-7.67c-.15,0-.3-.07-.39-.2l-6-8.7c-.09-.13-.21-.19-.36-.19h-8.71c-.14,0-.21.07-.21.21v8.63c0,.17-.08.25-.25.25h-6.36c-.19,0-.28-.1-.28-.29v-18.06c0-.07.05-.14.12-.16l6.5-1.75c.18-.05.27.02.27.21v4.59c0,.15.08.23.23.23,4.29,0,8.29,0,12.01,0,4.16,0,4.36-7.44-.07-7.43-6.02.01-12.27.01-18.75,0-.21,0-.28-.1-.22-.3l1.69-5.57c.06-.2.19-.3.4-.3,5.04.05,10.31.04,15.8-.02,2.14-.02,3.84.2,5.1.65,4.33,1.58,6.9,5.94,6.44,10.43-.39,3.85-2.37,6.51-5.95,7.99-.18.07-.21.19-.1.35Z"/>
      <rect class="cls-1" x="349.17" y="93.02" width="6.9" height="28.82" rx=".14" ry=".14"/>
      <path class="cls-1" d="M390.12,115.83l-1.78,5.86c-.03.09-.11.16-.21.16-5.76,0-11.26,0-16.48-.02-14.43-.07-16.49-23.97-3.85-28.22,1.29-.43,3.03-.64,5.22-.62,5.56.05,11.17.06,16.83.02.21,0,.28.1.22.29l-1.71,5.63c-.05.16-.16.24-.33.25-5.36.01-10.49,0-15.41-.01-1.51,0-2.75.56-3.72,1.71-3.44,4.04-3.26,14.88,4.08,14.85,6.1-.02,11.78-.01,17.05,0,.07,0,.09.04.07.1Z"/>
      <path class="cls-2" d="M20.08,107.84c-2.57,1.33-5.08,2.71-7.52,4.14-1.2.7-2.4,1.26-3.6,1.65-2.79.92-5.59,1.81-8.43,2.66.31-.35.6-.68.89-.99.24-.27.56-.42.92-.34.1.02.21.01.31-.03,1.94-.87,3.99-1.53,5.84-2.53,2.39-1.29,4.9-2.5,7.33-3.64,1.09-.51,2.39-1.01,3.89-1.5.26-.09.39,0,.41.28,0,.04,0,.14-.03.31Z"/>
      <path class="cls-2" d="M141.61,114.54l.16,3.22c-.16.31-.11.61.16.92.08.1.07.12-.05.06-.04-.02-.09-.03-.14,0-.1.03-.15.1-.15.21l.09,2.51c.01.34-.21.66-.54.76-.72.24-1.53.35-2.42.34l-43.46-.21-13.56-.65-9.94-.28c-.08,0-.15-.03-.23-.07-.05-.03-.08-.04-.11-.04-5.1,0-10.19,0-15.29,0-.05,0-.07-.02-.08-.07h0s.02-.08.06-.08c.49-.07.99-.08,1.49-.06,8.77-.12,14.37-.12,16.79,0,4.18.2,8.35.4,12.53.58,3.78.16,7.04.16,9.79-.02.64-.04,1.28-.07,1.92-.09.54-.02,1.09-.08,1.63-.18.61-.11,1.17-.26,1.68-.43,1.01-.34,2.08-.53,3.21-.56.39-.01.76-.08,1.1-.21.13-.05.26-.07.4-.05,1.27.12,2.42.06,3.46-.19.82-.2,1.55,0,2.37-.26.15-.05.31-.06.47-.02.34.08.93.14,1.27.02.14-.05.24-.01.32.11.11.19.24.19.37.02.02-.03.05-.05.08-.07.11-.07.22-.1.34-.11,1.15-.05,2.32-.04,3.49.01,1.47.07,2.95-.01,4.41-.08.69-.03,1.42-.13,2.19-.29.76-.17,1.54-.15,2.35.06.13.03.26.02.38-.03.29-.13.61-.17.95-.11.1.01.18-.02.24-.09.3-.35.61-.35.93,0,.11.12.21.11.31-.01.11-.13.23-.15.38-.06.12.08.24.13.39.15.58.07,1.13-.03,1.64-.3.13-.07.27-.09.42-.06.31.07.53-.03.65-.29.06-.13.16-.2.3-.2h1.7c.13,0,.25-.05.36-.13.56-.42,1.2-.46,1.94-.11.15.07.28.04.39-.08l.25-.3c.11-.14.25-.17.42-.11.18.06.37.06.56,0,.13-.04.23-.12.3-.23l.75-1.13c.07-.11.11-.23.12-.37.04-.61.03-1.22-.03-1.81,0-.07.02-.11.09-.11h.11s.02.01.02.02c0,0,0,0,0,.01-.05.19-.06.38-.03.59.02.14.08.16.17.05.03-.04.06-.07.1-.08Z"/>
      <path class="cls-3" d="M20.02,117.28c-.09.18-.12.36-.08.55l-2.22-.14c.68-.25,1.45-.39,2.31-.42Z"/>
      <path class="cls-1" d="M81.71,121.69l13.56.65c-4.25.23-8.48.24-12.7.05-4.34-.2-7.17-.3-8.48-.32-5.95-.08-11.89-.17-17.84-.25-4.11-.06-8.42-.04-12.93.04-2.64.05-5.32.03-8.03-.06-5.03-.16-10.01-.24-14.93-.25-.15,0-.29-.07-.42-.2,0-.04,0-.08-.01-.12.8-.13,1.59-.13,2.37,0,.01,0,.02,0,.03,0,.01,0,.02-.01.02-.03,0-.01-.02-.02-.03-.02-.22.01-.44,0-.65-.05,0,0-.01,0-.01-.01,0,0,0-.02.02-.02h0c.72-.05,1.37-.04,1.97.04.66.09,1.3.14,1.94.17,2.11.07,4.23.11,6.34.11,1.3,0,2.56.17,3.87.06.53-.05,1.07-.04,1.62,0,.54.05,1.08.07,1.63.06,1.96-.02,3.92-.04,5.87-.08,1.67-.03,3.56-.02,5.65.04,2.53.07,5.1-.09,7.56-.08,7.86.04,15.72.13,23.57.25Z"/>
    </g>
  </g>
</svg>