<?xml version="1.0" encoding="UTF-8"?>
<svg id="Capa_2" data-name="Capa 2" xmlns="http://www.w3.org/2000/svg" viewBox="0 0 251.41 139.12">
  <defs>
    <style>
      .cls-1 {
        fill: #fff;
        stroke-width: 0px;
      }
    </style>
  </defs>
  <g id="Capa_1-2" data-name="Capa 1">
    <g>
      <path class="cls-1" d="M135.21,44.18c-7.4-3.35-14.78-4.32-22.66-1.6-4.85,1.68-9.78,3.88-14.78,6.61-12.04,6.57-23.74,14.36-35.1,23.38-1.37,1.09-2.75.93-4.44.93-7.13-.04-14.23-.03-21.3.02-.7,0-.79-.23-.27-.69C61.91,50.45,88.24,26.96,115.64,2.35c3.97-3.57,9.05-2.82,12.74.51,25.6,23.18,51.57,46.54,77.9,70.07.4.36.34.54-.21.54-7.95-.01-15.96-.01-24.03,0-.78,0-1.52-.45-2.11-.91-12.27-9.65-24.58-17.82-36.95-24.53-2.47-1.34-5.06-2.62-7.78-3.85Z"/>
      <path class="cls-1" d="M57.08,35.08V7.74c0-.18.14-.32.32-.32h30.88c.18,0,.32.14.32.31,0,.09-.04.18-.11.24l-30.88,27.34c-.13.12-.33.11-.45-.02-.05-.06-.08-.14-.08-.22Z"/>
      <path class="cls-1" d="M251.41,82c0,1.65-1.34,2.99-2.99,2.99s-2.99-1.34-2.99-2.99,1.34-2.99,2.99-2.99,2.99,1.34,2.99,2.99ZM251.08,82c0-1.45-1.18-2.63-2.63-2.63h0c-1.45,0-2.63,1.18-2.63,2.63s1.18,2.63,2.63,2.63c1.45,0,2.63-1.18,2.63-2.63h0Z"/>
      <path class="cls-1" d="M251.08,82c0,1.45-1.18,2.63-2.63,2.63h0c-1.45,0-2.63-1.18-2.63-2.63s1.18-2.63,2.63-2.63c1.45,0,2.63,1.18,2.63,2.63h0ZM249.32,81.87l-.65.18c-.38.11-.42.29-.14.56l.49.46c.32.29.45.22.4-.21l-.11-.99.31-.18c.27-.15.31-.35.11-.6-.47-.59-1.02-.8-1.65-.62-.37.1-.37.18.02.24l.89.13c.34.05.48.25.41.59l-.09.44ZM247.05,82.7c-.12.15-.11.31.05.47.2.22.34.18.4-.1.15-.64.18-1.37.08-2.19-.05-.37-.14-.38-.28-.04-.16.41-.2.85-.11,1.32.04.21,0,.39-.14.54Z"/>
      <path class="cls-1" d="M186.52,89.04l19.95-.03c.33,0,.59.26.59.59v2.81c0,.28-.13.41-.41.41l-19.63-.02c-.47,0-.7.23-.7.69v3.36c.01,1.26.64,1.89,1.9,1.89h18.43c.27,0,.41.13.41.41v2.86c0,.31-.15.47-.46.47-8.03-.04-16.45-.03-25.26.03-1.99.02-5.33-.21-5.35-2.79-.05-5.8-.08-12.17-.08-19.11,0-.28.14-.41.41-.41l30.44-.02c.22,0,.33.11.33.34l-.08,3.22c0,.15-.09.23-.25.23l-20.2-.05c-.16,0-.25.08-.25.25l-.03,4.63c0,.16.07.24.24.24Z"/>
      <path class="cls-1" d="M10.37,95.49l-.02,6.37c0,.43-.22.64-.65.64l-9.12-.02c-.38,0-.57-.19-.57-.57l-.02-21.49c0-.15.07-.23.22-.23l27.58-.02c2.19,0,3.28,1.09,3.29,3.28l.02,18.59c0,.31-.15.46-.45.45l-9.48-.03c-.27,0-.49-.23-.49-.5h0v-5.34c0-1.1-.56-1.64-1.65-1.64h-8.15c-.34-.01-.51.16-.52.5ZM10.36,90.98c0,.12.1.22.22.22h9.37c.51,0,.76-.26.76-.77l-.04-4.95c-.01-1.01-.52-1.52-1.53-1.52l-8.56-.06c-.16,0-.24.08-.24.25l.02,6.85Z"/>
      <path class="cls-1" d="M65.76,91.36c.79.3,1.2.88,1.24,1.72.09,1.9.12,3.87.1,5.91-.04,2.31-1.3,3.47-3.8,3.47-9.41.02-18.36.02-26.85,0-.31,0-.47-.15-.47-.46v-21.56c0-.12.09-.22.21-.22,9.2-.07,18.27-.07,27.21,0,4.32.04,3.83,4.89,3.67,8.07-.05,1.06-.47,1.82-1.37,2.36-.45.27-.43.5.06.69ZM54.94,83.94l-8.35-.02c-.17,0-.26.09-.26.26l.04,4.6c0,.15.13.28.28.28l9.33-.06c.47,0,.71-.24.7-.71l-.02-2.63c0-.95-.78-1.72-1.73-1.72ZM46.36,93.03v5.57c0,.1.08.18.18.18h8.71c.78,0,1.4-.58,1.4-1.28v-3.35c0-.71-.63-1.28-1.4-1.28h-8.71c-.1,0-.18.08-.18.18Z"/>
      <path class="cls-1" d="M81.81,89h20.15c.22,0,.4.19.4.41v2.99c0,.28-.14.42-.41.42l-19.65-.03c-.48,0-.72.23-.71.71l.06,4.29c0,.54.45.97.98.97h19.33c.23,0,.42.19.42.42h0s.03,2.76.03,2.76c0,.37-.18.55-.54.54-8.35-.13-16.64-.12-24.89.03-2.11.04-5.64-.2-5.69-3.08-.08-5.1-.1-11.37-.05-18.81,0-.28.15-.42.42-.42h30.46c.11,0,.21.09.21.2l.05,3.26c0,.19-.09.28-.27.28l-20.3-.02c-.12,0-.18.06-.18.18l-.03,4.7c0,.14.07.21.21.21Z"/>
      <path class="cls-1" d="M132.69,95.04c-.1,0-.19.07-.19.18,0,.04.01.09.04.12l4.99,6.73c.1.13.07.32-.06.41-.05.04-.11.06-.18.06l-9.38-.05c-.35,0-.67-.17-.87-.45l-4.8-6.53c-.25-.35-.59-.52-1.02-.52h-3.6c-.34,0-.5.16-.5.49l-.02,6.65c0,.23-.12.35-.36.35l-9.66-.03c-.2,0-.36-.16-.36-.36l.02-21.45c0-.29.14-.43.43-.44,8.53-.03,17.61-.02,27.25.02,2.19,0,3.31,1.26,3.37,3.37.09,3.06.07,5.74-.03,8.04-.12,2.71-2.78,3.45-5.05,3.38ZM127.4,90.36l.03-5.44c0-.53-.42-.97-.96-.97h0l-8.85-.06c-.27,0-.49.22-.49.5l-.05,6.35c0,.28.21.51.49.52,0,0,0,0,0,0l8.85.06c.53,0,.97-.42.97-.96h0Z"/>
      <path class="cls-1" d="M151.31,83.94h-9.72c-.17,0-.3-.14-.3-.3h0s.02-3.14.02-3.14c0-.17.14-.3.3-.3h30.52c.17,0,.3.13.3.3l-.05,3.18c0,.17-.14.3-.3.3l-9.74-.02c-.17,0-.3.14-.3.3h0s-.02,17.92-.02,17.92c0,.17-.14.3-.3.3h0l-9.79.02c-.17,0-.3-.14-.3-.3h0v-17.94c0-.17-.14-.3-.31-.3Z"/>
      <path class="cls-1" d="M221.52,84.61v12.26c0,1.26.63,1.88,1.88,1.88h18.44c.31,0,.46.16.45.48l-.07,2.68c-.01.33-.18.49-.51.49-8.3.01-16.58.03-24.82.06-1.74,0-5.1.17-5.54-2.17-.19-1.05-.28-2.17-.28-3.36.02-5.66.03-11.12.03-16.36,0-.21.17-.37.37-.37h30.57c.2,0,.29.09.29.3l-.1,3.26c0,.14-.07.22-.22.22l-19.83-.04c-.45,0-.67.22-.67.67Z"/>
      <path class="cls-1" d="M249.32,81.87l.09-.44c.06-.34-.07-.54-.41-.59l-.89-.13c-.38-.06-.39-.14-.02-.24.63-.18,1.18.03,1.65.62.2.24.16.44-.11.6l-.31.18Z"/>
      <path class="cls-1" d="M247.18,82.16c-.09-.47-.05-.91.11-1.32.14-.34.23-.33.28.04.1.82.07,1.55-.08,2.19-.06.29-.2.32-.4.1-.15-.16-.17-.32-.05-.47.13-.15.17-.34.14-.54Z"/>
      <path class="cls-1" d="M249.32,81.87l.11.99c.05.43-.08.5-.4.21l-.49-.46c-.29-.27-.24-.45.14-.56l.65-.18Z"/>
      <path class="cls-1" d="M187.7,136.86c0,1.25-1.01,2.26-2.26,2.26H59.05c-1.25,0-2.26-1.01-2.26-2.26h0v-23.26c0-1.25,1.01-2.26,2.26-2.26h126.39c1.25,0,2.26,1.01,2.26,2.26h0v23.26ZM71.71,117.49c0-.31-.25-.56-.56-.56h-6.8c-.31.01-.56.26-.56.57h0l.03,15.64c0,.31.25.56.56.56h6.8c.31-.01.56-.26.56-.57h0l-.03-15.64ZM73.02,125.83c0,.28.22.52.5.53l5.39.12c.28,0,.5.24.5.52v6.22c0,.29.24.52.53.52h0l6.76.02c.29,0,.52-.23.52-.52l-.03-15.77c0-.28-.23-.51-.51-.51l-6.81-.06c-.29,0-.52.23-.52.52,0,0,0,0,0,0l.08,5.76c0,.29-.22.52-.51.53,0,0,0,0,0,0l-5.34.02c-.28,0-.51.23-.52.51l-.02,1.58ZM115.17,119.71c0-1.46-1.18-2.65-2.64-2.65h0l-18.06-.03c-1.46,0-2.65,1.18-2.65,2.64l-.02,11.38c0,1.46,1.18,2.65,2.64,2.65h0l18.06.03c1.46,0,2.65-1.18,2.65-2.64h0s.02-11.38.02-11.38ZM127.55,133.68c.14,0,.26-.11.26-.26,0,0,0,0,0,0l-.11-6.52c0-.14.11-.26.25-.26.1,0,.19.06.24.15l3.14,6.75c.04.09.13.15.23.15l7.36-.02c.14,0,.25-.12.25-.26,0-.04,0-.07-.02-.1l-7.55-16.24c-.04-.09-.14-.15-.24-.15l-11.36.1c-.14,0-.26.11-.26.26h0l.06,16.12c0,.14.11.26.26.26h0l7.49.03ZM144.01,127.17c.46-.9.68-.84.65.17l-.14,5.78c0,.31.24.57.55.57,0,0,0,0,0,0l7.17.06c.17,0,.31-.14.31-.31l.02-15.75c0-.33-.27-.59-.6-.6l-10.47-.14c-.48-.01-.93.27-1.13.72l-2.85,6.29c-.44.96-.43,2.06.02,3.02l2.58,5.43c.49,1.02.96,1.01,1.41-.02.82-1.89,1.64-3.63,2.46-5.21ZM165.27,130.17c-.16-.34-.24-.7-.25-1.09-.03-2.8-.04-5.6-.02-8.38,0-.44.36-.8.8-.81l13.76-.02c.55,0,1-.44,1.01-.99v-.78c.02-.71-.33-1.07-1.04-1.08l-22.22-.07c-.17,0-.31.14-.31.32h0c0,3.43.01,6.96.03,10.61.01,2.1.06,3.31.15,3.61.42,1.42,1.53,2.14,3.33,2.15,6.87.07,13.29.07,19.26,0,.61-.01.89-.32.82-.93l-.07-.71c-.07-.63-.6-1.11-1.24-1.12l-12.94-.05c-.46,0-.88-.27-1.08-.69ZM180.48,124.49c0-.42-.34-.76-.76-.76l-12.7-.02c-.42,0-.76.34-.76.76v1.24c0,.42.34.76.75.76l12.7.02c.42,0,.76-.34.76-.76v-1.24Z"/>
      <rect class="cls-1" x="98.06" y="121.57" width="10.9" height="7.53" rx=".65" ry=".65" transform="translate(-22.19 228.41) rotate(-89.8)"/>
    </g>
  </g>
</svg>