<?xml version="1.0" encoding="UTF-8"?>
<svg id="Capa_2" data-name="Capa 2" xmlns="http://www.w3.org/2000/svg" viewBox="0 0 418.95 150.42">
  <defs>
    <style>
      .cls-1 {
        fill: #fff;
        stroke-width: 0px;
      }
    </style>
  </defs>
  <g id="Capa_1-2" data-name="Capa 1">
    <g>
      <path class="cls-1" d="M85.54,29.44l-16.63,65.25c-.51,2.02-2.33,3.44-4.41,3.45l-9.9.03c-.44,0-.82.32-.89.75-.54,3.03-1.09,6.06-1.68,9.11-.39,2.05-1.47,3.49-3.22,4.33-3.79.22-6.62.25-8.49.09-1.43-.12-2.57-.85-3.43-2.19l-1.21-4.54-1.35-6.83c-.09-.43-.47-.75-.91-.75h-10.08c-2.01,0-3.77-1.34-4.3-3.28l-8.71-32C7.11,50.88,3.86,38.89.6,26.9c-.73-2.65-1.59-6.49,2.74-6.5,4.6-.01,9.02.02,13.25.09,1.67.03,2.71.83,3.12,2.4.46,1.78.87,3.54,1.24,5.29,4.63,22.37,9.37,44.91,14.25,67.62.08.38.42.65.81.65l16.08.07c.37,0,.69-.25.76-.61l12.64-61.46,6.64-32.14c.28-1.34,1.46-2.3,2.83-2.3L88.36,0c3.16,0,4.35,1.52,3.56,4.58l-6.38,24.86Z"/>
      <path class="cls-1" d="M145.23,5.09l-16.81,19.07c-.06.07-.14.1-.23.1l-10.07-.02c-.17,0-.3-.13-.3-.3,0-.06.02-.12.05-.17l12.88-18.99c.06-.08.15-.13.25-.13l14-.06c.17,0,.3.13.31.29,0,.08-.03.15-.08.21Z"/>
      <rect class="cls-1" x="244.95" y="5.06" width="19.42" height="19.28" rx="8.6" ry="8.6"/>
      <path class="cls-1" d="M221.29,31l12.07.02c.35,0,.53.18.53.54v12.77c0,.36-.19.54-.54.54l-12.21-.05c-.35,0-.53.18-.54.53-.26,15.28-.21,25.5.15,30.65.46,6.48,7.22,7.15,12.51,7.03.41-.01.61.18.61.59v13.64c0,.21-.1.31-.3.31-11.45.32-23.83-.67-27.36-13.68-1.02-3.74-1.35-7.87-1.38-11.79-.06-8.82-.07-17.77-.02-26.84,0-.25-.21-.46-.46-.46l-10.45.02c-.33,0-.5-.16-.5-.5v-12.83c-.01-.36.17-.54.53-.54l10.4.04c.25,0,.46-.2.46-.45l.02-9.3c0-.37.15-.66.46-.87l14.71-10.06c.18-.12.42-.08.54.1.05.07.07.15.07.23l-.05,19.59c0,.43.34.77.77.77h0Z"/>
      <rect class="cls-1" x="166.62" y="13.1" width="15.98" height="84.48" rx=".26" ry=".26"/>
      <path class="cls-1" d="M153.82,80.46c-4.08,7.26-9.65,12.44-16.71,15.53-18.11,7.92-39.83-.74-46.49-19.73-4.43-12.61-1.88-25.88,7.06-35.96,19.17-20.1,52.87-11.2,59.11,16.08,1.83,8.01.84,16.03-2.98,24.08ZM123.1,84.22c10.62-.01,19.22-9.01,19.21-20.09h0c-.01-11.08-8.63-20.06-19.25-20.05h0c-10.62.01-19.22,9.01-19.21,20.09h0c.01,11.08,8.63,20.06,19.25,20.05Z"/>
      <path class="cls-1" d="M323.67,32.86c6.98,3.18,12.48,8.79,16.48,16.83.19.37.09.64-.3.81l-13.02,5.55c-.36.15-.63.05-.8-.3-4.14-8.53-10.97-12.28-20.47-11.24-5.09.56-9.38,3.17-12.87,7.84-3.05,4.08-4.21,9.1-3.49,15.06,1.17,9.62,9.6,17,19.45,16.91,7.92-.07,13.76-3.97,17.51-11.72.19-.4.66-.57,1.07-.4l12.57,5.44c.39.17.57.63.39,1.02,0,0,0,0,0,0-3.92,8.69-10.11,14.69-18.56,18.01-8.66,3.4-19.54,3.24-28.01-.79-13.56-6.44-21.28-20.09-19.77-35.17,2.47-24.66,27.78-37.89,49.83-27.86Z"/>
      <path class="cls-1" d="M403.32,37.7l-.05-6.03c0-.4.2-.6.6-.6l14.53.08c.37,0,.55.19.55.56l-.04,65.44c0,.37-.18.55-.55.55l-14.57.02c-.39,0-.59-.2-.58-.59l.07-6.52c0-.7-.23-.8-.72-.29-10.52,11.08-27.58,11.4-39.71,2.58-10.7-7.78-15.15-20.33-13.65-33.33,1.22-10.55,5.93-18.66,14.14-24.32,11.83-8.16,29.07-7.83,39.42,2.68.38.39.57.31.56-.23ZM384.36,84.77c11.01-.07,19.87-9.3,19.8-20.63-.07-11.32-9.05-20.44-20.06-20.37h0c-11.01.07-19.87,9.3-19.8,20.63.07,11.32,9.05,20.44,20.06,20.37h0Z"/>
      <rect class="cls-1" x="246.67" y="31" width="15.74" height="66.62" rx=".29" ry=".29"/>
      <ellipse class="cls-1" cx="254.62" cy="134.83" rx="1.98" ry=".81" transform="translate(-30.92 173.23) rotate(-35.56)"/>
      <path class="cls-1" d="M201.68,140.68c0,.38.24.72.59.86,1.76.72,5.74,1.33,6.6,3.13,2.82,5.9-9.06,8.28-10.07,1.47-.06-.39.1-.6.49-.64.55-.06,1.07.03,1.57.27.27.13.45.34.56.62.92,2.46,4.83,2.63,5.43.09.13-.56-.19-1.13-.74-1.3-1.71-.55-3.35-1.07-4.92-1.55-1.11-.35-1.7-1.14-1.77-2.38-.14-2.29.91-3.64,3.14-4.06,3.2-.61,5.33.45,6.4,3.19.15.37-.03.79-.4.94-.12.05-.26.06-.39.04-2.4-.39-2.77-3.41-5.7-2-.54.26-.8.7-.79,1.31Z"/>
      <path class="cls-1" d="M238.83,147.88c1.64-.02,3.38.03,5.22.14.34.02.56.19.67.51.06.2.07.4.04.61-.09.55-.42.82-.98.83l-7.23.1c-.5,0-.75-.24-.75-.75l.04-10.94c0-.62.31-.99.92-1.11l.61-.11c.41-.08.8.19.88.59,0,.05.01.1.01.14l.07,9.5c0,.27.22.49.49.49,0,0,0,0,.01,0Z"/>
      <path class="cls-1" d="M269.01,139.14c-4.54-.74-4.75,5.57-3.15,7.86,1.17,1.67,3.98,1.91,4.99-.14.33-.65.74-1.21,1.24-1.68.44-.42.92-.48,1.43-.19.25.14.37.42.32.7-1.07,5.66-7.95,6.21-10.5,1.46-1.72-3.21-.77-8.55,3.2-9.74,3.13-.94,6.07.08,7.33,3.21.15.35.06.64-.26.86-.37.27-.77.3-1.2.1-1.4-.65-1.76-2.18-3.4-2.45Z"/>
      <path class="cls-1" d="M321.78,139.25c-5.47-.81-5.85,7.1-2.37,8.75,2.15,1.01,3.73.11,4.74-2.73.01-.03.04-.05.07-.06.57-.2,1.19-.24,1.88-.11.1.02.15.08.14.19-.39,4.06-4.27,6.18-7.88,4.49-3.32-1.56-3.67-4.71-3.24-7.94.71-5.52,9.35-6.71,11.07-1.1.15.49-.03.78-.53.86l-.64.1c-.4.07-.73-.06-.98-.38l-1.12-1.42c-.29-.37-.67-.58-1.14-.65Z"/>
      <path class="cls-1" d="M336.51,150.42c-3.39-.01-6.13-3.03-6.11-6.73h0c.02-3.7,2.78-6.69,6.17-6.67h0c3.39.01,6.13,3.03,6.11,6.73h0c-.02,3.7-2.78,6.69-6.17,6.67h0ZM336.49,148.35c2.03.02,3.7-2.03,3.73-4.58h0c.03-2.55-1.6-4.64-3.63-4.66s-3.7,2.03-3.73,4.58c-.03,2.55,1.6,4.64,3.63,4.66Z"/>
      <path class="cls-1" d="M349.89,139.87c-.46.37-.53,1.03-.16,1.49.13.16.3.28.5.35l5.55,1.84c.37.13.66.41.81.77,2.91,7.58-9.74,8.01-9.8,1.76,0-.3.15-.47.44-.51,1.13-.15,1.87.29,2.22,1.32.1.29.27.52.52.7,1.6,1.17,3.08,1.11,4.44-.18.5-.48.52-1.27.04-1.77-.14-.15-.32-.26-.51-.32l-5.54-1.83c-.41-.14-.69-.42-.82-.83-.94-2.87.02-4.64,2.86-5.33,2.95-.7,5.08.23,6.39,2.8.22.42.05.94-.38,1.16-.12.06-.24.09-.37.09-.97.01-1.73-.44-2.28-1.37-.24-.39-.62-.66-1.07-.75-1.12-.22-2.07-.02-2.84.6Z"/>
      <path class="cls-1" d="M88.17,148.65c-.02.25-.05.46-.1.65-.06.22-.19.38-.38.49-.27.15-.55.19-.85.14-.41-.07-.62-.31-.62-.72l-.03-7.03c0-1.15-.22-1.19-.65-.12-.86,2.12-1.69,4.45-2.47,6.98-.13.4-.44.71-.84.82-.87.23-1.44-.04-1.72-.82-.86-2.41-1.65-4.65-2.38-6.72-.51-1.43-.75-1.39-.74.13l.05,6.51c0,.5-.39.91-.88.94l-.53.04c-.5.03-.76-.2-.78-.71l-.14-4.74.07-6.61c0-.45.24-.67.69-.66l2.03.03c.41,0,.68.19.81.58l2.77,8.16c.23.69.46.69.69,0l2.64-8.11c.13-.41.41-.61.84-.62l1.91-.02c.43,0,.65.21.65.64l-.05,10.78Z"/>
      <path class="cls-1" d="M94.94,149.44c-.75.56-1.56.62-2.41.19l4.37-11.55c.3-.8,1.2-1.2,2-.9.12.05.24.11.34.18.43.29.74.7.94,1.22,1.46,3.83,2.82,7.43,4.07,10.79.13.35.01.53-.36.54l-1.29.05c-.47.01-.77-.2-.92-.64l-.75-2.28c-.1-.29-.31-.44-.62-.45l-3.49-.06c-.33,0-.64.16-.83.43-.53.77-.88,1.59-1.05,2.48ZM96.84,144.49c-.05.2.07.4.27.45.03,0,.05.01.08.01h2.35c.2,0,.37-.17.36-.37,0-.03,0-.06-.01-.09l-1.18-4.2c-.05-.2-.25-.32-.45-.27-.14.03-.24.14-.27.28l-1.15,4.2Z"/>
      <path class="cls-1" d="M109.34,139.23h-3.13c-.22,0-.39-.17-.41-.38l-.09-1.08c-.02-.23.15-.42.38-.44.01,0,.02,0,.03,0l9.58-.04c.23,0,.41.18.41.41,0,.02,0,.04,0,.06l-.15,1.13c-.03.2-.21.35-.41.35h-3.09c-.23,0-.41.19-.41.42h0v9.83c0,.21-.16.38-.37.41l-1.49.17c-.22.03-.43-.13-.46-.36,0-.02,0-.04,0-.05l.02-10.01c0-.23-.18-.41-.41-.41h0Z"/>
      <path class="cls-1" d="M124.9,137.2l4.4.25c.53,1,.34,1.57-.57,1.71-.87.13-2.65.17-5.34.13-.34,0-.62.26-.63.6,0,.01,0,.02,0,.03l.04,1.83c.01.28.24.51.52.51l5.18.13c.35,0,.53.19.54.54v.56c.02.5-.22.75-.73.76l-5.04.08c-.3,0-.45.16-.45.46v2.69c0,.33.16.49.48.49l5.51-.04c.55,0,.81.26.78.81v.43c-.03.45-.26.67-.71.67h-7.83c-.41,0-.62-.2-.62-.62l.03-11.27c0-.43.23-.66.66-.67l3.79-.09Z"/>
      <path class="cls-1" d="M134.58,137.24c2.66.08,6.42-.41,8.81.72.34.16.58.41.72.75.61,1.49.52,3-.24,4.53-.16.31-.2.64-.12.98l1.12,4.76c-.19,1.14-.89,1.39-2.1.74-.28-.15-.43-.38-.45-.7l-.17-2.97c-.04-.67-.39-1.02-1.06-1.03l-3.78-.11c-.41-.01-.63.18-.64.59l-.12,3.87c-.01.39-.22.6-.61.61l-.66.02c-.49.02-.74-.22-.74-.72l.05-12.03ZM142.2,140.32c0-.57-.46-1.03-1.02-1.04h0s-3.58-.02-3.58-.02c-.57,0-1.03.46-1.04,1.02v1.68c-.01.57.45,1.03,1.01,1.04h0s3.58.02,3.58.02c.57,0,1.03-.46,1.04-1.02v-1.68Z"/>
      <rect class="cls-1" x="149.73" y="137.25" width="2.34" height="12.76" rx=".66" ry=".66" transform="translate(-.16 .17) rotate(-.06)"/>
      <path class="cls-1" d="M163.71,146.67l-3.11-.09c-.37-.01-.71.21-.85.55l-.82,1.97c-.27.65-.77.96-1.48.92l-.43-.02c-.32-.02-.56-.29-.54-.62,0-.06.02-.12.04-.17l4.22-11.09c.13-.33.35-.56.68-.7.53-.22,1.07-.26,1.64-.13.36.09.61.3.74.65l4.33,11.23c.19.51.02.77-.52.8l-.7.04c-.52.03-.9-.19-1.15-.66l-1.12-2.11c-.19-.37-.5-.56-.92-.57ZM162.06,140.58l-1.37,3.71c-.15.42,0,.63.44.64l2.17.04c.49,0,.65-.22.5-.68l-1.23-3.71c-.17-.49-.34-.49-.51,0Z"/>
      <path class="cls-1" d="M175.29,147.97l5.54-.07c.23,0,.42.19.43.42l.04,1.2c0,.24-.18.43-.42.44,0,0,0,0-.01,0h-7.99c-.24,0-.43-.2-.43-.44h0l.09-11.86c0-.24.19-.43.43-.43,0,0,0,0,.01,0l1.43.03c.23,0,.42.2.42.43l.03,9.84c0,.24.19.43.43.43h0Z"/>
      <path class="cls-1" d="M188.31,148l6.02-.12c.21,0,.39.15.42.36l.18,1.23c.03.23-.13.44-.36.48-.02,0-.04,0-.05,0l-8.6.02c-.23,0-.42-.19-.42-.42v-11.85c-.01-.23.18-.42.41-.42h0s8.46.03,8.46.03c.23,0,.42.19.42.42,0,0,0,.01,0,.02l-.07,1.12c-.02.22-.19.39-.41.39l-6.02.08c-.22,0-.4.18-.41.4l-.07,2.16c0,.23.18.42.41.43,0,0,0,0,.01,0h5.68c.23,0,.41.19.42.41l.03,1.23c0,.23-.18.42-.41.43,0,0,0,0-.01,0h-5.67c-.23,0-.42.18-.42.42,0,0,0,0,0,.01l.04,2.76c0,.23.2.42.43.41h0Z"/>
      <path class="cls-1" d="M224.74,147.97l6.01-.05c.23,0,.42.18.43.41,0,0,0,.01,0,.02v1.25c-.01.23-.2.42-.43.42l-8.29-.02c-.23,0-.42-.19-.42-.42h0s0-11.83,0-11.83c0-.23.19-.42.42-.42h8.21c.23,0,.41.19.42.42l.04,1.09c.01.23-.17.43-.4.44,0,0-.01,0-.02,0l-6.01.08c-.23,0-.41.19-.41.42v2.08c-.01.23.17.41.4.42l5.53.12c.23,0,.42.2.41.43h0s-.04,1.18-.04,1.18c-.01.22-.19.39-.41.4l-5.44.07c-.22,0-.4.19-.41.41l-.02,2.65c0,.23.18.42.41.43,0,0,.01,0,.02,0Z"/>
      <path class="cls-1" d="M251.55,144.83l-.02,2.77c0,.23.19.42.42.42,0,0,0,0,.01,0l5.95-.07c.23,0,.42.18.43.41,0,.01,0,.02,0,.03l-.07,1.2c-.01.22-.2.4-.42.4l-8.37-.03c-.23,0-.42-.19-.42-.42l.07-11.8c0-.23.19-.42.42-.42l8.09.05c.21,0,.39.17.41.38l.1,1.1c.02.23-.15.44-.38.46-.01,0-.03,0-.04,0l-6.01.02c-.23,0-.42.2-.41.43,0,0,0,0,0,.01l.13,2.19c.02.22.19.39.41.39l5.51.02c.23,0,.41.18.42.41l.04,1.13c.01.23-.17.43-.4.44,0,0-.01,0-.02,0l-5.43.06c-.23,0-.41.19-.41.42Z"/>
      <path class="cls-1" d="M280.71,139.37l-2.46-.03c-.47,0-.71-.25-.7-.72,0-.12,0-.24.02-.35.05-.61.37-.91.98-.91h8.56c.71,0,1.02.35.93,1.05l-.05.38c-.04.32-.3.56-.62.57l-2.93.09c-.41.01-.61.22-.61.63v9.02c.01.61-.3.93-.93.98-.04,0-.2,0-.47.03-.59.05-.88-.22-.88-.81l.02-9.05c0-.57-.29-.86-.86-.87Z"/>
      <path class="cls-1" d="M294.78,145.58v3.52c0,.54-.44.98-.98.99h-.5c-.56.01-1.01-.43-1.02-.99,0,0,0,0,0-.01l.02-11.03c0-.47.24-.71.71-.71,1.87.01,3.79.02,5.75.02,3.5.01,4.93,3.39,2.75,6.09-.19.24-.22.5-.07.77.89,1.62,1.24,3.45,1.04,5.49-.03.27-.18.4-.45.37l-1.16-.11c-.48-.05-.71-.31-.69-.8.07-1.25-.12-2.41-.56-3.46-.15-.36-.5-.6-.89-.61l-3.4-.06c-.36,0-.54.17-.54.53ZM294.76,139.93l.02,2.68c0,.28.23.51.51.51h2.92c1.03-.01,1.87-.8,1.86-1.76v-.22c0-.96-.85-1.74-1.88-1.73,0,0,0,0,0,0h-2.92c-.28,0-.51.24-.51.52h0Z"/>
      <rect class="cls-1" x="307.63" y="137.35" width="2.26" height="12.72" rx=".74" ry=".74"/>
    </g>
  </g>
</svg>