<?xml version="1.0" encoding="UTF-8"?>
<svg id="Capa_2" data-name="Capa 2" xmlns="http://www.w3.org/2000/svg" viewBox="0 0 356.15 93.46">
  <defs>
    <style>
      .cls-1 {
        fill: #fff;
        stroke-width: 0px;
      }
    </style>
  </defs>
  <g id="Capa_1-2" data-name="Capa 1">
    <g>
      <path class="cls-1" d="M277.6,68.32c4.37.29,8.12-.66,11.26-2.84,4.94-3.44,7.66-9.46,8.44-15.26,0-.05.04-.08.09-.08h2.42c.06,0,.1.03.1.1.06,9.94-5.95,17.91-15.56,20.38-11.29,2.9-22.41-4.14-24.95-15.42-.35-1.54-.51-3.63-.51-6.27.04-15.8.05-32.03.01-48.69,0-.15.07-.22.22-.22h17.97c.15,0,.23.08.23.23v67.78c0,.18.09.28.28.29Z"/>
      <path class="cls-1" d="M18.15,71.25c-8.9-1.05-15.67-7.44-17.7-16.07C.15,53.88,0,52.04,0,49.66.03,32.94.03,16.46,0,.23,0,.16.07.1.14.1h18.05c.13,0,.19.06.19.19v70.76c0,.16-.08.23-.23.21Z"/>
      <path class="cls-1" d="M106.48,3.25v67.8c0,.16-.08.23-.24.23h-18.04c-.07,0-.13-.06-.13-.13.02-16.01.01-32.49-.01-49.44,0-2.33.18-4.27.54-5.82,1.74-7.38,7.4-13.32,14.68-15.24,6.94-1.84,14.62.31,19.63,5.18,4.18,4.06,6.23,9.14,6.15,15.24,0,.05-.03.08-.08.08h-2.41c-.07,0-.11-.03-.12-.1-1.39-10.42-8.35-18.95-19.71-18.07-.17.01-.26.1-.26.28Z"/>
      <path class="cls-1" d="M356.15,20.56c0,4.98-4.04,9.01-9.01,9.01s-9.01-4.04-9.01-9.01,4.04-9.01,9.01-9.01c4.98,0,9.01,4.04,9.01,9.01ZM355.39,20.56c0-4.56-3.7-8.25-8.25-8.25h0c-4.56,0-8.25,3.7-8.25,8.25h0c0,4.56,3.7,8.25,8.25,8.25h0c4.56,0,8.25-3.7,8.25-8.25h0Z"/>
      <path class="cls-1" d="M349.21,21.51c.44.26.85.61,1.14,1.02.81,1.14,1.59,2.34,2.33,3.61,0,.01,0,.03,0,.04,0,0-.01,0-.02,0h-2.47c-.09.02-.16-.02-.21-.1-.91-1.46-1.75-2.7-2.5-3.7-.55-.73-1.32-1-2.33-.81-.12.02-.18.09-.18.21v4.3c0,.07-.02.1-.09.1h-2.05s-.07-.03-.07-.07v-10.83c0-.12.1-.22.22-.22,0,0,0,0,0,0,1.41.02,2.9.03,4.48,0,2.45-.03,4.52.59,4.36,3.4-.09,1.47-.94,2.39-2.56,2.75-.25.06-.26.15-.05.28ZM344.97,17.09v2.55c0,.09.06.15.15.15h2.94c.82.01,1.48-.58,1.49-1.32,0,0,0,0,0,0v-.18c0-.74-.66-1.34-1.48-1.34h-2.94c-.09-.01-.15.06-.15.14Z"/>
      <rect class="cls-1" x="109.65" y="30.01" width="10.7" height="3.19" rx=".1" ry=".1"/>
      <path class="cls-1" d="M145.88,71.21c-10.24-1.26-17.49-9.76-17.86-19.87-.01-.31-.13-.53-.13-.85,0-6.96,0-13.72,0-20.28,0-.14.07-.21.21-.21h17.63c.17,0,.25.08.25.25v40.88c0,.06-.03.09-.09.08Z"/>
      <path class="cls-1" d="M150.76,30.02h17.83c.07-.01.13.05.13.12v40.79c0,.07-.06.13-.13.13h-18.31c-.07,0-.13-.06-.13-.13h0V30.88s0-.05.02-.07l.48-.73s.06-.06.11-.06Z"/>
      <rect class="cls-1" x="280.5" y="30.01" width="10.69" height="3.19" rx=".09" ry=".09"/>
      <path class="cls-1" d="M244.4,31.66c6.35,3.01,10.25,7.96,11.71,14.85.26,1.21.27,2.49.4,3.74.05.5.08,1,.08,1.5,0,6.16,0,12.6,0,19.29,0,.13-.07.2-.2.2h-17.79c-.06,0-.08-.03-.08-.08V30.25c0-.13.07-.19.2-.18,1.98.2,3.88.73,5.69,1.59Z"/>
      <path class="cls-1" d="M234.25,70.16c0,.36-.19.61-.38.91-.07.11-.17.16-.31.16h-17.73c-.06.01-.09-.02-.09-.08V30.33c0-.09.04-.14.13-.14h18.35c.05,0,.09.04.09.09.04,12.06.02,24.06-.05,36.01,0,1.28-.02,2.57-.03,3.87Z"/>
      <path class="cls-1" d="M73.92,32.52c5.8,2.86,9.51,7.44,11.13,13.73.3,1.17.45,2.58.44,4.24-.04,6.59-.05,13.37-.02,20.35,0,.14-.07.21-.21.21h-18.25c-.07,0-.1-.03-.1-.1V30.74c0-.06.03-.09.09-.08,2.45.18,4.75.8,6.91,1.86Z"/>
      <path class="cls-1" d="M48.13,39.77c3.4-5.07,8.2-8.1,14.4-9.08.09-.01.17.04.18.13,0,0,0,.02,0,.02v40.22c0,.09-.07.16-.16.16,0,0-.02,0-.03,0-6.02-.95-10.73-3.84-14.13-8.66-4.72-6.69-4.84-15.98-.28-22.8Z"/>
      <path class="cls-1" d="M176.24,39.07c3.5-4.78,8.25-7.58,14.26-8.41.11-.01.21.06.23.17,0,0,0,.02,0,.02v40.19c0,.12-.06.18-.17.17-.53,0-1.05-.06-1.56-.18-7.21-1.64-12.22-5.73-15.02-12.27-2.72-6.35-1.88-14.04,2.26-19.71Z"/>
      <path class="cls-1" d="M195.14,30.68c3.06.35,6.29,1.45,8.85,3.19,5.54,3.77,8.62,9.04,9.26,15.83.03.28-.1.42-.38.42h-17.75c-.13,0-.19-.06-.19-.19v-19.04c0-.15.08-.22.23-.2Z"/>
      <path class="cls-1" d="M306.23,39.21c3.49-4.85,8.27-7.7,14.34-8.55.17-.02.25.05.25.22v40.17c0,.15-.08.22-.23.2-6.34-.75-11.81-4.28-15.15-9.73-4.17-6.81-3.9-15.81.78-22.31Z"/>
      <path class="cls-1" d="M325.22,30.68c10.03,1.1,17.44,9.29,18.09,19.2,0,.16-.06.24-.22.24h-17.86c-.15,0-.23-.08-.23-.23v-19.02c0-.15.07-.21.22-.19Z"/>
      <path class="cls-1" d="M39.28,59.04c-2.93,6.43-7.91,10.43-14.93,11.99-.51.12-1.04.18-1.57.2-.12,0-.18-.05-.18-.18v-20.61c0-.14.07-.21.21-.21h17.95c.14,0,.21.07.21.21.06,3.14-.5,6.01-1.68,8.59Z"/>
      <path class="cls-1" d="M212.13,57.8c-3.17,7.74-8.82,12.24-16.94,13.48-.18.03-.27-.05-.27-.24v-3.34c0-.14.06-.23.2-.27,5.57-1.6,10.63-4.73,13.35-9.84.14-.27.36-.39.67-.37.94.06,1.8.06,2.56-.01.47-.04.61.15.43.59Z"/>
      <path class="cls-1" d="M341.31,59.87c-3.34,6.47-8.67,10.28-15.97,11.41-.22.04-.33-.06-.33-.29v-3.33c0-.12.06-.19.17-.23,5.73-1.6,10.74-4.78,13.55-10.1.02-.05.07-.08.13-.08h3.39c.06,0,.09.02.07.09-.25.87-.58,1.71-1,2.52Z"/>
      <path class="cls-1" d="M218.78,87.69c-.02,3.16-2.59,5.7-5.74,5.69h-1.03c-3.16-.02-5.7-2.59-5.69-5.75v-2.45c.03-3.16,2.6-5.7,5.76-5.69h1.03c3.16.02,5.7,2.59,5.69,5.75v2.45ZM209.05,87.83c.51,4.26,5.88,4.83,6.94.59.69-2.76.05-7.56-4.13-6.79-2.92.54-3.1,3.88-2.82,6.2Z"/>
      <path class="cls-1" d="M317.02,92.63c-3.02-1.64-3.53-5.58-2.76-8.68.35-1.41,1.09-2.55,2.24-3.41,1.4-1.05,3.44-1.31,5.16-.99,4.04.76,5.39,4.63,4.87,8.28-.48,3.37-2.37,5.23-5.68,5.58-1.32.14-2.6-.12-3.83-.79ZM323.24,89.57c1.1-1.77.99-5.58-.55-7.09-1.05-1.03-2.83-1.21-4.07-.5-2.17,1.23-2.23,4.43-1.72,6.5.79,3.17,4.57,3.95,6.34,1.1Z"/>
      <path class="cls-1" d="M328.04,89.15l2.29-.32c.08-.01.12.02.13.1.23,1.41,1.02,2.2,2.36,2.37,1.28.16,2.96-.27,3.08-1.76.05-.72-.29-1.2-1.04-1.45-1.19-.39-2.33-.76-3.43-1.12-2.13-.69-3.12-2.05-2.97-4.07.24-3.37,4.25-3.9,6.89-3.15,1.64.47,2.58,1.6,2.79,3.4.02.16-.05.23-.21.23h-2.26c-.09,0-.17-.07-.18-.15-.14-.86-.62-1.38-1.42-1.56-1.03-.23-3.17-.2-3.18,1.31,0,.14.04.26.12.36.21.28.46.48.74.61,2.3,1.01,5.91,1.04,6.63,4.06.62,2.58-.84,4.79-3.46,5.28-1.4.26-2.74.2-4-.21-1.68-.53-2.68-1.8-3-3.79-.01-.07.03-.13.1-.14,0,0,0,0,0,0Z"/>
      <path class="cls-1" d="M186.41,90.21h-5.43c-.05,0-.1.04-.12.09l-.88,2.7c-.02.05-.06.09-.12.09h-2.49c-.07,0-.13-.06-.13-.13,0-.01,0-.03,0-.04l4.61-13.06s.07-.08.12-.08h3.4c.05,0,.1.03.12.08l4.75,13.05c.02.07,0,.14-.08.16-.01,0-.03,0-.04,0h-2.55c-.05,0-.1-.03-.12-.08l-.94-2.7c-.02-.05-.06-.09-.12-.09ZM181.66,87.89c-.02.07.01.14.08.16.01,0,.03,0,.04,0h3.79c.07,0,.13-.06.13-.13,0-.01,0-.03,0-.04l-1.91-5.65c-.02-.07-.1-.1-.16-.08-.04.01-.06.04-.08.08l-1.89,5.66Z"/>
      <path class="cls-1" d="M197.94,88.63c.06,0,.1-.04.12-.1.73-2.78,1.47-5.63,2.23-8.55.04-.14.12-.21.27-.21h3.54c.14,0,.21.07.21.22v13.01c0,.05-.03.08-.08.08h-2.26c-.08,0-.12-.03-.12-.11l-.17-9.32c-.02-.77-.11-.78-.29-.03l-2.18,9.29c-.03.11-.1.17-.21.17h-2.09c-.15,0-.24-.07-.27-.21l-2.1-9.03c-.21-.9-.33-.89-.35.04l-.18,9.11c0,.06-.03.09-.09.09h-2.28c-.05,0-.08-.03-.08-.08v-13.01c0-.14.07-.21.22-.21h3.55c.13,0,.21.06.24.19l2.27,8.6s.05.07.09.06Z"/>
      <path class="cls-1" d="M229.66,86.24c.92.33,1.55.89,1.87,1.67.74,1.77-.08,4.38-2.18,4.88-.93.22-1.97.32-3.14.31-1.8-.02-3.49-.02-5.06,0-.17,0-.26-.08-.26-.26v-12.81c0-.16.08-.23.24-.24,2.2-.03,4.31-.02,6.34.03,1.38.03,2.71.57,3.33,1.84.8,1.65.41,3.09-1.19,4.31-.15.12-.14.21.04.27ZM223.53,82.04v3.05c0,.05.05.09.1.09,0,0,0,0,0,0h3.48c.88-.01,1.59-.71,1.58-1.55v-.17c0-.85-.72-1.53-1.6-1.53h-3.48c-.05.01-.09.06-.09.11h0ZM223.52,87.47l-.02,3.3c0,.08.06.15.14.15,0,0,0,0,0,0l3.53.03c1.11,0,2.01-.77,2.01-1.74v-.08c0-.97-.88-1.77-1.99-1.77,0,0,0,0,0,0l-3.53-.03c-.08,0-.15.06-.15.14h0Z"/>
      <path class="cls-1" d="M236.85,90.93h6.36c.06,0,.11.05.11.11v1.94c0,.06-.06.11-.12.11h-9.01c-.06,0-.11-.05-.11-.11v-13.09c0-.06.05-.11.11-.11h2.44c.06,0,.11.05.11.11v10.93c0,.06.04.11.1.11Z"/>
      <path class="cls-1" d="M247.5,90.3l-.88,2.7c-.02.05-.06.09-.12.09h-2.49c-.07,0-.13-.06-.13-.13,0-.01,0-.03,0-.04l4.61-13.05s.07-.08.12-.08h3.4c.05,0,.1.03.12.08l4.75,13.05c.02.07,0,.14-.08.16-.01,0-.03,0-.04,0h-2.55c-.05,0-.1-.03-.12-.08l-.95-2.71s-.07-.08-.12-.08h-5.42c-.05,0-.1.04-.12.09ZM248.27,87.91c-.02.06.01.12.07.14.01,0,.02,0,.03,0h3.84c.06,0,.11-.06.11-.12,0-.01,0-.02,0-.03l-1.93-5.72c-.02-.06-.08-.09-.14-.07-.03.01-.06.04-.07.07l-1.91,5.73Z"/>
      <path class="cls-1" d="M268.08,83.32l-2.21,9.56c-.03.14-.12.21-.27.21h-2.04c-.16,0-.26-.08-.29-.24-.63-2.86-1.32-5.77-2.08-8.75-.06-.22-.11-.45-.18-.67-.13-.47-.2-.47-.2.03l-.12,9.55c0,.06-.03.08-.08.08h-2.33c-.06,0-.09-.03-.09-.09v-12.95c0-.15.12-.27.27-.27h3.51c.13,0,.21.06.25.18l2.2,8.35c.11.43.22.43.33,0l2.19-8.42c.02-.07.08-.11.15-.12h3.61c.14,0,.21.06.21.2v13.03s-.02.07-.06.07h-2.24c-.07,0-.1-.03-.1-.1-.06-2.79-.11-5.77-.16-8.94,0-.26-.07-.51-.19-.74-.03-.07-.06-.06-.08.01Z"/>
      <rect class="cls-1" x="273.29" y="79.78" width="2.65" height="13.31" rx=".1" ry=".1"/>
      <path class="cls-1" d="M280.98,82.12v2.52c0,.1.08.18.18.18h6.39c.1,0,.18.08.18.17,0,0,0,0,0,0l-.05,1.81c0,.09-.08.17-.18.17h-6.34c-.1,0-.18.08-.18.18v3.6c0,.1.08.18.18.18h7.06c.1,0,.18.08.18.18v1.81c.01.1-.06.18-.16.18h-9.6c-.1,0-.18-.08-.18-.18v-12.96c0-.1.08-.18.18-.18h9.31c.1,0,.18.09.18.18h0s-.02,1.8-.02,1.8c0,.1-.08.18-.18.18h-6.76c-.1,0-.18.08-.18.18Z"/>
      <path class="cls-1" d="M298.71,79.78h2.16c.07,0,.12.06.12.13h0v13.06c0,.07-.05.12-.12.12h-2.43s-.08-.02-.1-.06l-5.04-8.32c-.03-.06-.11-.07-.16-.04-.03.02-.06.06-.06.1v8.19c0,.07-.05.12-.12.12h-2.28c-.07,0-.12-.05-.12-.11h0s.01-13.1.01-13.1c0-.07.05-.12.12-.12l2.4.03s.08.02.1.06l5.19,8.6c.03.06.11.07.16.04.03-.02.06-.06.06-.1v-8.49c0-.07.05-.12.12-.12Z"/>
      <path class="cls-1" d="M306.83,81.94h-3.6c-.08,0-.14-.07-.14-.15v-1.87c0-.08.06-.14.14-.14h10.09c.08,0,.14.06.14.14v1.88c0,.08-.07.14-.15.14h-3.55c-.08,0-.14.06-.14.13h0v10.87c0,.08-.06.14-.14.14h-2.38c-.08,0-.14-.06-.14-.14h0s0-10.87,0-10.87c0-.08-.06-.14-.14-.14h0Z"/>
    </g>
  </g>
</svg>