<?xml version="1.0" encoding="UTF-8"?>
<svg id="Capa_2" data-name="Capa 2" xmlns="http://www.w3.org/2000/svg" viewBox="0 0 532.76 170.9">
  <defs>
    <style>
      .cls-1 {
        fill: #fff;
        stroke-width: 0px;
      }
    </style>
  </defs>
  <g id="Capa_1-2" data-name="Capa 1">
    <g>
      <g>
        <path class="cls-1" d="M469.8,42.8c-5.91-.57-11.72-.52-17.44.17" vector-effect="non-scaling-stroke"/>
        <path class="cls-1" d="M480.29,53.35c-5.7-.24-10.73-.12-15.09.37-3.55.39-7.1,1.49-10.64,3.3" vector-effect="non-scaling-stroke"/>
        <path class="cls-1" d="M464.43,67.58l.9,1.44c.12.2.29.25.51.17,8.32-3.35,17.36-4.38,27.11-3.08" vector-effect="non-scaling-stroke"/>
        <path class="cls-1" d="M476.78,80.45l.86,1.22c.13.19.31.24.53.15,7.6-3.01,15.49-4.02,23.66-3.02,1.11.13,2.22.1,3.35-.11" vector-effect="non-scaling-stroke"/>
        <path class="cls-1" d="M489.31,93.16c-.11.51.04.88.45,1.13.26.15.57.18.85.06,6.64-2.68,13.5-3.78,20.59-3.32,2.67.18,4.64.18,5.92.02" vector-effect="non-scaling-stroke"/>
        <path class="cls-1" d="M501.56,105.83l.13.87c.05.35.37.58.72.53.05,0,.1-.02.15-.04,7.57-3.08,15.61-4.13,24.1-3.15" vector-effect="non-scaling-stroke"/>
        <path class="cls-1" d="M513.76,118.44c0,.67.17,1.08.5,1.24.21.1.56.05,1.06-.16,5.09-2.15,10.43-3.26,16-3.33" vector-effect="non-scaling-stroke"/>
        <path class="cls-1" d="M526.06,131.09l.72,1.17c.13.21.31.28.55.2l5.29-1.8" vector-effect="non-scaling-stroke"/>
      </g>
      <path class="cls-1" d="M500.47,26.46c-8.2-4.82-20.55-3.14-22,8.15-.07.54-.3.61-.68.23-6.04-6.05-12.08-12.07-18.11-18.07-1.42-1.4-.14-2.63.9-3.98,3.75-4.89,8.53-8.21,14.35-9.97,13.36-4.03,31.07-4.68,42.59,4.39,6.3,4.96,10.15,11.34,11.56,19.14,1.07,5.97.48,13.58.54,20.1,0,.93-.46,1.39-1.38,1.39h-21.23c-.97,0-1.48-.48-1.54-1.46-.19-3.61-.37-7.17-.53-10.67-.17-3.57-1.29-7.38-4.46-9.25Z"/>
      <path class="cls-1" d="M453.56,27.43c.02-.05.07-.09.12-.07.02,0,.03.01.04.03l9.47,9.47c.06.06.06.17,0,.22-.02.02-.05.04-.09.04l-10.3,1.17c-.23.03-.44-.14-.47-.38,0-.01,0-.02,0-.03-.14-3.45.27-6.93,1.22-10.45Z"/>
      <path class="cls-1" d="M469.8,42.8c-5.91-.57-11.72-.52-17.44.17-.31-1.42.15-2.25,1.35-2.47,3.95-.74,8.17-.97,12.68-.67,1.15.08,2.56,2.08,3.4,2.98Z"/>
      <path class="cls-1" d="M469.8,42.8l5.09,4.58c.15.14.16.37.03.52,0,.01-.02.02-.03.03-.23.2-.5.31-.81.33-7.11.36-13.95,1.34-19.84,5.14-.24.15-.56.08-.71-.16-.03-.05-.06-.11-.07-.17-.71-3.29-1.08-6.66-1.1-10.11,5.72-.69,11.53-.74,17.44-.17Z"/>
      <path class="cls-1" d="M480.29,53.35c-5.7-.24-10.73-.12-15.09.37-3.55.39-7.1,1.49-10.64,3.3-.29-.31-.45-.72-.47-1.24,0-.22.08-.44.24-.6.57-.56,1.2-1,1.9-1.31,6.42-2.88,12.3-3.12,19.21-3.5,1.81-.1,3.42.89,4.86,2.99Z"/>
      <path class="cls-1" d="M480.29,53.35l6.77,6.9c.06.06.06.16,0,.23-.03.03-.06.04-.1.04-2.37.2-4.77.44-7.2.71-2.84.32-5.08.7-6.73,1.14-3.48.92-6.35,2.66-8.61,5.22l.9,1.44c.12.2.29.25.51.17,8.32-3.35,17.36-4.38,27.11-3.08l6.72,6.06c.26.24.28.64.04.9-.12.13-.28.2-.46.21-5.46.08-10.75.89-15.85,2.42-3.3.99-5.51,2.57-6.63,4.74l.86,1.22c.13.19.31.24.53.15,7.6-3.01,15.49-4.02,23.66-3.02,1.11.13,2.22.1,3.35-.11l6.45,6.77c.24.25.19.38-.15.4-7.73.47-16.75,1.25-22.27,6.06-.39.34-.35.76.11,1.25-.11.51.04.88.45,1.13.26.15.57.18.85.06,6.64-2.68,13.5-3.78,20.59-3.32,2.67.18,4.64.18,5.92.02l5.65,7.06c.22.27.16.42-.19.44-6.96.46-15.34,1.23-21,5.91-.47.39-.47.85-.02,1.37l.13.87c.05.35.37.58.72.53.05,0,.1-.02.15-.04,7.57-3.08,15.61-4.13,24.1-3.15l3.24,7.13c.08.17,0,.37-.17.45-.04.02-.08.03-.12.03-5.5.38-10.64,2.01-15.43,4.87-.69.41-.83,1.05-.42,1.9,0,.67.17,1.08.5,1.24.21.1.56.05,1.06-.16,5.09-2.15,10.43-3.26,16-3.33l1.31,9.13c.09.61-.3,1.19-.9,1.35-2.84.75-4.73,2.22-5.66,4.42l.72,1.17c.13.21.31.28.55.2l5.29-1.8c-.09,3.92-.58,7.65-1.47,11.17-.07.28-.36.46-.64.39-.09-.02-.18-.07-.25-.14-19.07-19.15-38.47-38.68-58.19-58.58-7.61-7.68-14.59-16.41-17.52-26.48,3.54-1.81,7.09-2.91,10.64-3.3,4.37-.49,9.4-.61,15.09-.37Z"/>
      <path class="cls-1" d="M32.27,101.78c1.84-2.39,1.35-5.79-1.4-7.27-2.26-1.22-4.71-2.14-7.33-2.78-5.69-1.38-10.26-2.92-13.71-4.64-4.99-2.47-7.78-7.25-7.97-12.94-.24-7.52,2.81-13.9,9.95-16.86,11.04-4.56,22.28-2.37,31.78,4.47.67.48.77,1.06.31,1.74l-5.45,7.97c-.35.51-1.04.64-1.56.31-5.47-3.57-11.41-6.21-17.93-4.78-1.25.27-2.26.91-3.05,1.92-2.59,3.32-.56,6.62,2.83,7.94,2.87,1.11,6.12,2.11,9.75,2.99,4.68,1.13,10.88,3.47,14.22,7.18,2.63,2.93,3.83,6.71,3.6,11.34-.6,12-10.21,17.61-21.32,17.59-9.19,0-17.33-2.84-24.42-8.5-.66-.52-.77-1.48-.25-2.14.03-.03.06-.07.09-.1,2.05-2.15,4.01-4.5,5.88-7.03.42-.57,1.23-.7,1.8-.27.01,0,.02.02.03.02,5.67,4.4,12.12,7.2,19.32,6.2,1.72-.24,3.74-.95,4.82-2.37Z"/>
      <path class="cls-1" d="M71.74,92.66c-2.7,6.78-5.4,13.52-8.09,20.21-.64,1.58-1.99,2.5-3.67,2.35-3.06-.27-6.1-.27-9.14-.01-.5.04-.94-.33-.99-.83,0-.05,0-.1,0-.15.03-.36.12-.71.26-1.06,8.01-18.68,16-37.46,23.96-56.36.37-.86,1.21-1.42,2.15-1.42h9.27c.78,0,1.49.47,1.8,1.19l24.39,57.47c.17.39-.01.84-.41,1.01-.1.04-.2.06-.31.06h-11.34c-.74,0-1.4-.45-1.67-1.13l-4.32-10.74c-.32-.81-1.11-1.35-1.99-1.34l-11.2.03c-.9,0-1.75-.42-2.29-1.15l-5.97-8.18c-.08-.12-.24-.15-.36-.06-.04.03-.08.07-.09.12ZM72.58,89.79c-.21.51-.04.76.51.76h14.61c.23,0,.35-.1.37-.33.08-.92-.07-1.83-.45-2.73-2.16-5.06-4.18-9.96-6.05-14.7-.09-.23-.1-.46-.04-.7.06-.25-.03-.38-.29-.38h-1.35c-.24,0-.34.12-.3.35.06.32.02.63-.1.94-2.15,5.36-4.45,10.95-6.9,16.77Z"/>
      <path class="cls-1" d="M247.4,92.6c-.07-.1-.21-.12-.31-.04-.03.02-.06.06-.07.09l-8.54,21.13c-.33.81-1.12,1.35-1.99,1.35h-10.6c-.5,0-.9-.41-.9-.9,0-.12.03-.24.07-.35l24.3-57.16c.34-.8,1.13-1.33,2-1.33h9.13c.93.01,1.78.57,2.14,1.43,8.13,19.29,16.21,38.36,24.23,57.21.06.15.1.31.1.47.01.33-.25.61-.59.62,0,0-.01,0-.02,0h-11.8c-.54.01-1.03-.32-1.23-.82l-4.53-11.14c-.31-.77-1.06-1.28-1.89-1.27l-11.23.06c-.9,0-1.75-.42-2.29-1.15l-5.99-8.2ZM248.15,89.09c-.38.97-.06,1.46.99,1.46h14.07c.31,0,.56-.25.56-.56,0-.07-.01-.15-.04-.21l-7.37-17.99c-.07-.18-.26-.29-.46-.26-.44.07-.74.31-.91.71-2.38,5.77-4.66,11.38-6.84,16.86Z"/>
      <path class="cls-1" d="M378.4,92.68c-2.61,6.46-5.3,13.04-8.09,19.77-.75,1.81-2.24,2.58-4.17,2.63-3.26.09-6.34.08-9.25-.02-.34-.01-.6-.3-.59-.64,0-.07.02-.15.05-.22l24.37-57.49c.34-.81,1.13-1.33,2.01-1.33h9.24c.88,0,1.67.52,2.01,1.33l24.58,58.05c.1.25.02.37-.24.37h-12.51c-.5,0-.84-.23-1.03-.69l-4.59-11.29c-.31-.77-1.06-1.27-1.88-1.26l-10.85.05c-1.18,0-2.29-.55-2.98-1.51l-5.63-7.79c-.08-.11-.24-.14-.35-.06-.04.03-.07.07-.08.11ZM387.8,71.4c-.02-.15-.13-.27-.28-.29-.19-.03-.38-.03-.56.02-.13.03-.24.13-.29.26-2.37,6.02-4.66,11.62-6.87,16.82-.26.61-.35,1.29-.27,2.03.03.22.15.33.38.33h14.66c.32,0,.58-.26.58-.58,0-.07-.01-.15-.04-.22-2.26-5.65-4.61-11.47-7.05-17.45-.12-.29-.2-.6-.24-.92Z"/>
      <path class="cls-1" d="M133.23,103.16c.22.11.47.17.72.17l26.12-.1c.81,0,1.48.65,1.48,1.47,0,0,0,0,0,0v9.08c0,.75-.6,1.35-1.34,1.35h-40.02c-.64,0-1.17-.47-1.17-1.05h0l.04-56.74c0-.86.69-1.55,1.54-1.55,0,0,0,0,0,0h10.15c.75.01,1.35.62,1.35,1.37h0c.02,16.17,0,30.96-.03,44.36,0,.71.37,1.26,1.13,1.63Z"/>
      <path class="cls-1" d="M169.1,57.38c0-.87.7-1.59,1.58-1.59h0l22.57-.08c16.74-.06,30.36,12.86,30.42,28.86v1.46c.06,16-13.47,29.02-30.21,29.08,0,0,0,0,0,0l-22.57.08c-.87,0-1.59-.7-1.59-1.58h0s-.19-56.23-.19-56.23ZM182.11,68.94l.06,33.17c0,.77.63,1.39,1.4,1.38h9.22c9.56-.03,17.29-7.52,17.27-16.73v-2.58c-.02-9.21-7.78-16.67-17.34-16.65h-9.23c-.77.02-1.39.64-1.38,1.41h0Z"/>
      <path class="cls-1" d="M307.05,79.22v34.48c0,.78-.63,1.41-1.41,1.41h-9.87c-.82,0-1.49-.66-1.49-1.49h0l.02-56.46c0-.76.61-1.38,1.37-1.38,0,0,0,0,0,0l9.02.04c1.02,0,1.99.48,2.61,1.3l25.8,33.99c.63.84.95.73.94-.32l-.08-18.57c0-1.03.82-1.86,1.85-1.87,0,0,0,0,0,0l9.59.02c.75,0,1.36.61,1.36,1.36h0v42.19c0,.61-.48,1.12-1.1,1.15-1.26.06-2.56.12-3.89.17-3.53.15-6.47.43-8.68-3.08-.81-1.28-1.69-2.56-2.65-3.84-7.79-10.35-15.23-20.17-22.32-29.47-.72-.94-1.08-.82-1.08.37Z"/>
      <path class="cls-1" d="M345.47,67.17l-20.88-.06c-.6,0-1.08-.24-1.44-.72l-7.82-10.2c-.21-.28-.14-.42.21-.42h30.2c.56,0,1.02.46,1.02,1.03h0v9.07c0,.86-.43,1.29-1.29,1.29Z"/>
      <path class="cls-1" d="M492.95,66.11c-9.75-1.3-18.79-.28-27.11,3.08-.22.09-.39.03-.51-.17l-.9-1.44c4.45-2.09,8.34-3.37,11.69-3.84,5.01-.7,9.12-1,12.33-.88,1.58.06,3.08,1.14,4.5,3.25Z"/>
      <path class="cls-1" d="M505.18,78.69c-1.13.21-2.24.25-3.35.11-8.17-1-16.06,0-23.66,3.02-.22.09-.39.04-.53-.15l-.86-1.22c5.53-2.86,11.1-4.36,16.72-4.52,3.5-.1,5.93-.14,7.29-.13,1.99.02,3.45.98,4.4,2.88Z"/>
      <path class="cls-1" d="M517.12,91.05c-1.27.16-3.25.16-5.92-.02-7.09-.46-13.95.64-20.59,3.32-.28.11-.59.09-.85-.06-.41-.24-.56-.62-.45-1.13,3.13-1.85,6.09-3.03,8.86-3.54,5.65-1.04,10.63-1.5,14.94-1.39,1.63.05,2.97.99,4.01,2.82Z"/>
      <path class="cls-1" d="M526.66,104.05c-8.5-.99-16.53.06-24.1,3.15-.33.13-.7-.03-.83-.35-.02-.05-.03-.09-.04-.14l-.13-.87c6.35-3.38,12.74-4.65,19.91-4.74,3.22-.04,4.18-.19,5.2,2.95Z"/>
      <path class="cls-1" d="M531.32,116.19c-5.57.07-10.9,1.18-16,3.33-.49.21-.84.26-1.06.16-.33-.16-.5-.58-.5-1.24,4.86-2.67,10.08-4.19,15.67-4.56,1.37-.09,1.99.68,1.88,2.31Z"/>
      <path class="cls-1" d="M469.73,166.77c-12.5-5.08-19.21-16.78-20.64-29.92-.46-4.2-.63-8.84-.51-13.92.02-.85.45-1.28,1.31-1.28h22.82c1.05,0,1.58.52,1.61,1.57.12,4.65-.33,9.86,1.01,14.11,1.53,4.82,5.07,7.86,10.63,9.14,9.98,2.29,18.14-1.63,20.43-11.84.07-.33.23-.38.47-.14,6.03,6.02,12.06,12.1,18.1,18.23.93.94.99,1.96.19,3.06-4.1,5.65-9.6,9.64-16.5,11.98-13.28,4.5-26.26,4.17-38.92-.99Z"/>
      <path class="cls-1" d="M532.63,130.67l-5.29,1.8c-.24.08-.42.01-.55-.2l-.72-1.17,6.12-2.44c.23-.09.38-.02.45.23.17.59.16,1.19,0,1.79Z"/>
    </g>
  </g>
</svg>