<?xml version="1.0" encoding="UTF-8"?>
<svg id="Capa_2" data-name="Capa 2" xmlns="http://www.w3.org/2000/svg" viewBox="0 0 525.93 116.61">
  <defs>
    <style>
      .cls-1 {
        fill: #fff;
        stroke-width: 0px;
      }
    </style>
  </defs>
  <g id="Capa_1-2" data-name="Capa 1">
    <g>
      <g>
        <path class="cls-1" d="M326.88.02L320.14,0c-18.9-.07-34.27,15.2-34.34,34.1l-.02,6.82c-.07,18.89,15.2,34.27,34.1,34.33l6.74.03c18.9.06,34.27-15.2,34.34-34.1l.02-6.82C361.05,15.46,345.78.08,326.88.02ZM323.41,55.43c-4.05,0-7.71-2-10.37-5.23-2.65-3.22-4.29-7.68-4.29-12.61,0-9.86,6.56-17.84,14.66-17.84s14.66,7.98,14.66,17.84-6.56,17.84-14.66,17.84Z"/>
        <path class="cls-1" d="M393.24,47.15c0-1.06.25-1.13.78-.22l15.05,26.11c.4.7,1,1.05,1.81,1.05h11.56c.66,0,1.27-.35,1.6-.92l15.13-26.32c.57-1,.86-.92.86.23l-.06,26.26c0,.49.25.74.74.74h21.62c.34,0,.62-.27.62-.61V1.84c0-.4-.33-.73-.74-.73l-21.45.02c-.49,0-.95.26-1.19.69l-22.53,39.35c-.13.22-.41.3-.63.17-.07-.04-.13-.1-.17-.17-7.21-12.51-14.74-25.57-22.58-39.18-.68-1.18-2.2-1.13-3.38-1-.55.06-.83.37-.83.93l.03,70.94c0,.99.5,1.47,1.5,1.42l.91-.05c.92-.05,1.38-.53,1.37-1.44l-.02-25.64h0Z" vector-effect="non-scaling-stroke"/>
        <path class="cls-1" d="M43.48,21.06l18.39-.04c.39,0,.58-.2.58-.59l-.03-19.09c0-.12-.09-.21-.21-.21H.62C.32,1.13.07,1.37.07,1.68l-.07,18.66c0,.39.32.7.71.7l18.47.02c.31,0,.48.15.52.45.18,1.35.27,2.77.28,4.28.01,12.71-.04,25.42-.17,38.14-.03,3.2.04,6.41.19,9.63.01.33.18.49.51.49h21.6c.34-.01.61-.28.61-.61V21.82c0-.42.34-.75.76-.76h0Z" vector-effect="non-scaling-stroke"/>
        <path class="cls-1" d="M93.08,29.26c-.36,0-.65-.29-.65-.65,0,0,0-.01,0-.02l.23-6.87c.01-.35.3-.63.65-.63l26.22-.09c.36,0,.65-.29.65-.65l.05-18.57c0-.36-.29-.65-.65-.65h-49.27c-.36,0-.65.3-.65.66h0s-.04,71.62-.04,71.62c0,.36.29.65.65.65l51.3-.02c.36,0,.65-.29.65-.65l-.02-18.65c0-.36-.29-.65-.65-.65h0l-28.38-.03c-.36,0-.64-.28-.65-.64l-.06-6.66c0-.36.28-.64.64-.65l21.11-.16c.35,0,.63-.29.64-.64l.09-15.37c0-.36-.29-.65-.65-.65l-21.21-.03h0Z" vector-effect="non-scaling-stroke"/>
        <path class="cls-1" d="M135.77,1.59c0-.28-.22-.5-.5-.5h-5.38c-.28,0-.5.23-.5.51l.13,71.96c0,.28.22.5.5.5h5.38c.28,0,.5-.23.5-.51l-.13-71.96h0Z" vector-effect="non-scaling-stroke"/>
        <path class="cls-1" d="M155.32,22.09c-.14.14-.37.15-.51.01-.07-.07-.11-.16-.11-.26V1.47c0-.2-.15-.36-.35-.36h-15.29c-.2,0-.36.17-.36.37h0l-.1,72.24c0,.2.16.36.36.36h0l15.39-.04c.2,0,.36-.16.36-.36h0l-.02-21.77c0-.09.04-.18.1-.24l6.28-6.65c.14-.14.36-.15.51-.02.02.02.04.05.06.08l17.22,28.79c.06.11.18.18.3.18h24.86c.2,0,.36-.16.36-.36,0-.07-.02-.14-.05-.19l-27.17-45.27c-.08-.14-.06-.31.05-.43L201.87,1.71c.14-.14.13-.37,0-.51-.07-.07-.16-.1-.26-.1l-26.33.03c-.1,0-.19.04-.26.11l-19.69,20.85h0Z" vector-effect="non-scaling-stroke"/>
        <path class="cls-1" d="M231.49,46.73c0-.35.28-.63.63-.63h0l21.43-.08c.35,0,.63.28.63.63h0l.03,26.8c0,.35.28.63.63.63h21.86c.35.01.63-.27.63-.62h0l-.02-71.73c0-.35-.28-.63-.63-.63h0l-21.86.12c-.35,0-.63.28-.63.63l.02,26.8c0,.35-.28.63-.63.63h-21.41c-.35-.01-.63-.29-.63-.64h0l-.04-26.86c0-.35-.28-.63-.63-.63h0l-21.58-.03c-.35,0-.63.28-.63.63h0s.02,71.75.02,71.75c0,.35.28.63.63.63h0l21.62-.08c.35,0,.63-.28.63-.63h0l-.07-26.69h0Z" vector-effect="non-scaling-stroke"/>
        <path class="cls-1" d="M385.96,1.68c0-.29-.24-.53-.53-.53h-17.9c-.29,0-.53.24-.53.53v71.88c0,.29.24.53.53.53h17.9c.29,0,.53-.24.53-.53V1.68h0Z" vector-effect="non-scaling-stroke"/>
        <path class="cls-1" d="M496.23,46.75c0-.36.29-.65.65-.65l20.7-.12c.36,0,.65-.29.65-.65h0s-.02-15.47-.02-15.47c0-.36-.29-.65-.65-.65h0l-20.66.12c-.36,0-.65-.29-.65-.65h0s-.02-6.98-.02-6.98c0-.36.29-.65.65-.65l26.18-.03c.35,0,.63-.29.64-.64l.14-18.56c0-.36-.29-.65-.65-.65h0l-49.39-.02c-.36,0-.65.29-.65.65h0s.03,71.64.03,71.64c0,.36.29.65.65.65h0l51.33-.03c.36,0,.65-.29.65-.65l.12-18.67c0-.36-.29-.65-.65-.65h-28.41c-.36,0-.65-.29-.65-.65v-6.69h.01Z" vector-effect="non-scaling-stroke"/>
        <path class="cls-1" d="M121.53,114.01c-.35-.47-.78-.86-1.3-1.18-.36-.23-.49-.68-.3-1.04,1.61-3.19,1.13-8.26,1.16-12,.03-4.37-2.44-7.5-6.85-7.69-5.4-.24-8.23,2.37-8.5,7.83-.2,3.98-.04,7.13.49,9.45,1.05,4.72,5.5,6,10.14,4.81.44-.12.81,0,1.12.32l1.68,1.78h.01c.39.42,1.04.43,1.46.04l.75-.71c.52-.5.57-1.03.14-1.61ZM113.7,111.75h-.44c-2.21,0-4-1.78-4-3.99l-.02-8.64c0-2.2,1.78-3.99,3.99-3.99h.44c2.2-.01,3.99,1.78,3.99,3.98l.02,8.64c0,2.2-1.78,3.99-3.98,4Z"/>
        <path class="cls-1" d="M209.89,95.09c1.48.26,2.21,1.51,3.14,2.52.65.7,1.51.99,2.58.87.21-.03.43-.1.64-.21.39-.22.53-.71.32-1.1,0,0-.01-.02-.02-.03-2.84-4.74-6.59-6.16-11.26-4.25-2.37.97-3.64,2.72-3.8,5.25-.17,2.63-.22,5.39-.15,8.3.11,4.27,1.56,7.52,6.19,8.1,4.27.53,7.24-1.19,8.93-5.18.15-.36-.01-.78-.37-.93-.03-.01-.05-.02-.08-.03-1.45-.43-2.55-.05-3.3,1.13-2.35,3.7-7.91,2.81-7.98-1.93-.04-2.47-.06-5.08-.07-7.82-.02-3.23,1.74-5.29,5.23-4.69h0Z" vector-effect="non-scaling-stroke"/>
        <path class="cls-1" d="M349.63,92.15h-1.4c-3.77,0-6.82,3.05-6.82,6.82v8.8c0,3.76,3.05,6.82,6.82,6.82h1.4c3.77,0,6.82-3.06,6.82-6.82v-8.8c0-3.77-3.05-6.82-6.82-6.82ZM349.15,111.74h-.46c-2.23.01-4.05-1.79-4.07-4.03l-.04-8.58c-.01-2.24,1.79-4.06,4.03-4.07h.46c2.23-.02,4.06,1.79,4.07,4.02l.04,8.58c.01,2.24-1.79,4.06-4.03,4.08Z"/>
        <path class="cls-1" d="M79.71,113.48l-6.26-20.1c-.27-.87-1.14-1.41-2.03-1.26-1.17.19-1.89.75-2.16,1.68-1.96,6.58-3.93,13.08-5.9,19.48-.04.15-.05.3-.01.44.01.05.03.11.05.16s.05.1.08.15c.03.04.06.08.1.12h.01c.05.05.09.09.15.12.02.01.04.03.06.04.02.01.04.03.06.03.1.05.22.08.34.08l1,.02c.85.01,1.39-.39,1.62-1.21l.99-3.46c.13-.44.42-.66.88-.66l5.51-.03c.46,0,.86.31.97.76l.91,3.56c.16.63.57.95,1.22.95h1.78c.6-.01.81-.3.63-.87ZM73.64,106.39l-4.49-.04s-.06-.01-.09-.02c-.18-.05-.28-.24-.23-.42l2.31-7.59c.04-.11.12-.19.23-.22.18-.06.37.05.42.23l2.18,7.63s.01.06.01.09c0,.19-.15.34-.34.34Z"/>
        <path class="cls-1" d="M100.14,113.47l-4.36-7.98c-.19-.34-.14-.65.13-.91.78-.76,1.72-1.24,2.24-2.24,1.21-2.35,1.23-4.69.07-7.01-1.87-3.73-8.72-3.04-12.09-2.95-.31,0-.46.16-.46.47l.06,20.79c0,.42.35.77.78.77h1.65c.53,0,.79-.25.79-.77v-7.61c.01-.41.3-.77.71-.84,1.47-.27,2.55.15,3.22,1.27,1.23,2.02,2.44,4.2,3.61,6.55.4.8,1.05,1.26,1.94,1.38l1,.13c.93.12,1.16-.23.71-1.05ZM91.69,102.3h-2.07c-.37-.01-.66-.31-.66-.68v-5.54c.01-.37.31-.67.68-.66h2.07c2.3,0,4.16,1.48,4.15,3.29v.32c0,1.81-1.87,3.27-4.17,3.27Z"/>
        <path class="cls-1" d="M134.92,111.71c-1.98-.19-3.8-1.25-3.9-3.43-.2-4.35-.22-9.31-.06-14.9.02-.54-.41-.99-.95-1.01,0,0-.01,0-.02,0l-1.54-.02c-.66,0-.98.32-.97.98.07,4.53.09,9,.06,13.39-.04,5.17,2.52,7.8,7.67,7.87.52,0,.78-.25.77-.77v-.96c-.02-.7-.37-1.08-1.06-1.15h0Z" vector-effect="non-scaling-stroke"/>
        <path class="cls-1" d="M141.71,105.63c0,1.96-.2,4.27-1.98,5.42-1.21.79-1.54,1.79-.99,3.02.19.42.68.63,1.11.47,3.35-1.24,5.06-3.69,5.13-7.36.08-4.51.07-9.12-.03-13.83-.01-.63-.34-.96-.97-.97l-1.29-.03c-.68-.02-1.02.31-1.01.99,0,3.95,0,8.04.03,12.29h0Z" vector-effect="non-scaling-stroke"/>
        <path class="cls-1" d="M154.99,93.03c0-.39-.32-.71-.71-.71h-1.66c-.39,0-.71.31-.71.71l-.04,20.72c0,.39.32.71.71.71h1.66c.39,0,.71-.31.71-.71l.04-20.72h0Z" vector-effect="non-scaling-stroke"/>
        <path class="cls-1" d="M185.34,96.12c-.02-.34.25-.63.59-.65.01,0,.02,0,.03,0l8.6-.07c.33,0,.6-.27.61-.6l.06-1.63c.01-.34-.26-.63-.6-.64,0,0,0,0-.01,0l-11.96-.14c-.34,0-.62.28-.62.62l.16,20.77c0,.34.28.62.62.62,0,0,0,0,.01,0l11.77-.1c.34,0,.62-.28.62-.62h0v-1.59c0-.34-.28-.61-.62-.62l-8.56-.1c-.34,0-.61-.28-.61-.62v-5.27c0-.34.28-.61.62-.62l7.84-.08c.34,0,.61-.29.61-.63,0-.02,0-.04,0-.07l-.22-1.83c-.04-.31-.3-.54-.61-.54l-7.54-.13c-.33,0-.6-.27-.61-.6l-.17-4.86h0Z" vector-effect="non-scaling-stroke"/>
        <path class="cls-1" d="M249.91,111.65c-2.71-.13-4.08-1.69-4.1-4.67-.04-4.89-.05-9.54-.04-13.93,0-.44-.22-.66-.66-.66h-1.85c-.44,0-.8.35-.8.79,0,0,0,.01,0,.02.1,3.93.09,8.25-.04,12.96-.11,3.8,1.31,7.23,5.29,8.12,6.29,1.41,10.2-1.89,10.06-8.05-.1-4.23-.1-8.6-.01-13.11.01-.48-.22-.72-.7-.73l-2.24-.03c-.46,0-.69.23-.68.68.05,4.66.06,9.36.03,14.09-.02,2.96-1.39,4.47-4.1,4.52h-.16Z" vector-effect="non-scaling-stroke"/>
        <path class="cls-1" d="M278.9,113.23l-4.4-7.67c-.19-.33-.11-.74.17-.97,2.17-1.82,3.32-3.07,3.12-6.33-.16-2.66-1.4-4.15-3.12-4.97-.22-.1-.44-.19-.67-.28-.23-.08-.47-.15-.71-.22s-.49-.12-.74-.17c-.25-.05-.51-.09-.77-.13-.51-.07-1.04-.11-1.58-.14-.26-.02-.53-.03-.79-.03-.27-.01-.54-.01-.8-.01-1.3,0-2.56.06-3.65.06-.28,0-.51.23-.51.51l.02,20.49c0,.68.34,1.02,1.02,1.02h1.17c.68.01,1.02-.33,1.02-1.01v-7.27c0-.35.16-.6.48-.74,1.44-.65,2.96.02,3.65,1.4,1.14,2.26,2.32,4.42,3.53,6.49.47.8,1.18,1.21,2.11,1.23h.7c.99.01,1.24-.41.75-1.26ZM270.45,102.25l-1.98-.02c-.44,0-.8-.36-.8-.8l.04-5.2c0-.45.36-.8.8-.8l1.98.02c2.21,0,3.99,1.46,3.98,3.23v.38c-.01,1.78-1.81,3.2-4.02,3.19Z"/>
        <path class="cls-1" d="M300.31,113.58l-6.22-20.08c-.15-.5-.54-.88-1.03-1.03-1.77-.56-2.89.05-3.36,1.81-1.52,5.77-3.51,12.16-5.96,19.16-.24.67,0,1,.71.99l1.85-.05c.55-.02.9-.29,1.05-.82l.86-3.27c.19-.71.83-1.19,1.55-1.19l5.07-.02c.42-.01.69.19.8.6l1.09,3.81c.17.58.55.86,1.15.86l1.9-.03c.51-.01.69-.26.54-.74ZM294.34,106.33l-4.55.04s-.06-.01-.09-.01c-.19-.05-.3-.25-.25-.43l2.21-7.67c.03-.12.12-.2.23-.24.19-.05.38.05.44.24l2.34,7.62s0,.06.02.09c0,.19-.16.35-.35.36Z"/>
        <path class="cls-1" d="M318.12,102.24c-.11-1.69.14-1.74.76-.17,1.36,3.45,2.82,7.14,4.39,11.09.27.7.75,1.14,1.43,1.32.51.13,1.04-.13,1.23-.62l5.13-12.87c.29-.73.44-.7.43.09l-.06,12.74c0,.28.23.51.51.52l2.07.05c.4,0,.6-.19.6-.6v-20.72c.01-.35-.16-.57-.49-.66-1.41-.39-2.73-.02-3.27,1.48-1.91,5.19-3.89,10.22-5.96,15.09-.11.26-.21.26-.32,0l-6.27-15.98c-.17-.45-.5-.67-.98-.66l-1.62.02c-.49,0-.73.25-.73.74v20.53c0,.51.27.77.78.76l1.89-.03c.41-.01.73-.34.74-.74.07-3.82-.02-7.61-.26-11.38h0Z" vector-effect="non-scaling-stroke"/>
        <path class="cls-1" d="M371.07,92.47h-7.39c-.18-.01-.32.13-.32.31l-.04,21.22c0,.17.14.32.32.32h7.39c4,.01,7.26-3.25,7.26-7.27l.02-7.28c.01-4.03-3.24-7.3-7.24-7.3ZM374.92,107.19c0,2.37-2.04,4.29-4.55,4.29h-3.08c-.46.01-.83-.36-.83-.82l-.02-14.48c0-.46.37-.83.83-.83h3.08c2.51-.01,4.55,1.9,4.55,4.27l.02,7.56h0Z"/>
        <path class="cls-1" d="M386.03,111.04l-.2-18.7c0-.06-.04-.1-.1-.1h-.09c-.8,0-1.44.88-1.43,1.94,0,0,0,0,0,0l.16,15.04c.01,1.06.67,1.92,1.47,1.91h.09c.06,0,.1-.04.1-.1h0Z" vector-effect="non-scaling-stroke"/>
        <path class="cls-1" d="M395.24,111.63c-2.56.07-3.89-1.18-3.99-3.74-.22-5.4-.27-10.36-.14-14.88.01-.43-.2-.65-.63-.65h-.35c-.36,0-.66.3-.66.66,0,6.33.01,12.39.02,18.2.01,5.16,13.44,4.96,13.37-3.53-.03-4.58,0-9.31.07-14.18,0-.65-.32-1-.97-1.05l-1.69-.13c-.59-.04-.89.24-.88.83.05,4.98.03,9.82-.07,14.52-.06,2.56-1.37,3.87-3.93,3.94-.05,0-.1,0-.15,0h0Z" vector-effect="non-scaling-stroke"/>
        <path class="cls-1" d="M413.34,111.43c-.35,0-.63-.28-.63-.63v-17.8c0-.34-.28-.62-.62-.63l-1.74-.04c-.35-.01-.64.26-.65.61,0,0,0,.01,0,.02l-.04,20.77c0,.35.27.63.62.64,0,0,.01,0,.02,0l10.06-.08c.34,0,.61-.28.62-.62l.02-1.63c0-.35-.27-.63-.62-.64,0,0-.01,0-.02,0l-7.02.03h0Z" vector-effect="non-scaling-stroke"/>
        <path class="cls-1" d="M441.73,113.38c-2.05-6.69-4.13-13.34-6.22-19.95-.4-1.27-2.11-1.39-3.08-.9-.32.16-.56.43-.68.77-2.27,6.43-4.32,13.15-6.17,20.16-.21.79.09,1.16.91,1.11l.9-.06c.7-.05,1.29-.54,1.46-1.21l.93-3.65c.08-.32.37-.55.69-.55l6.04-.03c.39,0,.63.18.73.56l.93,3.58c.19.72.67,1.1,1.42,1.13l1.36.06c.74.02,1-.32.78-1.02ZM435.74,106.41h-4.36s-.07-.01-.1-.02c-.18-.05-.28-.24-.23-.42l2.18-7.59c.03-.13.13-.22.25-.25.18-.05.37.06.41.25l2.18,7.59s.02.07.02.1c-.01.19-.16.34-.35.34Z"/>
        <path class="cls-1" d="M462.35,113.43l-4.68-8.03c-.19-.33-.13-.6.19-.8,2.89-1.9,3.87-4.61,2.93-8.13-1.28-4.8-8.67-4.25-12.31-4.09-.36.01-.64.31-.64.67l.06,20.36v.08s.01.05.01.07t.01.02s0,.04,0,.06c0,.02.01.04.02.06.01.06.03.1.05.15h0c.03.08.08.15.13.21.03.04.07.09.12.13.2.19.49.3.79.28l.88-.07c.78-.06,1.16-.48,1.15-1.26l-.09-7.08c-.01-.36.23-.68.57-.78,1.67-.54,2.92-.05,3.74,1.45,1.1,2.01,2.15,4.06,3.15,6.14.43.89,1.13,1.38,2.12,1.47l1.14.11c.88.07,1.1-.27.65-1.02ZM453.97,102.33h-2.31c-.37-.02-.66-.32-.66-.69l.02-5.58c.01-.37.31-.67.68-.66h2.31c2.2.02,3.97,1.47,3.96,3.26v.46c-.01,1.78-1.8,3.22-4,3.21Z"/>
        <path class="cls-1" d="M166.99,96.27l.02,17.08c0,.64.32.96.96.97h1.06c.71.01,1.07-.35,1.07-1.06l-.03-17.2c0-.29.14-.45.42-.48l4.54-.52c.53-.06.93-.51.93-1.04v-.4c0-.65-.33-.98-.98-.98l-12.58-.03c-.78,0-1.32.35-1.62,1.08-.1.25-.11.51-.04.77.1.35.4.6.76.63l4.77.39c.48.04.72.3.72.79h0Z" vector-effect="non-scaling-stroke"/>
        <path class="cls-1" d="M231,96.11c0-.32.25-.58.57-.6l4.66-.22c.31-.02.55-.26.57-.57l.1-1.51c.02-.33-.24-.61-.57-.63-.01,0-.02,0-.03,0l-13.54-.08c-.32,0-.58.25-.6.57l-.09,1.76c-.02.33.24.61.57.63.02,0,.03,0,.05,0l4.56-.11c.33,0,.6.26.61.59,0,0,0,0,0,.01l.07,17.77c0,.32.25.57.57.59l1.86.08c.33.01.61-.25.62-.58,0,0,0-.01,0-.02l.02-17.68h0Z" vector-effect="non-scaling-stroke"/>
      </g>
      <path class="cls-1" d="M326.88.02L320.14,0c-18.9-.07-34.27,15.2-34.34,34.1l-.02,6.82c-.07,18.89,15.2,34.27,34.1,34.33l6.74.03c18.9.06,34.27-15.2,34.34-34.1l.02-6.82C361.05,15.46,345.78.08,326.88.02ZM323.41,55.43c-4.05,0-7.71-2-10.37-5.23-2.65-3.22-4.29-7.68-4.29-12.61,0-9.86,6.56-17.84,14.66-17.84s14.66,7.98,14.66,17.84-6.56,17.84-14.66,17.84Z"/>
      <path class="cls-1" d="M393.24,47.15l.02,25.64c0,.91-.45,1.39-1.37,1.44l-.91.05c-1,.05-1.5-.43-1.5-1.42l-.03-70.94c0-.56.28-.87.83-.93,1.18-.13,2.7-.18,3.38,1,7.84,13.61,15.37,26.67,22.58,39.18.13.22.41.3.63.17.07-.04.13-.1.17-.17L439.57,1.82c.24-.43.7-.69,1.19-.69l21.45-.02c.41,0,.74.33.74.73v71.63c0,.34-.28.61-.62.61h-21.62c-.49,0-.74-.25-.74-.74l.06-26.26c0-1.15-.29-1.23-.86-.23l-15.13,26.32c-.33.57-.94.92-1.6.92h-11.56c-.81,0-1.41-.35-1.81-1.05l-15.05-26.11c-.53-.91-.79-.84-.78.22Z"/>
      <path class="cls-1" d="M43.48,21.06c-.42,0-.76.34-.76.76v51.62c0,.33-.27.6-.61.6h-21.6c-.33.01-.5-.15-.51-.48-.15-3.22-.22-6.43-.19-9.63.13-12.72.18-25.43.17-38.14,0-1.51-.1-2.93-.28-4.28-.04-.3-.21-.45-.52-.45l-18.47-.02c-.39,0-.71-.31-.71-.7L.07,1.68c0-.3.25-.55.55-.55h61.59c.12,0,.21.09.21.21l.03,19.09c0,.39-.19.59-.58.59l-18.39.04Z"/>
      <path class="cls-1" d="M93.08,29.26l21.21.03c.36,0,.65.29.65.65l-.09,15.37c0,.35-.29.63-.64.64l-21.11.16c-.36,0-.64.29-.64.65l.06,6.66c0,.36.29.64.65.64l28.38.03c.36,0,.65.29.65.65h0s.02,18.65.02,18.65c0,.36-.29.65-.65.65l-51.3.02c-.36,0-.65-.29-.65-.65l.04-71.62c0-.36.29-.65.65-.65h49.27c.36-.01.65.28.65.64h0s-.05,18.57-.05,18.57c0,.36-.29.65-.65.65l-26.22.09c-.35,0-.64.28-.65.63l-.23,6.87c-.01.36.27.66.63.67,0,0,.01,0,.02,0Z"/>
      <rect class="cls-1" x="129.45" y="1.1" width="6.38" height="72.96" rx=".5" ry=".5" transform="translate(-.07 .23) rotate(-.1)"/>
      <path class="cls-1" d="M155.32,22.09L175.01,1.24c.07-.07.16-.11.26-.11l26.33-.03c.2,0,.36.15.37.35,0,.1-.03.19-.1.26l-24.66,26.09c-.11.12-.13.29-.05.43l27.17,45.27c.1.17.05.39-.12.5-.06.04-.13.06-.19.05h-24.86c-.12,0-.24-.07-.3-.18l-17.22-28.79c-.1-.17-.32-.22-.49-.12-.03.02-.05.04-.08.06l-6.28,6.65c-.06.06-.1.15-.1.24l.02,21.77c0,.2-.16.36-.36.36h0l-15.39.04c-.2,0-.36-.16-.36-.36h0l.1-72.24c0-.2.16-.36.36-.36h15.29c.2,0,.36.15.36.35h0v20.37c-.01.2.15.36.35.36.1,0,.19-.04.26-.11Z"/>
      <path class="cls-1" d="M231.49,46.73l.07,26.69c0,.35-.28.63-.63.63h0l-21.62.08c-.35,0-.63-.28-.63-.63h0l-.02-71.75c0-.35.28-.63.63-.63h0l21.58.03c.35,0,.63.28.63.63h0s.04,26.86.04,26.86c0,.35.28.63.63.63h21.41c.35.01.63-.27.63-.62h0s-.02-26.8-.02-26.8c0-.35.28-.63.63-.63l21.86-.12c.35,0,.63.28.63.63h0s.02,71.73.02,71.73c0,.35-.28.63-.63.63h-21.86c-.35-.01-.63-.29-.63-.64h0l-.03-26.8c0-.35-.28-.63-.63-.63h0l-21.43.08c-.35,0-.63.28-.63.63h0Z"/>
      <rect class="cls-1" x="367" y="1.15" width="18.96" height="72.94" rx=".53" ry=".53"/>
      <path class="cls-1" d="M496.23,46.75v6.69c-.01.36.28.65.64.65h28.41c.36,0,.65.29.65.65l-.12,18.67c0,.36-.29.65-.65.65l-51.33.03c-.36,0-.65-.29-.65-.65h0s-.03-71.64-.03-71.64c0-.36.29-.65.65-.65h0l49.39.02c.36,0,.65.29.65.65h0s-.14,18.56-.14,18.56c0,.35-.29.63-.64.64l-26.18.03c-.36,0-.65.29-.65.65l.02,6.98c0,.36.29.65.65.65h0l20.66-.12c.36,0,.65.29.65.65h0s.02,15.47.02,15.47c0,.36-.29.65-.65.65h0l-20.7.12c-.36,0-.65.29-.65.65Z"/>
      <path class="cls-1" d="M121.53,114.01c-.35-.47-.78-.86-1.3-1.18-.36-.23-.49-.68-.3-1.04,1.61-3.19,1.13-8.26,1.16-12,.03-4.37-2.44-7.5-6.85-7.69-5.4-.24-8.23,2.37-8.5,7.83-.2,3.98-.04,7.13.49,9.45,1.05,4.72,5.5,6,10.14,4.81.44-.12.81,0,1.12.32l1.68,1.78h.01c.39.42,1.04.43,1.46.04l.75-.71c.52-.5.57-1.03.14-1.61ZM113.7,111.75h-.44c-2.21,0-4-1.78-4-3.99l-.02-8.64c0-2.2,1.78-3.99,3.99-3.99h.44c2.2-.01,3.99,1.78,3.99,3.98l.02,8.64c0,2.2-1.78,3.99-3.98,4Z"/>
      <path class="cls-1" d="M209.89,95.09c-3.49-.6-5.25,1.46-5.23,4.69,0,2.74.03,5.35.07,7.82.07,4.74,5.63,5.63,7.98,1.93.75-1.18,1.85-1.56,3.3-1.13.38.11.59.51.48.88,0,.03-.02.05-.03.08-1.69,3.99-4.66,5.71-8.93,5.18-4.63-.58-6.08-3.83-6.19-8.1-.07-2.91-.02-5.67.15-8.3.16-2.53,1.43-4.28,3.8-5.25,4.67-1.91,8.42-.49,11.26,4.25.23.38.11.88-.27,1.11,0,0-.02.01-.03.02-.21.11-.43.18-.64.21-1.07.12-1.93-.17-2.58-.87-.93-1.01-1.66-2.26-3.14-2.52Z"/>
      <path class="cls-1" d="M349.63,92.15h-1.4c-3.77,0-6.82,3.05-6.82,6.82v8.8c0,3.76,3.05,6.82,6.82,6.82h1.4c3.77,0,6.82-3.06,6.82-6.82v-8.8c0-3.77-3.05-6.82-6.82-6.82ZM349.15,111.74h-.46c-2.23.01-4.05-1.79-4.07-4.03l-.04-8.58c-.01-2.24,1.79-4.06,4.03-4.07h.46c2.23-.02,4.06,1.79,4.07,4.02l.04,8.58c.01,2.24-1.79,4.06-4.03,4.08Z"/>
      <path class="cls-1" d="M79.71,113.48l-6.26-20.1c-.27-.87-1.14-1.41-2.03-1.26-1.17.19-1.89.75-2.16,1.68-1.96,6.58-3.93,13.08-5.9,19.48-.02.07-.03.15-.03.23,0,.07,0,.14.02.21.01.05.03.11.05.16s.05.1.08.15c.03.04.06.08.1.12h.01c.05.05.09.09.15.12.02.01.04.03.06.04.02.01.04.03.06.03.1.05.22.08.34.08l1,.02c.85.01,1.39-.39,1.62-1.21l.99-3.46c.13-.44.42-.66.88-.66l5.51-.03c.46,0,.86.31.97.76l.91,3.56c.16.63.57.95,1.22.95h1.78c.6-.01.81-.3.63-.87ZM73.64,106.39l-4.49-.04s-.06-.01-.09-.02c-.18-.05-.28-.24-.23-.42l2.31-7.59c.04-.11.12-.19.23-.22.18-.06.37.05.42.23l2.18,7.63s.01.06.01.09c0,.19-.15.34-.34.34Z"/>
      <path class="cls-1" d="M100.14,113.47l-4.36-7.98c-.19-.34-.14-.65.13-.91.78-.76,1.72-1.24,2.24-2.24,1.21-2.35,1.23-4.69.07-7.01-1.87-3.73-8.72-3.04-12.09-2.95-.31,0-.46.16-.46.47l.06,20.79c0,.42.35.77.78.77h1.65c.53,0,.79-.25.79-.77v-7.61c.01-.41.3-.77.71-.84,1.47-.27,2.55.15,3.22,1.27,1.23,2.02,2.44,4.2,3.61,6.55.4.8,1.05,1.26,1.94,1.38l1,.13c.93.12,1.16-.23.71-1.05ZM91.69,102.3h-2.07c-.37-.01-.66-.31-.66-.68v-5.54c.01-.37.31-.67.68-.66h2.07c2.3,0,4.16,1.48,4.15,3.29v.32c0,1.81-1.87,3.27-4.17,3.27Z"/>
      <path class="cls-1" d="M131.02,108.28c.1,2.18,1.92,3.24,3.9,3.43.69.07,1.04.45,1.05,1.15v.96c.02.52-.24.78-.76.77-5.15-.07-7.71-2.7-7.67-7.87.03-4.39.01-8.86-.06-13.39-.01-.66.31-.99.97-.98l1.54.02c.54,0,.98.45.97.99,0,0,0,.01,0,.02-.16,5.59-.14,10.55.06,14.9Z"/>
      <path class="cls-1" d="M139.73,111.05c1.78-1.15,1.99-3.46,1.98-5.42-.02-4.25-.03-8.34-.03-12.29,0-.68.33-1.01,1.01-.99l1.29.03c.63.01.96.34.97.97.1,4.71.11,9.32.03,13.83-.07,3.67-1.78,6.12-5.13,7.36-.43.16-.92-.05-1.11-.47-.55-1.23-.22-2.23.99-3.02Z"/>
      <rect class="cls-1" x="142.36" y="101.85" width="22.14" height="3.08" rx=".71" ry=".71" transform="translate(49.78 256.64) rotate(-89.9)"/>
      <path class="cls-1" d="M185.34,96.12l.17,4.86c.01.33.28.59.61.6l7.54.13c.31,0,.57.23.61.54l.22,1.83c.04.34-.2.65-.53.69-.02,0-.04,0-.07,0l-7.84.08c-.34,0-.61.28-.61.62v5.27c-.01.34.26.61.6.62l8.56.1c.34,0,.61.28.61.62v1.59c0,.34-.27.62-.61.62h0l-11.77.1c-.34,0-.62-.27-.63-.61,0,0,0,0,0-.01l-.16-20.77c0-.34.28-.62.62-.62l11.96.14c.34,0,.62.29.61.63,0,0,0,0,0,.01l-.06,1.63c-.01.33-.28.59-.61.6l-8.6.07c-.34,0-.62.28-.62.62,0,.01,0,.02,0,.03Z"/>
      <path class="cls-1" d="M249.91,111.65h.16c2.71-.05,4.08-1.56,4.1-4.52.03-4.73.02-9.43-.03-14.09,0-.45.22-.68.68-.68l2.24.03c.48,0,.71.25.7.73-.09,4.51-.09,8.88.01,13.11.14,6.16-3.77,9.46-10.06,8.05-3.98-.89-5.4-4.32-5.29-8.12.13-4.71.14-9.03.04-12.96-.01-.44.34-.8.78-.81,0,0,.01,0,.02,0h1.85c.44,0,.66.22.66.66-.01,4.39,0,9.04.04,13.93.02,2.98,1.39,4.54,4.1,4.67Z"/>
      <path class="cls-1" d="M278.9,113.23l-4.4-7.67c-.19-.33-.11-.74.17-.97,2.17-1.82,3.32-3.07,3.12-6.33-.16-2.66-1.4-4.15-3.12-4.97-.22-.1-.44-.19-.67-.28-.23-.08-.47-.15-.71-.22s-.49-.12-.74-.17c-.25-.05-.51-.09-.77-.13-.51-.07-1.04-.11-1.58-.14-.26-.02-.53-.03-.79-.03-.27-.01-.54-.01-.8-.01-1.3,0-2.56.06-3.65.06-.28,0-.51.23-.51.51l.02,20.49c0,.68.34,1.02,1.02,1.02h1.17c.68.01,1.02-.33,1.02-1.01v-7.27c0-.35.16-.6.48-.74,1.44-.65,2.96.02,3.65,1.4,1.14,2.26,2.32,4.42,3.53,6.49.47.8,1.18,1.21,2.11,1.23h.7c.99.01,1.24-.41.75-1.26ZM270.45,102.25l-1.98-.02c-.44,0-.8-.36-.8-.8l.04-5.2c0-.45.36-.8.8-.8l1.98.02c2.21,0,3.99,1.46,3.98,3.23v.38c-.01,1.78-1.81,3.2-4.02,3.19Z"/>
      <path class="cls-1" d="M300.31,113.58l-6.22-20.08c-.15-.5-.54-.88-1.03-1.03-1.77-.56-2.89.05-3.36,1.81-1.52,5.77-3.51,12.16-5.96,19.16-.24.67,0,1,.71.99l1.85-.05c.55-.02.9-.29,1.05-.82l.86-3.27c.19-.71.83-1.19,1.55-1.19l5.07-.02c.42-.01.69.19.8.6l1.09,3.81c.17.58.55.86,1.15.86l1.9-.03c.51-.01.69-.26.54-.74ZM294.34,106.33l-4.55.04s-.06-.01-.09-.01c-.19-.05-.3-.25-.25-.43l2.21-7.67c.03-.12.12-.2.23-.24.19-.05.38.05.44.24l2.34,7.62s0,.06.02.09c0,.19-.16.35-.35.36Z"/>
      <path class="cls-1" d="M318.12,102.24c.24,3.77.33,7.56.26,11.38,0,.4-.33.73-.74.74l-1.89.03c-.51,0-.77-.25-.77-.76v-20.53c0-.49.23-.73.72-.74l1.62-.02c.48,0,.81.21.98.66l6.27,15.98c.11.26.21.26.32,0,2.07-4.87,4.05-9.9,5.96-15.09.54-1.5,1.86-1.87,3.27-1.48.33.09.5.31.5.66v20.72c-.01.41-.21.61-.61.6l-2.07-.05c-.28,0-.51-.24-.51-.52l.06-12.74c0-.79-.14-.82-.43-.09l-5.13,12.87c-.19.49-.72.75-1.23.62-.68-.18-1.16-.62-1.43-1.32-1.57-3.95-3.03-7.64-4.39-11.09-.62-1.57-.87-1.52-.76.17Z"/>
      <path class="cls-1" d="M371.07,92.47h-7.39c-.18-.01-.32.13-.32.31l-.04,21.22c0,.17.14.32.32.32h7.39c4,.01,7.26-3.25,7.26-7.27l.02-7.28c.01-4.03-3.24-7.3-7.24-7.3ZM374.92,107.19c0,2.37-2.04,4.29-4.55,4.29h-3.08c-.46.01-.83-.36-.83-.82l-.02-14.48c0-.46.37-.83.83-.83h3.08c2.51-.01,4.55,1.9,4.55,4.27l.02,7.56h0Z"/>
      <path class="cls-1" d="M386.03,111.04c0,.06-.04.1-.1.1h-.09c-.8,0-1.46-.85-1.47-1.91l-.16-15.04c-.01-1.07.63-1.94,1.43-1.95,0,0,0,0,0,0h.09c.06,0,.1.04.1.1h0s.2,18.7.2,18.7Z"/>
      <path class="cls-1" d="M395.24,111.63c.05,0,.1,0,.15,0,2.56-.07,3.87-1.38,3.93-3.94.1-4.7.12-9.54.07-14.52,0-.59.29-.87.88-.83l1.69.13c.65.05.98.4.97,1.05-.08,4.87-.1,9.6-.07,14.18.07,8.49-13.36,8.69-13.37,3.53,0-5.81-.01-11.87-.02-18.2,0-.36.3-.65.66-.65h.35c.43,0,.64.21.63.64-.13,4.52-.08,9.48.14,14.88.1,2.56,1.43,3.81,3.99,3.74Z"/>
      <path class="cls-1" d="M413.34,111.43l7.02-.03c.35,0,.63.27.64.62,0,0,0,.01,0,.02l-.02,1.63c0,.34-.28.61-.62.62l-10.06.08c-.35,0-.63-.27-.64-.62,0,0,0-.01,0-.02l.04-20.77c0-.35.28-.63.63-.63,0,0,.01,0,.02,0l1.74.04c.34.01.61.29.61.63v17.8c.01.35.29.63.64.63Z"/>
      <path class="cls-1" d="M441.73,113.38c-2.05-6.69-4.13-13.34-6.22-19.95-.4-1.27-2.11-1.39-3.08-.9-.32.16-.56.43-.68.77-2.27,6.43-4.32,13.15-6.17,20.16-.21.79.09,1.16.91,1.11l.9-.06c.7-.05,1.29-.54,1.46-1.21l.93-3.65c.08-.32.37-.55.69-.55l6.04-.03c.39,0,.63.18.73.56l.93,3.58c.19.72.67,1.1,1.42,1.13l1.36.06c.74.02,1-.32.78-1.02ZM435.74,106.41h-4.36s-.07-.01-.1-.02c-.18-.05-.28-.24-.23-.42l2.18-7.59c.03-.13.13-.22.25-.25.18-.05.37.06.41.25l2.18,7.59s.02.07.02.1c-.01.19-.16.34-.35.34Z"/>
      <path class="cls-1" d="M462.35,113.43l-4.68-8.03c-.19-.33-.13-.6.19-.8,2.89-1.9,3.87-4.61,2.93-8.13-1.28-4.8-8.67-4.25-12.31-4.09-.36.01-.64.31-.64.67l.06,20.36v.08s.01.05.01.07t.01.02s0,.04,0,.06c0,.02.01.04.02.06.01.06.03.1.05.15h0c.03.08.08.15.13.21.03.04.07.09.12.13.2.19.49.3.79.28l.88-.07c.78-.06,1.16-.48,1.15-1.26l-.09-7.08c-.01-.36.23-.68.57-.78,1.67-.54,2.92-.05,3.74,1.45,1.1,2.01,2.15,4.06,3.15,6.14.43.89,1.13,1.38,2.12,1.47l1.14.11c.88.07,1.1-.27.65-1.02ZM453.97,102.33h-2.31c-.37-.02-.66-.32-.66-.69l.02-5.58c.01-.37.31-.67.68-.66h2.31c2.2.02,3.97,1.47,3.96,3.26v.46c-.01,1.78-1.8,3.22-4,3.21Z"/>
      <path class="cls-1" d="M166.27,95.48l-4.77-.39c-.36-.03-.66-.28-.76-.63-.07-.26-.06-.52.04-.77.3-.73.84-1.09,1.62-1.08l12.58.03c.65,0,.98.33.98.98v.4c0,.53-.4.98-.93,1.04l-4.54.52c-.28.03-.42.19-.42.48l.03,17.2c0,.71-.36,1.07-1.07,1.07h-1.06c-.64-.02-.96-.34-.96-.98l-.02-17.08c0-.49-.24-.75-.72-.79Z"/>
      <path class="cls-1" d="M231,96.11l-.02,17.68c0,.33-.27.6-.6.6,0,0-.01,0-.02,0l-1.86-.08c-.32-.02-.57-.27-.57-.59l-.07-17.77c0-.33-.27-.6-.6-.6,0,0,0,0-.01,0l-4.56.11c-.33.01-.61-.25-.62-.58,0-.02,0-.03,0-.05l.09-1.76c.02-.32.28-.57.6-.57l13.54.08c.33,0,.6.27.6.6,0,.01,0,.02,0,.03l-.1,1.51c-.02.31-.26.55-.57.57l-4.66.22c-.32.02-.57.28-.57.6Z"/>
    </g>
  </g>
</svg>