<?xml version="1.0" encoding="UTF-8"?>
<svg id="Capa_2" data-name="Capa 2" xmlns="http://www.w3.org/2000/svg" viewBox="0 0 190.94 192.34">
  <defs>
    <style>
      .cls-1 {
        fill: #fff;
        stroke-width: 0px;
      }
    </style>
  </defs>
  <g id="Capa_1-2" data-name="Capa 1">
    <g>
      <g>
        <path class="cls-1" d="M186.87,65.29C168.59,7.29,99.3-16.79,47.46,12.47,28.5,23.18,14.95,38.27,6.8,57.76c-17.32,41.46-.37,87.22,37.35,110.69.31.19.71.14.96-.12.36-.35.44-.71.26-1.08-.13-.26-.32-.47-.57-.61-4.8-2.76-9.43-6.25-13.91-10.47C.92,127.99-7.15,84.44,13.53,48.47,40.4,1.73,102.12-11.69,147.14,16.88c40.14,25.48,54.11,77.46,29.34,118.99-5.79,9.7-13.41,18.3-22.85,25.81-2.57,2.05-5.26,3.79-8.09,5.22-.56.29-.7.72-.43,1.29l.12.23c.19.38.64.54,1.02.36.02-.01.05-.02.07-.04,35.36-21.99,53.22-63.2,40.54-103.45h0Z" vector-effect="non-scaling-stroke"/>
        <path class="cls-1" d="M90.79,15.35c.82-.13,1.56-.01,2.2.35.32.18.44.59.26.91,0,.01-.02.03-.03.04-.46.69-1.1.99-1.92.91-.53-.06-.61.1-.25.49.76.78,1.57,1.51,2.43,2.17.58.45.69.35.35-.29-.18-.33-.39-.64-.64-.93-.19-.23-.22-.55-.06-.81.36-.59.58-1.23.68-1.93.14-.97-.27-1.54-1.23-1.73-.79-.15-1.63-.17-2.52-.06-.6.06-.87.39-.83.99l.31,4.47c.01.16.1.24.25.26.14.02.23-.01.3-.1.09-.11.15-.24.17-.38.21-1.24.16-2.36-.13-3.34-.17-.59.05-.93.65-1.02h0Z" vector-effect="non-scaling-stroke"/>
        <path class="cls-1" d="M99.62,18.79c-.12.72-.53,1.04-1.24.96-1.08-.13-1.78-.76-2.1-1.89-.31-1.09.32-2.22,1.41-2.53.14-.04.28-.06.42-.07l1.33-.09c.77-.05.8-.22.09-.5-2.59-1-4.93,1.46-3.97,3.87.53,1.32,1.43,1.97,2.7,1.95,1.12-.02,2.04-.91,2.1-2.04.06-1.2-.38-1.67-1.31-1.41-.31.09-.37.26-.19.52.06.09.14.16.23.21.42.21.59.54.52,1h0Z" vector-effect="non-scaling-stroke"/>
        <path class="cls-1" d="M105.6,15.46c.09.14.23.17.43.11.27-.09.29-.21.06-.37-.79-.55-1.69-.71-2.7-.48-.32.07-.56.31-.64.62-.06.24-.03.47.09.69.15.27.32.28.52.04.48-.6,1.12-.87,1.94-.79.14.01.23.07.3.18h0Z" vector-effect="non-scaling-stroke"/>
        <path class="cls-1" d="M85.9,16.43l.18,1.14c.06.35-.02.65-.27.91-.33.36-.79.48-1.35.38-.25-.04-.44-.17-.58-.37-.14-.21-.28-.2-.42.01-.5.8-.68,1.58-.55,2.37.09.57.26.59.49.06.42-.97,1.25-1.57,2.49-1.81.28-.06.48.05.58.32.15.42.42.73.81.93.51.26.68.11.51-.44-.42-1.35-1.05-2.52-1.9-3.5h0Z" vector-effect="non-scaling-stroke"/>
        <path class="cls-1" d="M85.9,16.43c-.13-.38-.28-.68-.45-.87-.27-.33-.76-.39-1.09-.12-.11.09-.19.2-.24.33-.09.26-.13.51-.11.77.04.49.29.63.74.43l1.15-.53h0Z" vector-effect="non-scaling-stroke"/>
        <path class="cls-1" d="M109.18,18.21c.11-.09.23-.16.35-.23.55-.29.78-.97.49-1.52-.12-.23-.32-.42-.56-.52l-.32-.14c-.47-.21-.69-.05-.67.47.04.96-.11,1.87-.47,2.73-.04.1-.05.2-.02.3.02.11.08.2.18.28.26.19.41.13.46-.18.03-.18.07-.36.12-.54.07-.27.22-.48.44-.64h0Z" vector-effect="non-scaling-stroke"/>
        <path class="cls-1" d="M112.58,18.12c.27.05.57-.37.66-.94,0,0,0,0,0,0,.09-.56-.05-1.06-.32-1.1,0,0,0,0,0,0-.27-.05-.57.37-.66.94,0,0,0,0,0,0-.09.56.05,1.06.32,1.1,0,0,0,0,0,0h0Z" vector-effect="non-scaling-stroke"/>
        <path class="cls-1" d="M117.93,18.48c.28-.09.56-.14.85-.16.73-.06.76-.24.09-.52-.96-.4-1.94-.65-2.93-.76-.65-.06-.7.08-.14.43.29.18.55.4.77.65.37.41.82.53,1.36.36h0Z" vector-effect="non-scaling-stroke"/>
        <path class="cls-1" d="M103.73,17.88c.55.42,1.15.58,1.81.47.67-.11.68-.28.03-.5-.71-.23-1.51-.46-2.39-.68-.2-.05-.4.08-.45.28,0,.02,0,.04,0,.05-.02.2.02.38.13.53.04.06.1.09.17.09.11,0,.18-.05.23-.14.12-.21.28-.25.47-.1h0Z" vector-effect="non-scaling-stroke"/>
        <path class="cls-1" d="M75.17,21.7l1.31.61c.56.26.66.13.31-.38l-2.94-4.22c-.26-.37-.77-.46-1.14-.19-.15.11-.27.27-.32.45-.39,1.46-.52,3.1-.38,4.94.04.48.18.52.45.12.41-.63.95-1.07,1.64-1.34.35-.14.74-.12,1.08.03h0Z" vector-effect="non-scaling-stroke"/>
        <path class="cls-1" d="M67.83,20.98c-.85,1.19-1.29,2.48-1.34,3.89-.01.38.17.54.54.5,1.28-.12,2.36-.51,3.23-1.17.48-.36.42-.5-.18-.43-.53.07-1.04.21-1.55.42-.87.36-1.16.09-.86-.81l.99-2.99c.55-1.67.05-2.09-1.5-1.26-.68.36-1.4.61-2.14.75-.19.03-.35.16-.44.33-.05.1-.05.2.01.31.11.23.3.34.57.32.59-.05,1.13-.26,1.61-.64.26-.21.55-.29.87-.25.13.01.22.1.28.25.12.28.09.54-.09.78h0Z" vector-effect="non-scaling-stroke"/>
        <path class="cls-1" d="M119.45,23.99c.25.1.92-1.05,1.5-2.55.58-1.5.86-2.8.61-2.9-.25-.1-.92,1.05-1.5,2.55-.58,1.5-.86,2.8-.61,2.9h0Z" vector-effect="non-scaling-stroke"/>
        <path class="cls-1" d="M115.85,21.16c-.34.45-.38.9-.11,1.34.38.65.63.6.76-.13l.53-2.99c.11-.63-.05-.72-.5-.26-.34.36-.5.79-.47,1.31.02.26-.05.5-.21.71h0Z" vector-effect="non-scaling-stroke"/>
        <path class="cls-1" d="M102.52,20.64l2.89.2c.21.01.32-.09.31-.3v-.33s-.04-.06-.07-.06c0,0,0,0-.01,0-.97.09-1.84-.11-2.6-.6-.41-.26-.66-.14-.75.34l-.06.37c-.02.18.1.35.27.37,0,0,.02,0,.03,0h0Z" vector-effect="non-scaling-stroke"/>
        <path class="cls-1" d="M111.63,19.8c-.08-.14-.18-.25-.32-.33-.32-.21-.47-.12-.45.27.04.72.26,1.34.64,1.86.29.38.57.38.84-.02.27-.39.35-.82.23-1.3-.02-.09-.07-.12-.16-.12-.09,0-.18,0-.28,0-.23-.04-.4-.15-.51-.35h0Z" vector-effect="non-scaling-stroke"/>
        <path class="cls-1" d="M123.76,22.15l.79.42c.33.17.49.07.48-.3l-.05-2c-.01-.5-.26-.69-.75-.54-.55.16-.9.58-1.03,1.26-.11.53.08.92.57,1.17h0Z" vector-effect="non-scaling-stroke"/>
        <path class="cls-1" d="M127.78,20.83c-.11-.04-.19,0-.23.11-.48,1.44-1.22,2.68-2.23,3.72-.16.17-.22.4-.17.62.16.58.51.8,1.06.66.28-.07.49-.3.54-.58.28-1.41.81-2.67,1.6-3.77.14-.19.1-.45-.09-.58-.03-.03-.07-.04-.11-.06l-.36-.12h0Z" vector-effect="non-scaling-stroke"/>
        <path class="cls-1" d="M61.5,23.06c.26,1.42-.22,1.75-1.44.98-.65-.41-1.29-.68-1.92-.82-.28-.06-.55.12-.61.4-.02.11,0,.23.04.33l2.23,4.46c.11.21.26.25.47.12l.23-.16c.11-.08.17-.21.13-.34-.18-.63-.49-1.21-.91-1.74-.27-.34-.26-.67.04-.98.12-.12.27-.18.44-.18.23,0,.43.07.59.25.14.16.29.27.47.34.13.05.28,0,.33-.14,0-.02.02-.05.02-.07.05-.59.33-.97.83-1.13.35-.12.73.01.93.32.23.37.37.78.39,1.24,0,.22.11.38.3.49.25.16.48.03.7-.38.12-.24.1-.52-.05-.74-.78-1.11-1.41-2.31-1.9-3.59-.09-.24-.25-.4-.49-.47-.6-.19-.9.02-.92.65,0,.42.02.81.09,1.18h0Z" vector-effect="non-scaling-stroke"/>
        <path class="cls-1" d="M132.03,24.21l.43-.07c.5-.09.62-.34.37-.78-.07-.14-.17-.25-.3-.33-.28-.21-.56-.19-.83.05l-4.03,3.55c-.11.11-.12.22-.02.33l.29.33c.06.06.12.07.18.02,1.14-.79,2.14-1.65,2.97-2.59.26-.28.57-.45.94-.51h0Z" vector-effect="non-scaling-stroke"/>
        <path class="cls-1" d="M122.27,24.96c.32.03.62-.34.67-.84.05-.5-.16-.93-.47-.96-.32-.03-.62.34-.67.84-.05.5.16.93.47.96h0Z" vector-effect="non-scaling-stroke"/>
        <path class="cls-1" d="M131.69,28.19l-.04.58c-.02.24.16.45.41.47.07,0,.13,0,.19-.03.25-.09.37-.27.37-.54,0-.65.04-1.34.09-2.07.03-.5-.2-.69-.68-.55l-1.27.35c-.54.15-.58.38-.11.69.11.07.23.12.36.16.49.13.72.44.68.95h0Z" vector-effect="non-scaling-stroke"/>
        <path class="cls-1" d="M55.44,27.77c-.13.13-.13.35,0,.48.05.05.12.08.19.09.54.09,1.08,0,1.62-.27.22-.11.31-.37.2-.58-.05-.11-.15-.19-.26-.23-.67-.21-1.25-.04-1.75.5h0Z" vector-effect="non-scaling-stroke"/>
        <path class="cls-1" d="M136.54,29.12c.21-.23.02-.76-.43-1.17,0,0,0,0,0,0-.45-.41-.99-.56-1.21-.32-.21.23-.02.76.43,1.17,0,0,0,0,0,0,.45.41.99.56,1.21.32h0Z" vector-effect="non-scaling-stroke"/>
        <path class="cls-1" d="M53.47,60.68c-.02.11.05.22.16.24.02,0,.03,0,.05,0,.98.04,1.69-.33,2.12-1.09.16-.3.11-.55-.17-.75-.48-.35-.93-.32-1.34.1-.41.41-.68.9-.81,1.49h0Z" vector-effect="non-scaling-stroke"/>
        <path class="cls-1" d="M38.27,65.49c.49-.72.73-.64.71.23l-.13,7.77c0,.35.16.53.51.54h.34c.31.03.57-.21.59-.51,0-.01,0-.02,0-.03l-.03-9.32c0-2.74-.77-2.97-2.29-.68l-3.08,4.65c-.12.19-.37.24-.56.12-.05-.04-.1-.08-.13-.14-.93-1.56-1.9-3.04-2.9-4.45-1.64-2.3-2.47-2.03-2.48.79l-.05,8.97c0,.41.2.61.61.61h.42c.35,0,.52-.17.51-.52l-.14-7.51c-.02-1.2.29-1.3.95-.3l3.01,4.59c.15.24.47.31.71.15.06-.04.11-.09.15-.14l3.3-4.83h0Z" vector-effect="non-scaling-stroke"/>
        <path class="cls-1" d="M54.67,62.85c-.22-.43-.6-.63-1.14-.61-.35.02-.66.23-.8.55l-4.88,10.74c-.06.12-.03.22.08.3l.29.2c.36.25.65.18.85-.2l1.3-2.36c.22-.4.56-.6,1.01-.6l4.65-.02c.46,0,.78.2.98.6l1.2,2.4c.15.31.5.46.83.37l.25-.08s.03-.01.04-.01c.16-.07.24-.25.18-.42-1.44-3.64-3.05-7.26-4.84-10.86ZM55.9,69.7l-4.44-.03c-.05,0-.09-.01-.14-.03-.16-.07-.24-.27-.16-.43l2.24-4.77c.03-.07.09-.12.16-.16.16-.08.36-.01.44.16l2.2,4.79s.03.09.03.13c0,.19-.14.33-.33.34Z"/>
        <path class="cls-1" d="M76.52,73.35l-2.62-3.24c-.35-.43-.27-.77.22-1.02,2.1-1.04,3.36-3.38,1.76-5.41-1.65-2.11-5.68-1.75-8.21-1.44-.4.05-.71.4-.71.8l.02,10.53c0,.35.18.5.53.45l.3-.03c.52-.07.76-.37.71-.89l-.26-2.76c-.04-.45.15-.7.59-.77,1.05-.17,2.03-.1,2.94.2.36.11.64.34.83.67.87,1.46,1.93,2.73,3.2,3.82.12.1.24.1.35,0l.28-.24c.2-.17.23-.46.07-.67ZM71.68,68.3l-2.19.06h-.01c-.62.01-1.13-.48-1.14-1.1l-.07-2.66c-.01-.61.47-1.12,1.09-1.14l2.2-.07c1.96-.04,3.57.95,3.6,2.21v.32c.04,1.26-1.52,2.33-3.48,2.38Z"/>
        <path class="cls-1" d="M86.43,65.54c1.05,1.34,2.07,2.85,3.06,4.55.2.35.64.47.99.27.11-.06.19-.15.26-.25l2.68-4.33c.68-1.1,1.01-1.01,1,.29l-.03,7.51c0,.36.29.66.65.66h.31c.22.02.4-.16.41-.37,0,0,0-.01,0-.02l-.05-9.73c-.01-2.54-.73-2.76-2.15-.65l-3.09,4.58c-.14.22-.43.28-.65.14-.06-.04-.11-.09-.15-.16-.91-1.53-1.9-3.03-2.99-4.51-1.52-2.08-2.29-1.83-2.31.75l-.11,8.99c0,.41.32.75.74.76h.32c.28.02.52-.21.52-.49,0,0,0-.01,0-.02l-.12-7.7c0-.79.23-.87.72-.26h0Z" vector-effect="non-scaling-stroke"/>
        <path class="cls-1" d="M109.72,61.97c-3.4,0-6.16,2.76-6.16,6.16s2.76,6.16,6.16,6.16,6.16-2.76,6.16-6.16-2.76-6.16-6.16-6.16ZM110.33,72.9c-2.53.35-4.87-1.51-5.23-4.15-.35-2.64,1.41-5.05,3.94-5.4,2.54-.34,4.88,1.52,5.23,4.16.36,2.64-1.4,5.05-3.94,5.39Z"/>
        <path class="cls-1" d="M140.53,69c0-.15.13-.28.29-.28h6.25c.16,0,.29-.13.29-.29,0-.02,0-.04,0-.06l-.13-.66c-.03-.13-.14-.23-.28-.23l-6.25-.05c-.16,0-.29-.13-.29-.29h0l.03-3.39c0-.15.13-.27.28-.28l6.82-.09c.15,0,.28-.12.29-.27l.03-.65c.01-.16-.11-.3-.27-.31,0,0-.01,0-.02,0l-8.22-.02c-.16,0-.29.13-.29.29h0l.07,11.33c0,.16.13.29.29.29l8.16.1c.16,0,.29-.13.29-.28,0-.02,0-.03,0-.05l-.09-.74c-.02-.15-.14-.26-.29-.26l-6.81-.03c-.16,0-.29-.13-.29-.29,0,0,0,0,0-.01l.13-3.49h0Z" vector-effect="non-scaling-stroke"/>
        <path class="cls-1" d="M162.13,71.63c-.91,2.56-5.02.86-6.64-.18-.11-.08-.26-.05-.35.06-.02.02-.03.05-.04.08l-.15.5c-.09.26-.01.46.21.62,7.45,5.21,11.68-3.74,5.87-4.94-1.27-.26-2.51-.69-3.73-1.28-.66-.32-.94-1.1-.64-1.77.92-2.04,4.16-1.46,5.61-.5.14.1.3.15.48.16.26.01.44-.14.52-.47.05-.18,0-.37-.12-.51-1.89-2.16-6.08-1.78-7.56.5-2.31,3.58,3.61,4.99,5.63,5.45.4.09.68.32.84.7.23.51.25,1.04.05,1.58h0Z" vector-effect="non-scaling-stroke"/>
        <path class="cls-1" d="M125.31,72.79c-.16,0-.3-.13-.3-.3l.02-9.93c0-.16-.13-.3-.3-.3,0,0,0,0-.01,0h-.86c-.16.02-.29.15-.29.31l-.03,11.2c0,.16.13.3.3.3h7.59c.16-.01.3-.15.29-.31,0-.02,0-.03,0-.05l-.14-.7c-.03-.14-.15-.24-.29-.25l-5.98.02h0Z" vector-effect="non-scaling-stroke"/>
        <path class="cls-1" d="M27.52,99.5c4.36,4.08,11.34,3.78,15.71-.26.58-.53.59-1.08.05-1.63l-1.11-1.14c-.46-.49-.94-.5-1.44-.04-3.32,3.05-8.2,3.21-11.12-.44-5.8-7.22,2.74-17.48,10.84-11.02.66.53,1.25.46,1.77-.19l.94-1.18c.44-.55.34-1.36-.22-1.8-.03-.03-.07-.05-.1-.07-4.63-2.98-9.05-3.33-13.24-1.06-6.92,3.75-7.83,13.44-2.09,18.84h0Z" vector-effect="non-scaling-stroke"/>
        <path class="cls-1" d="M68.91,101.02c-2.78-6.29-5.61-12.85-8.51-19.67-.29-.68-.71-1.22-1.25-1.63-.11-.08-.23-.16-.35-.22-.12-.07-.24-.12-.37-.16-.09-.03-.19-.06-.29-.08h-.03s-.08-.02-.12-.02c-.11-.02-.22-.03-.33-.03-.12,0-.25,0-.36.03-.01,0-.02,0-.03.01-.09,0-.18.02-.26.05-.03.01-.07.02-.1.03-.08.02-.14.05-.22.09h-.01c-.12.05-.23.11-.34.18-.05.03-.11.07-.16.11h-.01s-.09.09-.14.13c-.04.04-.09.08-.13.12-.07.07-.13.14-.19.22-.06.08-.12.16-.17.25-.05.08-.1.17-.14.27l-8.68,20.07c-.48,1.12-.12,1.62,1.09,1.52l.91-.08c.9-.08,1.68-.65,2.02-1.48l1.4-3.36c.21-.49.68-.8,1.21-.81l8.66-.04c.52,0,.99.31,1.2.79l1.72,4.03c.25.58.85.94,1.49.89l1.85-.14c.72-.05.93-.41.64-1.07ZM60.94,93.03h-6.47s-.1,0-.15-.02c-.18-.07-.26-.28-.18-.46l3.23-7.62c.03-.09.1-.16.19-.19.18-.08.38.01.46.19l3.24,7.61s.02.09.03.14c0,.19-.16.35-.35.35Z"/>
        <path class="cls-1" d="M76.98,87.34c0-.74.22-.82.67-.25,3.63,4.61,7.12,9.16,10.47,13.65.77,1.04,1.78,1.56,3.04,1.56.6,0,1.09-.49,1.09-1.09l.03-20.85c0-.63-.31-.92-.93-.9l-2.09.09c-.51.02-.91.44-.91.95l.05,13.28c0,.82-.24.9-.74.26-3.21-4.24-6.42-8.45-9.63-12.65-1.15-1.5-2.29-2.31-4.15-1.88-.44.11-.76.5-.76.96l-.03,20.75c0,.57.46,1.03,1.02,1.03.01,0,.03,0,.04,0l1.83-.06c.59-.02,1.07-.5,1.07-1.1l-.1-13.74h0Z" vector-effect="non-scaling-stroke"/>
        <path class="cls-1" d="M118.92,101.18l-8.84-20.46c-.04-.09-.09-.18-.14-.27-.02-.03-.04-.07-.06-.1-.05-.09-.11-.17-.18-.25l-.03-.03c-.07-.09-.15-.17-.23-.24-.15-.13-.31-.25-.48-.34-.07-.04-.14-.08-.22-.11-.1-.04-.19-.08-.29-.11-.12-.04-.24-.06-.36-.08-.12-.02-.25-.03-.37-.03s-.25.01-.37.03-.25.04-.36.08c-.24.07-.46.17-.67.31-.09.05-.17.11-.25.18-.03.02-.05.04-.08.07h-.01c-.04.05-.08.08-.11.12-.04.03-.07.07-.11.12l-.03.03s-.06.08-.09.12c-.04.04-.06.08-.09.13-.08.12-.14.24-.2.37l-8.78,20.38c-.38.88-.09,1.27.86,1.18l1.53-.18c.76-.08,1.42-.57,1.72-1.27l1.44-3.44c.23-.52.63-.79,1.19-.79l8.71-.03c.59,0,.99.27,1.21.81l1.45,3.54c.32.8.91,1.22,1.77,1.26l1.7.1c.85.04,1.11-.33.77-1.1ZM110.89,93.05l-6.5-.04c-.05,0-.1-.01-.15-.03-.18-.08-.25-.29-.17-.47l3.31-7.55c.03-.08.1-.15.19-.19.18-.07.38.01.46.19l3.19,7.6c.02.05.03.1.03.15,0,.19-.16.35-.36.34Z"/>
        <path class="cls-1" d="M131.28,79.52l-7.77-.02c-.22,0-.4.18-.4.4l-.08,21.83c0,.22.17.4.39.4l7.77.02h.04c.17,0,.33,0,.49-.01.16,0,.32-.02.48-.03.08,0,.16-.01.24-.02.2-.02.4-.04.6-.07.19-.03.39-.06.58-.1.18-.03.36-.07.54-.11.01,0,.03-.01.04-.01.31-.08.61-.16.91-.26.14-.04.29-.09.44-.15.19-.07.38-.14.56-.22.19-.08.37-.16.55-.25.19-.09.38-.18.56-.28.01-.01.02-.01.03-.02.08-.04.16-.08.23-.13.08-.05.16-.09.24-.14.21-.13.41-.26.61-.4.2-.14.4-.29.6-.45.17-.13.34-.27.5-.42.21-.18.4-.37.59-.56.13-.13.26-.27.38-.41.12-.13.24-.27.35-.41.35-.43.66-.88.93-1.35.19-.32.35-.64.5-.98.08-.17.15-.33.22-.5.13-.34.25-.69.35-1.04.09-.36.17-.72.24-1.09.06-.37.1-.74.12-1.12.01-.19.02-.38.02-.57v-.34c.02-6.15-5.28-11.16-11.85-11.19ZM138.96,91.07c.03,3.98-3.08,7.22-6.95,7.25l-4.35.02c-.35,0-.64-.28-.65-.64l-.09-13.75c0-.36.28-.65.64-.65l4.35-.03c3.86-.03,7.02,3.17,7.05,7.14v.66Z"/>
        <path class="cls-1" d="M168.65,101.13l-8.78-20.3c-.05-.12-.12-.24-.19-.35-.07-.11-.14-.22-.23-.32-.08-.1-.17-.19-.26-.26-.08-.07-.16-.14-.25-.2-.02,0-.04-.02-.05-.03-.11-.07-.22-.13-.33-.18-.1-.05-.21-.09-.32-.12-.02-.01-.04-.02-.07-.02-.11-.03-.21-.06-.32-.07-.13-.02-.25-.03-.38-.03s-.25.01-.38.03c-.11.01-.21.04-.32.07-.02,0-.05.01-.07.02-.09.02-.18.05-.26.09-.02,0-.04.02-.06.03-.05.03-.11.05-.16.08-.08.04-.15.08-.21.13-.05.03-.1.06-.14.1-.04.03-.08.06-.12.1-.09.08-.18.17-.27.27,0,0-.01,0-.02.02-.07.09-.14.19-.2.29-.04.06-.07.11-.1.17-.04.06-.06.12-.09.18l-8.54,19.72c-.4.94-.1,1.48.92,1.62l.68.09c1,.14,1.95-.43,2.32-1.36l1.31-3.36c.2-.51.7-.85,1.26-.86l8.73-.11c.64-.01,1.08.29,1.32.89l1.42,3.61c.24.61.8,1.01,1.45,1.05l1.97.09c.82.04,1.06-.31.74-1.08ZM160.63,93.01h-6.5s-.09-.02-.13-.04c-.17-.08-.25-.28-.17-.45l3.25-7.56c.03-.08.1-.15.18-.18.17-.07.37.01.45.18l3.23,7.57s.03.09.03.14c0,.19-.15.34-.34.34Z"/>
        <path class="cls-1" d="M89.7,119.34c0-.55-.45-.99-1-.99h0l-10.58.06c-.55,0-.99.45-.99,1v.06c0,.55.45.99,1,.99h0l10.58-.06c.55,0,.99-.45.99-1v-.06h0Z" vector-effect="non-scaling-stroke"/>
        <path class="cls-1" d="M111.42,157.09c-.25-.12-.34-.28-.29-.48,1.61-5.54,3.03-10.9,4.26-16.08.14-.58-.21-1.17-.79-1.33-.55-.16-1.02-.04-1.43.34-1.08,1.02-2.2,2.06-3.36,3.14-.48.46-1.23.44-1.69-.05-.06-.06-.12-.13-.16-.21-3.23-5.34-6.27-10.89-9.13-16.66-.53-1.07-1.32-1.78-2.37-2.15-.3-.11-.64-.07-.91.1-.81.5-1.42,1.17-1.83,2-2.84,5.86-5.9,11.45-9.17,16.78-.34.55-1.06.72-1.61.38-.07-.04-.13-.09-.19-.14l-3.54-3.38c-.44-.42-1.13-.41-1.55.03-.13.13-.22.3-.27.48-.2.74-.2,1.47,0,2.2,1.24,4.53,2.48,9.21,3.74,14.05.05.2-.07.42-.28.47-.01,0-.03,0-.04,0-.35.05-.64-.05-.88-.3-2.41-2.46-4.97-4.79-7.68-7-.68-.56-1.33-.54-1.93.07-.2.21-.29.45-.29.74.01.33-.07.64-.26.92-.25.36-.55.42-.91.16-1.83-1.32-3.55-2.54-5.16-3.66-1.16-.8-2.1-.56-2.84.72-.28.49-.3.99-.06,1.49l5.8,12.73c.24.52.01,1.15-.52,1.39-.05.02-.11.04-.16.06l-3.8,1.04c-.86.24-1.36,1.13-1.12,1.98.12.42.4.77.78.98,4.35,2.36,7.87,5.27,10.58,8.73.31.4.23.97-.16,1.27-.12.09-.27.16-.42.18-3.31.45-6.42.99-9.34,1.61-.97.21-1.42.76-1.34,1.67.05.58.44,1.08.98,1.27l14.55,5.16c.64.23,1.02.89.91,1.56l-.39,2.2c-.07.42.11.65.53.69,2.86.25,5.18-.06,6.95-.94,2.71-1.34,5.64-2.42,8.76-3.23,4.75-1.24,10.48,1.25,14.8,3.36,2.26,1.11,4.41.82,6.77.88.47.01.68-.21.64-.67-.06-.6-.24-1.17-.54-1.7-.37-.63-.16-1.44.47-1.81.04-.03.09-.05.13-.07,4.2-1.86,9-3.58,14.4-5.17,1.19-.36,1.61-1.12,1.26-2.28-.15-.51-.58-.9-1.11-.99l-9.67-1.7c-.41-.07-.68-.45-.62-.86.02-.12.07-.24.15-.34,2.84-3.67,6.44-6.63,10.81-8.89.75-.39,1.05-1.31.66-2.07-.19-.37-.53-.65-.93-.77l-4.05-1.2c-.51-.15-.79-.69-.64-1.2.01-.04.03-.08.04-.11,1.91-4.26,3.8-8.53,5.66-12.8.38-.87.22-1.63-.49-2.28-.53-.48-1.32-.54-1.9-.14l-5.52,3.82c-.34.24-.82.15-1.05-.2-.06-.09-.1-.19-.12-.29-.06-.38-.18-.74-.36-1.08-.32-.61-1.08-.84-1.69-.52-.1.05-.19.11-.26.19l-8.49,7.83c-.09.09-.23.11-.34.05h0Z" vector-effect="non-scaling-stroke"/>
        <path class="cls-1" d="M44.79,128.69c0-.55-.44-.99-.99-.99l-11.79-.02c-.55,0-.99.44-.99.99h0v.06c0,.55.44.99.99.99l11.79.02c.55,0,.99-.44.99-.99h0v-.06h0Z" vector-effect="non-scaling-stroke"/>
        <path class="cls-1" d="M148.68,131.77c0-.63-.51-1.14-1.14-1.14l-13.35.02c-.63,0-1.14.51-1.14,1.14h0v.3c0,.63.51,1.14,1.14,1.14l13.35-.02c.63,0,1.14-.51,1.14-1.14h0v-.3h0Z" vector-effect="non-scaling-stroke"/>
        <path class="cls-1" d="M46.52,136.81c0-.55-.45-1-1-1h-7.14c-.55-.01-1,.43-1,.99v.11c0,.55.45,1,1,1h7.14c.55.01,1-.43,1-.99v-.11h0Z" vector-effect="non-scaling-stroke"/>
        <path class="cls-1" d="M140.51,137.43c0-.68-.55-1.24-1.23-1.24l-13.26-.02c-.68,0-1.24.55-1.24,1.23v.09c0,.68.55,1.24,1.23,1.24l13.26.02c.68,0,1.24-.55,1.24-1.23h0s0-.09,0-.09h0Z" vector-effect="non-scaling-stroke"/>
        <path class="cls-1" d="M153.99,149.46c0-.67-.55-1.21-1.22-1.21h0l-9.19.02c-.67,0-1.21.55-1.21,1.22h0v.09c0,.67.55,1.21,1.22,1.21h0l9.19-.02c.67,0,1.21-.55,1.21-1.22h0v-.09h0Z" vector-effect="non-scaling-stroke"/>
        <path class="cls-1" d="M74.34,21.1c.39-.19.51-.75.27-1.25,0,0,0,0,0,0-.24-.5-.76-.75-1.15-.55,0,0,0,0,0,0-.39.19-.51.75-.27,1.25,0,0,0,0,0,0,.24.5.76.75,1.15.55,0,0,0,0,0,0h0Z" vector-effect="non-scaling-stroke"/>
        <path class="cls-1" d="M93.74,131.76c-.66.23-1.12.66-1.39,1.29-1.51,3.55-3.41,6.94-5.7,10.18-1.29,1.82-3.04,2.54-5,1.3-.34-.21-.79-.11-1,.23-.1.17-.14.37-.09.56l3.12,12.48c.22.88-.32,1.77-1.2,1.99-.16.04-.32.06-.49.05-.63-.04-1.22-.29-1.79-.74-2.26-1.81-4.44-3.71-6.54-5.71-.4-.38-1.03-.37-1.43.01-2.09,2.01-5.71-1.58-7.44-2.74-.3-.2-.71-.12-.91.18-.09.14-.13.31-.1.47.01.11.05.22.11.35,1.25,2.98,2.52,5.76,3.82,8.35,1.11,2.23,1.55,5.09-1.57,5.85-1.88.47-2,1.22-.36,2.25,2.93,1.84,5.54,4.21,7.85,7.1,1.3,1.64,1.11,4.4-1.26,4.75-2.03.29-4.09.55-6.2.78-.26.03-.44.26-.41.52.01.11.06.21.14.28.64.63,1.4,1.08,2.28,1.33,3.5,1,6.81,2.19,9.9,3.57,1.32.59,1.75,1.94,1.41,3.29-.12.47.17.95.65,1.07.2.05.41.03.59-.06,5.3-2.52,12.75-6.06,18.62-4.5,3.75,1,7.6,2.36,11.55,4.1,1.16.51,1.78.14,1.88-1.13.13-1.63,1.09-2.56,2.48-3.22,3.73-1.75,7.53-3.03,11.41-3.86,1.19-.25,1.22-.6.11-1.07-.95-.4-1.99-.58-3.12-.54-1.57.04-3.12-.29-4.64-1.01-1.17-.55-1.49-1.42-.98-2.6,1.75-4.04,5.86-7.11,9.54-9.41.72-.45.68-.8-.14-1.06-3.19-.98-4.23-2.81-3.1-5.49,1.31-3.16,2.84-6.36,4.58-9.62.9-1.68.58-1.95-.96-.83-1.34.98-2.68,1.95-4.02,2.92-.96.69-2.15.84-3.09.37-.21-.1-.35-.44-.43-1.03-.03-.25-.25-.42-.5-.39-.09.01-.17.05-.24.1-2.33,1.99-4.65,4.08-6.95,6.28-.75.72-1.6,1.06-2.54.99-.74-.05-1.3-.68-1.25-1.42,0-.05,0-.09.02-.14.75-4.39,1.86-8.76,3.35-13.1.6-1.76.18-2.04-1.25-.86-.44.36-.92.68-1.43.96-.38.2-.75.18-1.11-.04-2.4-1.55-3.37-3.35-5.05-5.49-.49-.62-.88-1.24-1.16-1.87-1.57-3.44-3.36-7.1-5.36-10.98-.17-.34-.59-.48-.94-.3-.11.06-.21.15-.28.26-.86,1.37-1.61,2.85-2.25,4.45-.04.09-.03.17.01.26.06.11.14.17.25.19.02,0,.05.01.05.04,0,.02-.01.05-.04.05h0Z" vector-effect="non-scaling-stroke"/>
      </g>
      <path class="cls-1" d="M47.46,12.47c51.83-29.26,121.13-5.18,139.4,52.81,12.68,40.26-5.18,81.46-40.54,103.45-.35.22-.82.11-1.05-.25-.01-.02-.03-.05-.04-.07l-.12-.23c-.28-.57-.14-1,.43-1.29,2.83-1.44,5.53-3.18,8.09-5.22,9.44-7.51,17.05-16.11,22.85-25.81,24.78-41.52,10.8-93.51-29.34-118.99C102.12-11.69,40.4,1.73,13.53,48.47-7.15,84.44.92,127.99,30.89,156.18c4.48,4.21,9.12,7.7,13.91,10.47.25.14.44.34.57.61.18.37.1.73-.26,1.08-.25.26-.65.31-.96.12C6.43,144.98-10.52,99.22,6.8,57.76,14.95,38.27,28.5,23.18,47.46,12.47Z"/>
      <path class="cls-1" d="M90.14,16.38c.29.98.33,2.09.13,3.34-.02.14-.08.27-.17.38-.06.09-.16.12-.3.1-.15-.01-.23-.1-.25-.26l-.31-4.47c-.04-.6.23-.93.83-.99.89-.11,1.73-.09,2.52.06.96.18,1.37.76,1.23,1.73-.1.7-.33,1.34-.68,1.93-.15.26-.13.58.06.81.25.28.46.59.64.93.34.64.22.74-.35.29-.86-.67-1.67-1.39-2.43-2.17-.37-.39-.29-.55.25-.49.82.09,1.46-.22,1.92-.91.2-.3.12-.72-.19-.92-.01,0-.03-.02-.04-.03-.64-.36-1.37-.48-2.2-.35-.6.09-.82.43-.65,1.02Z"/>
      <path class="cls-1" d="M99.09,17.78c-.09-.05-.17-.12-.23-.21-.18-.26-.11-.44.19-.52.93-.26,1.37.21,1.31,1.41-.06,1.13-.98,2.02-2.1,2.04-1.27.02-2.17-.63-2.7-1.95-.96-2.41,1.38-4.87,3.97-3.87.71.28.68.45-.09.5l-1.33.09c-1.13.07-1.98,1.05-1.91,2.18,0,.14.03.29.07.42.32,1.13,1.02,1.76,2.1,1.89.7.08,1.12-.24,1.24-.96.07-.46-.1-.8-.52-1Z"/>
      <path class="cls-1" d="M105.3,15.28c-.82-.08-1.46.18-1.94.79-.2.24-.37.23-.52-.04-.11-.22-.14-.45-.09-.69.08-.31.32-.55.64-.62,1.01-.23,1.91-.07,2.7.48.23.16.21.29-.06.37-.19.06-.33.03-.43-.11-.06-.11-.16-.17-.3-.18Z"/>
      <path class="cls-1" d="M85.9,16.43l-1.15.53c-.45.21-.69.06-.74-.43-.02-.26.01-.51.11-.77.15-.4.6-.6,1-.45.13.05.24.13.33.24.17.2.32.49.45.87Z"/>
      <path class="cls-1" d="M108.74,18.85c-.05.18-.09.37-.12.54-.05.31-.2.37-.46.18-.1-.08-.16-.17-.18-.28-.03-.1-.02-.2.02-.3.36-.86.51-1.77.47-2.73-.02-.52.2-.68.67-.47l.32.14c.57.24.83.9.59,1.47-.1.24-.29.44-.52.56-.12.07-.24.15-.35.23-.22.16-.37.37-.44.64Z"/>
      <ellipse class="cls-1" cx="112.75" cy="17.1" rx="1.03" ry=".5" transform="translate(77.28 125.48) rotate(-80.5)"/>
      <path class="cls-1" d="M85.9,16.43c.85.98,1.48,2.15,1.9,3.5.17.55,0,.69-.51.44-.39-.2-.66-.51-.81-.93-.1-.27-.29-.38-.58-.32-1.24.24-2.08.85-2.49,1.81-.23.53-.4.5-.49-.06-.13-.78.06-1.57.55-2.37.14-.21.27-.22.42-.01.14.21.33.33.58.37.57.1,1.02-.03,1.35-.38.24-.26.33-.56.27-.91l-.18-1.14Z"/>
      <path class="cls-1" d="M116.57,18.11c-.22-.25-.48-.47-.77-.65-.56-.35-.52-.49.14-.43,1,.11,1.97.36,2.93.76.68.28.65.46-.09.52-.29.02-.58.07-.85.16-.54.16-1,.04-1.36-.36Z"/>
      <path class="cls-1" d="M103.26,17.98c-.05.09-.13.14-.23.14-.07,0-.13-.03-.17-.09-.11-.16-.15-.33-.13-.53.02-.21.2-.36.4-.34.02,0,.04,0,.05,0,.88.22,1.68.45,2.39.68.65.22.64.39-.03.5-.66.11-1.27-.05-1.81-.47-.19-.15-.35-.12-.47.1Z"/>
      <path class="cls-1" d="M76.79,21.92l-2.94-4.22s-.06-.08-.1-.11h-.01s-.05-.05-.08-.07c-.08-.06-.17-.1-.26-.13h-.01c-.07-.02-.14-.03-.21-.03-.08,0-.17.01-.25.04h-.01c-.07.02-.13.06-.2.1-.05.03-.09.07-.13.11h0c-.05.08-.1.14-.14.22-.02.04-.04.08-.05.13-.39,1.46-.52,3.1-.39,4.93.04.49.19.53.45.12.41-.62.95-1.07,1.64-1.34.35-.14.74-.13,1.08.03l1.31.61c.56.25.66.13.31-.39ZM74.34,21.11c-.09.04-.18.06-.28.06-.33,0-.68-.23-.87-.62-.08-.17-.12-.35-.12-.52,0-.32.14-.6.39-.72.09-.04.19-.06.29-.06.33,0,.68.23.86.61.24.5.12,1.06-.27,1.25Z"/>
      <path class="cls-1" d="M67.91,20.2c-.06-.15-.15-.23-.28-.25-.33-.04-.62.04-.87.25-.48.38-1.02.59-1.61.64-.26.02-.45-.09-.57-.32-.06-.11-.06-.21-.01-.31.09-.18.25-.3.44-.33.75-.14,1.46-.38,2.14-.75,1.56-.83,2.06-.41,1.5,1.26l-.99,2.99c-.3.9-.01,1.17.86.81.5-.21,1.02-.34,1.55-.42.6-.08.66.06.18.43-.87.66-1.95,1.05-3.23,1.17-.38.04-.56-.12-.54-.5.05-1.41.5-2.7,1.34-3.89.18-.24.21-.5.09-.78Z"/>
      <ellipse class="cls-1" cx="120.5" cy="21.27" rx="2.92" ry=".48" transform="translate(57.1 125.92) rotate(-68.8)"/>
      <path class="cls-1" d="M116.07,20.45c-.03-.52.13-.96.47-1.31.45-.46.61-.38.5.26l-.53,2.99c-.13.73-.38.77-.76.13-.27-.45-.23-.9.11-1.34.16-.21.23-.45.21-.71Z"/>
      <path class="cls-1" d="M102.52,20.64c-.18,0-.31-.16-.3-.35,0,0,0-.02,0-.03l.06-.37c.09-.48.33-.6.75-.34.76.48,1.63.68,2.6.6.03,0,.07.02.07.05,0,0,0,0,0,.01v.33c.02.21-.09.31-.3.3l-2.89-.2Z"/>
      <path class="cls-1" d="M112.14,20.15c.09,0,.18,0,.28,0,.09,0,.14.03.16.12.11.48.04.91-.23,1.3-.27.4-.55.41-.84.02-.38-.52-.6-1.14-.64-1.86-.02-.38.13-.47.45-.27.14.09.24.2.32.33.11.2.28.32.51.35Z"/>
      <path class="cls-1" d="M123.76,22.15c-.48-.25-.67-.64-.57-1.17.14-.68.48-1.09,1.03-1.26.48-.14.73.04.75.54l.05,2c.01.37-.15.47-.48.3l-.79-.42Z"/>
      <path class="cls-1" d="M128.35,21.59c-.79,1.1-1.32,2.36-1.6,3.77-.05.28-.26.5-.54.58-.55.14-.9-.08-1.06-.66-.05-.22.01-.45.17-.62,1.01-1.04,1.75-2.28,2.23-3.72.04-.11.12-.15.23-.11l.36.12c.22.07.33.31.26.53-.01.04-.03.08-.06.11Z"/>
      <path class="cls-1" d="M61.5,23.06c-.06-.37-.09-.76-.09-1.18.01-.63.32-.84.92-.65.24.07.41.23.49.47.48,1.29,1.12,2.48,1.9,3.59.15.22.17.5.05.74-.22.41-.45.54-.7.38-.19-.11-.29-.27-.3-.49-.03-.45-.16-.87-.39-1.24-.2-.31-.58-.44-.93-.32-.5.16-.78.54-.83,1.13-.01.14-.14.24-.28.23-.03,0-.05,0-.07-.02-.18-.07-.33-.18-.47-.34-.16-.17-.35-.25-.59-.25-.17,0-.32.06-.44.18-.3.31-.31.64-.04.98.42.53.72,1.11.91,1.74.04.13-.01.27-.13.34l-.23.16c-.21.14-.36.1-.47-.12l-2.23-4.46c-.12-.25-.02-.56.24-.68.1-.05.22-.06.33-.04.63.14,1.27.42,1.92.82,1.22.77,1.7.44,1.44-.98Z"/>
      <path class="cls-1" d="M131.09,24.72c-.84.94-1.83,1.8-2.97,2.59-.06.05-.12.04-.18-.02l-.29-.33c-.1-.11-.09-.22.02-.33l4.03-3.55c.27-.24.55-.26.83-.05.13.09.23.2.3.33.25.43.12.69-.37.78l-.43.07c-.37.06-.68.23-.94.51Z"/>
      <ellipse class="cls-1" cx="122.37" cy="24.06" rx=".91" ry=".58" transform="translate(85.02 143.05) rotate(-83.7)"/>
      <path class="cls-1" d="M131,27.24c-.13-.04-.25-.09-.36-.16-.47-.31-.43-.54.11-.69l1.27-.35c.48-.14.71.05.68.55-.05.72-.08,1.41-.09,2.07,0,.27-.12.45-.37.54-.22.09-.48-.02-.57-.25-.02-.06-.03-.13-.03-.19l.04-.58c.04-.5-.19-.82-.68-.95Z"/>
      <path class="cls-1" d="M55.44,27.77c.5-.54,1.08-.71,1.75-.5.23.07.36.32.29.55-.04.12-.12.21-.23.26-.54.26-1.08.35-1.62.27-.19-.03-.31-.2-.29-.39.01-.07.04-.14.09-.19Z"/>
      <ellipse class="cls-1" cx="135.73" cy="28.37" rx=".58" ry="1.11" transform="translate(23.26 109.47) rotate(-47.6)"/>
      <path class="cls-1" d="M53.47,60.68c.13-.59.4-1.09.81-1.49.41-.41.86-.44,1.34-.1.28.2.33.45.17.75-.43.76-1.14,1.12-2.12,1.09-.11,0-.2-.09-.21-.2,0-.02,0-.03,0-.05Z"/>
      <path class="cls-1" d="M38.27,65.49l-3.3,4.83c-.16.23-.48.29-.71.13-.06-.04-.1-.09-.14-.15l-3.01-4.59c-.65-1-.97-.9-.95.3l.14,7.51c0,.35-.16.52-.51.52h-.42c-.41,0-.61-.2-.61-.61l.05-8.97c.01-2.82.84-3.08,2.48-.79,1,1.41,1.97,2.89,2.9,4.45.11.19.36.26.55.15.06-.03.11-.08.14-.13l3.08-4.65c1.52-2.29,2.28-2.06,2.29.68l.03,9.32c0,.31-.25.55-.55.56-.01,0-.02,0-.03,0h-.34c-.35-.02-.52-.21-.51-.55l.13-7.77c.01-.87-.22-.95-.71-.23Z"/>
      <path class="cls-1" d="M54.67,62.85c-.22-.43-.6-.63-1.14-.61-.35.02-.66.23-.8.55l-4.88,10.74c-.06.12-.03.22.08.3l.29.2c.36.25.65.18.85-.2l1.3-2.36c.22-.4.56-.6,1.01-.6l4.65-.02c.46,0,.78.2.98.6l1.2,2.4c.15.31.5.46.83.37l.25-.08s.03-.01.04-.01c.16-.07.24-.25.18-.42-1.44-3.64-3.05-7.26-4.84-10.86ZM55.9,69.7l-4.44-.03c-.05,0-.09-.01-.14-.03-.16-.07-.24-.27-.16-.43l2.24-4.77c.03-.07.09-.12.16-.16.16-.08.36-.01.44.16l2.2,4.79s.03.09.03.13c0,.19-.14.33-.33.34Z"/>
      <path class="cls-1" d="M76.52,73.35l-2.62-3.24c-.35-.43-.27-.77.22-1.02,2.1-1.04,3.36-3.38,1.76-5.41-1.65-2.11-5.68-1.75-8.21-1.44-.4.05-.71.4-.71.8l.02,10.53c0,.35.18.5.53.45l.3-.03c.52-.07.76-.37.71-.89l-.26-2.76c-.04-.45.15-.7.59-.77,1.05-.17,2.03-.1,2.94.2.36.11.64.34.83.67.87,1.46,1.93,2.73,3.2,3.82.12.1.24.1.35,0l.28-.24c.2-.17.23-.46.07-.67ZM71.68,68.3l-2.19.06h-.01c-.62.01-1.13-.48-1.14-1.1l-.07-2.66c-.01-.61.47-1.12,1.09-1.14l2.2-.07c1.96-.04,3.57.95,3.6,2.21v.32c.04,1.26-1.52,2.33-3.48,2.38Z"/>
      <path class="cls-1" d="M86.43,65.54c-.49-.62-.73-.53-.72.26l.12,7.7c0,.28-.22.52-.5.52,0,0-.01,0-.02,0h-.32c-.41-.02-.74-.36-.74-.77h0s.11-8.99.11-8.99c.02-2.57.79-2.82,2.31-.75,1.08,1.48,2.08,2.98,2.99,4.51.13.22.42.3.64.17.06-.04.12-.09.16-.15l3.09-4.58c1.42-2.11,2.14-1.89,2.15.65l.05,9.73c0,.22-.17.4-.38.41,0,0-.01,0-.02,0h-.31c-.36-.02-.66-.31-.65-.67h0s.03-7.51.03-7.51c0-1.29-.33-1.39-1-.29l-2.68,4.33c-.21.34-.66.45-1,.24-.1-.06-.19-.15-.25-.26-.99-1.7-2.01-3.22-3.06-4.55Z"/>
      <path class="cls-1" d="M109.72,61.97c-3.4,0-6.16,2.76-6.16,6.16s2.76,6.16,6.16,6.16,6.16-2.76,6.16-6.16-2.76-6.16-6.16-6.16ZM110.33,72.9c-2.53.35-4.87-1.51-5.23-4.15-.35-2.64,1.41-5.05,3.94-5.4,2.54-.34,4.88,1.52,5.23,4.16.36,2.64-1.4,5.05-3.94,5.39Z"/>
      <path class="cls-1" d="M140.53,69l-.13,3.49c0,.16.12.29.28.3,0,0,0,0,.01,0l6.81.03c.15,0,.27.11.29.26l.09.74c.02.16-.08.3-.24.33-.02,0-.03,0-.05,0l-8.16-.1c-.16,0-.29-.13-.29-.29l-.07-11.33c0-.16.13-.29.29-.29h0l8.22.02c.16,0,.29.13.29.29,0,0,0,.01,0,.02l-.03.65c-.01.15-.14.27-.29.27l-6.82.09c-.15,0-.27.13-.28.28l-.03,3.39c0,.16.13.29.29.29h0l6.25.05c.14,0,.25.1.28.23l.13.66c.03.16-.07.31-.23.34-.02,0-.04,0-.06,0h-6.25c-.15.01-.28.13-.29.29Z"/>
      <path class="cls-1" d="M162.13,71.63c.19-.54.17-1.07-.05-1.58-.16-.38-.44-.62-.84-.7-2.01-.46-7.94-1.87-5.63-5.45,1.48-2.28,5.67-2.67,7.56-.5.12.14.16.33.12.51-.09.33-.26.48-.52.47-.18,0-.34-.06-.48-.16-1.45-.96-4.69-1.54-5.61.5-.3.67-.02,1.45.64,1.77,1.22.59,2.47,1.02,3.73,1.28,5.81,1.19,1.58,10.15-5.87,4.94-.23-.16-.3-.36-.21-.62l.15-.5c.04-.13.18-.21.31-.17.03,0,.05.02.07.04,1.62,1.04,5.74,2.74,6.64.18Z"/>
      <path class="cls-1" d="M125.31,72.79l5.98-.02c.14,0,.26.11.29.25l.14.7c.03.16-.08.32-.24.35-.02,0-.03,0-.05,0h-7.59c-.16.01-.3-.12-.3-.29l.03-11.2c0-.16.13-.29.29-.3h.86c.16-.02.3.11.31.28,0,0,0,0,0,.01l-.02,9.93c0,.16.13.3.3.3Z"/>
      <path class="cls-1" d="M27.52,99.5c-5.74-5.39-4.83-15.09,2.09-18.84,4.19-2.27,8.61-1.92,13.24,1.06.6.39.77,1.18.39,1.77-.02.04-.05.07-.07.1l-.94,1.18c-.52.65-1.11.72-1.77.19-8.1-6.46-16.64,3.81-10.84,11.02,2.92,3.65,7.8,3.49,11.12.44.5-.46.98-.45,1.44.04l1.11,1.14c.54.55.52,1.1-.05,1.63-4.37,4.04-11.35,4.34-15.71.26Z"/>
      <path class="cls-1" d="M68.91,101.02c-2.78-6.29-5.61-12.85-8.51-19.67-.29-.68-.71-1.22-1.25-1.63-.11-.08-.23-.16-.35-.22-.06-.04-.12-.06-.18-.09s-.12-.05-.19-.07c-.09-.03-.19-.06-.29-.08h-.03s-.08-.02-.12-.02c-.11-.02-.22-.03-.33-.03-.12,0-.25,0-.36.03-.01,0-.02,0-.03.01-.09,0-.18.02-.26.05-.03.01-.07.02-.1.03-.08.02-.14.05-.22.09h-.01c-.12.05-.23.11-.34.18-.05.03-.11.07-.16.11h-.01s-.09.09-.14.13c-.04.04-.09.08-.13.12-.07.07-.13.14-.19.22-.06.08-.12.16-.17.25-.05.08-.1.17-.14.27l-8.68,20.07c-.48,1.12-.12,1.62,1.09,1.52l.91-.08c.9-.08,1.68-.65,2.02-1.48l1.4-3.36c.21-.49.68-.8,1.21-.81l8.66-.04c.52,0,.99.31,1.2.79l1.72,4.03c.25.58.85.94,1.49.89l1.85-.14c.72-.05.93-.41.64-1.07ZM60.94,93.03h-6.47s-.1,0-.15-.02c-.18-.07-.26-.28-.18-.46l3.23-7.62c.03-.09.1-.16.19-.19.18-.08.38.01.46.19l3.24,7.61s.02.09.03.14c0,.19-.16.35-.35.35Z"/>
      <path class="cls-1" d="M76.98,87.34l.1,13.74c0,.59-.47,1.08-1.07,1.1l-1.83.06c-.56.02-1.04-.42-1.07-.99,0-.01,0-.03,0-.04l.03-20.75c0-.46.31-.85.76-.96,1.85-.44,3,.37,4.15,1.88,3.21,4.2,6.41,8.42,9.63,12.65.5.65.74.56.74-.26l-.05-13.28c0-.51.4-.93.91-.95l2.09-.09c.62-.03.93.27.93.9l-.03,20.85c0,.6-.49,1.08-1.09,1.09-1.26,0-2.27-.52-3.04-1.56-3.35-4.48-6.84-9.03-10.47-13.65-.45-.58-.68-.49-.67.25Z"/>
      <path class="cls-1" d="M118.92,101.18l-8.84-20.46c-.04-.09-.09-.18-.14-.27-.02-.03-.04-.07-.06-.1-.05-.09-.11-.17-.18-.25l-.03-.03c-.07-.09-.15-.17-.23-.24-.15-.13-.31-.25-.48-.34-.07-.04-.14-.08-.22-.11-.1-.04-.19-.08-.29-.11-.12-.04-.24-.06-.36-.08-.12-.02-.25-.03-.37-.03s-.25.01-.37.03-.25.04-.36.08c-.24.07-.46.17-.67.31-.09.05-.17.11-.25.18-.03.02-.05.04-.08.07h-.01c-.04.05-.08.08-.11.12-.04.03-.07.07-.11.12l-.03.03s-.06.08-.09.12c-.04.04-.06.08-.09.13-.08.12-.14.24-.2.37l-8.78,20.38c-.38.88-.09,1.27.86,1.18l1.53-.18c.76-.08,1.42-.57,1.72-1.27l1.44-3.44c.23-.52.63-.79,1.19-.79l8.71-.03c.59,0,.99.27,1.21.81l1.45,3.54c.32.8.91,1.22,1.77,1.26l1.7.1c.85.04,1.11-.33.77-1.1ZM110.89,93.05l-6.5-.04c-.05,0-.1-.01-.15-.03-.18-.08-.25-.29-.17-.47l3.31-7.55c.03-.08.1-.15.19-.19.18-.07.38.01.46.19l3.19,7.6c.02.05.03.1.03.15,0,.19-.16.35-.36.34Z"/>
      <path class="cls-1" d="M131.28,79.52l-7.77-.02c-.22,0-.4.18-.4.4l-.08,21.83c0,.22.17.4.39.4l7.77.02h.04c.17,0,.33,0,.49-.01.16,0,.32-.02.48-.03.08,0,.16-.01.24-.02.2-.02.4-.04.6-.07.19-.03.39-.06.58-.1.18-.03.36-.07.54-.11.01,0,.03-.01.04-.01.31-.08.61-.16.91-.26.14-.04.29-.09.44-.15.19-.07.38-.14.56-.22.19-.08.37-.16.55-.25.19-.09.38-.18.56-.28.01-.01.02-.01.03-.02.08-.04.16-.08.23-.13.08-.05.16-.09.24-.14.21-.13.41-.26.61-.4.2-.14.4-.29.6-.45.17-.13.34-.27.5-.42.21-.18.4-.37.59-.56.13-.13.26-.27.38-.41.12-.13.24-.27.35-.41.35-.43.66-.88.93-1.35.19-.32.35-.64.5-.98.08-.17.15-.33.22-.5.13-.34.25-.69.35-1.04.09-.36.17-.72.24-1.09.06-.37.1-.74.12-1.12.01-.19.02-.38.02-.57v-.34c.02-6.15-5.28-11.16-11.85-11.19ZM138.96,91.07c.03,3.98-3.08,7.22-6.95,7.25l-4.35.02c-.35,0-.64-.28-.65-.64l-.09-13.75c0-.36.28-.65.64-.65l4.35-.03c3.86-.03,7.02,3.17,7.05,7.14v.66Z"/>
      <path class="cls-1" d="M168.65,101.13l-8.78-20.3c-.05-.12-.12-.24-.19-.35-.07-.11-.14-.22-.23-.32-.08-.1-.17-.19-.26-.26-.08-.07-.16-.14-.25-.2-.02,0-.04-.02-.05-.03-.11-.07-.22-.13-.33-.18-.02-.01-.04-.02-.06-.03-.08-.04-.17-.07-.26-.09-.02-.01-.04-.02-.07-.02-.11-.03-.21-.06-.32-.07-.13-.02-.25-.03-.38-.03s-.25.01-.38.03c-.11.01-.21.04-.32.07-.02,0-.05.01-.07.02-.11.03-.22.07-.32.12-.05.03-.11.05-.16.08-.08.04-.15.08-.21.13-.05.03-.1.06-.14.1-.04.03-.08.06-.12.1-.09.08-.18.17-.27.27,0,0-.01,0-.02.02-.07.09-.14.19-.2.29-.04.06-.07.11-.1.17-.04.06-.06.12-.09.18l-8.54,19.72c-.4.94-.1,1.48.92,1.62l.68.09c1,.14,1.95-.43,2.32-1.36l1.31-3.36c.2-.51.7-.85,1.26-.86l8.73-.11c.64-.01,1.08.29,1.32.89l1.42,3.61c.24.61.8,1.01,1.45,1.05l1.97.09c.82.04,1.06-.31.74-1.08ZM160.63,93.01h-6.5s-.09-.02-.13-.04c-.17-.08-.25-.28-.17-.45l3.25-7.56c.03-.08.1-.15.18-.18.17-.07.37.01.45.18l3.23,7.57s.03.09.03.14c0,.19-.15.34-.34.34Z"/>
      <rect class="cls-1" x="77.14" y="118.38" width="12.56" height="2.05" rx=".99" ry=".99" transform="translate(-.62 .44) rotate(-.3)"/>
      <path class="cls-1" d="M131.64,166.02s-.02-.08-.04-.11c-.02-.04-.04-.07-.05-.11-.04-.07-.08-.14-.13-.2-.01-.02-.03-.05-.05-.07-.03-.04-.07-.08-.11-.11-.04-.05-.09-.09-.14-.12l-.02-.02s-.11-.08-.16-.11c-.01,0-.01-.01-.02-.01-.09-.05-.19-.09-.29-.12l-4.05-1.21s-.08-.02-.12-.04c-.01-.01-.02-.01-.03-.02-.05-.02-.09-.05-.13-.08-.04-.02-.08-.05-.11-.08-.02-.02-.04-.05-.06-.07-.05-.06-.09-.12-.12-.18-.03-.04-.05-.09-.06-.14-.02-.05-.04-.1-.04-.15-.03-.13-.02-.28.02-.41t.01-.02s.02-.08.04-.12c1.91-4.26,3.8-8.53,5.66-12.8.38-.87.22-1.63-.49-2.29-.53-.48-1.32-.53-1.9-.13l-5.52,3.81c-.09.06-.19.1-.29.12-.02,0-.04.01-.05,0-.08.02-.16.02-.23,0-.08-.02-.17-.05-.24-.09-.04-.03-.09-.06-.13-.1-.05-.04-.09-.1-.13-.16-.02-.04-.04-.08-.06-.12-.02-.04-.03-.09-.04-.14-.07-.38-.19-.74-.37-1.07-.04-.08-.08-.15-.14-.21-.01-.02-.02-.04-.04-.06t-.02-.01c-.06-.08-.13-.13-.21-.18-.06-.03-.11-.07-.17-.09-.06-.03-.13-.06-.19-.07-.03,0-.06-.02-.08-.02-.16-.03-.31-.03-.46,0h-.01s-.09.02-.14.04c-.01,0-.02,0-.03.01h-.01s-.07.02-.1.04c0,0,0,.01-.02.01-.05.01-.09.04-.14.07-.07.04-.13.08-.19.14l-8.48,7.82c-.09.09-.23.11-.34.05-.25-.12-.35-.28-.29-.48,1.61-5.53,3.03-10.89,4.26-16.07.14-.59-.21-1.17-.79-1.34-.54-.15-1.02-.04-1.42.35-1.09,1.01-2.2,2.06-3.36,3.14-.06.05-.12.1-.18.14-.01.01-.02.01-.03.02-.05.03-.1.05-.15.07-.03.02-.06.03-.09.04-.05.02-.11.03-.16.04-.07.01-.15.02-.22.02-.06,0-.11,0-.17-.01t-.02-.01s-.07-.01-.1-.02c-.1-.02-.19-.06-.28-.1-.01-.01-.02-.02-.03-.02s-.01-.01-.02-.02c-.07-.04-.15-.1-.21-.16-.04-.04-.07-.08-.1-.12-.04-.04-.07-.08-.1-.13-3.22-5.33-6.27-10.89-9.12-16.66-.54-1.06-1.33-1.78-2.37-2.15-.3-.11-.64-.07-.91.09-.81.5-1.42,1.17-1.83,2.01-2.84,5.85-5.9,11.45-9.17,16.78-.04.07-.09.13-.14.19-.01,0-.02.02-.03.03-.05.05-.11.1-.18.14-.06.04-.12.08-.19.1-.05.03-.11.05-.17.06-.09.03-.18.04-.28.04-.07,0-.15-.01-.22-.02-.05-.01-.11-.03-.17-.05-.15-.05-.3-.14-.42-.26l-3.54-3.38c-.05-.05-.11-.09-.17-.13-.05-.03-.1-.06-.15-.08h-.01s-.05-.03-.08-.03h-.02s-.03-.02-.05-.03c-.02,0-.04-.01-.07-.01-.07-.02-.14-.02-.21-.02s-.14.01-.21.02c-.05.01-.1.02-.14.04-.04.01-.08.03-.12.05-.05.02-.1.05-.14.08-.05.03-.09.06-.13.11,0,0-.02.01-.03.02-.04.04-.07.08-.11.12-.04.06-.08.13-.12.2-.02.06-.04.12-.06.18-.2.73-.2,1.47,0,2.19,1.23,4.53,2.48,9.21,3.74,14.05,0,.02.01.03.01.04v.05c0,.07-.02.14-.05.19,0,0,0,.01-.01.01-.02.04-.04.06-.07.09-.02.02-.04.04-.07.05-.04.03-.08.04-.13.05-.35.05-.64-.05-.89-.3-2.4-2.46-4.96-4.79-7.67-7-.68-.56-1.33-.54-1.93.07-.2.21-.3.46-.29.74.02.33-.07.64-.25.92-.25.36-.56.41-.91.16-1.83-1.33-3.55-2.54-5.16-3.66-1.16-.8-2.1-.56-2.84.73-.27.49-.3.98-.06,1.49l5.8,12.73c.02.05.04.1.06.16,0,.02.01.03.01.05.04.18.03.35-.02.51,0,.05-.02.09-.05.14-.05.12-.13.24-.23.33-.05.04-.09.09-.15.12-.04.03-.08.05-.12.07-.05.03-.12.05-.18.07l-3.8,1.04c-.09.02-.17.06-.25.1-.07.02-.12.06-.18.1-.07.04-.13.08-.18.13-.05.04-.09.08-.14.13h-.01c-.08.11-.16.21-.22.32-.04.06-.07.13-.09.2-.01.02-.03.05-.03.08-.01.03-.02.06-.02.08-.02.07-.04.14-.04.2-.02.07-.02.14-.02.21,0,.13.02.26.05.39,0,.02.01.03.01.05.03.09.06.17.11.25,0,.02.01.03.02.05.04.09.09.18.15.25.05.07.11.14.18.2t.02.01s.05.05.08.07c.07.06.14.11.22.15,4.35,2.35,7.88,5.27,10.58,8.73.04.06.08.12.11.2.04.09.05.18.06.27,0,.03,0,.07,0,.1,0,.1-.02.21-.06.3-.02.05-.04.1-.07.14-.03.05-.07.11-.11.15-.02.02-.04.05-.07.07-.03.03-.05.05-.08.06-.05.04-.1.07-.16.09-.07.04-.14.06-.22.07-3.31.45-6.43.99-9.34,1.61-.97.2-1.42.76-1.34,1.67.05.58.43,1.08.98,1.27l14.55,5.16c.64.23,1.02.88.91,1.55l-.4,2.2c-.07.42.11.65.54.69,2.86.25,5.18-.06,6.95-.93,2.71-1.35,5.63-2.42,8.76-3.23,4.75-1.24,10.48,1.24,14.8,3.35,2.26,1.11,4.41.82,6.77.89.47.01.68-.21.64-.67-.06-.61-.24-1.17-.55-1.7-.02-.04-.05-.09-.07-.13,0-.01-.01-.02-.01-.03-.03-.08-.05-.15-.07-.23-.02-.09-.03-.18-.03-.27s.01-.17.03-.26c.01-.07.03-.14.06-.21.02-.07.06-.14.1-.21.04-.07.08-.12.14-.18.04-.06.08-.1.13-.14.04-.04.08-.07.13-.1.06-.04.13-.08.2-.11,4.2-1.86,9-3.58,14.4-5.17,1.2-.36,1.62-1.12,1.26-2.29-.15-.51-.58-.9-1.11-.99l-9.67-1.69c-.12-.02-.24-.07-.33-.15t-.02-.01s-.07-.08-.11-.11c-.07-.09-.12-.2-.14-.31-.01-.05-.02-.1-.02-.15v-.02c0-.07.01-.13.04-.2h0s0-.02,0-.03c0,0,.01,0,.01-.01.01-.03.02-.05.03-.08h0c.02-.05.04-.09.07-.13,2.84-3.66,6.44-6.63,10.81-8.89.05-.03.09-.05.13-.08.04-.03.08-.05.12-.09.04-.03.09-.07.13-.11.06-.06.12-.13.17-.2.05-.06.09-.13.12-.2.03-.04.04-.09.06-.14,0-.01.01-.01.01-.02.01-.03.02-.05.03-.08v-.02h0s.02-.07.02-.09c.02-.06.02-.11.03-.16,0-.06,0-.12,0-.17,0-.09,0-.18-.02-.27-.02-.08-.04-.15-.06-.22ZM127.57,167.52c-3.68,2.3-7.8,5.37-9.54,9.41-.52,1.18-.19,2.05.98,2.6,1.52.72,3.06,1.06,4.63,1.02,1.13-.04,2.18.14,3.13.54,1.11.46,1.08.82-.11,1.07-3.87.82-7.67,2.11-11.41,3.86-1.39.66-2.35,1.59-2.48,3.22-.09,1.26-.72,1.64-1.88,1.13-3.94-1.74-7.79-3.11-11.54-4.11-5.88-1.55-13.33,1.98-18.63,4.5-.19.09-.4.11-.59.06-.05-.01-.1-.03-.14-.05-.04-.01-.08-.03-.12-.05,0,0-.01,0-.01-.02-.01,0-.02,0-.03-.02-.02,0-.03-.02-.05-.04-.02-.01-.03-.02-.04-.03s-.02-.02-.04-.04h0s-.01-.01-.01-.02c-.05-.05-.09-.1-.12-.17-.01-.01-.01-.02-.02-.04-.01-.03-.03-.06-.04-.09-.01-.02-.01-.05-.02-.08,0-.01-.01-.02-.01-.03-.01-.06-.02-.12-.02-.18,0-.07,0-.14.03-.21.34-1.36-.09-2.71-1.41-3.3-3.1-1.37-6.4-2.57-9.9-3.57-.89-.25-1.65-.7-2.29-1.33-.06-.06-.1-.13-.11-.2,0-.02-.02-.05-.02-.08v-.05c0-.12.04-.24.13-.33.08-.08.17-.13.28-.14,2.11-.23,4.18-.49,6.21-.78,2.36-.35,2.55-3.11,1.25-4.75-2.3-2.9-4.91-5.26-7.84-7.1-1.64-1.03-1.52-1.78.36-2.25,3.11-.77,2.68-3.63,1.57-5.86-1.3-2.58-2.57-5.36-3.82-8.34-.06-.13-.09-.25-.11-.35-.01-.04-.01-.07-.01-.11,0-.07.01-.13.03-.19,0-.02.01-.05.03-.07.01-.03.03-.07.05-.1.01-.01.02-.03.04-.04l.02-.02v-.02s.02-.02.03-.02c.01-.02.02-.03.04-.04.02-.02.06-.05.09-.06.03-.02.05-.03.08-.04.05-.02.09-.03.14-.04.04-.01.08-.01.12-.01.13,0,.24.04.36.11,1.72,1.16,5.35,4.75,7.44,2.73.4-.38,1.03-.38,1.43-.01,2.09,2.01,4.27,3.91,6.53,5.72.57.45,1.17.69,1.79.73h.12c.1,0,.19-.01.29-.03.03,0,.05,0,.08-.01.03-.01.06-.03.09-.04.03,0,.05-.01.08-.02.01,0,.02-.01.03-.01.04-.01.08-.03.12-.06.03-.01.05-.02.07-.03.04-.02.07-.04.1-.06.01,0,.01-.01.02-.01.08-.05.15-.11.22-.17.07-.07.14-.15.2-.23.05-.07.1-.15.14-.23.02-.03.03-.07.04-.1.01-.01.02-.03.02-.04.02-.06.04-.12.06-.18.03-.11.04-.21.05-.32.01-.05.01-.1.01-.16,0-.01,0-.03-.01-.04,0-.04-.01-.07-.01-.11,0-.06-.02-.12-.03-.18l-3.13-12.49c-.01-.06-.02-.11-.02-.17s.01-.13.03-.19c.01-.06.04-.12.07-.17h0s.01-.02.01-.02c.03-.06.07-.11.12-.15.05-.04.1-.07.15-.1s.11-.05.17-.07c.19-.05.39-.02.56.09,1.96,1.23,3.71.52,5-1.31,2.3-3.24,4.2-6.63,5.7-10.18.27-.62.73-1.05,1.39-1.29.02,0,.04-.02.04-.04,0-.03-.03-.04-.05-.04-.11-.02-.19-.09-.25-.19-.04-.09-.04-.17-.01-.26.64-1.59,1.39-3.07,2.25-4.45.14-.21.37-.33.61-.33.07,0,.13.01.19.03.02,0,.04.01.05.02.04.01.08.02.11.05h.01c.1.07.19.16.25.28,2,3.88,3.79,7.54,5.36,10.98.29.62.67,1.25,1.16,1.86,1.69,2.15,2.66,3.95,5.06,5.49.36.23.73.25,1.11.05.51-.28.98-.6,1.42-.96,1.43-1.18,1.85-.89,1.25.86-1.48,4.34-2.6,8.71-3.35,13.1-.01.04-.01.09-.01.14-.01.12,0,.24.02.35,0,.03,0,.05.02.08.02.05.03.1.06.16.01.04.03.08.05.11l.03.06h.01s.01.03.02.04c.02.04.04.07.07.1.01.02.03.04.05.06,0,.03.03.04.04.05.03.03.06.07.1.09.05.05.11.09.18.13.01.01.02.01.03.02.03.02.07.04.11.05.04.02.09.04.13.05.02.01.04.02.06.02.03.01.05.01.08.02.02,0,.03.01.05.01.05.01.09.02.14.02.94.06,1.78-.27,2.54-.99,2.3-2.2,4.62-4.29,6.95-6.28.03-.03.06-.05.1-.06h.01s.02-.01.03-.02h.01s0-.01,0-.01c0,0,0,.01.01.01h.01s.03-.02.04-.02c0-.01.02-.01.02-.01h.05c.05,0,.1.01.15.03.02,0,.05.02.07.03.02.01.05.03.07.05.02.02.03.03.05.05s.03.04.04.06t.01.02s.03.05.03.08c.01.03.02.05.02.08.08.59.22.93.43,1.03.94.47,2.13.32,3.09-.37,1.35-.97,2.69-1.94,4.02-2.92,1.54-1.13,1.86-.85.96.83-1.74,3.25-3.27,6.46-4.58,9.61-1.13,2.68-.09,4.51,3.1,5.49.82.26.86.61.14,1.06Z"/>
      <path class="cls-1" d="M93.73,131.67c-.11-.02-.19-.09-.25-.19-.04-.09-.05-.17-.01-.26.64-1.59,1.39-3.07,2.25-4.45.21-.33.64-.43.96-.23.11.07.19.16.25.27,2,3.88,3.79,7.54,5.36,10.98.28.63.67,1.25,1.16,1.87,1.68,2.14,2.65,3.94,5.05,5.49.36.23.73.24,1.11.04.51-.28.99-.6,1.43-.96,1.43-1.18,1.84-.89,1.25.86-1.49,4.34-2.6,8.71-3.35,13.1-.12.73.37,1.41,1.1,1.54.05,0,.09.01.14.02.94.06,1.78-.27,2.54-.99,2.3-2.2,4.62-4.29,6.95-6.28.19-.16.47-.14.63.05.06.07.09.15.1.24.08.59.22.93.43,1.03.94.47,2.13.32,3.09-.37,1.34-.97,2.68-1.94,4.02-2.92,1.54-1.12,1.85-.85.96.83-1.74,3.26-3.27,6.46-4.58,9.62-1.12,2.68-.09,4.51,3.1,5.49.82.26.86.61.14,1.06-3.68,2.3-7.79,5.37-9.54,9.41-.51,1.18-.18,2.05.98,2.6,1.52.72,3.07,1.06,4.64,1.01,1.13-.04,2.17.15,3.12.54,1.12.46,1.08.82-.11,1.07-3.87.82-7.68,2.11-11.41,3.86-1.4.66-2.36,1.59-2.48,3.22-.09,1.27-.72,1.64-1.88,1.13-3.94-1.74-7.79-3.11-11.55-4.1-5.87-1.56-13.33,1.98-18.62,4.5-.44.21-.97.02-1.18-.42-.09-.18-.11-.39-.06-.59.34-1.35-.09-2.71-1.41-3.29-3.1-1.38-6.4-2.57-9.9-3.57-.88-.26-1.64-.7-2.28-1.33-.18-.18-.19-.48,0-.66.08-.08.17-.12.28-.14,2.11-.23,4.18-.49,6.2-.78,2.37-.35,2.56-3.11,1.26-4.75-2.3-2.89-4.92-5.26-7.85-7.1-1.64-1.03-1.52-1.78.36-2.25,3.11-.77,2.68-3.62,1.57-5.85-1.29-2.59-2.57-5.37-3.82-8.35-.06-.13-.09-.25-.11-.35-.06-.35.18-.69.54-.75.17-.03.34,0,.48.1,1.73,1.16,5.35,4.75,7.44,2.74.4-.38,1.03-.39,1.43-.01,2.1,2,4.28,3.91,6.54,5.71.57.45,1.17.69,1.79.74.91.05,1.68-.64,1.73-1.55,0-.16,0-.33-.05-.49l-3.12-12.48c-.1-.39.14-.78.53-.88.19-.05.39-.01.56.09,1.96,1.24,3.71.52,5-1.3,2.3-3.24,4.2-6.63,5.7-10.18.26-.63.72-1.06,1.39-1.29.02,0,.04-.02.04-.05,0-.02-.02-.04-.05-.04h0Z"/>
      <rect class="cls-1" x="36.88" y="121.82" width="2.05" height="13.77" rx=".99" ry=".99" transform="translate(-90.88 166.39) rotate(-89.9)"/>
      <rect class="cls-1" x="133.05" y="130.64" width="15.63" height="2.58" rx="1.14" ry="1.14" transform="translate(-.23 .25) rotate(-.1)"/>
      <rect class="cls-1" x="40.89" y="132.28" width="2.11" height="9.15" rx="1" ry="1" transform="translate(-94.99 178.56) rotate(-89.9)"/>
      <rect class="cls-1" x="131.37" y="129.6" width="2.56" height="15.74" rx="1.24" ry="1.24" transform="translate(-5.05 269.87) rotate(-89.9)"/>
      <rect class="cls-1" x="142.37" y="148.25" width="11.62" height="2.52" rx="1.22" ry="1.22" transform="translate(-.26 .26) rotate(-.1)"/>
    </g>
  </g>
</svg>