<?xml version="1.0" encoding="UTF-8"?>
<svg id="Capa_2" data-name="Capa 2" xmlns="http://www.w3.org/2000/svg" viewBox="0 0 278.84 195.23">
  <defs>
    <style>
      .cls-1 {
        fill: #fff;
        stroke-width: 0px;
      }
    </style>
  </defs>
  <g id="Capa_1-2" data-name="Capa 1">
    <g>
      <g>
        <path class="cls-1" d="M127.95,70.09h6.33l-.1,22.83c0,.14-.07.21-.21.21h-26.03c-.12,0-.19-.07-.19-.2v-35.88c0-.11-.08-.2-.19-.2l-35.55.02c-.07,0-.12.05-.12.12v35.92c0,.15-.07.22-.21.22h-25.96c-.12,0-.18-.07-.18-.18V.21c0-.12.1-.21.22-.21h25.97c.11.01.16.07.16.17v34.59c0,.13.07.19.19.19h35.54c.07,0,.13-.06.13-.13V.18c0-.1.08-.18.18-.18h26.11c.08.01.14.07.14.15l.15,20.24-6.37.1c-.11,0-.17.06-.17.17v21.14c0,.12-.06.18-.18.18h-10.38c-.15-.01-.23.07-.23.22l.03,6.15c0,.13.06.19.18.19h10.42c.09.01.16.09.16.18v21.2c0,.11.06.16.16.17Z"/>
        <path class="cls-1" d="M232.63,61.64c-1.06-4.61-3.35-8.49-6.88-11.63-2.61-2.33-5.67-4.11-9.16-5.32-.03,0-.05-.04-.07-.06,0,0-.01-.02,0-.03-.01-.01-.01-.03-.01-.04-.01-.01-.01-.02,0-.04h.01s.03-.06.05-.07c6.19-3.32,10.54-8.67,11.78-15.49.61-3.37.57-6.62-.14-9.76-2.51-11.21-13.21-16.47-23.76-18.22-3.87-.64-7.41-.96-10.62-.96-16.35-.02-32.64-.03-48.89-.02-.17,0-.26.09-.26.27l-.07,20.2,6.36.02c.11,0,.16.06.16.16v21.16c0,.13.07.2.2.2h10.39c.11.01.17.07.17.19v6.16c0,.12-.05.19-.17.19h-10.5c-.05,0-.09.04-.09.08v21.29c0,.11-.06.16-.16.16h-6.36s.1,22.86.1,22.86c0,.11.06.17.17.17,19.16.04,36.55.03,52.17-.02,5.32-.01,10.54-.68,15.67-2,9.04-2.32,17.01-7.48,19.67-16.67,1.15-4.01,1.21-8.62.24-12.78ZM170.81,19.21c0-.08.06-.14.14-.14,6.32,0,12.47.01,18.42.02,5.4.02,12.23,1.5,12.72,8.07.57,7.48-6.06,9.76-12.25,9.78-5.85.02-12.13.03-18.83.01-.14,0-.2-.06-.2-.2v-17.54ZM206.3,67.35c-1.45,5.38-7.75,6.66-12.49,6.69-7.33.04-14.97.04-22.91.01-.07,0-.1-.03-.1-.1v-18.57c.01-.08.08-.15.16-.15,7.39,0,14.84,0,22.35.01,4.22,0,9.52.83,11.96,4.45,1.46,2.16,1.71,5.17,1.03,7.66Z"/>
        <path class="cls-1" d="M251.56,132.84l-3.16,7.11c-.06.13.01.29.16.38,2.74,1.6,5.69,2.66,8.84,3.16,1.33.21,2.68.36,4.05.46,6.56.44,15.57-1.46,17.14-9.16.71-3.46-.18-7.2-3.13-9.35-1.44-1.05-3.03-1.84-4.78-2.38-1.28-.39-2.65-.73-4.11-1-.82-.15-1.58-.33-2.27-.53-.78-.23-1.53-.44-2.25-.62-.96-.25-1.74-.59-2.35-1.04-2-1.46-.3-3.86,1.62-4.3,2.15-.5,4.31-.53,6.47-.08,2.17.45,4.26,1.22,6.28,2.32.1.05.23.02.28-.08,0,0,0-.02.01-.02l2.91-7.09c.06-.15,0-.33-.16-.41-5.55-2.67-11.39-3.47-17.53-2.41-2.58.44-4.8,1.39-6.68,2.84-2.35,1.81-3.66,4.23-3.92,7.23-.12,1.32-.02,2.57.29,3.75.39,1.49,1.19,2.77,2.39,3.86,1.54,1.39,3.54,2.41,5.99,3.07,2.51.67,5.14,1.34,7.9,1.99,1.06.25,1.95.69,2.65,1.32,1.35,1.2.75,2.89-.72,3.63-.64.32-1.23.52-1.77.57-5.03.53-9.69-.55-13.98-3.26-.07-.04-.15-.02-.19.04,0,0,0,.01,0,.02h0Z" vector-effect="non-scaling-stroke"/>
        <path class="cls-1" d="M23.51,121.13c0,.08-.07.15-.15.15h-13.23c-.08.01-.15-.06-.15-.14h0v-12.92c0-.08-.06-.15-.15-.15H.15c-.08,0-.15.06-.15.15h0v34.96c0,.08.07.15.15.15h9.69c.08,0,.15-.07.15-.15l.02-13.42c0-.08.07-.15.15-.15h13.23c.08.01.15.08.15.16h0v13.41c0,.08.07.15.16.15h9.74c.08,0,.15-.07.15-.15v-34.96c0-.08-.06-.15-.15-.15h-9.74c-.08,0-.15.07-.15.15h0l-.02,12.92h0Z" vector-effect="non-scaling-stroke"/>
        <path class="cls-1" d="M50.55,135.55c-.07,0-.13-.06-.13-.13h0v-6.12c0-.07.06-.13.13-.13h15.38c.07,0,.13-.06.13-.13v-7.26c0-.07-.05-.13-.13-.13h-15.38c-.07,0-.13-.06-.13-.13h0v-5.58c0-.07.06-.13.14-.13h17.55c.07,0,.13-.06.13-.13h0v-7.5c-.01-.07-.07-.13-.14-.13h-27.42c-.07,0-.13.06-.13.13h0v35c0,.07.06.13.13.13h28.02c.07,0,.13-.06.13-.13v-7.53c0-.07-.05-.13-.13-.13h0l-18.14.02h0Z" vector-effect="non-scaling-stroke"/>
        <path class="cls-1" d="M106.75,143.14l-7.4-10.78s-.01-.01-.01-.02c-.04-.08-.01-.17.07-.21,4.18-2.07,6.46-5.71,6.68-10.3.2-4.01-1.1-7.76-4.23-10.32-3.49-2.86-7.89-3.52-12.6-3.48-4.77.05-9.69.05-14.77.02-.14,0-.2.07-.2.2l.04,34.88c0,.12.06.18.18.18h9.67c.1,0,.16-.05.16-.16v-8.97c0-.18.09-.26.27-.26l4.8-.02c.17,0,.32.08.41.22l6.16,9.03c.08.11.18.16.31.16h10.37s.04-.01.06-.02l.03-.03s.02-.04.02-.06-.01-.04-.02-.06ZM96,121.41c0,2.64-2.38,4.79-5.32,4.79h-6.21c-.07.01-.12-.04-.12-.11l-.02-10.02c0-.07.05-.12.12-.12h6.21c2.94-.01,5.33,2.12,5.34,4.76v.7Z"/>
        <path class="cls-1" d="M143.91,143.05l-7.29-10.61s-.01,0-.02-.02-.01-.02-.01-.03c-.03-.07-.02-.14.02-.2.01-.03.04-.06.07-.08,0,0,0-.01.02-.01,3.87-2,6.04-5.1,6.51-9.31,1.08-9.43-6.04-14.67-14.75-14.71-5.58-.03-11.16-.04-16.73-.02-.12.01-.18.07-.18.19v34.89c0,.11.06.17.17.17h9.65c.11,0,.17-.05.17-.16v-9.02c0-.15.07-.23.23-.23l4.95.02c.11,0,.22.06.28.15l6.21,9.1c.06.09.16.14.27.14h10.3c.2,0,.25-.08.13-.26ZM133.21,121.4c0,2.65-2.38,4.8-5.33,4.81h-6.26s-.08-.03-.08-.07l-.02-10.11s.04-.08.08-.08h6.26c2.95-.01,5.34,2.13,5.35,4.78v.67Z"/>
        <path class="cls-1" d="M185.43,143.1l-15.45-34.95c-.02-.06-.08-.09-.14-.09h-9.69c-.06,0-.11.03-.14.09l-15.44,34.95s-.01.04-.01.07.01.05.02.07c.02.03.04.05.07.06.02.01.04.01.06.01h9.92c.06,0,.12-.04.14-.09l2.69-6.67c.02-.06.08-.09.14-.09h14.63c.06-.01.11.03.14.09l2.68,6.67c.03.05.08.09.14.09h10.1s.04,0,.06-.01c.03-.01.05-.03.07-.06.01-.02.02-.04.02-.07,0-.02,0-.05,0-.07ZM169.01,128.86c-.05.12-.17.17-.37.17-2.67,0-5.32.01-7.94.01-.02,0-.04,0-.06-.01-.09-.03-.14-.14-.1-.22l4.17-10.37s.04-.07.07-.09c.1-.06.22-.03.27.06.37.58.6,1.2.69,1.87.01.08.04.15.08.21.5.71.81,1.49.94,2.36.01.09.05.17.11.23.38.38.55.79.54,1.22-.01.18.05.29.19.34.49,1.19.96,2.37,1.4,3.53.09.24.1.49.01.69Z"/>
        <path class="cls-1" d="M200.07,143.71c.54-.1,1.05-.12,1.58-.26,4.64-1.22,7.43-4.29,8.37-9.21.18-.94.27-1.85.28-2.72.04-7.32.04-15.08.02-23.28,0-.12-.06-.18-.18-.18h-21.8c-.06,0-.09.03-.09.09v7.54c0,.07.06.13.13.13h11.96c.08,0,.12.04.12.12.01,5.38,0,10.52-.03,15.42-.01,1.65-.57,2.91-1.67,3.8-.84.68-1.99.94-3.43.78-1.29-.14-2.48-.72-3.57-1.72-.62-.57-1.17-1.16-1.64-1.79-.06-.07-.16-.09-.23-.03,0,0-.02.01-.02.02l-5.16,6.1c-.13.16-.13.39,0,.54,1.39,1.59,3.06,2.79,5.01,3.59.02,0,.03.02.05.04.02.03.03.06.03.09,0,.05.02.08.07.09.66.12,1.33.3,2.02.55.64.24,1.35.38,2.11.41,2.11.1,3.81.27,6.08-.14h0Z" vector-effect="non-scaling-stroke"/>
        <path class="cls-1" d="M227.05,135.54c-.07,0-.13-.06-.13-.13v-6.12c0-.07.06-.13.13-.13h15.39c.07,0,.13-.06.13-.13v-7.27c0-.07-.05-.13-.12-.13h-15.4c-.07,0-.13-.06-.13-.13v-5.58c0-.07.06-.13.13-.13h17.48c.07,0,.13-.06.13-.13v-7.51c0-.07-.06-.13-.13-.13h-27.42c-.07,0-.13.06-.13.13v35c.01.07.07.13.14.13h28.06c.07,0,.13-.06.13-.13v-7.52c0-.07-.06-.13-.13-.13h-18.14Z" vector-effect="non-scaling-stroke"/>
        <path class="cls-1" d="M224.14,148.94c.06-.04.07-.13.02-.18-.03-.03-.06-.05-.11-.05l-9.3-.06s-.08.02-.1.05l-6.55,7.52c-.05.05-.04.14.01.19.03.02.06.03.09.03h6.55s.06-.01.08-.03l9.3-7.46h0Z" vector-effect="non-scaling-stroke"/>
        <path class="cls-1" d="M72.95,176.21c-.16-.07-.17-.15-.02-.24.65-.39,1.38-.85,1.9-1.39,1.37-1.4,2.17-3.04,2.42-4.89.23-1.84-.06-3.54-.88-5.11-2.18-4.15-7.87-5.32-12.23-5.33-6.32-.02-12.52-.02-18.58-.01-.05,0-.08.03-.08.08v34.99c0,.13.07.2.2.2,5.67-.01,11.66-.01,17.97,0,3.65.01,6.99-.26,9.97-1.59.9-.41,1.87-1.05,2.91-1.93.25-.22.46-.45.64-.71.14-.21.29-.42.44-.62.34-.45.65-1.04.92-1.78.21-.54.34-1.18.4-1.9.42-4.7-1.57-7.96-5.98-9.77ZM55.42,166.64c0-.07.05-.12.11-.12h7.6c2.25,0,4.08,1.39,4.08,3.11v.46c0,1.71-1.83,3.1-4.08,3.1h-7.6c-.06,0-.11-.05-.11-.11v-6.44ZM68.88,184.1c0,1.74-1.92,3.15-4.29,3.16h-9.06c-.06.01-.1-.03-.1-.09l-.02-6.87c0-.06.05-.1.1-.1l9.06-.02h.01c2.37,0,4.3,1.41,4.3,3.15v.77Z"/>
        <path class="cls-1" d="M120.79,194.19l-15.42-34.86c-.03-.06-.08-.09-.14-.09h-9.69s-.08.02-.09.06l-9.32,21.07s-.02.04-.03.05c-.26.24-.42.52-.48.84s-.15.62-.26.9c-.69,1.67-1.43,3.35-2.2,5.01-.38.81-.72,1.6-1.04,2.38-.3.74-.67,1.53-1.09,2.36-.35.69-.64,1.41-.86,2.14,0,.02,0,.05,0,.07,0,.04,0,.07.02.11.04.09.14.16.24.16l9.46.11c.18,0,.3-.08.37-.24l2.61-6.46c.05-.11.13-.17.25-.17h14.4c.14,0,.23.07.28.2l2.64,6.51c.04.12.16.19.28.19h9.86c.25,0,.33-.11.22-.34ZM104.46,180.22l-8.42.03c-.15,0-.19-.06-.13-.19.65-1.5,1.24-2.95,1.76-4.35.41-1.12.83-2.14,1.26-3.06.05-.12.08-.24.1-.36.04-.29.15-.52.34-.69.04-.04.06-.09.07-.15,0-.03,0-.06,0-.09-.01-.05-.01-.09,0-.13.26-.49.45-1.01.57-1.56.11-.49.29-.52.54-.08.14.26.22.54.23.84,0,.12.04.23.1.32.39.6,1,1.58,1.1,2.3.03.25.21.43.31.67.58,1.53,1.15,3.09,1.7,4.69.1.29.22.57.37.85.11.23.21.46.29.7.06.17,0,.26-.19.26Z"/>
        <path class="cls-1" d="M130.9,193.61c1.61.75,3.45,1.24,5.52,1.46,5.62.61,12.01-.5,15.7-4.91,2.34-2.8,3.53-6.21,3.57-10.23.07-6.78.08-13.64.03-20.58,0-.06-.05-.1-.1-.1h-9.56c-.1,0-.18.08-.18.17h0c0,7.07,0,13.59.01,19.54,0,2.12-.47,3.97-1.41,5.55-.06.09-.13.16-.23.21-.09.04-.16.11-.19.21-.04.15-.12.27-.24.37-.62.51-1.23.89-1.83,1.14-1.34.56-2.86.65-4.57.28-3.67-.79-4.78-4.44-4.78-7.7,0-6.23,0-12.75,0-19.57,0-.13-.07-.2-.2-.2h-9.68c-.09,0-.16.07-.16.16,0,6.51,0,12.93,0,19.26,0,2.45.34,4.7,1.01,6.75,1.23,3.78,3.66,6.51,7.29,8.2h0Z" vector-effect="non-scaling-stroke"/>
        <path class="cls-1" d="M233.3,194.33l-15.47-34.94c-.05-.1-.13-.15-.24-.15h-9.47c-.14.01-.25.07-.3.2-3.87,8.76-7.73,17.51-11.59,26.24-.06.14-.14.27-.22.39-.24.34-.2.72-.39,1.09-.17.32-.35.64-.56.95-.06.09-.09.2-.09.31,0,.09-.02.18-.06.27-.8,1.71-1.59,3.52-2.37,5.43-.01.02-.02.05-.02.08,0,.06.02.09.06.11.15.09.14.15-.03.17-.04.01-.08.01-.12.01l10,.03c.09,0,.16-.05.2-.13l2.67-6.57c.05-.13.14-.19.27-.19h14.4c.11,0,.21.07.25.17l2.61,6.43c.07.18.24.3.44.3h9.91s.03-.01.05-.02c.07-.03.1-.11.07-.18ZM216.98,180.21l-8.49.02c-.12.01-.16-.04-.13-.12l4.18-10.47c.11-.28.23-.28.37-.02.52.97.92,2.07,1.19,3.3.02.12.08.22.17.31.29.29.47.66.54,1.12.01.07.03.07.07.02.01-.01.01-.02.01-.03t.02,0c.07.2.12.4.16.6.05.2.12.39.22.56.3.51.53,1,.67,1.48.15.5.32.99.5,1.49.2.53.41,1.03.65,1.51.08.15.03.23-.13.23Z"/>
        <path class="cls-1" d="M192.15,194.5c.15-.15.21-.32.18-.51-.04-.23-.06-.36-.06-.38,0-2.33,0-4.65,0-6.96,0-.05-.04-.09-.09-.09h-18.14c-.06,0-.11-.05-.11-.11,0-.03,0-.05.03-.07l17.44-20.7c.05-.05.07-.13.07-.2v-6.15s-.04-.08-.08-.08h-30.18c-.08,0-.12.04-.12.12v7.64c0,.12.06.18.18.18h16.74c.25,0,.3.1.14.29l-17.34,20.58c-.08.1-.13.21-.13.33v5.99c0,.07.06.14.13.14h31.33Z" vector-effect="non-scaling-stroke"/>
      </g>
      <path class="cls-1" d="M127.95,70.09h6.33l-.1,22.83c0,.14-.07.21-.21.21h-26.03c-.12,0-.19-.07-.19-.2v-35.88c0-.11-.08-.2-.19-.2l-35.55.02c-.07,0-.12.05-.12.12v35.92c0,.15-.07.22-.21.22h-25.96c-.12,0-.18-.07-.18-.18V.21c0-.12.1-.21.22-.21h25.97c.11.01.16.07.16.17v34.59c0,.13.07.19.19.19h35.54c.07,0,.13-.06.13-.13V.18c0-.1.08-.18.18-.18h26.11c.08.01.14.07.14.15l.15,20.24-6.37.1c-.11,0-.17.06-.17.17v21.14c0,.12-.06.18-.18.18h-10.38c-.15-.01-.23.07-.23.22l.03,6.15c0,.13.06.19.18.19h10.42c.09.01.16.09.16.18v21.2c0,.11.06.16.16.17Z"/>
      <path class="cls-1" d="M232.63,61.64c-1.06-4.61-3.35-8.49-6.88-11.63-2.61-2.33-5.67-4.11-9.16-5.32-.03,0-.05-.04-.07-.06,0,0-.01-.02,0-.03-.01-.01-.01-.03-.01-.04,0-.02,0-.04.01-.05.01-.03.03-.05.05-.06,6.19-3.32,10.54-8.67,11.78-15.49.61-3.37.57-6.62-.14-9.76-2.51-11.21-13.21-16.47-23.76-18.22-3.87-.64-7.41-.96-10.62-.96-16.35-.02-32.64-.03-48.89-.02-.17,0-.26.09-.26.27l-.07,20.2,6.36.02c.11,0,.16.06.16.16v21.16c0,.13.07.2.2.2h10.39c.11.01.17.07.17.19v6.16c0,.12-.05.19-.17.19h-10.5c-.05,0-.09.04-.09.08v21.29c0,.11-.06.16-.16.16h-6.36s.1,22.86.1,22.86c0,.11.06.17.17.17,19.16.04,36.55.03,52.17-.02,5.32-.01,10.54-.68,15.67-2,9.04-2.32,17.01-7.48,19.67-16.67,1.15-4.01,1.21-8.62.24-12.78ZM170.81,19.21c0-.08.06-.14.14-.14,6.32,0,12.47.01,18.42.02,5.4.02,12.23,1.5,12.72,8.07.57,7.48-6.06,9.76-12.25,9.78-5.85.02-12.13.03-18.83.01-.14,0-.2-.06-.2-.2v-17.54ZM206.3,67.35c-1.45,5.38-7.75,6.66-12.49,6.69-7.33.04-14.97.04-22.91.01-.07,0-.1-.03-.1-.1v-18.57c.01-.08.08-.15.16-.15,7.39,0,14.84,0,22.35.01,4.22,0,9.52.83,11.96,4.45,1.46,2.16,1.71,5.17,1.03,7.66Z"/>
      <path class="cls-1" d="M248.41,139.95l3.16-7.11c.03-.07.11-.1.18-.07,0,0,.01,0,.02,0,4.3,2.7,8.96,3.79,13.98,3.26.54-.06,1.13-.25,1.77-.57,1.46-.74,2.07-2.42.72-3.63-.71-.63-1.59-1.07-2.65-1.32-2.76-.65-5.39-1.31-7.9-1.99-2.46-.66-4.46-1.68-5.99-3.07-1.21-1.09-2-2.38-2.39-3.86-.31-1.19-.41-2.44-.29-3.75.26-3.01,1.57-5.42,3.92-7.23,1.88-1.45,4.11-2.4,6.68-2.84,6.13-1.06,11.98-.25,17.53,2.41.15.08.22.25.16.41l-2.91,7.09c-.04.11-.16.16-.27.12,0,0-.02,0-.02-.01-2.01-1.1-4.11-1.87-6.28-2.32-2.16-.45-4.32-.42-6.47.08-1.92.45-3.62,2.84-1.62,4.3.61.45,1.39.79,2.35,1.04.72.18,1.47.39,2.25.62.69.2,1.45.38,2.27.53,1.47.27,2.84.61,4.11,1,1.74.54,3.33,1.33,4.78,2.38,2.95,2.15,3.84,5.89,3.13,9.35-1.57,7.7-10.58,9.6-17.14,9.16-1.38-.09-2.73-.24-4.05-.46-3.15-.5-6.1-1.56-8.84-3.16-.15-.09-.22-.25-.16-.38Z"/>
      <path class="cls-1" d="M23.51,121.13l.02-12.92c0-.08.07-.15.15-.15h9.74c.08,0,.15.07.15.15h0v34.96c0,.08-.07.15-.15.15h-9.74c-.08,0-.15-.07-.15-.15v-13.41c0-.08-.07-.15-.16-.15h-13.23c-.08-.01-.15.06-.15.14h0l-.02,13.42c0,.08-.07.15-.15.15H.15c-.08,0-.15-.06-.15-.15h0v-34.96c0-.08.07-.15.15-.15h9.7c.08,0,.15.07.15.15h0v12.92c0,.08.06.15.15.15h13.23c.08-.01.15-.08.15-.16h0Z"/>
      <path class="cls-1" d="M50.55,135.55l18.14-.02c.07,0,.13.06.13.13h0v7.53c0,.07-.06.13-.13.13h-28.02c-.07,0-.13-.06-.13-.13v-35c0-.07.06-.13.13-.13h27.42c.07,0,.13.06.13.13h0v7.5c.01.07-.04.13-.11.13h-17.55c-.07,0-.13.06-.13.13v5.58c0,.07.05.13.12.13h15.38c.07,0,.13.06.13.13h0v7.26c0,.07-.06.13-.13.13h-15.38c-.07,0-.13.06-.13.13h0v6.12c0,.07.06.13.13.13h0Z"/>
      <path class="cls-1" d="M106.75,143.14l-7.4-10.78s-.01-.01-.01-.02c-.04-.08-.01-.17.07-.21,4.18-2.07,6.46-5.71,6.68-10.3.2-4.01-1.1-7.76-4.23-10.32-3.49-2.86-7.89-3.52-12.6-3.48-4.77.05-9.69.05-14.77.02-.14,0-.2.07-.2.2l.04,34.88c0,.12.06.18.18.18h9.67c.1,0,.16-.05.16-.16v-8.97c0-.18.09-.26.27-.26l4.8-.02c.17,0,.32.08.41.22l6.16,9.03c.08.11.18.16.31.16h10.37s.04-.01.06-.02l.03-.03s.02-.04.02-.06-.01-.04-.02-.06ZM96,121.41c0,2.64-2.38,4.79-5.32,4.79h-6.21c-.07.01-.12-.04-.12-.11l-.02-10.02c0-.07.05-.12.12-.12h6.21c2.94-.01,5.33,2.12,5.34,4.76v.7Z"/>
      <path class="cls-1" d="M143.91,143.05l-7.29-10.61s-.01,0-.02-.02-.01-.02-.01-.03c-.02-.07-.02-.14.02-.2.02-.03.05-.06.09-.09,3.87-2,6.04-5.1,6.51-9.31,1.08-9.43-6.04-14.67-14.75-14.71-5.58-.03-11.16-.04-16.73-.02-.12.01-.18.07-.18.19v34.89c0,.11.06.17.17.17h9.65c.11,0,.17-.05.17-.16v-9.02c0-.15.07-.23.23-.23l4.95.02c.11,0,.22.06.28.15l6.21,9.1c.06.09.16.14.27.14h10.3c.2,0,.25-.08.13-.26ZM133.21,121.4c0,2.65-2.38,4.8-5.33,4.81h-6.26s-.08-.03-.08-.07l-.02-10.11s.04-.08.08-.08h6.26c2.95-.01,5.34,2.13,5.35,4.78v.67Z"/>
      <path class="cls-1" d="M185.43,143.1l-15.45-34.95c-.02-.06-.08-.09-.14-.09h-9.69c-.06,0-.11.03-.14.09l-15.44,34.95s-.01.04-.01.07.01.05.02.07c.02.03.04.05.07.06.02.01.04.01.06.01h9.92c.06,0,.12-.04.14-.09l2.69-6.67c.02-.06.08-.09.14-.09h14.63c.06-.01.11.03.14.09l2.68,6.67c.03.05.08.09.14.09h10.1s.04,0,.06-.01c.03-.01.05-.03.07-.06.01-.02.02-.04.02-.07,0-.02,0-.05,0-.07ZM169.01,128.86c-.05.12-.17.17-.37.17-2.67,0-5.32.01-7.94.01-.02,0-.04,0-.06-.01-.09-.03-.14-.14-.1-.22l4.17-10.37s.04-.07.07-.09c.1-.06.22-.03.27.06.37.58.6,1.2.69,1.87.01.08.04.15.08.21.5.71.81,1.49.94,2.36.01.09.05.17.11.23.38.38.55.79.54,1.22-.01.18.05.29.19.34.49,1.19.96,2.37,1.4,3.53.09.24.1.49.01.69Z"/>
      <path class="cls-1" d="M200.07,143.71c-2.27.41-3.97.24-6.08.14-.76-.04-1.47-.17-2.11-.41-.69-.25-1.36-.44-2.02-.55-.05,0-.07-.04-.07-.09,0-.03,0-.06-.03-.09-.01-.02-.03-.03-.05-.04-1.95-.8-3.62-2-5.01-3.59-.14-.16-.14-.39,0-.54l5.16-6.1c.06-.07.16-.08.23-.02,0,0,.02.02.02.02.48.62,1.03,1.22,1.64,1.79,1.09,1,2.28,1.58,3.57,1.72,1.45.16,2.59-.1,3.43-.78,1.1-.89,1.66-2.16,1.67-3.8.03-4.91.04-10.05.03-15.42,0-.08-.04-.12-.12-.12h-11.96c-.07,0-.13-.06-.13-.13v-7.54c0-.06.03-.09.09-.09h21.8c.12,0,.18.06.18.18.03,8.2.02,15.96-.02,23.28,0,.87-.1,1.78-.28,2.72-.94,4.92-3.73,7.99-8.37,9.21-.53.14-1.04.16-1.58.26Z"/>
      <path class="cls-1" d="M227.05,135.54h18.14c.07,0,.13.06.13.13v7.52c0,.07-.06.13-.13.13h-28.06c-.07,0-.13-.06-.13-.13v-35c-.01-.07.05-.13.11-.13h27.42c.07,0,.13.06.13.13v7.51c0,.07-.06.13-.13.13h-17.48c-.07,0-.13.06-.13.13v5.58c0,.07.05.13.12.13h15.4c.07,0,.13.06.13.13v7.27c0,.07-.06.13-.13.13h-15.39c-.07,0-.13.06-.13.13h0v6.12c0,.07.06.13.13.13Z"/>
      <path class="cls-1" d="M224.14,148.94l-9.3,7.46s-.05.03-.08.03h-6.55c-.07,0-.13-.06-.14-.13,0-.03.01-.07.03-.09l6.55-7.52s.06-.05.1-.05l9.3.06c.07,0,.13.06.13.13,0,.04-.02.08-.05.11Z"/>
      <path class="cls-1" d="M72.95,176.21c-.16-.07-.17-.15-.02-.24.65-.39,1.38-.85,1.9-1.39,1.37-1.4,2.17-3.04,2.42-4.89.23-1.84-.06-3.54-.88-5.11-2.18-4.15-7.87-5.32-12.23-5.33-6.32-.02-12.52-.02-18.58-.01-.05,0-.08.03-.08.08v34.99c0,.13.07.2.2.2,5.67-.01,11.66-.01,17.97,0,3.65.01,6.99-.26,9.97-1.59.9-.41,1.87-1.05,2.91-1.93.25-.22.46-.45.64-.71.14-.21.29-.42.44-.62.34-.45.65-1.04.92-1.78.21-.54.34-1.18.4-1.9.42-4.7-1.57-7.96-5.98-9.77ZM55.42,166.64c0-.07.05-.12.11-.12h7.6c2.25,0,4.08,1.39,4.08,3.11v.46c0,1.71-1.83,3.1-4.08,3.1h-7.6c-.06,0-.11-.05-.11-.11v-6.44ZM68.88,184.1c0,1.74-1.92,3.15-4.29,3.16h-9.06c-.06.01-.1-.03-.1-.09l-.02-6.87c0-.06.05-.1.1-.1l9.06-.02h.01c2.37,0,4.3,1.41,4.3,3.15v.77Z"/>
      <path class="cls-1" d="M120.79,194.19l-15.42-34.86c-.03-.06-.08-.09-.14-.09h-9.69s-.08.02-.09.06l-9.32,21.07s-.02.04-.03.05c-.26.24-.42.52-.48.84s-.15.62-.26.9c-.69,1.67-1.43,3.35-2.2,5.01-.38.81-.72,1.6-1.04,2.38-.3.74-.67,1.53-1.09,2.36-.35.69-.64,1.41-.86,2.14,0,.02,0,.05,0,.07,0,.04,0,.07.02.11.04.09.14.16.24.16l9.46.11c.18,0,.3-.08.37-.24l2.61-6.46c.05-.11.13-.17.25-.17h14.4c.14,0,.23.07.28.2l2.64,6.51c.04.12.16.19.28.19h9.86c.25,0,.33-.11.22-.34ZM104.46,180.22l-8.42.03c-.15,0-.19-.06-.13-.19.65-1.5,1.24-2.95,1.76-4.35.41-1.12.83-2.14,1.26-3.06.05-.12.08-.24.1-.36.04-.29.15-.52.34-.69.04-.04.06-.09.07-.15,0-.03,0-.06,0-.09-.01-.05-.01-.09,0-.13.26-.49.45-1.01.57-1.56.11-.49.29-.52.54-.08.14.26.22.54.23.84,0,.12.04.23.1.32.39.6,1,1.58,1.1,2.3.03.25.21.43.31.67.58,1.53,1.15,3.09,1.7,4.69.1.29.22.57.37.85.11.23.21.46.29.7.06.17,0,.26-.19.26Z"/>
      <path class="cls-1" d="M130.9,193.61c-3.63-1.69-6.06-4.42-7.29-8.2-.67-2.05-1.01-4.3-1.01-6.75,0-6.33,0-12.75,0-19.26,0-.09.07-.16.16-.16h9.68c.13,0,.2.06.2.19,0,6.82,0,13.34,0,19.57,0,3.27,1.11,6.91,4.78,7.7,1.71.37,3.24.28,4.57-.28.6-.25,1.21-.63,1.83-1.14.12-.1.2-.22.24-.37.03-.1.09-.17.19-.21.1-.05.18-.11.23-.21.95-1.58,1.42-3.42,1.41-5.55,0-5.95-.01-12.47-.01-19.54,0-.1.08-.18.18-.18h9.56c.06,0,.1.05.1.11.05,6.94.04,13.79-.03,20.58-.04,4.02-1.23,7.43-3.57,10.23-3.69,4.42-10.07,5.52-15.7,4.91-2.07-.22-3.91-.71-5.52-1.46Z"/>
      <path class="cls-1" d="M192.15,194.5h-31.33c-.07.01-.13-.05-.13-.12v-5.99c0-.13.05-.24.13-.33l17.34-20.58c.16-.19.12-.29-.14-.29h-16.74c-.12,0-.18-.06-.18-.18v-7.64c0-.08.04-.12.11-.12h30.18s.08.04.08.08v6.15c0,.07-.03.15-.07.2l-17.44,20.7s-.03.11.01.15c.02.02.05.03.07.03h18.14c.05,0,.09.04.09.09,0,2.31,0,4.63,0,6.96,0,.02.02.14.06.38.03.19-.03.36-.18.51Z"/>
      <path class="cls-1" d="M233.3,194.33l-15.47-34.94c-.05-.1-.13-.15-.24-.15h-9.47c-.14.01-.25.07-.3.2-3.87,8.76-7.73,17.51-11.59,26.24-.06.14-.14.27-.22.39-.24.34-.2.72-.39,1.09-.17.32-.35.64-.56.95-.06.09-.09.2-.09.31,0,.09-.02.18-.06.27-.8,1.71-1.59,3.52-2.37,5.43-.01.02-.02.05-.02.08,0,.06.02.09.06.11.15.09.14.15-.03.17-.04.01-.08.01-.12.01l10,.03c.09,0,.16-.05.2-.13l2.67-6.57c.05-.13.14-.19.27-.19h14.4c.11,0,.21.07.25.17l2.61,6.43c.07.18.24.3.44.3h9.91s.03-.01.05-.02c.07-.03.1-.11.07-.18ZM216.98,180.21l-8.49.02c-.12.01-.16-.04-.13-.12l4.18-10.47c.11-.28.23-.28.37-.02.52.97.92,2.07,1.19,3.3.02.12.08.22.17.31.29.29.47.66.54,1.12.01.07.03.07.07.02.01-.01.01-.02.01-.03t.02,0c.07.2.12.4.16.6.05.2.12.39.22.56.3.51.53,1,.67,1.48.15.5.32.99.5,1.49.2.53.41,1.03.65,1.51.08.15.03.23-.13.23Z"/>
    </g>
  </g>
</svg>