<?xml version="1.0" encoding="UTF-8"?>
<svg id="Capa_2" data-name="Capa 2" xmlns="http://www.w3.org/2000/svg" viewBox="0 0 206.1 104.76">
  <defs>
    <style>
      .cls-1 {
        fill: #fff;
        stroke-width: 0px;
      }
    </style>
  </defs>
  <g id="Capa_1-2" data-name="Capa 1">
    <g>
      <g>
        <path class="cls-1" d="M46.3,2.08C42.97.61,38.35-.08,32.43.03c-6.41.11-13.37.1-20.89-.03C6.27-.09,1.97,2.04,1.97,7.64c0,18.6.01,38.26.02,58.97.01,8.06,10.87,10.11,14.51,3.61.72-1.31,1.07-3.1,1.03-5.37-.09-5.65-.12-11.27-.08-16.84,0-.45.22-.68.68-.67,5.79.05,11.43.06,16.91.03,10.09-.06,17.09-4.11,21.01-12.16,5.58-11.45,2.71-27.62-9.75-33.13ZM43.22,25.53c-.02,5.04-4.59,9.1-10.2,9.08l-15.26-.05h-.02c-.19,0-.34-.17-.33-.36l.08-20.97c0-.19.15-.35.35-.35l15.26.05c5.62.02,10.16,4.12,10.14,9.15l-.02,3.45Z"/>
        <path class="cls-1" d="M195.54,34.51s-.08-.04-.11-.07c-.03-.02-.06-.05-.08-.09-.02-.03-.04-.07-.05-.1-.02-.04-.02-.07-.02-.11,0-.07.01-.13.04-.19.02-.04.04-.07.07-.1.01-.02.03-.03.05-.05s.05-.04.08-.06c4.98-2.53,7.67-6.6,8.07-12.2C204.55,7.9,195.31.19,182.37.11c-8.02-.05-15.81-.06-23.37-.04-5.15.01-7.99.09-8.51.26-3.64,1.14-5.47,3.7-5.47,7.68-.04,20.49-.03,39.86,0,58.13.01,4.75,3.19,7.93,7.7,7.95,9.84.03,18.89.01,27.13-.07,2.34-.03,5.14-.3,8.42-.82,10.11-1.61,17.47-10.23,17.8-20.46.29-9-3.22-15.08-10.54-18.23ZM159.97,13.07c0-.14.12-.26.27-.26l19.69.1c5,.03,9.04,3.43,9.02,7.6v.96c-.03,4.17-4.1,7.53-9.1,7.5l-19.69-.1h-.02c-.14,0-.26-.13-.25-.28l.08-15.52ZM190.41,52.27c-.87,4.65-5.27,8.9-10.34,8.9-6.86.01-13.39.03-19.59.06-.31,0-.55-.24-.55-.54l.02-18.8c0-.2.16-.37.37-.37,7.03.03,13.83.08,20.4.13,6.13.05,10.91,4.1,9.69,10.62Z"/>
        <path class="cls-1" d="M88.36,21.31c-.95-.41-1.68-1.06-2.19-1.95-3.25-5.73-6.52-11.36-9.8-16.89-.75-1.26-1.83-1.95-3.24-2.06-4.88-.39-13.86-1.03-8.95,7.46,4.71,8.13,9.55,16.47,14.53,25.03.64,1.1,1.81,1.77,3.07,1.77,12.25.02,23.85.06,34.82.11,1.95,0,3.44-.91,4.49-2.75,5.05-8.91,9.91-17.36,14.59-25.36,2.21-3.79-.32-6.46-4.17-6.36-3.09.08-7.06-.84-8.95,2.51-3.16,5.6-6.37,11.14-9.63,16.61-.78,1.32-2.2,2.13-3.73,2.13h-19.62c-.42,0-.84-.08-1.22-.25h0Z" vector-effect="non-scaling-stroke"/>
        <path class="cls-1" d="M123.59,46.74c-1.8-3.14-3.36-7.08-6.54-7.09-11.13-.03-22.81-.03-35.02,0-1.42,0-2.73.77-3.43,2-4.7,8.21-9.71,16.89-15.03,26.03-1.43,2.46-1.24,5.71,2.19,6.22,2.4.35,8.88.94,10.5-1.78,3.4-5.71,6.73-11.43,10-17.17.72-1.27,2.06-2.05,3.51-2.05h19.93c1.24.01,2.4.67,3.03,1.74,3.09,5.23,6.16,10.55,9.22,15.95,1.03,1.82,1.81,3.31,4.07,3.47,4.06.28,13.85,1.05,9.25-6.94-4.15-7.23-8.05-14.03-11.68-20.38h0Z" vector-effect="non-scaling-stroke"/>
        <path class="cls-1" d="M194.18,82.89c.09-.21-.01-.46-.23-.55-.05-.02-.09-.03-.14-.03l-1.93-.05c-.21,0-.39.15-.42.35l-.73,4.05c-.04.23.1.45.33.49.02,0,.05,0,.07,0l1.03.03c.17,0,.33-.1.4-.26l1.62-4.04h0Z" vector-effect="non-scaling-stroke"/>
        <path class="cls-1" d="M7.1,91.41c-.2-1.83-1.21-2.78-3.05-2.83l-2.61-.08c-.96-.03-1.44.44-1.44,1.4v13.92c0,.61.3.9.91.87l1.06-.06c.47-.03.71-.28.72-.75l.02-3.96c0-.32.15-.48.47-.49,4.72-.11,4.28-4.73,3.92-8.02ZM4.16,96.64h-1.22c-.16,0-.3-.13-.3-.29l-.03-4.92c0-.17.13-.3.3-.3h1.22c.16-.01.3.12.3.28l.03,4.92c0,.17-.13.31-.3.31Z"/>
        <path class="cls-1" d="M15.39,98.52c-.1-.27-.11-.57-.01-.84.63-1.97.77-4.09.41-6.34-.26-1.61-1.2-2.5-2.82-2.69-.76-.09-1.53-.18-2.32-.28-1.26-.16-1.9.39-1.9,1.66l-.08,13.85h0c0,.45.36.8.8.79l1.35-.03c.4-.01.6-.21.6-.61l.02-4.16c0-.51.25-.68.73-.52l.37.13c.4.14.67.52.68.96v3.59c0,.44.21.65.65.64l1.36-.03c.32-.01.51-.18.57-.49.37-1.93.23-3.8-.41-5.63ZM12.63,96.72h-.66c-.32,0-.57-.25-.57-.56l-.03-4.44c0-.32.26-.58.57-.58h.66c.32,0,.57.25.57.57l.03,4.44c0,.31-.26.57-.57.57Z"/>
        <path class="cls-1" d="M20.38,91.65c0-.38.19-.57.56-.56l1.73.05c.49.01.74-.23.75-.72l.03-.98c.02-.64-.29-.95-.93-.94l-4.3.12c-.27,0-.48.23-.48.5v15.03c0,.32.16.48.49.49l4.44.02c.49,0,.75-.24.76-.74l.03-1.05c.01-.69-.32-1.01-1.01-.94l-1.51.16c-.27.03-.52-.17-.55-.44,0-.01,0-.03,0-.04v-3.18c-.01-.35.17-.53.52-.54h1.01c.4-.02.73-.32.78-.72.07-.51.01-.99-.16-1.42-.16-.39-.45-.58-.86-.59h-.98c-.18-.01-.27-.1-.27-.28l-.05-3.23h0Z" vector-effect="non-scaling-stroke"/>
        <path class="cls-1" d="M30.7,100.08c.48.74.59,1.36.35,1.86-.14.29-.26.28-.36-.02-.17-.49-.17-1.11.01-1.84Z"/>
        <path class="cls-1" d="M31.05,101.94c-.14.29-.26.28-.36-.02-.17-.49-.17-1.11.01-1.84.48.74.59,1.36.35,1.86Z"/>
        <path class="cls-1" d="M42.74,88.51h-.34c-1.9-.01-3.45,1.52-3.46,3.42l-.05,9.24c-.01,1.9,1.52,3.45,3.42,3.46h.34c1.9.01,3.45-1.52,3.46-3.42l.05-9.24c.01-1.9-1.52-3.45-3.42-3.46ZM42.61,101.88h-.3c-.43,0-.79-.35-.79-.78l-.05-9.16c0-.44.35-.8.79-.8h.3c.43,0,.79.35.79.79l.05,9.16c0,.43-.35.79-.79.79Z"/>
        <path class="cls-1" d="M50.95,101.38v-12.03c.02-.52-.24-.79-.77-.8l-1.15-.03c-.54-.01-.81.25-.81.79v14.59c.01.51.26.76.76.76h4.11c.61-.01.89-.31.85-.91l-.08-1.18c-.02-.39-.36-.68-.74-.66-.04,0-.07,0-.11.02-.52.12-1.03.14-1.54.06-.35-.06-.52-.26-.52-.61h0Z" vector-effect="non-scaling-stroke"/>
        <path class="cls-1" d="M66.95,91.64c0-.28.22-.5.5-.51l1.92-.03c.41,0,.61-.22.6-.63l-.05-1.51c0-.25-.13-.37-.38-.38l-4.46-.04c-.46,0-.84.37-.85.83,0,0,0,0,0,.01v14.51c-.02.51.23.76.74.77h4.02c.72.01,1.05-.35.98-1.06l-.1-1.05c-.04-.39-.39-.67-.79-.63-.03,0-.06,0-.08.01-.5.11-1,.13-1.5.06-.37-.05-.55-.26-.55-.63v-2.81c0-.39.2-.6.59-.63l.93-.05c.4-.02.71-.35.72-.75l.02-.99c0-.5-.24-.79-.73-.87l-1.08-.18c-.29-.05-.44-.22-.44-.51v-2.93h-.01Z" vector-effect="non-scaling-stroke"/>
        <path class="cls-1" d="M79.94,103.64c-.92-4.39-1.92-9.06-3.01-14.03-.23-1.08-1.28-1.48-2.28-1.08-.36.15-.58.41-.66.79l-3.05,14.49c-.1.42.07.69.49.81,1.23.35,1.98.04,2.26-.95.07-.27.25-.44.53-.51,1.54-.35,2.58-.03,3.1.96.24.45.61.65,1.11.6l.78-.08c.61-.06.85-.39.73-1ZM75.67,100.48l-.71.05c-.52.03-.7-.2-.56-.69l1.19-4.16c.04-.16.03-.33-.03-.48-.36-.86-.39-1.76-.08-2.7,0-.04.04-.06.09-.05l.24.06s.04.01.04.04l.31,7.38c.01.34-.15.52-.49.55Z"/>
        <path class="cls-1" d="M84.83,88.54h-2.8c-.41,0-.73.33-.73.73v14.66c0,.4.32.73.73.73h2.8c2.02,0,3.67-1.57,3.67-3.5v-9.12c0-1.93-1.65-3.5-3.67-3.5ZM85.85,101.29c0,.33-.27.59-.59.59h-.66c-.33,0-.59-.26-.59-.59v-9.48c.01-.33.28-.59.6-.59h.66c.33,0,.59.27.59.59v9.48Z"/>
        <path class="cls-1" d="M94.09,88.51h-.34c-1.88-.01-3.41,1.52-3.42,3.4l-.03,9.3c-.01,1.88,1.51,3.41,3.4,3.42h.34c1.88.01,3.41-1.51,3.42-3.4l.03-9.3c.01-1.88-1.51-3.41-3.4-3.42ZM94.87,101.06c0,.45-.37.81-.81.81h-.3c-.45,0-.81-.37-.81-.81l.03-9.1c0-.45.37-.81.81-.81h.3c.45,0,.81.37.81.81l-.03,9.1Z"/>
        <path class="cls-1" d="M103.46,92.06v1.07c.02.39.19.69.53.88.56.31,1.14.33,1.75.06.26-.11.41-.31.44-.6.87-7.33-9.07-6.15-6.96.74.54,1.77,2.25,2.75,3.55,3.91.47.41.76.99.8,1.61.13,1.63-.27,2.36-1.18,2.19-.51-.1-.76-.41-.74-.93l.05-1.2c.02-.57-.26-.87-.83-.88l-.91-.03c-.44-.01-.83.3-.91.74-1.25,6.66,8.37,7.1,7.06-.96-.35-2.2-2.75-3.47-4.22-5-.37-.38-.5-.93-.34-1.43.28-.92.71-1.27,1.3-1.04.4.15.6.44.61.87h0Z" vector-effect="non-scaling-stroke"/>
        <path class="cls-1" d="M124.48,91.12h1.99c.34.01.51-.16.52-.5l.02-1.47c0-.37-.17-.55-.53-.55l-4.7-.07c-.23,0-.41.18-.41.4h0s-.06,14.89-.06,14.89c0,.56.28.84.84.84h4.29c.27,0,.43-.13.48-.4.11-.55.13-1.13.06-1.72-.05-.39-.27-.57-.66-.56l-1.57.05c-.41.02-.76-.3-.78-.71,0-.01,0-.02,0-.03v-2.97c0-.2.15-.37.35-.38l1.41-.08c.32-.01.49-.18.5-.5l.06-1.2c.03-.41-.16-.69-.56-.83-.34-.12-.69-.18-1.06-.19-.39,0-.7-.32-.7-.71h0s.01-2.82.01-2.82c0-.27.22-.49.49-.49,0,0,0,0,.01,0h0Z" vector-effect="non-scaling-stroke"/>
        <path class="cls-1" d="M135.45,98.13c0-.19.16-.35.35-.35.03,0,.05,0,.08,0l1.08.27c.16.04.27.18.27.34l-.02,5.94c0,.19.16.35.35.35,0,0,0,0,.01,0l2.01-.07c.19,0,.34-.16.34-.35v-15.38c.01-.18-.13-.33-.31-.35l-2.01-.18c-.19-.02-.36.13-.38.32,0,0,0,.01,0,.02l.02,6.02c0,.16-.11.3-.26.34l-1.1.29c-.19.05-.38-.06-.43-.25,0-.03-.01-.06-.01-.09l.02-6.32c0-.19-.15-.35-.35-.35-.01,0-.03,0-.04,0l-2.07.21c-.18.02-.32.17-.32.35l.04,15.43c0,.19.16.35.35.35,0,0,0,0,.01,0l2.02-.03c.19,0,.34-.16.34-.35v-6.17h.01Z" vector-effect="non-scaling-stroke"/>
        <path class="cls-1" d="M157.92,97.66c.55-2.15.63-4.37.23-6.66-.23-1.28-.99-2.03-2.27-2.26-.82-.14-1.67-.29-2.53-.44-1.5-.26-2.24.37-2.24,1.89v13.9c0,.38.19.57.57.57h1.36c.56,0,.84-.28.84-.85l-.07-4.12c0-.25.11-.34.35-.28l1.04.26c.36.09.54.32.54.69l-.05,3.77c0,.35.17.53.53.53h1.47c.31-.01.49-.17.54-.48.29-1.95.19-3.83-.31-5.64-.08-.29-.08-.59,0-.88ZM155.7,95.76c-.01.51-.45.91-.99.91h-.62c-.17-.01-.29-.14-.29-.3l.04-4.9c0-.16.12-.29.29-.29h.62c.55.02.99.43.99.94l-.04,3.64Z"/>
        <path class="cls-1" d="M165.57,99.49c-.34-3.25-1.21-6.58-2.6-9.99-.21-.52-.5-.85-.86-1-.48-.19-.97-.15-1.46.12-.29.17-.44.42-.44.75v14.54c0,.52.26.77.78.75l1.38-.04c.47-.01.68-.25.63-.72-.34-3.49-.65-6.97-.92-10.44,0-.08.03-.13.11-.14h0c.15-.03.24.02.28.17.48,1.75.64,3.47.49,5.16-.03.35.05.68.22.99.71,1.21,1.16,2.5,1.36,3.85.1.68.65,1.2,1.34,1.26.85.07,1.38-.25,1.58-.98.26-.99.56-2.05.89-3.17.47-1.64.76-1.61.86.09.07,1.1.06,2.17-.03,3.22-.04.54.21.8.74.78l1.55-.07c.33-.01.49-.18.49-.5v-14.73c0-.35-.16-.6-.48-.74-.69-.3-1.32-.29-1.88.04-.21.12-.36.32-.43.55l-3.16,10.29c-.21.71-.36.7-.44-.04h0Z" vector-effect="non-scaling-stroke"/>
        <path class="cls-1" d="M176.76,89.19c0-.36-.29-.65-.65-.65h-1.36c-.36,0-.65.29-.65.65v14.8c0,.36.29.65.65.65h1.36c.36,0,.65-.29.65-.65h0v-14.8h0Z" vector-effect="non-scaling-stroke"/>
        <path class="cls-1" d="M202.46,95.18l-2.15-5.92c-.13-.37-.38-.61-.75-.74-.61-.19-1.2-.18-1.77.04-.31.13-.46.35-.46.68l.07,14.87c0,.36.18.54.54.54h1.52c.3-.01.54-.24.56-.53.22-2.58-.01-5.05-.7-7.41-.36-1.24.08-2.26.12-3.52.03-.69.14-.7.35-.05.26.8.34,1.6.24,2.41,0,.05,0,.1.02.15.02.07.06.11.13.13.28.1.29.22.02.35-.19.1-.33.25-.41.46-.12.31-.09.6.1.87,1.15,1.65,1.96,3.68,2.43,6.08.11.57.43.9.98,1.01.45.09.91.11,1.38.08.39-.03.58-.23.57-.61v-14.89c0-.46-.38-.83-.83-.84-.06,0-.11,0-.17.02l-1.02.19c-.44.09-.65.35-.64.8l.23,5.76c.03.81-.09.83-.36.07h0Z" vector-effect="non-scaling-stroke"/>
        <path class="cls-1" d="M62.46,92.02c-.01-.13-.03-.25-.06-.38-.02-.12-.05-.25-.09-.37-.01-.06-.03-.13-.06-.19,0-.01-.01-.03-.02-.04-.04-.11-.08-.22-.13-.32-.01-.03-.02-.05-.04-.08-.05-.09-.1-.19-.16-.28,0-.01-.01-.01-.01-.02-.08-.14-.18-.27-.28-.39-.06-.07-.12-.14-.19-.21-.1-.12-.2-.21-.31-.3-.09-.08-.19-.15-.29-.22-.09-.07-.19-.13-.29-.18-.02-.02-.04-.03-.06-.04-.09-.05-.19-.1-.28-.14-.11-.05-.23-.09-.35-.13-.09-.03-.18-.06-.27-.07-.1-.03-.2-.05-.3-.06-.06-.02-.11-.02-.16-.03-.13-.01-.26-.02-.4-.02h-2.76c-.41-.01-.73.32-.73.72l-.02,14.66c0,.4.32.73.73.73h2.76c2.07.01,3.76-1.71,3.77-3.83l.02-8.42h0c0-.14-.01-.27-.02-.39ZM59.76,101.56c0,.15-.13.27-.27.27h-1.28c-.15,0-.27-.12-.27-.27v-10.04c0-.15.12-.27.27-.27h1.28c.14,0,.27.12.27.27v10.04Z"/>
        <path class="cls-1" d="M115.84,88.57h-2.81c-.41-.01-.73.32-.73.72l-.06,14.64c0,.4.32.73.73.73h2.81c2.04.02,3.7-1.61,3.71-3.63l.04-8.8c0-2.01-1.65-3.65-3.69-3.66ZM116.87,101.29c0,.33-.27.6-.6.6h-.68c-.34,0-.6-.27-.6-.6v-9.46c.01-.33.28-.6.61-.6h.68c.34,0,.6.27.6.6v9.46Z"/>
        <path class="cls-1" d="M145.58,88.53h-.34c-1.89-.01-3.42,1.52-3.43,3.41l-.03,9.26c0,1.89,1.52,3.42,3.41,3.43h.34c1.89.01,3.42-1.52,3.43-3.41l.03-9.26c.01-1.89-1.52-3.42-3.41-3.43ZM146.21,101.23c0,.37-.3.67-.67.67h-.44c-.37,0-.67-.3-.67-.67l.03-9.42c0-.37.3-.67.67-.67h.44c.37,0,.67.3.67.67l-.03,9.42Z"/>
        <path class="cls-1" d="M181.45,100.96v-9.09c0-.4.34-.73.75-.73,0,0,.01,0,.02,0l.49.02c.31,0,.47.16.48.47l.08,1.96c.02.42.24.62.65.6l1.34-.06c.37-.01.59-.21.66-.58,1.14-6.31-7.18-6.59-7.08-1.52.07,3.09.07,6.1,0,9.02-.09,4.14,3.94,3.61,6.56,3.59.37,0,.56-.2.56-.57v-7.41c0-.49-.25-.73-.73-.73h-1.75c-.61,0-.94.31-1.01.91-.09.83.16,1.62.77,2.36.42.52.48,1.24.15,1.82-.48.82-.96,1.1-1.43.83-.35-.19-.52-.49-.52-.89h0Z" vector-effect="non-scaling-stroke"/>
        <path class="cls-1" d="M191.74,88.56h-.34c-1.89-.01-3.43,1.52-3.44,3.42l-.03,9.2c-.01,1.89,1.52,3.43,3.42,3.44h.34c1.89.01,3.43-1.52,3.44-3.42l.03-9.2c.01-1.89-1.52-3.43-3.42-3.44ZM192.43,101.18c0,.38-.31.69-.69.69h-.5c-.39,0-.69-.31-.69-.69v-9.34c0-.38.3-.69.69-.69h.5c.38,0,.69.31.69.69v9.34Z"/>
        <path class="cls-1" d="M170.07,97.39c.06-1.16.03-2.39-.09-3.68-.05-.56-.15-.57-.32-.03-.48,1.58-.59,2.84-.32,3.79.41,1.44.65,1.41.73-.08h0Z" vector-effect="non-scaling-stroke"/>
        <path class="cls-1" d="M203.24,100.24c.29.63.41.6.34-.09-.09-.98-.17-1.93-.23-2.85-.13-2.14-.4-2.16-.8-.05-.13.7.1,1.7.69,2.99h0Z" vector-effect="non-scaling-stroke"/>
      </g>
      <path class="cls-1" d="M46.3,2.08C42.97.61,38.35-.08,32.43.03c-6.41.11-13.37.1-20.89-.03C6.27-.09,1.97,2.04,1.97,7.64c0,18.6.01,38.26.02,58.97.01,8.06,10.87,10.11,14.51,3.61.72-1.31,1.07-3.1,1.03-5.37-.09-5.65-.12-11.27-.08-16.84,0-.45.22-.68.68-.67,5.79.05,11.43.06,16.91.03,10.09-.06,17.09-4.11,21.01-12.16,5.58-11.45,2.71-27.62-9.75-33.13ZM43.22,25.53c-.02,5.04-4.59,9.1-10.2,9.08l-15.26-.05h-.02c-.19,0-.34-.17-.33-.36l.08-20.97c0-.19.15-.35.35-.35l15.26.05c5.62.02,10.16,4.12,10.14,9.15l-.02,3.45Z"/>
      <path class="cls-1" d="M195.54,34.51s-.08-.04-.11-.07c-.04-.02-.06-.05-.08-.09-.02-.01-.02-.02-.03-.03-.01-.02-.02-.05-.02-.07-.02-.04-.02-.07-.02-.11,0-.07.01-.13.04-.19.02-.04.04-.07.07-.1.01-.02.03-.03.05-.05s.05-.04.08-.06c4.98-2.53,7.67-6.6,8.07-12.2C204.55,7.9,195.31.19,182.37.11c-8.02-.05-15.81-.06-23.37-.04-5.15.01-7.99.09-8.51.26-3.64,1.14-5.47,3.7-5.47,7.68-.04,20.49-.03,39.86,0,58.13.01,4.75,3.19,7.93,7.7,7.95,9.84.03,18.89.01,27.13-.07,2.34-.03,5.14-.3,8.42-.82,10.11-1.61,17.47-10.23,17.8-20.46.29-9-3.22-15.08-10.54-18.23ZM159.97,13.07c0-.14.12-.26.27-.26l19.69.1c5,.03,9.04,3.43,9.02,7.6v.96c-.03,4.17-4.1,7.53-9.1,7.5l-19.69-.1h-.02c-.14,0-.26-.13-.25-.28l.08-15.52ZM190.41,52.27c-.87,4.65-5.27,8.9-10.34,8.9-6.86.01-13.39.03-19.59.06-.31,0-.55-.24-.55-.54l.02-18.8c0-.2.16-.37.37-.37,7.03.03,13.83.08,20.4.13,6.13.05,10.91,4.1,9.69,10.62Z"/>
      <path class="cls-1" d="M88.36,21.31c.38.17.8.26,1.22.25h19.62c1.53,0,2.95-.81,3.73-2.13,3.26-5.47,6.47-11.01,9.63-16.61,1.89-3.35,5.86-2.43,8.95-2.51,3.85-.1,6.38,2.57,4.17,6.36-4.68,8-9.54,16.45-14.59,25.36-1.05,1.84-2.54,2.76-4.49,2.75-10.97-.05-22.57-.09-34.82-.11-1.26,0-2.43-.67-3.07-1.77-4.98-8.56-9.82-16.9-14.53-25.03C59.27-.62,68.25.02,73.13.41c1.41.11,2.49.8,3.24,2.06,3.28,5.53,6.55,11.16,9.8,16.89.51.89,1.24,1.54,2.19,1.95Z"/>
      <path class="cls-1" d="M123.59,46.74c3.63,6.35,7.53,13.15,11.68,20.38,4.6,7.99-5.19,7.22-9.25,6.94-2.26-.16-3.04-1.65-4.07-3.47-3.06-5.4-6.13-10.72-9.22-15.95-.63-1.07-1.79-1.73-3.03-1.73h-19.93c-1.45,0-2.79.77-3.51,2.04-3.27,5.74-6.6,11.46-10,17.17-1.62,2.72-8.1,2.13-10.5,1.78-3.43-.51-3.62-3.76-2.19-6.22,5.32-9.14,10.33-17.82,15.03-26.03.7-1.23,2.01-1.99,3.43-2,12.21-.03,23.89-.03,35.02,0,3.18,0,4.74,3.95,6.54,7.09Z"/>
      <path class="cls-1" d="M194.18,82.89l-1.62,4.04c-.07.16-.23.26-.4.26l-1.03-.03c-.23,0-.41-.2-.41-.43,0-.02,0-.05,0-.07l.73-4.05c.03-.2.21-.35.42-.35l1.93.05c.23.01.41.21.4.44,0,.05-.01.1-.03.14Z"/>
      <path class="cls-1" d="M7.1,91.41c-.2-1.83-1.21-2.78-3.05-2.83l-2.61-.08c-.96-.03-1.44.44-1.44,1.4v13.92c0,.61.3.9.91.87l1.06-.06c.47-.03.71-.28.72-.75l.02-3.96c0-.32.15-.48.47-.49,4.72-.11,4.28-4.73,3.92-8.02ZM4.16,96.64h-1.22c-.16,0-.3-.13-.3-.29l-.03-4.92c0-.17.13-.3.3-.3h1.22c.16-.01.3.12.3.28l.03,4.92c0,.17-.13.31-.3.31Z"/>
      <path class="cls-1" d="M15.39,98.52c-.1-.27-.11-.57-.01-.84.63-1.97.77-4.09.41-6.34-.26-1.61-1.2-2.5-2.82-2.69-.76-.09-1.53-.18-2.32-.28-1.26-.16-1.9.39-1.9,1.66l-.08,13.85h0c0,.45.36.8.8.79l1.35-.03c.4-.01.6-.21.6-.61l.02-4.16c0-.51.25-.68.73-.52l.37.13c.4.14.67.52.68.96v3.59c0,.44.21.65.65.64l1.36-.03c.32-.01.51-.18.57-.49.37-1.93.23-3.8-.41-5.63ZM12.63,96.72h-.66c-.32,0-.57-.25-.57-.56l-.03-4.44c0-.32.26-.58.57-.58h.66c.32,0,.57.25.57.57l.03,4.44c0,.31-.26.57-.57.57Z"/>
      <path class="cls-1" d="M20.7,95.15h.98c.41.02.7.21.86.6.17.43.23.91.16,1.42-.05.4-.38.7-.78.71h-1.01c-.35.02-.53.2-.53.55v3.18c.01.27.24.49.52.48.01,0,.03,0,.04,0l1.51-.16c.69-.07,1.02.25,1.01.94l-.03,1.05c-.01.5-.27.75-.76.74l-4.44-.02c-.33,0-.49-.17-.49-.49v-15.03c0-.27.21-.49.48-.5l4.3-.12c.64-.01.95.3.93.94l-.03.98c-.01.49-.26.73-.75.72l-1.73-.05c-.37,0-.56.18-.56.56l.05,3.23c0,.18.09.27.27.27Z"/>
      <path class="cls-1" d="M33.93,103.89s0,.05.01.07c-.01-.06,0-.13.01-.2-.01.04-.02.09-.02.13Z"/>
      <path class="cls-1" d="M36.92,89.82c-.12,4.75-.16,9.35-.13,13.81,0,.69-.34,1.04-1.03,1.03h-1.07c-.09-.01-.18-.03-.27-.06-.01,0-.03-.01-.05-.02-.03-.01-.06-.03-.1-.06-.06-.03-.11-.08-.16-.14-.03-.03-.05-.07-.07-.11-.05-.07-.08-.15-.09-.24,0-.02-.01-.04-.01-.07-.01-.06,0-.13.01-.2.27-1.45.31-2.75.13-3.89-.17-1.04-.39-1.05-.66-.03l-1.09,4.05c-.11.39-.43.69-.83.78-.54.11-1.04.05-1.49-.18-.3-.15-.48-.4-.53-.73-.36-2.1-1.59-3.71-1.53-5.88.04-1.49-.18-2.97-.67-4.42-.03-.09-.1-.12-.21-.08-.03.01-.04.02-.03.05l.8,10.61c.02.38-.15.57-.53.58l-1.61.05c-.38.01-.58-.18-.58-.56l-.03-14.74c0-.35.16-.61.48-.78.52-.28,1.02-.3,1.52-.06.34.17.62.52.82,1.07,1.26,3.45,2.19,6.95,2.79,10.48-.18.73-.18,1.35-.01,1.84.1.3.22.31.36.02.24-.5.13-1.12-.35-1.86l3.15-10.49c.21-.71.69-1.1,1.43-1.16.53-.05.95.09,1.27.41.25.27.37.59.37.98Z"/>
      <path class="cls-1" d="M42.74,88.51h-.34c-1.9-.01-3.45,1.52-3.46,3.42l-.05,9.24c-.01,1.9,1.52,3.45,3.42,3.46h.34c1.9.01,3.45-1.52,3.46-3.42l.05-9.24c.01-1.9-1.52-3.45-3.42-3.46ZM42.61,101.88h-.3c-.43,0-.79-.35-.79-.78l-.05-9.16c0-.44.35-.8.79-.8h.3c.43,0,.79.35.79.79l.05,9.16c0,.43-.35.79-.79.79Z"/>
      <path class="cls-1" d="M51.47,101.99c.51.08,1.02.06,1.54-.06.38-.08.75.15.83.53,0,.04.01.07.02.11l.08,1.18c.04.6-.24.9-.85.9h-4.11c-.5.01-.75-.24-.75-.75v-14.59c-.01-.54.26-.8.8-.79l1.15.03c.53.01.79.28.78.8v12.03c0,.35.16.55.51.61Z"/>
      <path class="cls-1" d="M67.4,95.08l1.08.18c.49.08.74.37.73.87l-.02.99c0,.4-.32.73-.72.75l-.93.05c-.39.03-.59.24-.59.63v2.81c0,.37.18.58.55.63.5.07,1,.05,1.5-.06.39-.09.77.16.86.54,0,.03.01.05.01.08l.1,1.05c.07.71-.26,1.07-.98,1.07h-4.02c-.51-.02-.76-.27-.75-.78v-14.51c0-.46.39-.84.85-.84,0,0,0,0,.01,0l4.46.04c.25,0,.37.13.38.38l.05,1.51c.01.41-.19.62-.6.63l-1.92.03c-.28,0-.5.23-.5.51v2.93c.01.29.16.46.45.51Z"/>
      <path class="cls-1" d="M79.94,103.64c-.92-4.39-1.92-9.06-3.01-14.03-.23-1.08-1.28-1.48-2.28-1.08-.36.15-.58.41-.66.79l-3.05,14.49c-.1.42.07.69.49.81,1.23.35,1.98.04,2.26-.95.07-.27.25-.44.53-.51,1.54-.35,2.58-.03,3.1.96.24.45.61.65,1.11.6l.78-.08c.61-.06.85-.39.73-1ZM75.67,100.48l-.71.05c-.52.03-.7-.2-.56-.69l1.19-4.16c.04-.16.03-.33-.03-.48-.36-.86-.39-1.76-.08-2.7,0-.04.04-.06.09-.05l.24.06s.04.01.04.04l.31,7.38c.01.34-.15.52-.49.55Z"/>
      <path class="cls-1" d="M84.83,88.54h-2.8c-.41,0-.73.33-.73.73v14.66c0,.4.32.73.73.73h2.8c2.02,0,3.67-1.57,3.67-3.5v-9.12c0-1.93-1.65-3.5-3.67-3.5ZM85.85,101.29c0,.33-.27.59-.59.59h-.66c-.33,0-.59-.26-.59-.59v-9.48c.01-.33.28-.59.6-.59h.66c.33,0,.59.27.59.59v9.48Z"/>
      <path class="cls-1" d="M94.09,88.51h-.34c-1.88-.01-3.41,1.52-3.42,3.4l-.03,9.3c-.01,1.88,1.51,3.41,3.4,3.42h.34c1.88.01,3.41-1.51,3.42-3.4l.03-9.3c.01-1.88-1.51-3.41-3.4-3.42ZM94.87,101.06c0,.45-.37.81-.81.81h-.3c-.45,0-.81-.37-.81-.81l.03-9.1c0-.45.37-.81.81-.81h.3c.45,0,.81.37.81.81l-.03,9.1Z"/>
      <path class="cls-1" d="M102.85,91.19c-.59-.23-1.02.12-1.3,1.04-.16.5-.03,1.05.34,1.43,1.47,1.53,3.87,2.8,4.22,5,1.31,8.06-8.31,7.62-7.06.96.08-.44.47-.75.91-.74l.91.03c.57.01.85.31.83.88l-.05,1.2c-.02.52.23.83.74.93.91.17,1.31-.56,1.18-2.19-.04-.62-.33-1.2-.8-1.61-1.3-1.16-3.01-2.14-3.55-3.91-2.11-6.89,7.83-8.07,6.96-.74-.03.29-.18.49-.44.6-.61.27-1.19.25-1.75-.06-.34-.19-.51-.49-.52-.88v-1.07c-.02-.43-.22-.72-.62-.87Z"/>
      <path class="cls-1" d="M124.48,91.12c-.27,0-.49.21-.5.48,0,0,0,0,0,.01v2.82c-.01.39.3.71.69.71h0c.37,0,.72.07,1.06.19.4.14.59.42.56.83l-.06,1.2c-.01.32-.18.49-.5.5l-1.41.08c-.2.01-.35.18-.35.38v2.97c0,.41.33.74.75.74.01,0,.02,0,.03,0l1.57-.05c.39-.01.61.17.66.56.07.59.05,1.17-.06,1.72-.05.27-.21.4-.48.4h-4.29c-.56,0-.84-.28-.84-.84l.06-14.89c0-.22.18-.4.41-.4h0l4.7.07c.36,0,.54.18.53.55l-.02,1.47c0,.34-.18.51-.52.51h-1.99Z"/>
      <path class="cls-1" d="M135.45,98.13v6.17c0,.19-.16.34-.35.35l-2.02.03c-.19,0-.35-.15-.36-.34,0,0,0,0,0-.01l-.04-15.43c0-.18.14-.33.32-.35l2.07-.21c.19-.02.37.12.39.31,0,.01,0,.03,0,.04l-.02,6.32c0,.19.15.35.35.35.03,0,.06,0,.09-.01l1.1-.29c.15-.04.26-.18.26-.34l-.02-6.02c0-.19.17-.35.36-.34,0,0,.01,0,.02,0l2.01.18c.18.02.32.17.32.35v15.38c0,.19-.16.34-.35.35l-2.01.07c-.19,0-.35-.15-.36-.34,0,0,0,0,0-.01l.02-5.94c0-.16-.11-.3-.27-.34l-1.08-.27c-.19-.04-.38.07-.42.26,0,.03,0,.05,0,.08Z"/>
      <path class="cls-1" d="M157.92,97.66c.55-2.15.63-4.37.23-6.66-.23-1.28-.99-2.03-2.27-2.26-.82-.14-1.67-.29-2.53-.44-1.5-.26-2.24.37-2.24,1.89v13.9c0,.38.19.57.57.57h1.36c.56,0,.84-.28.84-.85l-.07-4.12c0-.25.11-.34.35-.28l1.04.26c.36.09.54.32.54.69l-.05,3.77c0,.35.17.53.53.53h1.47c.31-.01.49-.17.54-.48.29-1.95.19-3.83-.31-5.64-.08-.29-.08-.59,0-.88ZM155.7,95.76c-.01.51-.45.91-.99.91h-.62c-.17-.01-.29-.14-.29-.3l.04-4.9c0-.16.12-.29.29-.29h.62c.55.02.99.43.99.94l-.04,3.64Z"/>
      <path class="cls-1" d="M171.49,88.65c-.7-.3-1.32-.29-1.88.04-.21.12-.36.32-.43.55l-3.16,10.29c-.22.71-.36.7-.44-.04-.34-3.25-1.21-6.58-2.6-9.99-.22-.52-.5-.85-.86-1-.48-.19-.97-.15-1.46.12-.3.17-.44.42-.44.75v14.54c0,.52.26.77.78.75l1.38-.04c.46-.01.67-.25.63-.72-.34-3.49-.65-6.97-.92-10.44v-.02c0-.07.04-.11.11-.12.14-.03.24.02.28.17.48,1.75.64,3.47.49,5.16-.03.35.04.68.22.99.7,1.21,1.16,2.5,1.36,3.85.09.68.65,1.2,1.34,1.26.85.07,1.38-.25,1.58-.98.26-.99.55-2.05.89-3.17.47-1.64.76-1.61.86.09.06,1.1.05,2.17-.03,3.22-.04.54.2.8.74.78l1.55-.07c.32-.01.49-.18.49-.5v-14.73c0-.35-.16-.6-.48-.74ZM170.08,97.39c-.08,1.49-.33,1.52-.73.08-.27-.95-.16-2.21.32-3.79.16-.54.27-.53.32.03.12,1.29.15,2.52.09,3.68Z"/>
      <rect class="cls-1" x="174.1" y="88.54" width="2.66" height="16.1" rx=".65" ry=".65"/>
      <path class="cls-1" d="M205.25,89.18s-.01-.11-.02-.16c-.01-.05-.02-.1-.04-.14-.02-.05-.04-.09-.07-.13-.01-.02-.02-.04-.04-.06-.01-.02-.03-.04-.04-.06-.02-.03-.05-.05-.07-.07-.07-.06-.15-.11-.23-.15-.1-.04-.21-.06-.32-.06h-.05s-.08,0-.11.01l-1.02.19c-.44.09-.66.35-.64.8l.23,5.76c.03.81-.09.83-.36.07l-2.15-5.92c-.13-.37-.38-.61-.75-.74-.62-.19-1.21-.18-1.77.04-.31.13-.46.35-.46.68l.07,14.87c0,.36.18.54.54.54h1.52c.29,0,.53-.24.56-.53.22-2.58-.02-5.05-.7-7.41-.36-1.24.08-2.26.12-3.52.02-.69.14-.7.35-.05.26.8.34,1.6.24,2.41-.01.05,0,.1.02.15.02.07.06.11.13.13.28.1.28.22.02.35-.2.1-.33.25-.41.46-.12.31-.09.6.1.87,1.14,1.65,1.95,3.68,2.43,6.08.1.57.43.9.98,1.01.45.09.91.11,1.38.08.38-.03.57-.23.57-.61v-14.89ZM203.25,100.24c-.6-1.29-.83-2.29-.69-2.99.4-2.11.66-2.09.8.05.06.92.13,1.87.23,2.85.06.69-.05.72-.34.09Z"/>
      <path class="cls-1" d="M62.46,92.02c-.01-.13-.03-.25-.06-.38-.02-.12-.05-.25-.09-.37-.01-.06-.03-.13-.06-.19,0-.01-.01-.03-.02-.04-.04-.11-.08-.22-.13-.32-.01-.03-.02-.05-.04-.08-.05-.09-.1-.19-.16-.28,0-.01-.01-.01-.01-.02-.08-.14-.18-.27-.28-.39-.06-.07-.12-.14-.19-.21-.1-.12-.2-.21-.31-.3-.09-.08-.19-.15-.29-.22-.09-.07-.19-.13-.29-.18-.02-.02-.04-.03-.06-.04-.09-.05-.19-.1-.28-.14-.11-.05-.23-.09-.35-.13-.09-.03-.18-.06-.27-.07-.1-.03-.2-.05-.3-.06-.06-.02-.11-.02-.16-.03-.13-.01-.26-.02-.4-.02h-2.76c-.41-.01-.73.32-.73.72l-.02,14.66c0,.4.32.73.73.73h2.76c2.07.01,3.76-1.71,3.77-3.83l.02-8.42h0c0-.14-.01-.27-.02-.39ZM59.76,101.56c0,.15-.13.27-.27.27h-1.28c-.15,0-.27-.12-.27-.27v-10.04c0-.15.12-.27.27-.27h1.28c.14,0,.27.12.27.27v10.04Z"/>
      <path class="cls-1" d="M115.84,88.57h-2.81c-.41-.01-.73.32-.73.72l-.06,14.64c0,.4.32.73.73.73h2.81c2.04.02,3.7-1.61,3.71-3.63l.04-8.8c0-2.01-1.65-3.65-3.69-3.66ZM116.87,101.29c0,.33-.27.6-.6.6h-.68c-.34,0-.6-.27-.6-.6v-9.46c.01-.33.28-.6.61-.6h.68c.34,0,.6.27.6.6v9.46Z"/>
      <path class="cls-1" d="M145.58,88.53h-.34c-1.89-.01-3.42,1.52-3.43,3.41l-.03,9.26c0,1.89,1.52,3.42,3.41,3.43h.34c1.89.01,3.42-1.52,3.43-3.41l.03-9.26c.01-1.89-1.52-3.42-3.41-3.43ZM146.21,101.23c0,.37-.3.67-.67.67h-.44c-.37,0-.67-.3-.67-.67l.03-9.42c0-.37.3-.67.67-.67h.44c.37,0,.67.3.67.67l-.03,9.42Z"/>
      <path class="cls-1" d="M181.97,101.85c.47.27.95-.01,1.43-.83.33-.58.27-1.3-.15-1.82-.61-.74-.86-1.53-.77-2.36.07-.6.4-.9,1.01-.9h1.75c.48,0,.72.23.73.72v7.41c0,.37-.19.56-.56.57-2.62.02-6.65.55-6.56-3.59.06-2.92.06-5.93,0-9.02-.1-5.07,8.22-4.79,7.08,1.52-.07.37-.29.57-.66.58l-1.34.06c-.41.02-.63-.18-.65-.6l-.08-1.96c-.01-.31-.17-.46-.48-.47l-.49-.02c-.41-.01-.75.31-.76.71,0,0,0,.01,0,.02v9.09c0,.4.16.7.51.89Z"/>
      <path class="cls-1" d="M191.74,88.56h-.34c-1.89-.01-3.43,1.52-3.44,3.42l-.03,9.2c-.01,1.89,1.52,3.43,3.42,3.44h.34c1.89.01,3.43-1.52,3.44-3.42l.03-9.2c.01-1.89-1.52-3.43-3.42-3.44ZM192.43,101.18c0,.38-.31.69-.69.69h-.5c-.39,0-.69-.31-.69-.69v-9.34c0-.38.3-.69.69-.69h.5c.38,0,.69.31.69.69v9.34Z"/>
      <path class="cls-1" d="M170.07,97.39c-.08,1.49-.32,1.52-.73.08-.27-.95-.16-2.21.32-3.79.17-.54.27-.53.32.03.12,1.29.15,2.52.09,3.68Z"/>
      <path class="cls-1" d="M203.24,100.24c-.59-1.29-.82-2.29-.69-2.99.4-2.11.67-2.09.8.05.06.92.14,1.87.23,2.85.07.69-.05.72-.34.09Z"/>
      <path class="cls-1" d="M31.05,101.94c-.14.29-.26.28-.36-.02-.17-.49-.17-1.11.01-1.84.48.74.59,1.36.35,1.86Z"/>
    </g>
  </g>
</svg>