<?xml version="1.0" encoding="UTF-8"?>
<svg id="Capa_2" data-name="Capa 2" xmlns="http://www.w3.org/2000/svg" viewBox="0 0 496.53 100.33">
  <defs>
    <style>
      .cls-1 {
        fill: #fff;
        stroke-width: 0px;
      }
    </style>
  </defs>
  <g id="Capa_1-2" data-name="Capa 1">
    <g>
      <g>
        <path class="cls-1" d="M31.03,12.18c0-.58.47-1.05,1.05-1.05,0,0,.01,0,.02,0l14.63.11c.58,0,1.06-.46,1.07-1.04,0,0,0-.01,0-.02l-.03-9.05c0-.58-.47-1.05-1.05-1.05L1.27.1C.68.1.21.57.21,1.15l-.03,8.91c0,.58.47,1.05,1.05,1.05h0l14.55.08c.58,0,1.05.47,1.05,1.05h0l-.05,42.27c0,.58.47,1.05,1.05,1.05l12.2-.02c.58,0,1.05-.47,1.05-1.05h0l-.06-42.32h0Z" vector-effect="non-scaling-stroke"/>
        <path class="cls-1" d="M102.24,53.96l-8.65-15.05s-.02-.04-.02-.06c-.05-.12-.06-.25-.02-.37.02-.05.04-.1.08-.15.02-.04.06-.08.1-.11.02-.02.05-.04.08-.06.02,0,.04-.02.06-.03,4.99-1.99,7.72-5.69,8.19-11.09.49-5.49.43-10.69-.18-15.61C100.67,1.55,92.72-.07,84.48,0c-5.18.04-10.46.06-15.84.06-4.66,0-9.4-.02-14.22-.05-.7,0-1.27.58-1.27,1.28l.05,53.68c0,.38.31.68.68.68l12.75-.14c.49,0,.88-.4.88-.88l-.05-14.78c0-.63.32-.94.94-.94l9.17-.03c.72,0,1.26.32,1.6.96l7.64,14.22c.54,1.01,1.39,1.51,2.53,1.51l12.01-.05c1.19,0,1.49-.52.89-1.56ZM83.52,27.83l-15.28.05c-.38,0-.7-.31-.7-.7l-.06-15.31c0-.39.31-.7.7-.7l15.28-.05c2.52-.01,4.56,1.77,4.57,3.98l.03,8.72c.01,2.21-2.02,4-4.54,4.01Z"/>
        <path class="cls-1" d="M145.12,43.57c-.38,1.05-1.13,1.58-2.25,1.59l-14.6.08c-2.07,0-3.75-1.66-3.76-3.73,0,0,0-.01,0-.02l-.02-40.65c0-.51-.26-.76-.78-.76l-12.67-.02c-.54,0-.81.26-.79.79.13,10.45.11,22.77-.06,36.98-.11,9.75,2.04,17.89,13.22,18.3,6.82.25,14.07.31,21.74.18,9.92-.17,14.91-5.08,14.97-14.71.1-13.76.11-27.25.03-40.47-.01-.71-.38-1.08-1.1-1.09l-12.26-.02c-.47,0-.87.37-.88.84,0,.01,0,.02,0,.03.1,12.44.07,25.39-.08,38.85-.01,1.29-.24,2.56-.7,3.81h0Z" vector-effect="non-scaling-stroke"/>
        <path class="cls-1" d="M184.08,44.58c-.94-.13-1.64-.93-1.64-1.87l-.05-27.72c-.01-2.52,1.24-3.78,3.76-3.78h25.56c.47,0,.7-.24.7-.71l-.05-9.67c0-.52-.26-.78-.78-.78-9.08-.03-18.33-.03-27.74.02-8.71.03-15.35,3.49-15.64,13.42-.25,8.68-.29,18.16-.11,28.44.13,7.58,3.83,13.12,11.91,13.59,10.31.58,20.58.48,30.82-.32,1.04-.09,1.56-.65,1.57-1.69l.1-7.69c.01-1.17-.56-1.72-1.72-1.65-9.04.47-17.97,1.62-26.7.42h0Z" vector-effect="non-scaling-stroke"/>
        <path class="cls-1" d="M233.57,21.93c-.3,0-.56-.23-.57-.54,0,0,0-.01,0-.02l.06-20.71c0-.3-.25-.55-.55-.55l-13.3-.11c-.3,0-.55.25-.55.55l.05,54.5c0,.3.25.55.55.55l13.25-.1c.3,0,.55-.25.55-.55l-.02-21.48c0-.3.24-.54.54-.55l6.15-.13c.21,0,.4.11.5.29l11.94,22.13c.1.18.28.29.49.29l13.79-.13c.3,0,.55-.25.55-.55,0-.09-.02-.18-.06-.26l-14.79-26.83c-.1-.17-.1-.38,0-.55l14.81-26.18c.15-.26.06-.6-.2-.75-.09-.05-.2-.08-.3-.07l-13.89.28c-.19,0-.37.11-.47.28l-11.78,20.81c-.1.17-.28.27-.47.28l-6.28.11h0Z" vector-effect="non-scaling-stroke"/>
        <path class="cls-1" d="M284.17,17.76l.03-2.24c.04-2.9,1.51-4.34,4.41-4.33l24.12.03c.52,0,.78-.25.78-.76l.02-9.57c0-.54-.26-.81-.79-.81-8.97-.1-17.92-.09-26.86.03-3.67.04-6.74.62-9.23,1.74-7.36,3.29-7.33,13.74-6.39,20.75.93,7.01,4.99,10.75,12.17,11.24,5.85.39,12.52.44,20,.16,1.19-.04,1.75.53,1.69,1.72l-.36,6.65c-.07,1.24-1.1,2.21-2.35,2.21l-29.28.03c-1.07.01-1.6.55-1.57,1.61l.11,7.17c.02,1.14.6,1.74,1.74,1.82,13.69.89,25.19.95,34.5.19,11.91-.99,12.26-12.81,11.01-21.9-.96-7.09-5.08-10.78-12.34-11.06-5.49-.23-11.14-.3-16.94-.21-3.02.04-4.5-1.44-4.46-4.46h0Z" vector-effect="non-scaling-stroke"/>
        <path class="cls-1" d="M340.08,25.95c.28.15.5.37.67.65,3.18,5.71,6.28,11.31,9.29,16.81.41.75,1.04,1.11,1.9,1.1l8.73-.06c.71,0,1.36-.39,1.7-1.01l9.2-16.63c.91-1.63,1.36-1.52,1.35.34l-.1,27.48c0,.64.32.96.96.96l12.28-.06c.78-.01,1.17-.41,1.17-1.18l-.02-53.13c0-.63-.52-1.14-1.15-1.14h-12.86c-.7,0-1.34.39-1.69,1.01l-14.66,27.27c-.18.33-.59.46-.92.28-.12-.06-.21-.16-.28-.28l-14.49-26.94c-.44-.82-1.3-1.33-2.22-1.33l-12.47-.03c-.65,0-1.17.52-1.17,1.15h0v53.55c0,.52.25.78.76.78l12.49.03c.78.01,1.17-.38,1.17-1.17l-.19-28.1c0-.21.18-.39.39-.38.06,0,.12.02.17.04h0Z" vector-effect="non-scaling-stroke"/>
        <path class="cls-1" d="M410.92,11.89c0-.41.35-.75.76-.75l28.19.02c.42,0,.76-.34.76-.76h0s-.03-9.59-.03-9.59c0-.42-.34-.76-.76-.76h0l-42.47.02c-.42,0-.76.34-.76.76h0s-.02,53.98-.02,53.98c0,.42.34.76.76.76l42.58-.06c.42,0,.76-.34.76-.76,0,0,0-.01,0-.02l-.13-9.54c0-.41-.35-.75-.76-.75l-28.06-.02c-.41,0-.75-.33-.76-.75l-.21-9.98c0-.42.33-.77.75-.78,0,0,.01,0,.02,0h22.03c.42,0,.76-.34.76-.76h0l-.08-9.52c0-.42-.34-.76-.76-.76h-21.93c-.42,0-.76-.34-.76-.76,0,0,0-.01,0-.02l.13-9.21h0Z" vector-effect="non-scaling-stroke"/>
        <path class="cls-1" d="M461.08,24.19c0-1.34.33-1.43.99-.28l17.44,30.43c.42.74,1.21,1.2,2.06,1.2l12.8.03c.57,0,.86-.29.86-.86V1.28c0-.83-.41-1.25-1.23-1.25l-12.07.03c-.67,0-1.01.33-1.01.99l.1,29.81c0,1.72-.43,1.83-1.28.34l-16.87-29.59c-.55-.97-1.59-1.57-2.71-1.57l-12.07-.02c-.8,0-1.2.4-1.2,1.2v53.53c0,.55.28.82.83.81l12.65-.11c.57-.01.86-.3.86-.86l-.15-30.42h0Z" vector-effect="non-scaling-stroke"/>
        <path class="cls-1" d="M496.34,67.16c0-.79-.64-1.43-1.43-1.43H1.43c-.79,0-1.43.64-1.43,1.43h0v.78c0,.79.64,1.43,1.43,1.43h493.49c.79,0,1.43-.64,1.43-1.43h0v-.78h0Z" vector-effect="non-scaling-stroke"/>
        <path class="cls-1" d="M72.46,91.63c0,1.07-.34,1.18-1.01.34l-8.79-11.13c-3.6-4.55-5.41-3.93-5.42,1.88l-.03,15.48c0,.98.78,1.78,1.77,1.8h.67c1.03.02,1.54-.48,1.54-1.51v-11.73c0-1.3.4-1.43,1.2-.41,3.27,4.19,6.41,8.15,9.44,11.89.69.85,1.54,1.45,2.53,1.8.67.23,1.4-.12,1.63-.79.05-.14.07-.29.07-.44l-.11-19.74c0-.63-.52-1.13-1.15-1.12-.07,0-.13,0-.2.02l-.75.13c-.94.17-1.41.74-1.41,1.7l.02,11.83h0Z" vector-effect="non-scaling-stroke"/>
        <path class="cls-1" d="M95.92,96.61c-13.42-.34-6.83-22.42,5.37-13.2.87.66,1.65.57,2.35-.28.5-.59.39-1.42-.31-2.48-.26-.37-.59-.68-.99-.91-7.28-4.02-15.7-1.12-17.39,7.33-.58,2.93-.11,5.56,1.43,7.9,3.53,5.39,8.6,6.61,15.23,3.67,1.08-.48,1.84-1.24,2.27-2.29.11-.27.16-.55.15-.84-.05-1.01-.57-1.37-1.54-1.1-2.38.68-3.88,2.27-6.57,2.21h0Z" vector-effect="non-scaling-stroke"/>
        <path class="cls-1" d="M252.89,98.7c-2.87-6.32-5.79-12.73-8.78-19.22-.72-1.6-1.75-2.03-3.08-1.3-.39.21-.7.55-.89.96l-8.78,19.21c-.44.97-.13,1.55.93,1.75l.61.1c.77.14,1.33-.15,1.67-.86l1.82-3.82c.37-.78.99-1.16,1.85-1.15l7.82.12c.56.01.97.25,1.23.74l1.51,2.86c.4.75.98,1.34,1.74,1.75.67.37,1.31.4,1.91.1.54-.27.69-.69.44-1.24ZM244.75,91.4l-5.68-.24c-.07,0-.14-.02-.2-.05-.28-.12-.4-.45-.27-.73l3.1-6.41c.06-.12.16-.21.29-.26.28-.11.6.03.71.31l2.58,6.62c.03.08.05.16.04.24-.01.3-.27.54-.57.52Z"/>
        <path class="cls-1" d="M278.97,98.67l-4.78-6.2c-.42-.54-.34-.99.24-1.34,6.38-3.94,5-12.66-2.68-12.72-3.36-.02-6.58-.11-9.65-.28-.67-.04-1,.28-1,.96l.03,19.53c0,.08,0,.17.03.25,0,.01.01.02.01.03v.04c.01.06.03.13.06.19,0,.02.01.04.02.05.01.04.02.09.05.13,0,.01.01.01.01.02.01.04.03.07.06.11.03.05.06.1.1.14.01.01.01.02.02.03.02.04.05.07.09.1.02.02.03.04.05.05.08.08.17.15.27.21.08.05.15.09.23.12.09.03.17.06.26.08.12.02.25.04.39.03.31-.03.6-.09.88-.18.46-.18.7-.51.71-1.01l.13-6c.01-.57.48-1.03,1.06-1.02l3.14.05c.57,0,1.02.22,1.35.68l4.07,5.56c.69.94,1.76,1.52,2.94,1.61l1.22.08c1.2.07,1.43-.36.69-1.3ZM270.7,88.47h-4.83c-.79-.01-1.42-.66-1.42-1.45v-4.02c.01-.78.65-1.41,1.43-1.41h4.84c2.12.01,3.83,1.41,3.82,3.13v.65c-.01,1.71-1.72,3.1-3.84,3.1Z"/>
        <path class="cls-1" d="M311.09,77.92c-6.15,0-11.14,4.99-11.14,11.15,0,3.07,1.25,5.86,3.26,7.88,2.02,2.01,4.81,3.26,7.88,3.26,6.16,0,11.15-4.99,11.15-11.14s-4.99-11.15-11.15-11.15ZM311.82,96.74c-.22.02-.44.03-.66.03-.47,0-.93-.05-1.37-.14-.45-.09-.88-.22-1.3-.39-.21-.09-.41-.18-.61-.29-.2-.11-.39-.22-.58-.34l-.03-.03-.09-.06c-.15-.09-.3-.2-.44-.32-.17-.14-.35-.29-.51-.44-.14-.13-.27-.27-.4-.41-.05-.06-.1-.12-.15-.18-.13-.14-.25-.29-.36-.45-.14-.18-.27-.38-.39-.57h0c-.12-.21-.23-.41-.33-.62-.08-.16-.15-.32-.21-.49-.05-.09-.09-.19-.12-.29-.07-.19-.13-.38-.19-.57-.13-.47-.22-.96-.27-1.46-.41-4.26,2.51-8.03,6.52-8.42.23-.02.45-.03.67-.03,1.86,0,3.6.76,4.92,2.02.33.31.63.66.91,1.03.27.38.51.78.72,1.2.09.18.16.36.24.54,0,.01.01.02.01.03.06.14.1.28.15.43.06.17.11.34.16.52.04.18.09.36.12.54.05.24.09.49.11.74.41,4.26-2.51,8.03-6.52,8.42Z"/>
        <path class="cls-1" d="M362.94,81.15c-.25-.25-.52-.49-.79-.72-.28-.23-.56-.44-.86-.65-.3-.2-.61-.39-.93-.56-.31-.17-.64-.33-.97-.47-1.34-.57-2.81-.88-4.36-.88-6.17,0-11.17,5.01-11.17,11.18s5,11.18,11.17,11.18,11.18-5.01,11.18-11.18c0-3.09-1.25-5.88-3.27-7.9ZM355.52,96.7c-3.99.3-7.47-2.89-7.78-7.12s2.67-7.89,6.65-8.18c3.99-.29,7.47,2.9,7.78,7.12.31,4.23-2.67,7.89-6.65,8.18Z"/>
        <path class="cls-1" d="M416.1,86.38c2.3-6.89,8.31-5.6,13.5-2.55.46.28,1.06.12,1.33-.34,0-.02.02-.03.03-.05l.23-.45c.4-.8.27-1.5-.39-2.11-7.9-7.1-20.81-.65-18.48,10.46,1.91,9.12,12.54,11.65,18.98,5.08.27-.27.34-.68.18-1.02l-.19-.39c-.33-.69-1.17-.99-1.86-.65-.07.03-.14.07-.2.12-3.69,2.53-7.1,2.96-10.25,1.28-3.1-1.65-3.94-6.21-2.87-9.38h0Z" vector-effect="non-scaling-stroke"/>
        <path class="cls-1" d="M473.37,98.69c-2.84-5.98-5.59-12.12-8.22-18.41-.61-1.43-1.47-2.22-2.6-2.36-.84-.09-1.65.37-1.99,1.14l-8.72,19.35c-.23.52-.13.96.31,1.31.24.19.49.31.76.36,1.12.2,1.92-.22,2.41-1.25l1.6-3.45c.29-.61.9-.99,1.56-.98l7.98.05c.61,0,1.05.27,1.35.8l1.62,2.9c.52.93,1.3,1.5,2.33,1.72l.6.11c1.18.24,1.52-.19,1.01-1.29ZM465.19,91.31l-5.46-.02c-.09,0-.18-.02-.27-.05-.33-.15-.48-.53-.33-.86l2.76-6.2c.06-.15.19-.28.35-.34.34-.14.71.03.85.36l2.7,6.2c.04.08.06.17.06.26,0,.36-.3.65-.66.65Z"/>
        <path class="cls-1" d="M484.78,95.38l.1-16.01c.01-.65-.3-1.06-.94-1.23-.38-.1-.76-.12-1.14-.06-.8.11-1.2.56-1.2,1.36l-.02,19.61c0,.48.39.88.87.88.02,0,.04,0,.07,0,4.1-.23,8.25-.27,12.44-.13.94.03,1.44-.4,1.51-1.3.01-.17.03-.34.05-.5.1-.71-.4-1.37-1.12-1.46-.06,0-.12-.01-.17-.01h-9.33c-.75,0-1.12-.38-1.12-1.14h0Z" vector-effect="non-scaling-stroke"/>
        <path class="cls-1" d="M4.27,89.9c-.88-7.64,6.65-11.01,12.52-6.68.84.62,1.7.63,2.58.05.12-.09.19-.21.23-.36.28-1.42-.22-2.45-1.49-3.11-3.41-1.76-6.88-2.12-10.41-1.09-5.9,1.75-9.05,9.83-5.95,15.39,3.4,6.11,8.6,7.62,15.6,4.54,1.16-.51,1.89-1.29,2.19-2.34.62-2.21-.06-2.74-2.04-1.59-5.66,3.26-12.34,2.77-13.22-4.82h0Z" vector-effect="non-scaling-stroke"/>
        <path class="cls-1" d="M45.47,81.24c-2-2-4.77-3.24-7.82-3.24s-5.82,1.24-7.83,3.24c-2,2.01-3.24,4.78-3.24,7.83s1.24,5.82,3.24,7.82c2.01,2,4.78,3.24,7.83,3.24,6.11,0,11.06-4.95,11.06-11.06,0-3.05-1.24-5.82-3.24-7.83ZM38.14,96.8c-4.07.29-7.63-2.95-7.94-7.25-.3-4.3,2.75-8.02,6.82-8.31,4.08-.3,7.63,2.95,7.94,7.25.31,4.3-2.75,8.02-6.82,8.31Z"/>
        <path class="cls-1" d="M116.57,87.19c-.38,0-.68-.31-.68-.68h0s.06-4.35.06-4.35c0-.38.31-.68.68-.68h0l11.18.03c.38,0,.68-.31.68-.68l.02-1.82c0-.38-.31-.68-.68-.68h0l-15.04.02c-.38,0-.68.31-.68.68h0l.21,20.11c0,.38.31.68.68.68l14.99-.16c.36,0,.66-.29.68-.65l.06-1.78c.02-.38-.27-.7-.65-.71-.01,0-.02,0-.03,0l-11.48-.05c-.37,0-.67-.31-.67-.68l.05-4.31c0-.37.31-.67.68-.67h9.75c.38,0,.68-.3.68-.68,0-.02,0-.03,0-.05l-.15-2.25c-.03-.35-.31-.63-.67-.63h-9.68Z" vector-effect="non-scaling-stroke"/>
        <path class="cls-1" d="M147.55,91.76c1.2.47,1.8,1.82,1.33,3.02-.19.48-.52.88-.96,1.15-2.56,1.56-5.97,1.06-10.22-1.49-.43-.26-.99-.12-1.25.31-.04.07-.08.15-.1.23l-.13.44c-.25.94.03,1.67.84,2.19,4.28,2.76,13.14,4.07,14.84-2.25,1.96-7.3-6.41-7.32-10.61-9.21-1.17-.52-1.69-1.9-1.16-3.08.2-.43.52-.8.93-1.05,2.13-1.27,4.99-.9,8.56,1.09.53.31,1.2.13,1.51-.4.09-.15.14-.33.15-.51l.02-.54c.05-.99-.37-1.7-1.28-2.13-4.14-1.91-12.31-2.45-13.3,3.58-1.12,6.75,6.39,6.93,10.82,8.65h0Z" vector-effect="non-scaling-stroke"/>
        <path class="cls-1" d="M164.71,79.4c0-.63-.51-1.13-1.14-1.13h-1.46c-.63,0-1.13.51-1.13,1.14l.03,19.37c0,.63.51,1.13,1.14,1.13h1.46c.63,0,1.13-.51,1.13-1.14h0l-.03-19.37h0Z" vector-effect="non-scaling-stroke"/>
        <path class="cls-1" d="M195.82,88.29c0-.09-.01-.18-.02-.27-.04-.42-.1-.83-.18-1.23-.03-.15-.06-.29-.1-.44-.05-.21-.11-.41-.17-.61-.07-.24-.16-.48-.25-.72,0-.03-.03-.07-.04-.1-.09-.24-.19-.47-.3-.69-.09-.19-.18-.37-.28-.54-.08-.14-.15-.27-.24-.4-.08-.16-.18-.31-.28-.46-.2-.29-.42-.58-.64-.85-.23-.27-.47-.54-.72-.79-.5-.5-1.05-.96-1.64-1.36-.3-.2-.6-.38-.92-.55-.2-.11-.4-.21-.6-.3-.19-.09-.38-.17-.57-.25-.44-.17-.89-.32-1.35-.44-.35-.09-.71-.16-1.08-.22-.22-.04-.45-.06-.67-.08-.09-.01-.18-.02-.27-.02-.25-.02-.5-.03-.76-.03-6.13,0-11.11,4.97-11.11,11.11s4.98,11.11,11.11,11.11,11.11-4.97,11.11-11.11c0-.25,0-.51-.03-.76ZM185.66,96.75c-4.01.48-7.68-2.58-8.2-6.84-.04-.33-.06-.66-.06-.99,0-1.92.67-3.71,1.81-5.08.14-.17.29-.33.45-.49.07-.08.15-.15.23-.21.12-.12.25-.23.38-.33.13-.11.26-.21.4-.3.18-.13.37-.25.56-.35.19-.11.39-.21.6-.3.19-.08.38-.16.58-.22.04-.02.08-.03.12-.04.18-.06.37-.12.56-.15,0-.01.02-.01.03-.01.22-.05.44-.09.67-.12,4.01-.48,7.68,2.58,8.2,6.84.51,4.26-2.32,8.1-6.33,8.59Z"/>
        <path class="cls-1" d="M219.39,91.72c0,1.05-.31,1.16-.94.34l-8.94-11.53c-3.4-4.38-5.08-3.8-5.04,1.74l.1,16.63c0,.53.36,1,.88,1.12.32.08.65.09.99.05,1.08-.17,1.62-.81,1.62-1.9v-12.15c0-1.15.35-1.27,1.05-.37l9.85,12.43c2.74,3.45,4.13,2.97,4.17-1.43l.19-17.36c0-.62-.3-.94-.91-.96l-1.77-.06c-.66-.03-1.22.49-1.25,1.15,0,.02,0,.03,0,.05v12.26h0Z" vector-effect="non-scaling-stroke"/>
        <path class="cls-1" d="M291.14,79.6c0-.8-.65-1.44-1.44-1.44h-.97c-.8,0-1.44.65-1.44,1.44v18.91c0,.8.65,1.44,1.44,1.44h.97c.8,0,1.44-.65,1.44-1.44v-18.91h0Z" vector-effect="non-scaling-stroke"/>
        <path class="cls-1" d="M378.51,91.93c0-.39.31-.7.7-.7l9.85-.08c.39,0,.69-.32.69-.71,0-.06,0-.11-.02-.17l-.58-2.13c-.09-.3-.36-.5-.67-.5l-9.12-.06c-.38,0-.69-.3-.7-.68l-.1-4.7c0-.39.3-.7.68-.71,0,0,.01,0,.02,0l11.1.08c.39.01.71-.29.72-.68,0-.03,0-.06,0-.08l-.15-1.83c-.03-.37-.33-.65-.7-.65l-14.83-.06c-.39,0-.7.31-.7.7l.02,20.6c0,.39.31.7.69.7.03,0,.06,0,.09,0l2.42-.29c.35-.04.62-.34.62-.7l-.02-7.33h0Z" vector-effect="non-scaling-stroke"/>
        <path class="cls-1" d="M403.02,79.66c0-.78-.63-1.41-1.41-1.41h-1.04c-.78,0-1.41.64-1.41,1.42h0l.03,18.95c0,.78.63,1.41,1.41,1.41h1.04c.78,0,1.41-.64,1.41-1.42h0l-.03-18.95h0Z" vector-effect="non-scaling-stroke"/>
        <path class="cls-1" d="M443.25,79.42c0-.65-.52-1.17-1.17-1.17h-1.33c-.65,0-1.17.52-1.17,1.17v19.4c0,.65.52,1.17,1.17,1.17h1.33c.65,0,1.17-.52,1.17-1.17h0v-19.4h0Z" vector-effect="non-scaling-stroke"/>
        <path class="cls-1" d="M315.92,83.29c.33.31.64.66.91,1.03-.28-.37-.58-.72-.91-1.03Z"/>
        <path class="cls-1" d="M316.83,84.32c.27.38.52.78.72,1.2-.21-.42-.45-.82-.72-1.2Z"/>
      </g>
      <path class="cls-1" d="M31.03,12.18l.06,42.32c0,.58-.47,1.05-1.05,1.05h0l-12.2.02c-.58,0-1.05-.47-1.05-1.05l.05-42.27c0-.58-.47-1.05-1.05-1.05h0l-14.55-.08c-.58,0-1.05-.47-1.05-1.05H.18S.21,1.15.21,1.15C.21.57.68.1,1.27.1l45.45-.02c.58,0,1.05.47,1.05,1.05l.03,9.05c0,.58-.47,1.05-1.05,1.05,0,0-.01,0-.02,0l-14.63-.11c-.58,0-1.06.46-1.07,1.04,0,0,0,.01,0,.02Z"/>
      <path class="cls-1" d="M102.24,53.96l-8.65-15.05s-.02-.04-.02-.06c-.05-.12-.06-.25-.02-.37.02-.05.04-.1.08-.15.03-.04.06-.08.1-.11.04-.04.09-.07.14-.09,4.99-1.99,7.72-5.69,8.19-11.09.49-5.49.43-10.69-.18-15.61C100.67,1.55,92.72-.07,84.48,0c-5.18.04-10.46.06-15.84.06-4.66,0-9.4-.02-14.22-.05-.7,0-1.27.58-1.27,1.28l.05,53.68c0,.38.31.68.68.68l12.75-.14c.49,0,.88-.4.88-.88l-.05-14.78c0-.63.32-.94.94-.94l9.17-.03c.72,0,1.26.32,1.6.96l7.64,14.22c.54,1.01,1.39,1.51,2.53,1.51l12.01-.05c1.19,0,1.49-.52.89-1.56ZM83.52,27.83l-15.28.05c-.38,0-.7-.31-.7-.7l-.06-15.31c0-.39.31-.7.7-.7l15.28-.05c2.52-.01,4.56,1.77,4.57,3.98l.03,8.72c.01,2.21-2.02,4-4.54,4.01Z"/>
      <path class="cls-1" d="M145.12,43.57c.45-1.25.69-2.53.7-3.81.15-13.46.18-26.41.08-38.85,0-.47.37-.87.84-.88.01,0,.02,0,.03,0l12.26.02c.72.01,1.09.37,1.1,1.09.08,13.23.06,26.72-.03,40.47-.06,9.64-5.06,14.54-14.97,14.71-7.67.13-14.91.07-21.74-.18-11.18-.41-13.33-8.55-13.22-18.3.17-14.21.19-26.54.06-36.98-.01-.53.25-.79.79-.79l12.67.02c.52,0,.78.25.78.76l.02,40.65c0,2.07,1.68,3.75,3.75,3.75,0,0,.01,0,.02,0l14.6-.08c1.12-.01,1.88-.54,2.25-1.59Z"/>
      <path class="cls-1" d="M184.08,44.58c8.73,1.2,17.67.05,26.7-.42,1.16-.06,1.73.49,1.72,1.65l-.1,7.69c-.01,1.04-.54,1.6-1.57,1.69-10.24.8-20.51.91-30.82.32-8.08-.47-11.78-6.02-11.91-13.59-.17-10.27-.14-19.75.11-28.44.29-9.93,6.93-13.38,15.64-13.42,9.41-.04,18.65-.05,27.74-.02.52,0,.78.26.78.78l.05,9.67c0,.48-.23.71-.7.71h-25.56c-2.52,0-3.77,1.26-3.76,3.78l.05,27.72c0,.94.7,1.74,1.64,1.87Z"/>
      <path class="cls-1" d="M233.57,21.93l6.28-.11c.19,0,.37-.11.47-.28L252.1.73c.1-.17.28-.27.47-.28l13.89-.28c.3-.01.56.22.58.53,0,.11-.02.21-.07.3l-14.81,26.18c-.1.17-.1.38,0,.55l14.79,26.83c.14.27.04.6-.23.75-.08.04-.17.06-.26.06l-13.79.13c-.2,0-.39-.11-.49-.29l-11.94-22.13c-.1-.18-.29-.3-.5-.29l-6.15.13c-.3,0-.54.25-.54.55l.02,21.48c0,.3-.25.55-.55.55l-13.25.1c-.3,0-.55-.25-.55-.55l-.05-54.5c0-.3.25-.55.55-.55l13.3.11c.3,0,.55.25.55.55l-.06,20.71c0,.3.25.55.55.55,0,0,.01,0,.02,0Z"/>
      <path class="cls-1" d="M284.17,17.76c-.04,3.02,1.44,4.5,4.46,4.46,5.8-.09,11.44-.02,16.94.21,7.27.28,11.38,3.97,12.34,11.06,1.25,9.08.89,20.91-11.01,21.9-9.31.76-20.81.69-34.5-.19-1.14-.08-1.71-.68-1.74-1.82l-.11-7.17c-.02-1.06.5-1.6,1.57-1.61l29.28-.03c1.25,0,2.28-.97,2.35-2.21l.36-6.65c.06-1.19-.5-1.76-1.69-1.72-7.48.28-14.15.23-20-.16-7.18-.49-11.24-4.23-12.17-11.24-.94-7.01-.97-17.45,6.39-20.75,2.49-1.11,5.56-1.69,9.23-1.74,8.94-.12,17.9-.13,26.86-.03.53,0,.79.27.79.81l-.02,9.57c0,.51-.26.76-.78.76l-24.12-.03c-2.9-.01-4.37,1.43-4.41,4.33l-.03,2.24Z"/>
      <path class="cls-1" d="M340.08,25.95c-.19-.1-.43-.02-.52.17-.03.05-.04.11-.04.17l.19,28.1c0,.79-.39,1.18-1.17,1.17l-12.49-.03c-.51,0-.76-.26-.76-.78V1.2c0-.64.52-1.15,1.17-1.15h0l12.47.03c.93,0,1.78.51,2.22,1.33l14.49,26.94c.18.33.59.46.92.28.12-.06.21-.16.28-.28l14.66-27.27c.34-.62.99-1.01,1.69-1.01h12.86c.64,0,1.15.51,1.15,1.14h0s.02,53.13.02,53.13c0,.78-.39,1.17-1.17,1.18l-12.28.06c-.64,0-.96-.32-.96-.96l.1-27.48c.01-1.86-.44-1.97-1.35-.34l-9.2,16.63c-.34.62-.99,1.01-1.7,1.01l-8.73.06c-.85.01-1.49-.36-1.9-1.1-3.02-5.49-6.12-11.1-9.29-16.81-.16-.28-.38-.5-.67-.65Z"/>
      <path class="cls-1" d="M410.92,11.89l-.13,9.21c0,.42.33.77.75.78,0,0,.01,0,.02,0h21.93c.42,0,.76.34.76.76h0l.08,9.52c0,.42-.34.76-.76.76h-22.03c-.42,0-.76.34-.76.76,0,0,0,.01,0,.02l.21,9.98c0,.41.35.75.76.75l28.06.02c.41,0,.75.33.76.75l.13,9.54c0,.42-.33.77-.75.78,0,0-.01,0-.02,0l-42.58.06c-.42,0-.76-.34-.76-.76l.02-53.98c0-.42.34-.76.76-.76h0l42.47-.02c.42,0,.76.34.76.76h0s.03,9.59.03,9.59c0,.42-.34.76-.76.76h0l-28.19-.02c-.41,0-.75.33-.76.75Z"/>
      <path class="cls-1" d="M461.08,24.19l.15,30.42c0,.56-.29.85-.86.86l-12.65.11c-.55.01-.83-.26-.83-.81V1.23c0-.8.4-1.2,1.2-1.2l12.07.02c1.12,0,2.16.6,2.71,1.57l16.87,29.59c.85,1.49,1.28,1.38,1.28-.34l-.1-29.81c0-.66.34-.99,1.01-.99l12.07-.03c.82,0,1.23.42,1.23,1.25v53.43c0,.57-.29.86-.86.86l-12.8-.03c-.85,0-1.64-.46-2.06-1.2l-17.44-30.43c-.66-1.16-.99-1.07-.99.28Z"/>
      <rect class="cls-1" y="65.73" width="496.34" height="3.63" rx="1.43" ry="1.43"/>
      <path class="cls-1" d="M72.46,91.63l-.02-11.83c0-.96.47-1.53,1.41-1.7l.75-.13c.62-.12,1.21.29,1.33.9.01.07.02.13.02.2l.11,19.74c.01.71-.55,1.29-1.26,1.3-.15,0-.3-.02-.44-.07-.99-.35-1.84-.95-2.53-1.8-3.03-3.74-6.17-7.71-9.44-11.89-.8-1.03-1.2-.89-1.2.41v11.73c0,1.03-.51,1.53-1.54,1.51h-.67c-.99-.02-1.78-.82-1.77-1.8l.03-15.48c.01-5.81,1.82-6.43,5.42-1.88l8.79,11.13c.67.84,1.01.73,1.01-.34Z"/>
      <path class="cls-1" d="M101.29,83.41c-12.2-9.21-18.78,12.86-5.37,13.2,2.69.06,4.19-1.52,6.57-2.21.97-.27,1.49.1,1.54,1.1.01.29-.04.57-.15.84-.43,1.05-1.19,1.81-2.27,2.29-6.63,2.94-11.71,1.72-15.23-3.67-1.54-2.34-2.01-4.97-1.43-7.9,1.69-8.45,10.11-11.35,17.39-7.33.39.22.73.53.99.91.7,1.06.81,1.89.31,2.48-.7.84-1.49.94-2.35.28Z"/>
      <path class="cls-1" d="M252.89,98.7c-2.87-6.32-5.79-12.73-8.78-19.22-.72-1.6-1.75-2.03-3.08-1.3-.39.21-.7.55-.89.96l-8.78,19.21c-.44.97-.13,1.55.93,1.75l.61.1c.77.14,1.33-.15,1.67-.86l1.82-3.82c.37-.78.99-1.16,1.85-1.15l7.82.12c.56.01.97.25,1.23.74l1.51,2.86c.4.75.98,1.34,1.74,1.75.67.37,1.31.4,1.91.1.54-.27.69-.69.44-1.24ZM244.75,91.4l-5.68-.24c-.07,0-.14-.02-.2-.05-.28-.12-.4-.45-.27-.73l3.1-6.41c.06-.12.16-.21.29-.26.28-.11.6.03.71.31l2.58,6.62c.03.08.05.16.04.24-.01.3-.27.54-.57.52Z"/>
      <path class="cls-1" d="M278.97,98.67l-4.78-6.2c-.42-.54-.34-.99.24-1.34,6.38-3.94,5-12.66-2.68-12.72-3.36-.02-6.58-.11-9.65-.28-.67-.04-1,.28-1,.96l.03,19.53v.07c0,.06,0,.12.03.18,0,.01.01.02.01.03v.04c.01.06.03.13.06.19,0,.02.01.04.02.05.01.04.02.09.05.13,0,.01.01.01.01.02.01.04.03.07.06.11.03.05.06.1.1.14.01.01.01.02.02.03.02.04.05.07.09.1.02.02.03.04.05.05.08.08.17.15.27.21.08.05.15.09.23.12.09.03.17.06.26.08.12.02.25.04.39.03.31-.03.6-.09.88-.18.46-.18.7-.51.71-1.01l.13-6c.01-.57.48-1.03,1.06-1.02l3.14.05c.57,0,1.02.22,1.35.68l4.07,5.56c.69.94,1.76,1.52,2.94,1.61l1.22.08c1.2.07,1.43-.36.69-1.3ZM270.7,88.47h-4.83c-.79-.01-1.42-.66-1.42-1.45v-4.02c.01-.78.65-1.41,1.43-1.41h4.84c2.12.01,3.83,1.41,3.82,3.13v.65c-.01,1.71-1.72,3.1-3.84,3.1Z"/>
      <path class="cls-1" d="M311.09,77.92c-6.15,0-11.14,4.99-11.14,11.15,0,3.07,1.25,5.86,3.26,7.88,2.02,2.01,4.81,3.26,7.88,3.26,6.16,0,11.15-4.99,11.15-11.14s-4.99-11.15-11.15-11.15ZM311.82,96.74c-.22.02-.44.03-.66.03-.47,0-.93-.05-1.37-.14-.45-.09-.88-.22-1.3-.39-.21-.09-.41-.18-.61-.29-.2-.11-.39-.22-.58-.34l-.03-.03-.09-.06c-.15-.09-.3-.2-.44-.32-.18-.14-.35-.28-.51-.44-.14-.13-.27-.27-.4-.41-.05-.06-.1-.12-.15-.18-.13-.14-.25-.29-.36-.45-.14-.18-.27-.38-.39-.57h0c-.12-.21-.23-.41-.33-.62-.08-.16-.15-.32-.21-.49-.05-.09-.09-.19-.12-.29-.07-.19-.13-.38-.19-.57-.13-.47-.22-.96-.27-1.46-.41-4.26,2.51-8.03,6.52-8.42.23-.02.45-.03.67-.03,1.86,0,3.6.76,4.92,2.02.33.31.63.66.91,1.03.27.38.51.78.72,1.2.09.18.16.36.24.54,0,.01.01.02.01.03.06.14.1.28.15.43.06.17.11.34.16.52.04.18.09.36.12.54.05.24.09.49.11.74.41,4.26-2.51,8.03-6.52,8.42Z"/>
      <path class="cls-1" d="M362.94,81.15c-.25-.25-.52-.49-.79-.72-.28-.23-.56-.44-.86-.65-.3-.2-.61-.39-.93-.56-.31-.17-.64-.33-.97-.47-1.34-.57-2.81-.88-4.36-.88-6.17,0-11.17,5.01-11.17,11.18s5,11.18,11.17,11.18,11.18-5.01,11.18-11.18c0-3.09-1.25-5.88-3.27-7.9ZM355.52,96.7c-3.99.3-7.47-2.89-7.78-7.12s2.67-7.89,6.65-8.18c3.99-.29,7.47,2.9,7.78,7.12.31,4.23-2.67,7.89-6.65,8.18Z"/>
      <path class="cls-1" d="M416.1,86.38c-1.07,3.16-.23,7.72,2.87,9.38,3.15,1.68,6.56,1.25,10.25-1.28.63-.44,1.5-.29,1.94.34.04.06.08.13.12.2l.19.39c.16.34.09.75-.18,1.02-6.44,6.57-17.06,4.04-18.98-5.08-2.34-11.11,10.58-17.57,18.48-10.46.66.61.79,1.31.39,2.11l-.23.45c-.25.48-.83.66-1.31.42-.02,0-.03-.02-.05-.03-5.19-3.05-11.19-4.35-13.5,2.55Z"/>
      <path class="cls-1" d="M473.37,98.69c-2.84-5.98-5.59-12.12-8.22-18.41-.61-1.43-1.47-2.22-2.6-2.36-.84-.09-1.65.37-1.99,1.14l-8.72,19.35c-.23.52-.13.96.31,1.31.24.19.49.31.76.36,1.12.2,1.92-.22,2.41-1.25l1.6-3.45c.29-.61.9-.99,1.56-.98l7.98.05c.61,0,1.05.27,1.35.8l1.62,2.9c.52.93,1.3,1.5,2.33,1.72l.6.11c1.18.24,1.52-.19,1.01-1.29ZM465.19,91.31l-5.46-.02c-.09,0-.18-.02-.27-.05-.33-.15-.48-.53-.33-.86l2.76-6.2c.06-.15.19-.28.35-.34.34-.14.71.03.85.36l2.7,6.2c.04.08.06.17.06.26,0,.36-.3.65-.66.65Z"/>
      <path class="cls-1" d="M485.9,96.52h9.33c.73,0,1.31.59,1.31,1.3,0,.06,0,.12-.01.17-.02.16-.04.33-.05.5-.06.9-.57,1.33-1.51,1.3-4.2-.14-8.34-.1-12.44.13-.48.04-.9-.33-.94-.81,0-.02,0-.04,0-.07l.02-19.61c0-.8.4-1.25,1.2-1.36.38-.05.76-.03,1.14.06.64.17.95.58.94,1.23l-.1,16.01c0,.76.37,1.14,1.12,1.14Z"/>
      <path class="cls-1" d="M4.27,89.9c.88,7.59,7.56,8.08,13.22,4.82,1.98-1.15,2.66-.62,2.04,1.59-.3,1.05-1.03,1.83-2.19,2.34-7.01,3.08-12.21,1.57-15.6-4.54-3.1-5.56.05-13.64,5.95-15.39,3.54-1.04,7.01-.68,10.41,1.09,1.28.66,1.77,1.7,1.49,3.11-.03.15-.11.27-.23.36-.88.58-1.74.57-2.58-.05-5.87-4.33-13.4-.96-12.52,6.68Z"/>
      <path class="cls-1" d="M45.47,81.24c-2-2-4.77-3.24-7.82-3.24s-5.82,1.24-7.83,3.24c-2,2.01-3.24,4.78-3.24,7.83s1.24,5.82,3.24,7.82c2.01,2,4.78,3.24,7.83,3.24,6.11,0,11.06-4.95,11.06-11.06,0-3.05-1.24-5.82-3.24-7.83ZM38.14,96.8c-4.07.29-7.63-2.95-7.94-7.25-.3-4.3,2.75-8.02,6.82-8.31,4.08-.3,7.63,2.95,7.94,7.25.31,4.3-2.75,8.02-6.82,8.31Z"/>
      <path class="cls-1" d="M116.57,87.19h9.68c.35,0,.64.28.67.63l.15,2.25c.03.38-.26.7-.63.73-.02,0-.03,0-.05,0h-9.75c-.37,0-.67.3-.68.67l-.05,4.31c0,.37.3.67.67.68l11.48.05c.38,0,.68.3.68.68,0,.01,0,.02,0,.03l-.06,1.78c-.02.36-.32.65-.68.65l-14.99.16c-.38,0-.68-.31-.68-.68l-.21-20.11c0-.38.31-.68.68-.68h0l15.04-.02c.38,0,.68.31.68.68h0s-.02,1.82-.02,1.82c0,.38-.31.68-.68.68l-11.18-.03c-.38,0-.68.31-.68.68h0s-.06,4.35-.06,4.35c0,.38.31.68.68.68h0Z"/>
      <path class="cls-1" d="M147.55,91.76c-4.43-1.72-11.94-1.9-10.82-8.65.99-6.03,9.17-5.5,13.3-3.58.91.42,1.34,1.13,1.28,2.13l-.02.54c-.03.61-.54,1.08-1.15,1.06-.18,0-.35-.06-.51-.15-3.58-1.99-6.43-2.35-8.56-1.09-1.1.66-1.47,2.1-.81,3.2.24.41.61.73,1.04.92,4.2,1.9,12.57,1.91,10.61,9.21-1.7,6.33-10.56,5.01-14.84,2.25-.81-.52-1.09-1.25-.84-2.19l.13-.44c.13-.48.63-.77,1.12-.63.08.02.16.06.23.1,4.25,2.55,7.66,3.05,10.22,1.49,1.1-.67,1.45-2.11.77-3.21-.27-.44-.67-.77-1.15-.96Z"/>
      <rect class="cls-1" x="161" y="78.27" width="3.73" height="21.64" rx="1.14" ry="1.14" transform="translate(-.16 .28) rotate(-.1)"/>
      <path class="cls-1" d="M195.82,88.29c0-.09-.01-.18-.02-.27-.04-.42-.1-.83-.18-1.23-.03-.15-.06-.29-.1-.44-.05-.21-.11-.41-.17-.61-.07-.24-.16-.48-.25-.72,0-.03-.03-.07-.04-.1-.09-.24-.19-.47-.3-.69-.09-.19-.18-.37-.28-.54-.08-.14-.15-.27-.24-.4-.08-.16-.18-.31-.28-.46-.21-.29-.42-.58-.64-.85-.23-.27-.47-.54-.72-.79-.5-.5-1.05-.96-1.64-1.36-.3-.2-.6-.38-.92-.55-.2-.11-.4-.21-.6-.3-.19-.09-.38-.17-.57-.25-.44-.17-.89-.32-1.35-.44-.35-.09-.71-.16-1.08-.22-.22-.04-.45-.06-.67-.08-.09-.01-.18-.02-.27-.02-.25-.02-.5-.03-.76-.03-6.13,0-11.11,4.97-11.11,11.11s4.98,11.11,11.11,11.11,11.11-4.97,11.11-11.11c0-.25,0-.51-.03-.76ZM185.66,96.75c-4.01.48-7.68-2.58-8.2-6.84-.04-.33-.06-.66-.06-.99,0-1.92.67-3.71,1.81-5.08.14-.17.29-.33.45-.49.07-.08.15-.15.23-.21.12-.12.25-.23.38-.33.13-.11.26-.21.4-.3.18-.13.37-.25.56-.35.2-.11.39-.21.6-.3.19-.08.38-.16.58-.22.04-.02.08-.03.12-.04.18-.06.37-.12.56-.15,0-.01.02-.01.03-.01.22-.06.44-.09.67-.12,4.01-.48,7.68,2.58,8.2,6.84.51,4.26-2.32,8.1-6.33,8.59Z"/>
      <path class="cls-1" d="M219.39,91.72v-12.26c0-.66.54-1.2,1.2-1.2.02,0,.03,0,.05,0l1.77.06c.61.02.91.34.91.96l-.19,17.36c-.04,4.4-1.43,4.88-4.17,1.43l-9.85-12.43c-.7-.9-1.05-.77-1.05.37v12.15c0,1.09-.54,1.72-1.62,1.9-.34.04-.67.03-.99-.05-.51-.12-.88-.58-.88-1.12l-.1-16.63c-.03-5.54,1.65-6.12,5.04-1.74l8.94,11.53c.63.82.94.71.94-.34Z"/>
      <rect class="cls-1" x="287.28" y="78.15" width="3.86" height="21.8" rx="1.44" ry="1.44"/>
      <path class="cls-1" d="M378.51,91.93l.02,7.33c0,.36-.26.66-.62.7l-2.42.29c-.38.04-.73-.23-.77-.61,0-.03,0-.06,0-.09l-.02-20.6c0-.39.31-.7.7-.7l14.83.06c.37,0,.67.28.7.65l.15,1.83c.04.38-.25.72-.63.76-.03,0-.06,0-.08,0l-11.1-.08c-.39,0-.7.31-.7.7,0,0,0,.01,0,.02l.1,4.7c0,.38.32.68.7.68l9.12.06c.31,0,.58.21.67.5l.58,2.13c.1.37-.12.75-.5.85-.06.01-.11.02-.17.02l-9.85.08c-.39,0-.7.31-.7.7Z"/>
      <rect class="cls-1" x="399.18" y="78.25" width="3.86" height="21.77" rx="1.41" ry="1.41" transform="translate(-.15 .7) rotate(-.1)"/>
      <rect class="cls-1" x="439.58" y="78.25" width="3.67" height="21.74" rx="1.17" ry="1.17"/>
    </g>
  </g>
</svg>