<?xml version="1.0" encoding="UTF-8"?>
<svg id="Capa_2" data-name="Capa 2" xmlns="http://www.w3.org/2000/svg" viewBox="0 0 510.18 99.19">
  <defs>
    <style>
      .cls-1 {
        fill: #fff;
        stroke-width: 0px;
      }
    </style>
  </defs>
  <g id="Capa_1-2" data-name="Capa 1">
    <g>
      <rect class="cls-1" y="0" width="6.59" height="65.31" rx=".75" ry=".75"/>
      <rect class="cls-1" x="19.59" y="0" width="13.09" height="65.31" rx=".72" ry=".72"/>
      <rect class="cls-1" x="45.68" y="0" width="19.63" height="65.31" rx=".74" ry=".74"/>
      <path class="cls-1" d="M130.53,35.32c0-.7-.83-1.07-1.28-.44-4.89,6.86-9.7,13.59-14.4,20.19-.24.34-.72.42-1.06.18-.07-.05-.13-.11-.17-.17-4.84-6.72-9.63-13.38-14.37-19.97-.42-.59-1.31-.38-1.31.36,0,9.44,0,19.15,0,29.12,0,.4-.33.73-.73.73h-18.17c-.41,0-.74-.33-.74-.74h0V.78C78.31.35,78.66,0,79.09,0h15.59c.22,0,.44.11.57.29,3.74,5.22,7.66,10.72,11.77,16.5,2.32,3.27,4.48,6.4,6.47,9.4.49.74.98.79,1.48.03,1.67-2.53,3.39-5.04,5.15-7.53,4.33-6.11,8.69-12.24,13.1-18.38C133.37.11,133.59,0,133.82,0h15.57c.43,0,.78.35.78.78h0v63.79c0,.41-.33.74-.74.74h-18.19c-.39,0-.7-.31-.7-.7v-29.29Z"/>
      <path class="cls-1" d="M505.24,61.24c.5,0,.86-.46.86-.93V4.99c0-.5-.41-.91-.91-.91h-239.35c-.48,0-.87-.39-.87-.87V.91C264.97.41,265.38,0,265.88,0h243.38c.51,0,.92.41.92.92h0c0,21.05,0,42.21,0,63.45,0,.52-.39.94-.92.94H170.57c-.47,0-.86-.38-.86-.86h0V.87C169.71.39,170.1,0,170.58,0h71.51c.52,0,.94.42.94.93,0,.78,0,1.52,0,2.22,0,.5-.38.92-.89.92h-67.49c-.48,0-.87.39-.87.87h0v55.47c0,.46.37.83.83.83h330.63Z"/>
      <rect class="cls-1" x="247.03" y="0" width="13.95" height="7.07" rx=".87" ry=".87"/>
      <path class="cls-1" d="M308.1,25.6c-2.27-2.26-5.22-3.62-8.39-3.19-1.19.16-2.3.53-3.3,1.12-3.84,2.23-5.55,6.47-5.1,10.84.59,5.66,5.71,9.29,11.21,8.56,2.53-.34,4.69-1.52,6.48-3.56.41-.47,1.05-.5,1.48-.03,1.98,2.19,4.1,4.52,6.36,6.99.57.62.06,1.28-.42,1.74-3.59,3.45-7.87,5.39-12.84,5.8-5.97.5-11.46-.91-16.47-4.23-1.41-.93-2.74-2.13-4-3.58-3.28-3.78-4.78-8.18-4.49-13.2.01-.2,0-.58-.03-1.16-.02-.38-.02-.76,0-1.16.22-4.37,1.81-8.18,4.76-11.43,7.48-8.24,21.53-10.39,30.66-3.55.61.46,1.13.91,1.54,1.34.34.36.23.9-.1,1.24-2.52,2.62-4.93,5.1-7.22,7.45-.05.05-.09.05-.14,0Z"/>
      <path class="cls-1" d="M214.4,35.54c0-.85-1.06-1.28-1.57-.54-2.43,3.53-4.91,7.05-7.45,10.55-.45.62-1.19.38-1.57-.14-2.61-3.57-5.06-7.02-7.36-10.34-.37-.53-1.16-.4-1.44.11-.09.15-.13.33-.13.53,0,5.87,0,11.43,0,16.68,0,.5-.43.87-.93.87-3.37,0-6.79,0-10.24,0-.57,0-.92-.44-.92-.97-.01-12.93-.01-26.03,0-39.31,0-.58.49-.9,1.02-.9,3.04.02,5.96.02,8.78,0,.31,0,.6.14.77.38,3.56,5.04,7.1,10.16,10.6,15.36.32.48,1.04.46,1.36-.02,3.5-5.2,7.03-10.32,10.59-15.35.16-.22.42-.37.69-.37,3.23,0,6.23,0,9,0,.48,0,.87.39.87.87v39.4c0,.5-.4.9-.9.9-3.31,0-6.71,0-10.2,0-.68,0-1-.46-1-1.07,0-5.57,0-11.12,0-16.65Z"/>
      <path class="cls-1" d="M253.92,23.4c-.04.13-.05.29-.09.41-3.43,9.79-6.88,19.58-10.34,29.37-.02.06-.06.09-.13.09-3,0-6.56,0-10.7,0-.77,0-1.36-.52-1.03-1.33,5.49-13.57,10.78-26.67,15.88-39.28.14-.34.47-.57.84-.57h11.27c.36,0,.69.22.83.56,5.24,12.98,10.5,25.98,15.78,39.01.16.39.21.69.16.91-.12.53-.59.71-1.1.71-3.48,0-6.83,0-10.05,0-.48,0-.81-.23-.97-.68-.47-1.3-.95-2.64-1.44-4.04-.13-.36-.47-.61-.85-.61-3.48,0-7.14,0-10.99,0-.25,0-.47-.06-.65-.18-.51-.34-.44-.85-.26-1.35.91-2.52,1.76-4.91,2.55-7.2.12-.35.46-.59.83-.59,1.58,0,3.11,0,4.57,0,.67,0,1.15-.56.91-1.23-1.72-4.78-3.35-9.44-4.91-13.99-.04-.11-.07-.11-.1,0Z"/>
      <rect class="cls-1" x="323.17" y="12.09" width="12.09" height="41.17" rx=".91" ry=".91"/>
      <path class="cls-1" d="M347.55,26.88c.04-.1.07-.21.07-.32v-13.56c0-.5.4-.9.9-.9h10.27c.5,0,.92.36.92.87,0,13.26,0,26.4,0,39.4,0,.49-.4.9-.9.9-3.38,0-6.79,0-10.24,0-.56,0-.96-.4-.96-.93,0-4.41,0-8.98,0-13.71,0-.51-.41-.92-.92-.92,0,0,0,0,0,0-2.08,0-4.26,0-6.52,0-.73,0-.92-.56-.92-1.21,0-2.8,0-5.47,0-8.01,0-.65.39-1.04,1.02-1.04,2.23,0,4.4,0,6.52,0,.34,0,.63-.25.76-.56Z"/>
      <path class="cls-1" d="M381.26,22.94c-.03.08-.05.16-.05.25,0,6.62,0,12.93,0,18.93,0,.53.46.87.94.87,6.62,0,13.14,0,19.56,0,.47,0,.86.38.86.86v8.54c0,.48-.39.87-.87.87h-31.68c-.5,0-.91-.41-.91-.91V13c0-.5.4-.9.9-.9,10.29,0,20.6,0,30.91,0,.56,0,.91.45.91.96,0,3.02,0,5.81,0,8.36,0,.52-.42.95-.94.95,0,0,0,0,0,0-6.52,0-12.81,0-18.86,0-.36,0-.64.27-.77.58Z"/>
      <path class="cls-1" d="M424.33,34.97c-.55-.79-1.6-.31-1.6.58-.01,5.54,0,11.14,0,16.81,0,.5-.4.9-.9.9-3.32,0-6.74,0-10.23,0-.77,0-.97-.54-.97-1.24V13c0-.6.38-.91,1.13-.91,3.03,0,6.03,0,8.99,0,.24,0,.46.11.59.31,4.35,6,8.85,12.1,13.08,18.27.34.49.78.55,1.31.17.23-.16.29-.52.29-.8,0-5.74,0-11.43,0-17.06,0-.49.4-.89.89-.89,3.36,0,6.79,0,10.29,0,.51,0,.91.4.91.89,0,12.92,0,26.04,0,39.37,0,.5-.41.91-.91.91h-9.14c-.26,0-.51-.12-.67-.34-4.44-6.02-8.84-11.87-13.07-17.96Z"/>
      <path class="cls-1" d="M475.67,23.38c-.21.68-.44,1.36-.68,2.06-3.29,9.36-6.55,18.61-9.77,27.75-.02.05-.06.08-.11.08-3.44,0-7.03,0-10.76,0-.74,0-1.3-.55-.99-1.32,5.35-13.22,10.64-26.32,15.89-39.3.13-.33.45-.55.81-.55,3.8,0,7.57,0,11.3,0,.64,0,.78.47,1.02,1.07,5.18,12.82,10.36,25.63,15.55,38.45.16.4.23.69.2.88-.08.51-.51.77-1,.77-3.53,0-6.94,0-10.23,0-.4,0-.75-.25-.89-.63l-1.48-4.14c-.12-.34-.44-.57-.81-.57-3.74,0-7.42,0-11.06,0-.23,0-.45-.07-.65-.21-.36-.26-.44-.66-.25-1.22.89-2.5,1.75-4.94,2.59-7.31.12-.34.44-.56.79-.57,1.36-.01,2.89-.01,4.57,0,.74,0,1.17-.59.92-1.29-1.73-4.8-3.37-9.45-4.9-13.96-.03-.08-.05-.08-.08,0Z"/>
      <rect class="cls-1" x="385.19" y="27.31" width="15.82" height="10.14" rx=".91" ry=".91"/>
      <path class="cls-1" d="M159.96,80.79l-2.18,3.09s-.03.02-.05.02h-2.09s-.06-.03-.06-.06c0-.01,0-.02,0-.03l1.88-3.09s.03-.03.05-.03h2.39s.06.03.06.06c0,.01,0,.03-.01.04Z"/>
      <path class="cls-1" d="M485.42,89.44c2.98-.23,5.4,2.03,5.15,5.06-.31,3.7-3.46,5.21-6.84,4.44-1.89-.43-3.21-1.96-3.49-3.91-.13-.91-.03-1.85.3-2.8.21-.6.65-1.34,1.32-2.21,1.47-1.9,2.85-3.71,4.14-5.41.05-.06.1-.07.16-.02l1.8,1.32c.06.04.07.09.02.15l-2.61,3.29c-.05.07-.04.1.05.09ZM485.36,96.98c1.45.01,2.63-1.21,2.64-2.73.01-1.52-1.15-2.76-2.59-2.77-1.45-.01-2.63,1.21-2.64,2.73-.01,1.52,1.15,2.76,2.59,2.77Z"/>
      <path class="cls-1" d="M265.04,86.22l-.9,1.8c-.04.07-.09.09-.16.04-1-.64-2.15-1.02-3.45-1.12-.89-.07-2.5.15-2.88,1.14-.55,1.41,1.09,1.96,2.2,2.22,2.46.58,6.08,1.43,5.88,4.75-.18,3.01-3.2,4.11-5.78,4.09-2.06-.02-3.94-.55-5.49-1.97-.05-.05-.06-.1-.03-.16l.91-1.79c.03-.05.06-.06.11-.02,1.38,1.13,2.98,1.66,4.78,1.61,1.02-.03,2.43-.46,2.76-1.52.42-1.32-.88-1.96-1.96-2.22-2.19-.54-5.65-1.12-6.05-3.91-.39-2.73,1.9-4.31,4.33-4.51,2.11-.18,4.01.3,5.69,1.43.04.03.06.08.03.13Z"/>
      <path class="cls-1" d="M398.72,88.07c-1.03-.66-2.16-1.01-3.4-1.12-.93-.08-2.36.13-2.84.99-.73,1.32.72,2.02,1.8,2.28,1.6.4,3.19.74,4.56,1.62,1.4.91,1.94,2.44,1.52,4.03-.54,2.06-2.65,3.01-4.6,3.22-2.33.25-4.8-.28-6.53-1.9-.06-.05-.07-.12-.03-.19l.89-1.75s.08-.06.12-.04c0,0,.01,0,.02.01,1.12.92,2.42,1.45,3.9,1.58,1.12.1,3.06-.12,3.56-1.35.54-1.34-.66-2.05-1.76-2.34-2.54-.66-6.61-1.29-6.2-4.91.25-2.24,2.24-3.34,4.33-3.54,2.02-.2,3.91.27,5.67,1.4.08.05.1.12.06.2l-.88,1.76c-.04.07-.09.09-.16.05Z"/>
      <path class="cls-1" d="M454.64,94.32c-3.91.33-6.23-3.45-4.7-6.91.7-1.6,2.26-2.58,4-2.75,2.1-.21,4.12.41,5.22,2.2.91,1.46.9,3.38.23,4.99-.2.48-.53,1.02-.99,1.62-1.48,1.92-2.93,3.8-4.33,5.66-.05.06-.11.07-.17.02l-1.82-1.33s-.05-.07-.02-.11l2.63-3.3c.06-.07.04-.1-.05-.09ZM454.66,92.29c1.45,0,2.63-1.22,2.63-2.74h0c0-1.52-1.16-2.76-2.6-2.76-1.45,0-2.63,1.22-2.63,2.74h0c0,1.52,1.16,2.76,2.6,2.76Z"/>
      <path class="cls-1" d="M22.15,92.67v6.21s-.03.06-.06.06h-2.44s-.06-.03-.06-.06h0v-13.97s.03-.06.06-.06h10.28s.06.03.06.06h0v2.09s-.03.06-.06.06h-7.73s-.06.03-.06.06h0v3.26s.03.06.06.06h6.51s.06.03.06.06h0v2.05s-.03.06-.06.06h-6.51s-.06.03-.06.06h0Z"/>
      <path class="cls-1" d="M37.53,92.68v4s.03.06.06.06h8.59s.06.03.06.06h0v2.09s-.03.06-.06.06h-11.15s-.06-.03-.06-.06v-13.96s.03-.06.06-.06h10.8s.06.03.06.06v2.09s-.03.06-.06.06h-8.24s-.06.03-.06.06v3.26s.03.06.06.06h7.77s.06.03.06.06v2.05s-.03.06-.06.06h-7.77s-.06.03-.06.06Z"/>
      <path class="cls-1" d="M54.39,95.7v3.16c0,.06-.03.09-.09.09h-2.38c-.06,0-.09-.03-.09-.09v-13.9c0-.06.03-.09.09-.09,2.17,0,4.26,0,6.25,0,3.69,0,6.47,2.79,5.67,6.52-.31,1.46-1.19,2.59-2.64,3.38-.05.03-.06.06-.02.11l2.99,3.98c.04.05.03.08-.04.08h-2.81c-.06,0-.11-.02-.14-.07l-2.35-3.29s-.07-.06-.12-.05c-.25.02-.51.07-.76.07-1.18,0-2.34,0-3.47,0-.07,0-.1.03-.1.1ZM54.38,87.09v6.24s.04.07.08.07h3.49c1.84,0,3.33-1.42,3.33-3.16v-.09c0-1.74-1.5-3.14-3.34-3.14h-3.5s-.07.04-.07.07h0Z"/>
      <path class="cls-1" d="M79.11,94.9l2.98,3.95c.05.06.03.1-.05.1h-2.79c-.06,0-.11-.02-.15-.07l-2.36-3.29s-.07-.06-.12-.06c-1.4.16-2.86.08-4.24.08-.06,0-.1.03-.1.1v3.15c0,.06-.03.09-.09.09h-2.38c-.06,0-.09-.03-.09-.09v-13.9c0-.06.03-.08.08-.08,3.23-.04,5.49-.04,6.76,0,.77.03,1.6.26,2.5.69,2.13,1.02,3.14,3.31,2.73,5.6-.28,1.58-1.17,2.78-2.67,3.6-.06.04-.08.08-.03.14ZM72.29,87.08v6.26s.03.06.06.06h3.52c1.85,0,3.35-1.42,3.35-3.17h0v-.03c0-1.75-1.5-3.17-3.35-3.17h-3.52s-.06.03-.06.06h0Z"/>
      <path class="cls-1" d="M90.23,92.67v4s.03.06.06.06h8.55s.06.03.06.06h0v2.09s-.03.06-.06.06h-11.11s-.06-.03-.06-.06h0v-13.97s.03-.06.06-.06h10.8s.06.03.06.06h0v2.09s-.03.06-.06.06h-8.25s-.06.03-.06.06h0v3.26s.03.06.06.06h7.77s.06.03.06.06h0v2.05s-.03.06-.06.06h-7.77s-.06.03-.06.06h0Z"/>
      <path class="cls-1" d="M110.86,87.13v11.76s-.03.06-.06.06h-2.44s-.06-.03-.06-.06h0v-11.76s-.03-.06-.06-.06h-4.82s-.06-.03-.06-.06h0v-2.09s.03-.06.06-.06h12.32s.06.03.06.06h0v2.09s-.03.06-.06.06h-4.82s-.06.03-.06.06h0Z"/>
      <path class="cls-1" d="M123.47,92.68v4s.03.06.06.06h8.55s.06.03.06.06v2.09s-.03.06-.06.06h-11.15s-.06-.03-.06-.06v-13.96s.03-.06.06-.06h10.84s.06.03.06.06v2.09s-.03.06-.06.06h-8.24s-.06.03-.06.06v3.26s.03.06.06.06h7.77s.06.03.06.06v2.05s-.03.06-.06.06h-7.77s-.06.03-.06.06Z"/>
      <path class="cls-1" d="M140.29,95.73v3.13s-.04.09-.09.09h-2.38c-.06,0-.09-.03-.09-.09v-13.87c0-.07.06-.13.13-.13h0c1.79.01,3.64.01,5.57,0,1,0,1.81.07,2.44.24,2.28.63,3.89,2.32,4.03,4.72.12,2.19-.8,3.85-2.78,4.98-.03.02-.04.04-.01.07l3,3.97c.05.07.03.1-.05.1h-2.79c-.06,0-.11-.02-.15-.07l-2.34-3.28c-.04-.05-.09-.07-.15-.06-.25.03-.51.08-.76.08-1.18,0-2.33,0-3.45,0-.08,0-.12.04-.12.12ZM140.28,87.09v6.26s.04.06.07.06h3.54c1.84,0,3.33-1.43,3.33-3.19v-.03c0-1.75-1.5-3.17-3.34-3.17h-3.54s-.06.03-.06.07h0Z"/>
      <rect class="cls-1" x="155.67" y="84.86" width="2.56" height="14.08" rx=".05" ry=".05"/>
      <path class="cls-1" d="M174.51,96.52h-7.62s-.04.01-.05.03l-1.08,2.36s-.03.03-.05.03h-2.49s-.06-.03-.06-.06c0,0,0-.02,0-.02l6.29-13.97s.03-.03.05-.03h2.37s.04.01.05.03l6.29,13.97s0,.06-.03.08c0,0-.02,0-.02,0h-2.5s-.04-.01-.05-.03l-1.07-2.36s-.03-.03-.05-.03ZM173.61,94.4l-2.87-6.59c-.03-.07-.06-.07-.09,0l-2.86,6.58s0,.07.03.08c0,0,.02,0,.02,0h5.72s.06-.03.06-.06c0,0,0-.02,0-.02Z"/>
      <rect class="cls-1" x="190.77" y="84.86" width="2.56" height="14.08" rx=".06" ry=".06"/>
      <path class="cls-1" d="M209.45,94.82v-9.87c0-.06.03-.09.09-.09h2.38c.06,0,.09.03.09.09v13.91c0,.06-.03.09-.09.09h-2.46c-.05,0-.09-.02-.12-.06-1.68-2.28-3.34-4.55-4.97-6.81-.67-.92-1.33-1.93-2-3.02-.04-.07-.07-.07-.07.02v9.79c0,.06-.03.09-.09.09h-2.38c-.06,0-.09-.03-.09-.09v-13.91c0-.06.03-.09.09-.09h2.42c.06,0,.1.02.14.07,1.55,2.13,3.11,4.26,4.67,6.4.83,1.14,1.6,2.3,2.31,3.51.05.09.08.08.08-.02Z"/>
      <path class="cls-1" d="M218.49,84.89s.03-.06.06-.06l5.83.02c3.93.01,7.11,3.11,7.1,6.91v.31c-.01,3.8-3.21,6.87-7.14,6.86h0l-5.83-.02s-.06-.03-.06-.06l.05-13.97ZM221.02,87.12l.02,9.55s.03.06.06.06h3c2.6-.01,4.7-2.08,4.69-4.64v-.42c0-2.55-2.11-4.62-4.71-4.61h-3s-.06.03-.06.06h0Z"/>
      <path class="cls-1" d="M243.63,96.77c1.82-.23,2.84-1.58,2.84-3.41v-8.41c0-.06.03-.09.09-.09h2.33c.08,0,.14.06.14.14h0c-.02,2.43-.02,4.91,0,7.45.01,1.27-.06,2.18-.23,2.74-.65,2.2-2.17,3.49-4.56,3.87-1.06.17-2.25.11-3.27-.19-1.9-.55-3.12-1.75-3.67-3.6-.18-.62-.27-1.43-.27-2.42.02-2.82.02-5.44,0-7.86,0-.08.06-.14.14-.14h2.34c.06,0,.09.03.09.08.01,2.43,0,5.04-.01,7.82,0,.95.11,1.68.33,2.19.66,1.5,2.15,2.01,3.69,1.82Z"/>
      <path class="cls-1" d="M277.75,87.13v11.75s-.03.06-.06.06h-2.44s-.06-.03-.06-.06v-11.75s-.03-.06-.06-.06h-4.82s-.06-.03-.06-.06v-2.09s.03-.06.06-.06h12.32s.06.03.06.06v2.09s-.03.06-.06.06h-4.82s-.06.03-.06.06Z"/>
      <path class="cls-1" d="M297.17,94.91l2.96,3.93s.02.07-.01.09c-.01,0-.03.01-.04.01h-2.74c-.08,0-.15-.03-.2-.1l-2.33-3.26s-.1-.07-.15-.06c-.32.06-.64.08-.97.08-1,0-2.07,0-3.22,0-.06,0-.1.03-.1.1v3.15s-.04.09-.09.09h-2.38c-.06,0-.09-.03-.09-.09v-13.9c0-.06.03-.09.09-.09,2.52,0,4.66,0,6.41,0,.7,0,1.42.14,2.16.41,2.26.81,3.59,2.79,3.47,5.18-.09,1.91-1.01,3.34-2.74,4.29-.07.04-.08.09-.03.16ZM290.37,87.09v6.24s.03.07.07.07h3.49c1.84,0,3.33-1.42,3.33-3.16h0v-.06c0-1.75-1.49-3.16-3.33-3.16h-3.49s-.07.03-.07.07h0Z"/>
      <rect class="cls-1" x="305.75" y="84.86" width="2.56" height="14.08" rx=".05" ry=".05"/>
      <path class="cls-1" d="M316.93,96.55l-1.08,2.36s-.03.03-.05.03h-2.51s-.05-.02-.05-.05c0,0,0-.01,0-.02l6.3-13.98s.03-.03.05-.03h2.38s.04.01.05.03l6.3,13.98s0,.06-.03.07c0,0-.01,0-.02,0h-2.5s-.04-.01-.05-.03l-1.08-2.36s-.03-.03-.05-.03h-7.62s-.04.01-.05.03ZM323.65,94.48s.05-.02.05-.05c0,0,0-.01,0-.02l-2.86-6.59s-.04-.04-.07-.03c-.01,0-.02.01-.03.03l-2.87,6.6s0,.06.03.07c0,0,.01,0,.02,0h5.73Z"/>
      <path class="cls-1" d="M335.95,96.73h8.25s.08.04.08.08v2.05s-.04.08-.08.08h-10.81s-.08-.04-.08-.08v-13.93s.04-.08.08-.08h2.4s.08.04.08.08v11.72s.04.08.08.08Z"/>
      <path class="cls-1" d="M375.61,92.68v3.99s.03.07.07.07h8.58s.07.03.07.06h0s0,2.08,0,2.08c0,.04-.03.07-.07.07h-11.13s-.07-.03-.07-.07v-13.95s.03-.07.07-.07h10.83s.07.03.07.07v2.08s-.03.07-.07.07h-8.28s-.07.03-.07.07v3.25s.03.07.07.07h7.8s.07.03.07.07v2.04s-.03.07-.07.07h-7.8s-.07.03-.07.07Z"/>
      <path class="cls-1" d="M412.49,87.13v11.76s-.03.06-.06.06h-2.44s-.06-.03-.06-.06h0v-11.76s-.03-.06-.06-.06h-4.82s-.06-.03-.06-.06h0v-2.09s.03-.06.06-.06h12.32s.06.03.06.06h0v2.09s-.03.06-.06.06h-4.82s-.06.03-.06.06h0Z"/>
      <path class="cls-1" d="M440.74,88.12l-2.91,1.98s-.06.01-.08-.02c0,0,0,0,0,0l-1.09-1.67s-.01-.06.01-.08l4.38-3.46s.02-.01.04-.01h2.11s.06.03.06.06h0v13.97s-.03.06-.06.06h-2.31s-.06-.03-.06-.06h0v-10.72s-.03-.06-.06-.06c-.01,0-.02,0-.03.01Z"/>
      <path class="cls-1" d="M467.83,87.2v2.74c0,.07.03.1.1.08,2.71-.79,6.34.12,6.93,3.27.35,1.86-.14,3.38-1.47,4.56-1.37,1.21-3.48,1.48-5.3,1.23-1.21-.16-2.25-.59-3.14-1.27-.05-.04-.07-.09-.03-.15l.92-1.78s.06-.04.09-.03c0,0,0,0,0,0,1.55,1.05,4.22,1.78,5.74.24.93-.94.94-2.49-.05-3.4-1.01-.92-2.7-1.02-3.93-.63-.41.13-.82.31-1.23.55-.06.03-.11.03-.16-.01l-.81-.71c-.06-.06-.1-.12-.1-.21v-6.71c0-.06.03-.09.09-.09h8.67c.06,0,.09.03.09.09v2.04c0,.06-.03.09-.09.09h-6.2c-.09,0-.13.04-.13.13Z"/>
      <circle class="cls-1" cx="358.3" cy="92.58" r="3.28"/>
      <circle class="cls-1" cx="422.11" cy="97.62" r="1.53"/>
    </g>
  </g>
</svg>