<?xml version="1.0" encoding="UTF-8"?>
<svg id="Capa_2" data-name="Capa 2" xmlns="http://www.w3.org/2000/svg" viewBox="0 0 369.43 133.38">
  <defs>
    <style>
      .cls-1 {
        fill: #fff;
        stroke-width: 0px;
      }
    </style>
  </defs>
  <g id="Capa_1-2" data-name="Capa 1">
    <g>
      <path class="cls-1" d="M66.7,0C29.93,0,0,29.92,0,66.7s29.93,66.68,66.7,66.68,66.68-29.92,66.68-66.68S103.47,0,66.7,0ZM104.27,105.43c0,.11-.08.2-.2.2H29.33c-.11,0-.2-.08-.2-.2v-7.51c0-.11.08-.19.2-.19h74.75c.11,0,.2.08.2.19v7.51h0ZM53.93,85.76v-37.88h8.59v37.88h8.38v-37.88h8.57v37.88h8.57v-37.88h8.56v37.88h3.8v7.7c0,.11-.08.2-.2.2H33.23c-.12,0-.2-.08-.2-.2v-7.7h3.79v-37.88h8.56v37.86h8.57l-.02.02ZM106.78,39.9l-2.38,4.16c-.08.13-.26.25-.41.25H29.44c-.15,0-.33-.11-.41-.25l-2.38-4.16c-.08-.13-.03-.3.1-.38l39.72-21.11c.13-.06.36-.06.47,0l39.7,21.11c.13.07.18.25.11.38h.02Z"/>
      <path class="cls-1" d="M85.93,37.04l-18.7-9.11c-.13-.06-.31-.15-.38-.18-.06-.03-.23,0-.38.05l-18.96,9.24c-.13.07-.12.12.03.12h38.36c.15,0,.17-.05.03-.12Z"/>
      <path class="cls-1" d="M167.84,98.53c.76-.21,1.93-.41,3.56-.62,1.61-.22,3.13-.31,4.57-.31v-52.44c-1.44,0-2.97-.1-4.57-.31-1.61-.21-2.8-.41-3.56-.62v-7.1h29.31c3.15,0,6.13.3,8.95.87,2.82.57,5.28,1.54,7.41,2.87,2.11,1.33,3.79,3.08,4.98,5.23,1.2,2.16,1.8,4.8,1.8,7.95,0,4.31-1.15,7.74-3.43,10.26-2.29,2.53-5.29,4.28-9.05,5.23v.21c2.07.35,4.03.95,5.92,1.8,1.9.85,3.54,1.98,4.95,3.34,1.41,1.38,2.52,3,3.34,4.89.82,1.88,1.23,4.06,1.23,6.54,0,3.44-.66,6.38-1.95,8.8-1.31,2.45-3.11,4.43-5.41,5.97-2.3,1.54-5.07,2.67-8.29,3.39-3.23.72-6.8,1.08-10.72,1.08h-29.05v-7.1.06h0ZM187.38,66.14h8.33c4.52,0,7.82-.89,9.87-2.66,2.07-1.77,3.08-4.39,3.08-7.89,0-6.69-4.21-10.03-12.65-10.03h-8.64v20.57h.01ZM187.38,97.09h9.08c5.1,0,8.85-.89,11.26-2.67s3.62-4.62,3.62-8.54c0-3.71-1.12-6.58-3.36-8.64-2.23-2.05-5.9-3.08-11-3.08h-9.61v22.93h0Z"/>
      <path class="cls-1" d="M227.79,98.48c.75-.22,1.93-.41,3.54-.62,1.61-.22,3.13-.31,4.57-.31v-52.44c-1.44,0-2.97-.1-4.57-.31-1.61-.19-2.79-.41-3.54-.61v-7.1h19.02l29.1,40.82c1.64,2.26,3.15,4.43,4.52,6.47,1.38,2.05,2.23,3.46,2.57,4.21h.2c-.07-.69-.13-1.9-.2-3.65-.06-1.76-.1-3.92-.1-6.52v-33.31c-1.44,0-2.95-.1-4.52-.31-1.57-.19-2.74-.41-3.49-.61v-7.1h25.9v7.1c-.75.2-1.92.41-3.49.61-1.57.22-3.05.31-4.43.31v60.45h-10.08l-30.75-43.08c-.76-1.03-1.49-2.06-2.22-3.13-.72-1.06-1.36-2.05-1.9-2.98-.56-.92-1.03-1.74-1.44-2.41-.41-.69-.69-1.16-.82-1.44h-.21c.15.62.25,1.8.31,3.54.06,1.75.1,3.44.1,5.1v36.41c1.38.06,2.85.18,4.48.36,1.61.17,2.79.36,3.54.56v7.1h-26.11v-7.1h.03Z"/>
      <path class="cls-1" d="M299.21,98.45c.54-.15,1.43-.29,2.62-.47,1.2-.18,2.38-.3,3.54-.36l23.85-60.45h10.59l23.24,60.45c1.23.06,2.47.19,3.7.36,1.23.18,2.13.32,2.67.47v7.18h-24.98v-7.18c.62-.15,1.51-.29,2.67-.47,1.17-.18,2.36-.3,3.59-.36l-3.9-11.12h-26.64l-4.11,11.12c1.23.06,2.43.19,3.59.36,1.16.18,2.07.32,2.67.47v7.18h-23.13v-7.18h.02ZM343.73,78.48l-5.97-16.87c-1.03-2.88-1.87-5.3-2.53-7.25-.64-1.95-1.18-3.62-1.59-4.98h-.21c-.48,1.44-1.06,3.18-1.75,5.2-.69,2.02-1.51,4.38-2.47,7.05l-6.28,16.87h20.77l.03-.02Z"/>
    </g>
  </g>
</svg>