<?xml version="1.0" encoding="UTF-8"?>
<svg id="Capa_2" data-name="Capa 2" xmlns="http://www.w3.org/2000/svg" viewBox="0 0 567.94 105.5">
  <defs>
    <style>
      .cls-1 {
        fill: #fff;
        stroke-width: 0px;
      }
    </style>
  </defs>
  <g id="Capa_1-2" data-name="Capa 1">
    <g>
      <path class="cls-1" d="M53.54,0h23.45l45.35,104.61c.15.33.04.5-.32.5h-28.01c-.36,0-.6-.17-.72-.5l-7.91-20.82c-.1-.25-.28-.38-.54-.38h-46.47c-.31,0-.51.14-.62.43l-7.59,20.93c-.09.23-.25.34-.5.34H.3c-.28,0-.36-.12-.26-.38l16.11-38.9c.12-.29.41-.49.72-.49h60.93c.36,0,.47-.17.34-.5L53.54,0Z"/>
      <path class="cls-1" d="M13.95,33.04c.1-.01.18-.1.17-.2,0-.05-.03-.09-.06-.12l-5.47-4.74c-.22-.19-.24-.39-.06-.62l1.2-1.46c.15-.18.42-.21.6-.06,0,0,0,0,0,0l7.64,6.58c.22.19.48.27.76.25l10.36-.78c.42-.03.51-.22.27-.57l-6.24-9.15c-.18-.26-.43-.42-.75-.48l-9.93-1.87c-.19-.04-.28-.15-.24-.34l.37-2.17c.03-.19.14-.27.32-.23l7.04,1.36c.48.09.58-.06.31-.46l-4.68-6.89c-.1-.16-.08-.29.07-.4l1.84-1.31c.09-.07.23-.05.29.05,0,0,0,0,0,0l4.76,6.96c.27.39.45.36.54-.11l1.3-6.94c.04-.21.24-.34.45-.3l1.97.37c.25.05.35.2.31.45l-1.86,9.81c-.07.37,0,.71.21,1.02l6.41,9.39c.23.34.43.32.6-.06l4.75-10.78c.12-.27.12-.54.02-.82l-3.68-9.5c-.08-.21-.01-.35.19-.42l1.93-.73c.22-.08.37-.01.45.2l2.66,6.86c.04.1.15.15.25.11.05-.02.08-.05.1-.1l3.16-7.19c.66-1.51,1.6-1.71,2.82-.59.16.15.31.29.46.43,1.32,1.21,1.62,2.64.9,4.29l-2.64,6.04c-.13.3-.06.55.2.75,1.62,1.18,2.96,2.58,4.04,4.2.21.31.49.4.84.25,2.05-.87,4.11-1.67,6.18-2.42,4.62-1.67,6.91,4.63,2.81,6.39-2.04.88-4.19,1.74-6.46,2.61-.32.12-.45.35-.41.69.29,1.99.25,3.97-.11,5.96-.06.31.06.53.35.64,2.13.85,4.17,1.73,6.13,2.65,4.46,2.1,1.7,8.25-2.77,6.44-1.93-.78-3.98-1.68-6.15-2.69-.29-.14-.53-.08-.72.19-1.2,1.63-2.65,3.02-4.35,4.17-.24.16-.3.37-.19.63.98,2.33,1.83,4.55,2.53,6.67,1.38,4.15-4.52,6.49-6.35,2.52-1.08-2.33-1.99-4.51-2.73-6.55-.12-.34-.35-.47-.71-.41-1.89.32-3.82.28-5.79-.12-.33-.06-.56.06-.7.37l-2.65,6.11c-.72,1.67-1.99,2.39-3.8,2.16-.3-.04-.55-.07-.75-.09-1.64-.21-2.13-1.06-1.46-2.57l2.94-6.65c.19-.43.07-.55-.37-.36l-6.27,2.78c-.21.09-.35.03-.45-.17l-.82-1.84c-.11-.25-.04-.44.21-.55l9.2-4.05c.29-.12.49-.33.62-.61l4.32-9.84c.15-.33.04-.48-.32-.45l-10.87.8c-.31.02-.6.17-.8.41l-6.56,7.66c-.15.17-.4.19-.57.04,0,0,0,0,0,0l-1.45-1.33c-.17-.15-.18-.41-.03-.58l4.63-5.37c.09-.11.08-.28-.04-.38-.05-.04-.12-.06-.18-.06l-8.51.66c-.12.01-.19-.05-.19-.17l-.19-2.36c-.02-.14.05-.22.19-.23l8.66-.66Z"/>
      <path class="cls-1" d="M324.79,13.33c16.26-1.84,32.41,3.21,38.74,18.93,4.31,10.68,2,22.96-5.93,31.65-5.49,6.01-13.16,9.02-21.3,9.8-9.97.97-20.09-.41-28.08-6.18-17.05-12.29-15.76-37.96,1.36-49.16,4.09-2.68,9.16-4.36,15.22-5.05ZM335.04,23.28c-16.53-2.7-29.34,10.29-24.63,26.6,5.09,17.64,31.55,19,39.6,3.01,2.27-4.49,2.78-9.44,1.54-14.84-1.83-7.97-8.47-13.46-16.52-14.77Z"/>
      <path class="cls-1" d="M405.11,67.67c-.5.47-1.07.52-1.72.16-.23-.13-.32-.41-.21-.64l6.18-13.61c.14-.31.36-.39.67-.25.15.06.29.14.43.21.23.11.35.31.37.58.11,1.89,1.08,3.41,2.89,4.54,7.77,4.88,20.51,7.28,29.18,3.48,2.74-1.2,4.43-3.01,5.06-5.44,1.17-4.5-3.29-5.91-6.7-6.35-5.26-.68-10.55-1.27-15.85-1.77-10.41-.98-20.52-4.98-20.21-17.42.27-10.36,8.77-16.1,18.1-17.59,9.39-1.51,18.73-.34,28.01,3.5,1.92.79,3.82,1.48,5.71,2.08.84.27,1.61.09,2.3-.54.23-.21.48-.26.77-.14l.54.22c.3.12.37.33.23.62l-6.83,13.12c-.12.23-.31.29-.54.18l-.41-.2c-.24-.12-.37-.31-.39-.58-.09-1.23-.69-2.23-1.8-3.01-7.11-4.98-15.38-6.8-24.81-5.45-3.68.52-9.18,3.09-8.6,7.49.31,2.39,1.97,3.83,5,4.3,5.04.79,10.2,1.4,15.48,1.84,10.69.88,22.64,4.57,22.95,17.52.19,8.51-5.57,14.75-13.52,17.22-10.82,3.38-21.88,2.98-33.19-1.2-2.32-.86-4.79-1.9-7.41-3.12-.56-.26-1.23-.16-1.68.27Z"/>
      <path class="cls-1" d="M567.94,41.23v4.86c-2.17,15.64-12.72,25.59-27.93,27.45-12.55,1.53-26.77-.74-35.08-11.34-9.81-12.53-8.5-30.34,3.28-41.05,8.49-7.73,21.82-9.31,33.05-7.59,14.71,2.26,25.06,12.42,26.68,27.67ZM543.11,25.06c-11.93-5.53-28.24-.33-30.9,13.93-2.18,11.75,3.93,21.51,15.44,24.43,3.05.77,6.59.8,10.62.09,19.01-3.34,22.3-30.34,4.84-38.44Z"/>
      <path class="cls-1" d="M177.15,58.24c-1.37,2.74-2.78,5.61-4.24,8.63-1.06,2.2-.49,3.67,1.7,4.41.22.07.41.18.58.33.32.29.38.64.16,1.03-.09.17-.26.27-.45.27-6.36-.01-12.66-.01-18.92,0-.4,0-.64-.18-.71-.56-.08-.43.19-.84.61-.94,1.57-.37,2.74-1.34,3.52-2.91,7.3-14.76,15.14-30.73,23.54-47.9,1.1-2.25.65-3.89-1.36-4.92-.27-.14-.47-.32-.62-.53-.15-.23-.19-.48-.11-.75.08-.27.27-.41.55-.41h20.36c.28,0,.53.17.62.45.08.22.05.44-.06.66-.12.21-.29.37-.52.46-2.13.9-2.65,2.42-1.57,4.57,8.07,15.96,16.1,31.81,24.1,47.54,1.01,1.98,2.5,3.27,4.48,3.88.2.06.35.22.4.41.08.32,0,.57-.22.74-.19.14-.4.21-.63.2-6.91-.02-13.94,0-21.1.02-.26,0-.42-.13-.47-.38-.04-.23-.05-.46,0-.69.04-.21.19-.37.39-.42,2.39-.62,3.08-2.03,2.09-4.25-1.11-2.47-2.6-5.46-4.47-8.96-.15-.28-.38-.41-.69-.41h-26.29c-.31,0-.54.14-.67.42ZM181.46,49.36c-.06.13,0,.29.13.36.04.02.07.03.11.03l18.74.03c.15,0,.27-.12.27-.27,0-.04,0-.08-.03-.11l-9.33-19.93c-.06-.13-.22-.19-.36-.13-.06.03-.11.07-.13.13l-9.41,19.9Z"/>
      <path class="cls-1" d="M250.93,63.22c11.69-.01,23.36-.01,35.03,0,2.23,0,3.9.11,4.65-2.36.09-.3.29-.44.61-.42l.59.04c.25.02.38.15.38.4v14.41c0,.26-.13.39-.4.39h-.72c-.26,0-.48-.18-.54-.43-.36-1.55-1.34-2.33-2.95-2.33-18.24-.01-35.81,0-52.71,0-.24,0-.42-.11-.53-.32-.19-.37-.14-.71.15-1.01.18-.18.39-.31.65-.39,1.3-.37,1.95-1.31,1.96-2.82.03-14.98.05-31.42.04-49.3,0-1.95-.68-3.08-2.04-3.39-.32-.08-.57-.25-.72-.54-.17-.3-.17-.6,0-.9.1-.17.25-.25.44-.25h17.98c.16,0,.3.1.36.24.16.37.12.72-.11,1.03-.12.18-.29.29-.5.34-1.35.32-2.2,1.36-2.2,2.76.04,15.07.04,29.84,0,44.3,0,.37.19.56.56.56Z"/>
      <path class="cls-1" d="M377.41,16.73c-.45-.57-1.03-.96-1.74-1.17-.29-.09-.53-.3-.64-.58-.12-.28-.08-.54.12-.76.12-.15.28-.22.47-.22h17.76c.21,0,.38.08.52.24.18.21.22.44.13.71-.12.35-.37.57-.74.67-1.23.3-2.13,1.3-2.13,2.6-.01,16.85-.01,33.59,0,50.2,0,1.54.74,2.52,2.22,2.95.34.1.57.31.68.65.06.17.05.34-.03.49-.15.29-.39.43-.71.43h-17.7c-.25,0-.48-.15-.58-.38-.09-.21-.09-.41,0-.62.14-.31.37-.52.71-.61,1.26-.34,2.17-1.31,2.17-2.66,0-16.26,0-33.08,0-50.48,0-.52-.17-1.03-.5-1.44Z"/>
      <path class="cls-1" d="M472.19,70.44c.49-.46.76-1.1.76-1.77,0-16.53,0-33.19.02-49.97,0-1.62-.7-2.64-2.1-3.04-.29-.09-.52-.25-.69-.5-.21-.3-.21-.61-.02-.92.1-.17.25-.25.45-.25h17.81c.28,0,.48.13.58.39.12.31.07.59-.14.85-.15.18-.35.31-.58.37-1.41.38-2.12,1.32-2.12,2.8,0,16.57,0,33.31,0,50.24,0,1.4.99,2.36,2.28,2.74.39.11.61.37.67.78.03.22-.04.39-.21.52-.18.14-.38.21-.6.21-5.65,0-11.53,0-17.66,0-.24,0-.46-.14-.57-.36-.24-.51-.08-.88.48-1.1.65-.25,1.19-.59,1.62-1.01Z"/>
      <path class="cls-1" d="M234.71,105.5h-3.44c-4.46-2.14-6.3-5.4-5.52-9.8,1.18-6.64,9.58-9.24,13.33-3.3.12.18.09.34-.09.47l-1.74,1.27c-.15.11-.36.08-.48-.07,0-.01-.02-.03-.03-.04-.56-1.03-1.34-1.66-2.35-1.88-7.34-1.66-7.6,10.63-1.23,10.7,1.57.02,2.8-.68,3.68-2.1.11-.19.36-.25.55-.13,0,0,0,0,0,0l1.72,1.06c.25.16.3.36.15.62-.95,1.59-2.47,2.66-4.54,3.22Z"/>
      <path class="cls-1" d="M249.69,105.5h-3.4c-3.61-1.43-5.53-3.9-5.76-7.39-.27-3.9,1.87-7.75,5.68-8.71,9.75-2.46,13.31,12.82,3.48,16.09ZM248.05,102.86c2.51,0,4.53-2.47,4.53-5.5h0c0-3.03-2.04-5.49-4.55-5.49-2.51,0-4.53,2.47-4.53,5.5h0c0,3.03,2.04,5.49,4.55,5.49Z"/>
      <path class="cls-1" d="M305.07,105.5h-3.53c-4.2-2.01-6.06-5.09-5.57-9.24.23-1.97.92-3.57,2.06-4.8,3.16-3.4,8.9-3.11,11.39,1.02.08.13.05.24-.06.32l-1.9,1.39c-.13.1-.24.08-.32-.06-2.09-3.34-6.49-2.82-7.81.86-.79,2.23-.52,4.26.8,6.08,1.84,2.53,5.42,2.3,7.02-.37.12-.2.28-.24.47-.12l1.9,1.14c.18.11.22.26.11.45-.94,1.63-2.46,2.74-4.56,3.34Z"/>
      <path class="cls-1" d="M326.41,105.5h-3.35c-2.5-.84-4.23-2.47-5.16-4.89-1.84-4.78.63-10.81,6.03-11.4,9.44-1.02,11.74,13.37,2.48,16.3ZM324.78,102.86c2.51,0,4.54-2.46,4.54-5.49h0c0-3.03-2.03-5.49-4.54-5.49h0c-2.51,0-4.54,2.46-4.54,5.49h0c0,3.03,2.03,5.49,4.54,5.49h0Z"/>
      <path class="cls-1" d="M390.32,105.5h-3.42c-3.7-1.48-5.62-4.03-5.76-7.64-.27-6.97,7.52-12.05,12.77-6.36,4.22,4.58,2.56,11.95-3.59,14.01ZM388.68,102.86c2.51,0,4.54-2.47,4.53-5.5h0c-.01-3.03-2.05-5.48-4.56-5.47h0c-2.51,0-4.54,2.47-4.53,5.5h0c.01,3.03,2.05,5.48,4.56,5.47h0Z"/>
      <path class="cls-1" d="M426.62,105.5h-3.42c-4.58-1.97-6.44-5.35-5.6-10.15,1.12-6.36,9.92-8.69,13.41-2.86.07.11.04.26-.06.33l-1.8,1.29c-.17.12-.32.1-.45-.07-1.44-2.02-3.21-2.61-5.32-1.76-3.31,1.34-3.6,6.14-1.7,8.78,1.83,2.55,5.47,2.33,7.05-.38.11-.19.27-.23.46-.11l1.89,1.16c.21.12.24.29.11.5-1.07,1.67-2.6,2.76-4.59,3.28Z"/>
      <path class="cls-1" d="M507.37,105.5h-3.43c-4.93-2.2-6.73-5.85-5.39-10.97.41-1.53,1.44-2.89,3.1-4.1,3.3-2.4,7.95-1.45,10.14,2.05.08.12.06.22-.06.29l-1.99,1.43c-.09.06-.16.05-.23-.04-3.15-4.61-8.3-1.65-8.25,3.26.05,4.79,5.04,7.71,8.35,3.21.09-.12.26-.15.39-.07l1.86,1.19c.17.11.21.25.1.43-.95,1.61-2.48,2.72-4.59,3.32Z"/>
      <path class="cls-1" d="M522.36,105.5h-3.51c-9.15-3.47-6.74-17.88,3.33-16.21,1.91.32,3.39,1.36,4.43,3.12.11.19.08.35-.11.48l-1.78,1.27c-.15.11-.28.09-.38-.08-2.35-3.85-7.14-2.32-8.03,1.85-.44,2.07-.02,3.87,1.25,5.4,1.9,2.27,5.27,1.95,6.78-.57.15-.24.34-.29.58-.15l1.75,1.06c.27.16.31.37.15.62-1,1.55-2.48,2.62-4.46,3.21Z"/>
      <path class="cls-1" d="M543.68,105.5h-3.38c-3.39-1.29-5.3-3.58-5.72-6.85-.48-3.76,1.25-7.48,4.73-8.94,9.7-4.03,15.01,12.19,4.37,15.78ZM542.05,102.86c2.51,0,4.54-2.47,4.53-5.5-.01-3.03-2.05-5.48-4.56-5.47h0c-2.51,0-4.54,2.47-4.53,5.5h0c.01,3.03,2.05,5.48,4.56,5.47h0Z"/>
      <path class="cls-1" d="M171.78,105.5h-3.13l-1.27-3.58c-.11-.32-.34-.48-.67-.48h-4.51c-.23,0-.43.14-.5.36l-1.27,3.7h-3.07l5.73-15.78c.11-.31.34-.47.67-.47h1.66c.33,0,.55.15.67.46l5.71,15.79ZM166.61,98.87l-1.82-5.34c-.15-.45-.31-.45-.47,0l-1.84,5.23c-.11.31,0,.46.32.46h3.55c.25,0,.33-.12.25-.36Z"/>
      <path class="cls-1" d="M176.57,105.5h-3.03l.02-16.04c0-.11.09-.2.19-.2h2.61c.12,0,.22.1.22.22v16.03Z"/>
      <path class="cls-1" d="M192.34,105.5h-3.36l-2.86-5c-.18-.31-.46-.47-.82-.47h-1.83c-.39,0-.58.2-.58.58l-.06,4.89h-2.95v-15.78c0-.32.16-.49.49-.5,2.6-.01,4.84.02,6.74.08,1.37.05,2.49.68,3.35,1.89,1.58,2.2,1.63,4.47.16,6.79-.37.58-.89.71-1.32,1.12-.21.2-.26.52-.12.78l3.17,5.61ZM182.88,92.43l-.02,4.37c0,.26.21.47.47.48l2.95.02c1.28,0,2.32-1.06,2.33-2.39v-.52c0-1.33-1.02-2.41-2.3-2.42h0l-2.95-.02c-.26,0-.48.21-.49.47,0,0,0,0,0,0Z"/>
      <path class="cls-1" d="M205.17,105.5h-10.71v-15.74c0-.34.18-.5.52-.5h9.75c.2,0,.37.16.37.37,0,0,0,0,0,0l-.03,2.03c0,.22-.12.32-.33.32l-6.87-.02c-.25,0-.37.12-.37.37v3.21c0,.26.13.39.39.39h5.91c.16,0,.24.08.24.24v2.01c0,.18-.09.27-.27.27h-5.9c-.2,0-.37.16-.37.36,0,0,0,0,0,0v3.56c0,.22.12.32.33.32h6.98c.27,0,.41.13.41.4l-.02,2.39Z"/>
      <path class="cls-1" d="M225.23,105.5h-3.08l-1.27-3.6c-.11-.31-.33-.46-.66-.46h-4.48c-.31,0-.52.15-.63.45l-1.28,3.61h-3.06l5.78-15.82c.1-.29.31-.43.61-.43h1.69c.31,0,.58.19.69.48l5.7,15.77ZM217.72,93.73l-1.74,4.92c-.14.38,0,.57.41.57h3.17c.42,0,.56-.2.42-.59l-1.64-4.89c-.2-.6-.41-.6-.62,0Z"/>
      <path class="cls-1" d="M271.43,105.5h-2.42l-7.38-9.62c-.44-.58-.66-.5-.66.23l.02,9.39h-3.05v-15.73c0-.35.18-.52.54-.52h1.36c.33,0,.6.12.8.39l7.23,9.54c.39.51.58.45.58-.19v-9.51c0-.15.07-.22.22-.22h2.46c.21,0,.32.11.32.32l-.02,15.92Z"/>
      <path class="cls-1" d="M281.65,105.5h-6.87v-15.79c0-.34.18-.5.51-.49,2.65.12,5.79-.38,8.22.58,2.68,1.07,4.16,3.25,4.43,6.56.42,5.01-1.68,8.06-6.29,9.14ZM277.77,92.41l.02,9.88c0,.25.2.45.45.45h2.25c2.5-.01,4.52-2.19,4.52-4.88h0v-1.06c0-2.68-2.04-4.86-4.54-4.85h-2.25c-.25,0-.45.21-.45.45Z"/>
      <path class="cls-1" d="M293.5,105.5h-3.04l.02-16.06c0-.11.06-.17.17-.17l2.61-.02c.17,0,.26.09.26.26v16Z"/>
      <path class="cls-1" d="M314.85,105.5h-2.99v-16.03c0-.13.11-.23.24-.23h2.6c.12,0,.18.07.18.19l-.02,16.07Z"/>
      <path class="cls-1" d="M348.19,105.5h-2.45l-7.6-9.93c-.08-.1-.22-.12-.32-.04-.06.04-.09.11-.09.18v9.79h-2.96l.02-15.8c0-.3.15-.45.45-.45h1.36c.33,0,.6.14.8.4l7.34,9.67c.3.4.45.35.45-.15v-9.7c0-.14.06-.2.19-.2h2.62c.11,0,.2.09.2.2l-.02,16.04Z"/>
      <path class="cls-1" d="M364.48,105.5h-3.1l-1.26-3.58c-.11-.32-.34-.48-.67-.48h-4.51c-.27,0-.45.12-.54.38l-1.32,3.68h-3.07l5.76-15.76c.12-.32.35-.49.7-.49h1.68c.28,0,.47.12.57.39l5.77,15.86ZM355.16,98.86c-.05.14.03.3.17.35.03,0,.06.01.09.01h3.63c.15,0,.28-.12.27-.28,0-.03,0-.06-.01-.09l-1.8-5.3c-.05-.14-.21-.22-.35-.17-.08.03-.14.09-.17.17l-1.83,5.3Z"/>
      <path class="cls-1" d="M373.12,105.5h-6.84l.02-15.78c0-.36.18-.53.54-.51,2.83.15,6.13-.44,8.69.82,2.48,1.22,3.81,3.44,3.98,6.64.27,4.87-1.86,7.82-6.39,8.84ZM369.3,92.27l.02,10.16c0,.17.14.31.31.31h2.36c2.51-.01,4.55-2.22,4.54-4.95h0v-.91c0-2.72-2.05-4.93-4.56-4.93h-2.36c-.17,0-.31.15-.31.32Z"/>
      <path class="cls-1" d="M446.19,105.5h-3.12l-1.26-3.6c-.11-.31-.33-.46-.66-.46h-4.49c-.32,0-.53.15-.63.45l-1.24,3.61h-3.08l5.77-15.8c.11-.3.32-.45.64-.45h1.64c.34,0,.57.16.68.49l5.75,15.77ZM438.83,93.18l-1.94,5.58c-.11.31,0,.46.33.46h3.38c.35,0,.47-.16.36-.49l-1.88-5.55c-.02-.07-.1-.1-.17-.08-.04.01-.06.04-.08.08Z"/>
      <path class="cls-1" d="M458.78,105.5h-10.82v-15.99c0-.17.09-.26.26-.26h2.5c.19,0,.28.09.28.28l-.02,12.72c0,.31.15.46.46.46h6.91c.25,0,.41.13.47.37.21.82.19,1.63-.05,2.43Z"/>
      <path class="cls-1" d="M471.52,105.5h-10.71l.02-15.83c0-.28.14-.42.43-.42h9.71c.29,0,.43.14.43.42v1.96c0,.19-.16.35-.36.35l-6.91-.02c-.19,0-.29.1-.29.29v3.48c0,.14.07.2.2.2h6.1c.14,0,.21.07.21.22v2.06c.01.16-.06.24-.23.24h-6.01c-.19,0-.28.1-.28.29v3.73c0,.16.08.24.24.24h6.97c.33,0,.49.16.49.5l-.02,2.29Z"/>
      <path class="cls-1" d="M477.03,105.5h-3.02v-15.83c0-.28.15-.42.43-.42h9.7c.17,0,.31.14.31.31h0v2.13c0,.19-.09.29-.28.28h-6.74c-.25,0-.38.12-.38.37v3.42c0,.28.14.42.42.41h5.29c.29,0,.43.13.43.41v1.76c0,.28-.14.41-.41.41h-5.3c-.27,0-.41.15-.41.42l-.02,6.31Z"/>
      <path class="cls-1" d="M497.88,105.5h-3.06l-1.31-3.61c-.11-.3-.32-.45-.64-.45h-4.46c-.32,0-.54.15-.66.45l-1.32,3.6h-3.03l5.77-15.8c.1-.27.35-.45.64-.45h1.66c.34,0,.57.15.69.47l5.71,15.78ZM488.56,98.86c-.05.14.03.3.17.35.03,0,.06.01.09.01l3.62.02c.15,0,.27-.13.27-.28,0-.03,0-.05-.01-.08l-1.79-5.34c-.05-.14-.21-.22-.35-.17-.08.03-.14.09-.17.17l-1.83,5.32Z"/>
      <path class="cls-1" d="M532.1,105.5h-3.05l.03-15.97c0-.18.1-.27.28-.27h2.49c.17,0,.26.08.26.24v16Z"/>
      <path class="cls-1" d="M565.46,105.5h-2.44l-7.58-9.91c-.08-.11-.23-.13-.34-.05-.06.05-.1.12-.1.19l-.03,9.76h-2.96v-15.74c0-.35.17-.52.51-.52h1.29c.35,0,.64.14.85.42l7.38,9.72c.28.37.42.32.42-.14l-.02-9.77c0-.15.07-.22.22-.22h2.64c.11,0,.17.06.17.17v16.07Z"/>
      <rect class="cls-1" x="403.55" y="97.82" width="6.62" height="2.79" rx=".3" ry=".3"/>
    </g>
  </g>
</svg>